<svg width="358" height="246" viewBox="0 0 358 246" fill="none" xmlns="http://www.w3.org/2000/svg">
<path d="M325.78 0H32.22C14.4274 0 0 14.4617 0 32.3034L8.055 212.957C8.055 230.799 22.4824 245.26 40.275 245.26H317.725C335.518 245.26 349.945 230.799 349.945 212.957L358 32.3034C358 14.4656 343.577 0 325.78 0ZM328.791 202.411V202.574C328.791 214.371 318.93 223.971 306.81 223.971H51.19C39.0697 223.971 29.2088 214.375 29.2088 202.574V202.411L21.8818 42.5389C21.9653 30.8099 31.7944 21.2933 43.863 21.2933H314.133C326.202 21.2933 336.031 30.8099 336.114 42.5389L328.791 202.411Z" fill="#2B2A25"/>
<path d="M322.777 3.50586H35.2233C17.8444 3.50586 3.75513 17.5505 3.75513 34.8758L11.6232 210.386C11.6232 227.711 25.7125 241.756 43.0914 241.756H314.905C332.284 241.756 346.373 227.711 346.373 210.386L354.241 34.8758C354.245 17.5505 340.156 3.50586 322.777 3.50586ZM332.375 205.393V205.56C332.375 217.809 322.248 227.771 309.797 227.771H48.2028C35.7524 227.771 25.625 217.805 25.625 205.56V205.393L18.099 39.5428C18.1865 27.369 28.2821 17.4869 40.6769 17.4869H317.323C329.722 17.4869 339.818 27.365 339.901 39.5428L332.375 205.393Z" fill="#2B2A25"/>
</svg>
