<svg width="67" height="72" viewBox="0 0 67 72" fill="none" xmlns="http://www.w3.org/2000/svg">
<path d="M26.769 26.1398L31.2089 28.7338L32.3487 26.9886L27.7477 24.2996L26.769 26.1398Z" fill="url(#paint0_linear_11_4756)"/>
<path opacity="0.41" d="M31.5729 27.5704C31.361 27.6551 31.1323 27.69 30.9046 27.6725C30.6769 27.655 30.4563 27.5855 30.26 27.4695C29.7707 27.232 29.3231 26.9174 28.8397 26.6622C28.3969 26.4708 27.9926 26.2013 27.6462 25.8667C27.4453 25.6477 27.3254 25.3672 27.3061 25.0713L26.7391 26.1398L31.2089 28.7339L32.3487 26.9887L31.8951 26.7215C31.9514 26.878 31.9499 27.0494 31.8909 27.2049C31.8318 27.3604 31.7191 27.4899 31.5729 27.5704Z" fill="#924F21"/>
<path d="M27.5865 25.3682L29.9139 26.7394L31.5371 27.1847L27.7894 25.0061L27.5865 25.3682Z" fill="url(#paint1_linear_11_4756)"/>
<path d="M48.497 36.3202L43.89 33.6311L42.9173 35.4713L47.3572 38.0654L48.497 36.3202Z" fill="url(#paint2_linear_11_4756)"/>
<path opacity="0.41" d="M47.7212 36.908C47.509 36.9923 47.28 37.0265 47.0522 37.0079C46.8244 36.9894 46.604 36.9186 46.4084 36.8012C45.919 36.5697 45.4714 36.2491 44.9881 35.9998C44.5454 35.8055 44.1413 35.5341 43.7945 35.1984C43.5949 34.9809 43.475 34.7027 43.4544 34.4089L42.8875 35.4715L47.3274 38.0656L48.5149 36.3204L48.0614 36.0592C48.115 36.2178 48.1102 36.3902 48.0479 36.5457C47.9856 36.7011 47.8698 36.8296 47.7212 36.908Z" fill="#924F21"/>
<path d="M43.9378 34.3376L43.7349 34.6997L46.0622 36.071L47.6854 36.5162L43.9378 34.3376Z" fill="url(#paint3_linear_11_4756)"/>
<path d="M26.8346 26.1635L31.2924 28.7338L32.4263 26.9827L27.8073 24.3174L26.8346 26.1635Z" fill="url(#paint4_linear_11_4756)"/>
<path opacity="0.41" d="M31.6505 27.5705C31.4391 27.6565 31.2106 27.6927 30.9828 27.6762C30.7551 27.6597 30.5342 27.591 30.3376 27.4755C29.8423 27.244 29.4007 26.9294 28.9113 26.6801C28.4804 26.4835 28.0867 26.2144 27.7477 25.8847C27.5518 25.6729 27.4285 25.4048 27.3956 25.1189L26.8346 26.1874L31.2924 28.7577L32.4263 26.9769L31.9668 26.7098C32.0255 26.8672 32.0259 27.0403 31.968 27.1981C31.91 27.3558 31.7974 27.4879 31.6505 27.5705Z" fill="#924F21"/>
<path d="M27.6522 25.386L29.9915 26.7454L31.6087 27.1787L27.8551 25.0239L27.6522 25.386Z" fill="url(#paint5_linear_11_4756)"/>
<path d="M48.6223 36.2194L44.0034 33.5601L43.0367 35.4062L47.4945 37.9706L48.6223 36.2194Z" fill="url(#paint6_linear_11_4756)"/>
<path opacity="0.41" d="M47.8525 36.813C47.6409 36.8977 47.4126 36.9331 47.185 36.9167C46.9575 36.9002 46.7368 36.8323 46.5396 36.718C46.0443 36.4806 45.5968 36.166 45.1134 35.9167C44.6712 35.7268 44.2669 35.4594 43.9199 35.1272C43.7189 34.91 43.597 34.6319 43.5737 34.3376L43.0128 35.4061L47.4706 37.9705L48.5985 36.1897L48.1449 35.9285C48.211 36.0863 48.2178 36.2625 48.1641 36.4249C48.1104 36.5872 47.9998 36.725 47.8525 36.813Z" fill="#924F21"/>
<path d="M44.0571 34.2664L43.8542 34.6285L46.1876 35.9878L47.8107 36.4212L44.0571 34.2664Z" fill="url(#paint7_linear_11_4756)"/>
<path d="M50.3649 11.9586C50.5737 12.0951 50.7886 12.2257 51.0094 12.3444L51.3436 12.5047C51.5104 12.3288 51.6493 12.1287 51.7553 11.9111C53.0801 8.94303 52.734 7.30466 51.0512 6.0284C50.0426 5.26264 48.2702 4.36035 46.7843 4.56812C45.0298 4.80556 44.3615 6.55078 43.8005 7.97544V8.00513C44.2763 8.36054 44.7768 8.6819 45.2984 8.96678C45.2984 8.96678 45.8593 6.34895 47.1483 6.25397C48.2583 6.1768 50.6752 7.13252 50.7826 8.69965C50.8542 9.76815 50.1858 10.9316 49.9173 11.5905L50.0367 11.6855C50.0367 11.6855 50.2813 11.8873 50.1859 11.822L50.3649 11.9586Z" fill="url(#paint8_linear_11_4756)"/>
<path opacity="0.5" d="M50.3649 11.9586C50.5737 12.0951 50.7886 12.2257 51.0094 12.3444L51.3436 12.5047C51.5104 12.3288 51.6493 12.1287 51.7553 11.9111C53.0801 8.94303 52.734 7.30466 51.0512 6.0284C50.0426 5.26264 48.2702 4.36035 46.7843 4.56812C45.0298 4.80556 44.3615 6.55078 43.8005 7.97544V8.00513C43.934 8.1182 44.0756 8.22137 44.2242 8.3138C44.2242 8.27819 44.2242 8.24257 44.2242 8.20695C44.2672 7.84063 44.3513 7.48024 44.4749 7.13252C44.5632 6.63785 44.7897 6.1779 45.1285 5.80524C45.4672 5.43259 45.9045 5.16227 46.3905 5.0252C46.5832 4.95844 46.7838 4.91654 46.9872 4.90054C47.2384 4.88342 47.4907 4.89537 47.7391 4.93616C48.6215 5.05801 49.4589 5.39894 50.1739 5.92749C50.8361 6.33124 51.357 6.92821 51.6658 7.63709C52.2148 9.20422 51.8269 11.3175 49.8755 11.5668L49.9949 11.6618C49.9949 11.6618 50.2396 11.8636 50.1441 11.7983L50.3649 11.9586Z" fill="#F49B1E"/>
<path opacity="0.5" d="M50.8124 7.44101C50.1705 6.67239 49.2987 6.12756 48.324 5.88575C46.0622 5.36337 46.3487 6.81772 44.9582 7.23324C44.8243 7.27772 44.6788 7.27349 44.5477 7.22132C44.4166 7.16915 44.3083 7.07241 44.2421 6.94831C44.087 7.29854 43.9497 7.66064 43.8184 7.999V8.02868C44.2942 8.3841 44.7947 8.70546 45.3163 8.99033C45.3163 8.99033 45.8772 6.37251 47.1662 6.27753C48.2762 6.20036 50.6931 7.15607 50.8005 8.72321C50.8721 9.79171 50.2037 10.9552 49.9352 11.6141L50.0546 11.7091C50.0546 11.7091 50.2992 11.9109 50.2038 11.8456L50.3649 11.9584C50.5737 12.0949 50.7886 12.2255 51.0094 12.3442L51.3436 12.5045C51.5104 12.3286 51.6493 12.1285 51.7553 11.9109C51.9045 11.5844 52.0298 11.2698 52.1313 10.973C52.0706 10.9894 52.0088 11.0013 51.9463 11.0086C51.2899 11.0442 50.9258 10.694 50.9497 10.1063C50.9736 9.43554 51.4987 8.53325 50.8124 7.44101Z" fill="#F49B1E"/>
<path d="M52.2029 12.4453L43.3768 7.32837L42.9233 8.21879L51.7494 13.312L52.2029 12.4453Z" fill="#5F270F"/>
<path d="M64.9676 33.0139C66.6445 28.265 66.37 23.9435 64.4962 21.2901C63.8627 20.5365 63.1207 19.8804 62.2941 19.343L53.6411 39.7157C56.9591 41.1463 62.324 40.4518 64.9676 33.0139Z" fill="url(#paint9_linear_11_4756)"/>
<path d="M62.2941 19.343L53.6411 39.7157C54.5275 40.089 55.4775 40.2905 56.4399 40.3094L64.4962 21.3138C63.9113 20.4649 62.7536 20.3165 62.2941 19.343Z" fill="#92571B"/>
<path d="M21.6428 21.2782L53.6888 39.7454L62.324 19.3608L30.2839 0.893555L21.6428 21.2782Z" fill="url(#paint10_linear_11_4756)"/>
<path d="M21.6428 21.2781L53.6888 39.7453L51.7553 34.2129L26.2856 19.7466L21.6428 21.2781Z" fill="url(#paint11_linear_11_4756)"/>
<path d="M52.2685 37.3295C52.746 38.1011 53.2413 38.8491 53.653 39.6386L51.7553 34.213L50.6871 33.6194C51.1174 34.8947 51.6461 36.1351 52.2685 37.3295Z" fill="white"/>
<g opacity="0.48">
<path d="M51.2481 33.9281L26.2856 19.7764L21.6607 21.2782L30.3853 26.3061C37.5524 28.3303 44.63 30.6157 51.2481 33.9281Z" fill="#FDFAE2"/>
</g>
<g opacity="0.75">
<path d="M29.6633 21.664L26.2856 19.7764L21.6607 21.2782L22.3589 21.6819C22.717 21.6997 27.7417 21.7293 29.6633 21.664Z" fill="#FDFAE2"/>
</g>
<g opacity="0.75">
<path d="M27.0136 20.1621L26.2856 19.7466L21.6428 21.2781L27.0136 20.1621Z" fill="white"/>
</g>
<path d="M57.4902 21.2782L51.7553 34.213L53.6888 39.7454L62.324 19.3608L57.4902 21.2782Z" fill="url(#paint12_linear_11_4756)"/>
<g opacity="0.45">
<path d="M61.1782 19.812L57.4663 21.2782L51.7553 34.213L52.9847 37.7391C54.0111 31.055 56.2728 24.6618 61.1782 19.812Z" fill="white"/>
</g>
<path d="M21.6428 21.2782L26.2856 19.7466L32.0324 6.48537L30.2839 0.893555L21.6428 21.2782Z" fill="url(#paint13_linear_11_4756)"/>
<g opacity="0.64">
<path d="M26.029 10.9314L22.341 19.6278C24.0581 18.0933 25.9677 16.7864 28.0222 15.7397L30.8627 9.20996C29.2119 9.66712 27.5964 10.2424 26.029 10.9314Z" fill="#FFF7D4"/>
</g>
<path d="M32.0324 6.48537L57.4902 21.2782L62.324 19.3608L30.2839 0.893555L32.0324 6.48537Z" fill="url(#paint14_linear_11_4756)"/>
<path d="M30.2839 0.893555L32.0324 6.48537L32.665 6.85341C32.3069 5.21504 30.2839 0.893555 30.2839 0.893555Z" fill="white"/>
<path d="M56.8696 20.91L57.5081 21.278L62.3419 19.3607L61.9778 19.147C60.9156 19.4438 57.52 20.6132 56.8696 20.91Z" fill="white"/>
<g opacity="0.64">
<path d="M48.8968 11.6202C44.5345 10.5042 40.0529 8.88361 35.601 8.55713L47.2199 15.3124C49.6041 14.7996 52.0511 14.6376 54.4825 14.8316L48.8968 11.6202Z" fill="#FFF7D4"/>
</g>
<path d="M51.7553 34.2129L57.4902 21.2781L32.0324 6.48535L26.2856 19.7466L51.7553 34.2129Z" fill="#DA844B"/>
<path d="M54.7869 27.3744C53.0328 26.5591 51.2017 25.9189 49.3205 25.463C46.2771 24.8041 42.6428 24.2758 39.5874 25.1603C38.7758 25.3918 37.9761 25.6708 37.2003 25.932L51.7792 34.2425L54.7869 27.3744Z" fill="#E78E53"/>
<g opacity="0.25">
<path d="M32.0324 23.0115C33.8227 18.1439 37.7076 16.4461 43.4663 17.5443C47.4049 18.2982 52.8355 21.8243 56.3922 23.7535L57.4663 21.2781L32.0324 6.48535L26.2856 19.7763L32.0324 23.0115Z" fill="#6A3512"/>
</g>
<g opacity="0.25">
<path d="M30.5226 10.0351C33.0469 10.2904 35.4936 11.3826 37.7494 12.4571C40.7809 13.9055 43.7945 15.4251 46.7008 17.0516C49.2788 18.506 51.8329 20.0494 54.2737 21.7471C55.0693 22.1943 55.865 22.6612 56.6607 23.148L57.4663 21.2781L32.0324 6.48535L30.4987 10.047L30.5226 10.0351Z" fill="#572B11"/>
</g>
<path opacity="0.41" d="M34.2643 17.0102C34.864 15.6057 35.0344 14.0567 34.7542 12.5564C34.474 11.0562 33.7556 9.67141 32.6888 8.57495L27.6283 20.5006C28.9714 20.808 30.3809 20.6246 31.5993 19.9837C32.8176 19.3429 33.7636 18.2874 34.2643 17.0102Z" fill="#572B11"/>
<path opacity="0.41" d="M27.7238 20.5184C28.5652 18.8029 30.5465 14.707 31.6564 13.1517C32.5814 11.8517 33.6377 11.0859 34.7954 12.9202C34.5876 11.2822 33.848 9.75653 32.6888 8.57495L27.6283 20.5006C27.6595 20.5095 27.6915 20.5155 27.7238 20.5184Z" fill="#572B11"/>
<path d="M62.324 19.3608L53.6888 39.7454L56.058 40.5527L64.3828 20.9042L62.324 19.3608Z" fill="url(#paint15_linear_11_4756)"/>
<path d="M52.3222 12.2611L43.4783 7.13232L43.0188 8.02868L51.8627 13.1278L52.3222 12.2611Z" fill="url(#paint16_linear_11_4756)"/>
<path d="M56.8278 22.774L57.4902 21.2781L32.0324 6.48535L32.665 8.5808L56.8278 22.774Z" fill="url(#paint17_linear_11_4756)"/>
<path d="M27.6223 20.5005L32.665 8.5808L32.0324 6.48535L26.2856 19.7466L27.6223 20.5005Z" fill="url(#paint18_linear_11_4756)"/>
<path d="M46.1279 5.83234C46.9275 5.23873 48.3299 5.55335 48.8133 5.77298C49.2967 5.99262 50.4007 6.71683 50.5439 6.52093C50.6871 6.32504 48.8968 5.2328 47.9003 5.09627C47.0648 4.98348 45.7459 4.98348 45.179 6.12915C44.7673 6.91272 45.4118 6.36659 46.1279 5.83234Z" fill="#FFF7D4"/>
<path d="M63.3922 25.291L58.6897 36.6824C58.6897 36.6824 61.1782 36.445 62.867 32.1353C64.5558 27.8257 63.3922 25.291 63.3922 25.291Z" fill="url(#paint19_linear_11_4756)"/>
<path d="M61.9122 34.0229C62.2779 33.419 62.5875 32.7832 62.8372 32.1234C64.4962 27.8316 63.3922 25.2791 63.3922 25.2791L62.6462 27.0896C63.1893 27.4457 63.0639 28.9416 63.0401 29.369C62.8918 30.9663 62.5119 32.5339 61.9122 34.0229Z" fill="#7B4415"/>
<path d="M63.3265 25.4751L58.5524 36.8368C58.5524 36.8368 61.0409 36.6172 62.7298 32.3135C64.4186 28.0098 63.3265 25.4751 63.3265 25.4751Z" fill="url(#paint20_linear_11_4756)"/>
<path d="M61.7928 34.2071C62.1638 33.6054 62.4794 32.9717 62.7357 32.3135C64.4126 28.0336 63.3325 25.4751 63.3325 25.4751L62.5806 27.2559C63.1176 27.6121 62.9864 29.1139 62.9565 29.5413C62.8005 31.1449 62.4084 32.717 61.7928 34.2071Z" fill="#7B4415"/>
<path d="M63.3743 25.291L58.6599 36.6824C58.6599 36.6824 61.1424 36.445 62.8372 32.1353C64.532 27.8257 63.3743 25.291 63.3743 25.291Z" fill="url(#paint21_linear_11_4756)"/>
<path d="M61.8883 34.0229C62.2597 33.4212 62.5715 32.785 62.8193 32.1234C64.4783 27.8316 63.3743 25.2791 63.3743 25.2791L62.6283 27.0896C63.1714 27.4398 63.046 28.9416 63.0222 29.369C62.871 30.9665 62.4892 32.5339 61.8883 34.0229Z" fill="#7B4415"/>
<path d="M21.2967 26.9947L46.1577 40.9683L53.0026 41.1346L21.1415 22.7742L21.2967 26.9947Z" fill="url(#paint22_linear_11_4756)"/>
<path d="M46.1577 40.9682L53.0026 41.1344L46.9275 40.2856L21.2967 26.9946L46.1577 40.9682Z" fill="#F8B019"/>
<path d="M8.0844 34.6405L21.2967 26.9947L21.1415 22.7742L0.690536 34.6405H8.0844Z" fill="url(#paint23_linear_11_4756)"/>
<path d="M0.690536 34.6403H8.0844L21.2967 26.9946L7.53538 33.9339L2.53453 34.0645L5.31543 31.9572L0.690536 34.6403Z" fill="#ECA408"/>
<path d="M8.0844 34.6403L32.5456 48.6792L46.1577 40.9682L21.2967 26.9946L8.0844 34.6403Z" fill="#B86A42"/>
<path d="M21.0938 39.6445L21.2967 26.9946L8.0844 34.6403L18.9574 40.8792L21.0938 39.6445Z" fill="#9F6336"/>
<path d="M21.0997 39.6445L34.682 47.4742L46.1577 40.9682L21.2967 26.9946L21.0997 39.6445Z" fill="#DA844B"/>
<path opacity="0.41" d="M22.341 42.8203L24.3879 41.55C24.3879 41.55 21.3504 28.4608 21.2967 26.9946L8.0844 34.6166L22.341 42.8203Z" fill="#572B11"/>
<path d="M21.2251 30.5623L33.9062 38.3921L42.2847 43.1706L42.8338 42.856L32.8679 37.0267L21.2489 30.0281L21.2251 30.5623Z" fill="#92571B"/>
<path d="M21.1714 35.0618L38.5431 45.2838L39.3308 44.8386L21.1714 34.6404V35.0618Z" fill="#92571B"/>
<path d="M21.2251 30.5623L21.2489 30.0281L10.7818 36.1898L11.2234 36.4391L21.2251 30.5623Z" fill="#5F270F"/>
<path d="M21.1714 35.0618V34.6404L14.6905 38.4276L15.1441 38.6532L21.1714 35.0618Z" fill="#5F270F"/>
<path d="M45.9966 64.4395L47.3274 63.5728L47.7391 60.9609L45.9966 61.5427V64.4395Z" fill="#522911"/>
<path d="M44.3495 63.5729L45.9966 64.4395V61.5427L44.1466 62.077L44.3495 63.5729Z" fill="#6F330E"/>
<path d="M34.8073 71.0406L36.1321 70.1739L36.5439 67.562L34.8073 68.1438V71.0406Z" fill="#522911"/>
<path d="M33.1543 70.1739L34.8073 71.0406V68.1438L32.9454 68.684L33.1543 70.1739Z" fill="#6F330E"/>
<path d="M45.919 64.4395L47.2498 63.5728L47.6615 60.9609L45.919 61.5427V64.4395Z" fill="#522911"/>
<path d="M44.272 63.5729L45.919 64.4395V61.5427L44.0691 62.077L44.272 63.5729Z" fill="#6F330E"/>
<path d="M34.7238 71.0406L36.0546 70.1739L36.4663 67.562L34.7238 68.1438V71.0406Z" fill="#522911"/>
<path d="M33.0767 70.1739L34.7238 71.0406V68.1438L32.8679 68.684L33.0767 70.1739Z" fill="#6F330E"/>
<path d="M0.690536 34.6404L32.5456 53.0008V48.6793L8.0844 34.6404H0.690536Z" fill="url(#paint24_linear_11_4756)"/>
<path d="M9.36743 35.3765L8.0844 34.6167H0.690536L4.09804 36.5816C5.70636 35.6968 7.53217 35.2793 9.36743 35.3765Z" fill="#FDFAE2"/>
<path d="M20.3061 44.4527C20.6966 43.7217 21.2302 43.0758 21.8755 42.5531L14.2967 38.1782C12.3232 38.5562 10.3313 38.8316 8.32907 39.0033L19.8704 45.6993C19.9596 45.2664 20.1061 44.8472 20.3061 44.4527Z" fill="#FCF4AC"/>
<path d="M30.439 47.4683C30.5709 48.8382 30.4269 50.2206 30.0153 51.5345L32.5456 53.0185V48.6792L30.439 47.4683Z" fill="#FDFAE2"/>
<path d="M0.690536 34.6404L8.0844 35.044L32.5456 49.2432V48.6793L8.0844 34.6404H0.690536Z" fill="#FDF6BA"/>
<path d="M32.5456 53.0008V48.6793L31.7698 51.6829L0.690536 34.6404L32.5456 53.0008Z" fill="#FDFAE2"/>
<path d="M53.0026 41.1345L46.1577 40.9683L32.5456 48.6793V53.0008L53.0026 41.1345Z" fill="url(#paint25_linear_11_4756)"/>
<path d="M52.1253 41.1462L46.1577 40.9978L44.3674 42.001C46.9514 41.5558 49.5533 41.3243 52.1253 41.1462Z" fill="#FDFAE2"/>
<g opacity="0.6">
<path d="M40.2319 44.3281L35.0639 47.2546C35.8295 48.2382 36.4337 49.3361 36.8542 50.5076L45.4655 45.5094C43.7498 44.9983 42.0013 44.6037 40.2319 44.3281Z" fill="#FDFAE2"/>
</g>
<path d="M46.1577 40.9683L32.5456 48.6793V53.0008L53.0026 41.1345L33.6317 51.3921V48.6793L46.1577 40.9683Z" fill="#FFCD01"/>
<path d="M49.0162 60.2902L52.5252 44.4111L32.5456 53.0007L32.4979 69.8711L49.0162 60.2902Z" fill="#9F6336"/>
<g opacity="0.28">
<path d="M39.3308 65.0035C37.4152 66.3213 34.9267 68.4524 32.5038 68.4524V69.883L49.0162 60.3021L52.5251 44.4111L50.8602 45.1235C50.9971 47.7229 50.6081 50.3232 49.7163 52.7704C48.8245 55.2175 47.448 57.4618 45.6684 59.3701C43.7703 61.4738 41.645 63.363 39.3308 65.0035Z" fill="#572B11"/>
</g>
<g opacity="0.41">
<path d="M34.1927 68.8797C34.1927 68.8263 34.1927 68.7788 34.1927 68.7254C34.6999 66.1135 34.8431 63.3829 35.9173 60.9194C36.9788 58.6887 38.5827 56.7566 40.584 55.2979C43.8122 52.6997 47.4771 50.69 51.4092 49.3618L52.4953 44.4348L32.5456 53.0184L32.5038 69.8888L34.1927 68.8797Z" fill="#572B11"/>
</g>
<path d="M52.9906 46.103L53.0026 41.1345L32.5456 53.0008L32.5337 58.1118L52.9906 46.103Z" fill="url(#paint26_linear_11_4756)"/>
<g opacity="0.24">
<path d="M35.5652 51.2378L32.5456 53.0186V58.1296L36.3768 55.8798C35.9809 54.3568 35.7095 52.8044 35.5652 51.2378Z" fill="#814316"/>
<path d="M47.3214 44.4528C47.0078 46.4837 46.4715 48.4742 45.7221 50.3889L52.9906 46.103V41.1345L47.3214 44.4528Z" fill="#814316"/>
</g>
<g opacity="0.28">
<path d="M44.1287 47.8184C46.9842 46.4376 49.9505 45.2959 52.9966 44.4052V41.1462L37.5823 50.0801C37.6057 50.124 37.6257 50.1696 37.6419 50.2166C39.7962 49.3262 41.9506 48.5367 44.1287 47.8184Z" fill="#572B11"/>
<path d="M34.127 52.0864L32.5456 53.0184V58.1294L33.0111 57.8563C33.2532 55.9104 33.626 53.9828 34.127 52.0864Z" fill="#572B11"/>
</g>
<path d="M52.9906 46.103L53.0026 41.1345L52.5252 45.8597L32.5337 58.1118L52.9906 46.103Z" fill="url(#paint27_linear_11_4756)"/>
<path d="M5.01705 54.0276L32.4979 69.8711L32.5456 53.0007L1.17988 37.8398L5.01705 54.0276Z" fill="#DA844B"/>
<path d="M1.17988 37.8398L5.01705 54.0276L32.5038 69.8711V65.0628C30.2657 64.9599 28.0479 64.5913 25.8977 63.9647C22.6036 63.0624 13.7417 58.1117 13.4314 57.9633C10.6087 56.6632 7.04007 54.8468 5.47656 52.0271C3.63853 48.7089 2.36147 42.8796 4.87979 39.68L1.17988 37.8398Z" fill="#C7753D"/>
<path d="M2.34356 42.7609C7.42199 44.4111 15.4723 49.9911 17.2208 51.392C21.7084 54.9418 24.549 58.0523 27.0315 61.9226C28.1893 63.745 28.7323 65.3656 30.0631 68.4524L32.5217 69.8711L32.5456 53.0185L1.17988 37.8398L2.34356 42.7609Z" fill="#C7753D"/>
<path d="M0.672634 39.7692L32.5337 58.1118L32.5456 53.0008L0.690537 34.6404L0.672634 39.7692Z" fill="url(#paint28_linear_11_4756)"/>
<g opacity="0.65">
<path d="M29.7229 55.9094C29.1262 54.0098 28.3802 52.1577 27.7894 50.2582L25.9275 49.1897C25.5318 50.6443 24.7507 51.9666 23.6658 53.0185L29.9318 56.6276C29.8662 56.3783 29.8005 56.1409 29.7229 55.9094Z" fill="url(#paint29_linear_11_4756)"/>
</g>
<g opacity="0.67">
<path d="M4.00256 41.6924L9.72549 44.9691C8.14407 42.7906 6.92668 40.3687 6.64621 38.0595L4.53367 36.8367C4.35465 38.4691 4.13384 40.0837 4.00256 41.6924Z" fill="url(#paint30_linear_11_4756)"/>
</g>
<path opacity="0.51" d="M13.682 46.4888C10.1313 44.4942 2.68968 40.9682 0.678601 38.1782V39.8225L32.5396 58.1651V55.4582C29.902 54.6272 19.5362 49.7418 13.682 46.4888Z" fill="url(#paint31_linear_11_4756)"/>
<path d="M0.672634 39.7692L32.5337 58.1118L32.4621 57.6903L0.672634 39.5496V39.7692Z" fill="url(#paint32_linear_11_4756)"/>
<path d="M31.728 53.1373L32.5337 58.1118L32.5456 53.0008L0.690537 34.6404L0.672634 39.7692L1.05456 35.1568L31.728 53.1373Z" fill="url(#paint33_linear_11_4756)"/>
<path d="M2.31373 42.6245L2.43905 43.1588L15.1142 50.9885L32.5277 60.9196L32.4979 60.3972L14.0818 49.6232L2.31373 42.6245Z" fill="#92571B"/>
<path d="M3.74595 48.6793L25.7425 61.6378L32.5277 64.8492L32.4979 64.4337L3.6445 48.2578L3.74595 48.6793Z" fill="#92571B"/>
<path d="M51.3197 49.8606L51.4211 49.4094L32.4979 60.3972L32.5277 60.9195L51.3197 49.8606Z" fill="#5F270F"/>
<path d="M37.0631 62.2551L50.3589 54.2294L50.4365 53.8555L32.4979 64.4336L32.5277 64.8491L37.0631 62.2551Z" fill="#5F270F"/>
<path d="M8.21568 57.4409L9.67775 56.7049L8.83035 56.2122L8.16198 56.509L8.21568 57.4409Z" fill="url(#paint34_linear_11_4756)"/>
<path d="M6.04945 56.2122L8.21569 57.441L8.16198 56.509L5.98977 55.2446L6.04945 56.2122Z" fill="url(#paint35_linear_11_4756)"/>
<path d="M6.05541 55.2801L8.16198 56.5089L7.53538 49.7298L5.14834 48.418L6.05541 55.2801Z" fill="url(#paint36_linear_11_4756)"/>
<path d="M5.54817 51.4988L6.04348 55.2741L8.14407 56.5089L7.93521 54.354C7.01251 53.5149 6.2094 52.5542 5.54817 51.4988Z" fill="url(#paint37_linear_11_4756)"/>
<path d="M8.16198 56.5089L8.83035 56.2121L8.34101 49.439L7.53538 49.7298L8.16198 56.5089Z" fill="url(#paint38_linear_11_4756)"/>
<path d="M7.53538 49.73L8.34101 49.4392L5.94203 48.1392L5.14834 48.4122L7.53538 49.73Z" fill="url(#paint39_linear_11_4756)"/>
<path d="M6.03751 49.4568C5.56607 49.6111 5.36914 50.3175 5.60187 51.0239C5.83461 51.7303 6.4075 52.2111 6.88491 52.0271C7.36232 51.8431 7.55925 51.1664 7.32054 50.46C7.08184 49.7536 6.51492 49.2787 6.03751 49.4568Z" fill="#92571B"/>
<path d="M5.9838 49.5875C5.58397 49.7181 5.44075 50.3414 5.64962 50.9825C5.85848 51.6236 6.35379 52.051 6.74766 51.9204C7.14152 51.7898 7.29667 51.1605 7.08184 50.5194C6.86701 49.8783 6.37766 49.4569 5.9838 49.5875Z" fill="url(#paint40_radial_11_4756)"/>
<path d="M2.06905 36.9555C1.59761 37.1098 1.40068 37.8103 1.63342 38.5226C1.86615 39.235 2.44501 39.6742 2.91645 39.5199C3.38789 39.3656 3.59079 38.6651 3.35806 37.9528C3.12532 37.2404 2.56436 36.7952 2.06905 36.9555Z" fill="#92571B"/>
<path d="M2.01534 37.1038C1.61552 37.2344 1.47229 37.8636 1.68116 38.5047C1.89003 39.1458 2.38534 39.5673 2.78517 39.4367C3.185 39.3061 3.32822 38.6769 3.11338 38.0358C2.89855 37.3947 2.40921 36.991 2.01534 37.1038Z" fill="url(#paint41_radial_11_4756)"/>
<path d="M9.36147 41.1464C8.89002 41.3008 8.69309 42.0012 8.92583 42.7135C9.15857 43.4259 9.73742 43.8711 10.2089 43.7108C10.6803 43.5505 10.8832 42.856 10.6505 42.1437C10.4177 41.4313 9.83887 41.0099 9.36147 41.1464Z" fill="#92571B"/>
<path d="M9.30776 41.3184C8.90793 41.449 8.76471 42.0782 8.97357 42.7193C9.18244 43.3604 9.67775 43.7819 10.0776 43.6513C10.4774 43.5207 10.6206 42.8974 10.4058 42.2504C10.191 41.6034 9.72549 41.1878 9.30776 41.3184Z" fill="url(#paint42_radial_11_4756)"/>
<path d="M23.0512 49.0768C22.5737 49.2312 22.3828 49.9316 22.6155 50.638C22.8483 51.3444 23.4211 51.8253 23.8986 51.6412C24.376 51.4572 24.5669 50.7864 24.3342 50.0741C24.1014 49.3618 23.5286 48.9166 23.0512 49.0768Z" fill="#92571B"/>
<path d="M22.9915 49.2254C22.5976 49.356 22.4484 49.9852 22.6633 50.6263C22.8781 51.2674 23.3674 51.6948 23.7673 51.5583C24.1671 51.4218 24.3103 50.8044 24.0955 50.1574C23.8806 49.5103 23.3853 49.0948 22.9915 49.2254Z" fill="url(#paint43_radial_11_4756)"/>
<path d="M30.3436 53.2917C29.8721 53.446 29.6752 54.1465 29.9079 54.8588C30.1407 55.5711 30.7195 56.046 31.191 55.8561C31.6624 55.6661 31.8653 55.0013 31.6326 54.289C31.3998 53.5766 30.821 53.1314 30.3436 53.2917Z" fill="#92571B"/>
<path d="M30.2899 53.44C29.89 53.5706 29.7468 54.1998 29.9557 54.8469C30.1645 55.4939 30.6598 55.9035 31.0537 55.7729C31.4476 55.6423 31.6027 55.019 31.3879 54.372C31.1731 53.7249 30.6837 53.3094 30.2899 53.44Z" fill="url(#paint44_radial_11_4756)"/>
<path d="M33.7272 54.289C33.4945 55.0013 33.6914 55.7017 34.1628 55.8561C34.6343 56.0104 35.2191 55.5652 35.4518 54.8588C35.6846 54.1524 35.4876 53.446 35.0102 53.2917C34.5328 53.1373 33.9599 53.6122 33.7272 54.289Z" fill="#92571B"/>
<path d="M33.9719 54.372C33.757 55.019 33.9062 55.6482 34.3001 55.7729C34.6939 55.8976 35.1893 55.488 35.3981 54.8469C35.607 54.2058 35.4638 53.5706 35.0699 53.44C34.676 53.3094 34.1927 53.7309 33.9719 54.372Z" fill="url(#paint45_radial_11_4756)"/>
<path d="M44.1049 49.4866C44.3376 48.7743 44.1407 48.0738 43.6633 47.9195C43.1858 47.7651 42.613 48.2103 42.3802 48.9167C42.1475 49.6231 42.3444 50.3295 42.8218 50.4839C43.2992 50.6382 43.8721 50.193 44.1049 49.4866Z" fill="#92571B"/>
<path d="M44.0571 49.457C44.266 48.8099 44.1168 48.1807 43.7229 48.0501C43.3291 47.9195 42.8338 48.341 42.6249 48.9821C42.416 49.6232 42.5593 50.2584 42.9531 50.3889C43.347 50.5195 43.8423 50.1159 44.0571 49.457Z" fill="url(#paint46_radial_11_4756)"/>
<path d="M51.9821 44.9156C52.2148 44.2092 52.0179 43.5088 51.5465 43.3485C51.075 43.1882 50.4962 43.6394 50.2575 44.3517C50.0188 45.064 50.2217 45.7586 50.6991 45.9188C51.1765 46.0791 51.7494 45.628 51.9821 44.9156Z" fill="#92571B"/>
<path d="M51.9344 44.9039C52.1432 44.2628 52 43.6336 51.6002 43.503C51.2003 43.3724 50.711 43.7879 50.5021 44.435C50.2933 45.082 50.4365 45.7053 50.8303 45.8359C51.2242 45.9665 51.7195 45.551 51.9344 44.9039Z" fill="url(#paint47_radial_11_4756)"/>
<path d="M16.2899 49.0888C19.2737 50.6797 20.2165 49.3144 20.2165 49.3144V46.5778L13.5806 42.749L13.5209 45.7171C13.5209 45.7171 13.4552 47.5929 16.2899 49.0888Z" fill="#835313"/>
<path d="M15.9318 48.9227C18.9156 50.5195 19.5124 49.7419 19.5124 49.7419V46.9994L12.9062 43.1765L12.8465 46.1446C12.8465 46.1446 13.1032 47.4268 15.9318 48.9227Z" fill="url(#paint48_linear_11_4756)"/>
<path opacity="0.32" d="M17.7997 46.002C18.532 47.191 19.0415 48.5024 19.3035 49.8723C19.392 49.8517 19.4727 49.8064 19.5362 49.7417V46.9992L17.7997 46.002Z" fill="#FCF4AC"/>
<path opacity="0.22" d="M15.6931 46.6017C15.3127 45.564 14.7262 44.6131 13.9685 43.8057L12.8883 43.1765L12.8286 46.1446C12.8286 46.1446 13.0852 47.4564 15.9139 48.9523L16.0273 49.0117C16.0594 48.195 15.9463 47.3792 15.6931 46.6017Z" fill="#FCF4AC"/>
<path opacity="0.32" d="M15.902 46.4888C15.5806 45.4157 14.906 44.4811 13.9864 43.8354L13.2523 43.408C14.0256 44.2824 14.6033 45.3103 14.9471 46.4235C15.081 47.08 15.1032 47.7542 15.0128 48.418C15.2813 48.5902 15.6095 48.7742 15.9318 48.9523L16.0452 49.0116C16.2253 48.1731 16.1758 47.3018 15.902 46.4888Z" fill="#FCF4AC"/>
<path d="M16.4092 45.4975C17.3342 46.0496 18.6769 46.4889 19.2737 47.1953C19.3752 47.3875 19.4649 47.5858 19.5422 47.7889V46.9994L12.9062 43.1765L12.8465 46.1446C12.9141 46.359 13.0191 46.56 13.1569 46.7382C12.9719 45.9665 12.942 44.4765 13.2702 43.9185C13.5388 43.4436 15.52 44.9633 16.4092 45.4975Z" fill="#FFF7D4"/>
<path d="M19.5362 46.9993L20.2106 46.5719L13.5806 42.749L12.9062 43.1764L19.5362 46.9993Z" fill="url(#paint49_linear_11_4756)"/>
<path d="M14.0341 46.0318C14.3026 45.8537 14.8576 45.7647 14.7204 45.3729C14.603 45.172 14.423 45.0147 14.2076 44.9247C13.9922 44.8347 13.7532 44.817 13.5269 44.8743C13.1645 44.9182 12.8231 45.0671 12.5451 45.3024C12.2671 45.5378 12.0648 45.8492 11.9633 46.198C11.7843 46.9994 12.7391 47.7592 13.2523 48.0857C13.8597 48.513 14.5474 48.8141 15.2743 48.9712C16.0013 49.1282 16.7526 49.138 17.4834 48.9999C18.1279 48.8515 18.9633 48.4063 18.8917 47.8898C18.8201 47.3734 17.6982 47.0528 17.1014 47.2962C16.4343 47.6177 15.6667 47.6646 14.965 47.4268C14.4101 47.2487 13.2106 46.578 14.0341 46.0318Z" fill="url(#paint50_linear_11_4756)"/>
<path d="M14.4996 48.2697C13.5089 47.8957 12.4049 47.219 12.202 46.4117C11.9991 45.6044 13.1091 45.0998 13.9267 44.8861C13.788 44.868 13.6476 44.868 13.5089 44.8861C13.1466 44.93 12.8052 45.0789 12.5272 45.3143C12.2492 45.5496 12.0469 45.8611 11.9454 46.2099C11.7664 47.0113 12.7212 47.7711 13.2344 48.0976C13.8449 48.5251 14.5361 48.8254 15.2662 48.9805C15.9964 49.1355 16.7506 49.1421 17.4834 48.9999C18.0801 48.8693 18.7724 48.5309 18.8798 48.0738C18.7425 47.7177 18.5098 47.8304 18.4084 47.9135C17.549 48.6793 15.1679 48.5072 14.4996 48.2697Z" fill="#F49B1E"/>
<path d="M15.902 48.7148C15.1236 48.7005 14.36 48.5012 13.6749 48.1336C12.9897 47.766 12.4029 47.2407 11.9633 46.6016C12.206 47.2305 12.662 47.7554 13.2523 48.0856C13.8597 48.5128 14.5474 48.814 15.2743 48.971C16.0013 49.1281 16.7526 49.1379 17.4834 48.9998C18.1279 48.8513 18.9633 48.4061 18.8917 47.8897C18.844 47.5217 18.295 47.2961 17.8116 47.2308C17.8772 47.2723 17.8951 47.3733 17.9727 47.4089C18.838 47.7769 18.3845 48.8632 15.902 48.7148Z" fill="#F49B1E"/>
<path d="M13.7178 45.8951C12.7093 46.6193 14.6249 47.676 15.2037 47.8184C15.7592 47.9706 16.3491 47.9415 16.8866 47.7353C17.3543 47.535 17.8526 47.4146 18.3606 47.3792C18.1621 47.2861 17.9468 47.2334 17.7275 47.2242C17.5082 47.215 17.2893 47.2495 17.0835 47.3257C16.4164 47.6472 15.6488 47.6941 14.9471 47.4563C14.3862 47.2486 13.1867 46.5778 14.0102 46.0317C14.2788 45.8536 14.8338 45.7645 14.6965 45.3728C14.6198 45.2076 14.4865 45.0751 14.3205 44.9988C14.3205 44.9988 14.3205 45.0403 14.3205 45.0522C14.601 45.3728 14.0938 45.6102 13.7178 45.8951Z" fill="#F49B1E"/>
<path d="M13.3061 45.6697C13.4314 45.5688 14.1833 45.0108 13.6581 45.0226C12.9182 45.1176 12.0111 46.0377 12.4646 46.7619C12.7302 47.102 13.0608 47.3865 13.4373 47.5989C13.7893 47.8807 14.2268 48.0355 14.6786 48.0382C14.4087 47.7816 14.115 47.5511 13.8014 47.3496C13.5134 47.1404 13.2598 46.8881 13.0494 46.6017C12.8227 46.2217 12.9838 45.9427 13.3061 45.6697Z" fill="#FFF7D4"/>
<path d="M15.0009 48.6258C14.3757 48.5325 13.779 48.3026 13.2538 47.9526C12.7286 47.6026 12.2879 47.1412 11.9633 46.6016C12.206 47.2305 12.662 47.7554 13.2523 48.0856C13.8597 48.5128 14.5474 48.814 15.2743 48.971C16.0013 49.1281 16.7526 49.1379 17.4834 48.9998C18.1279 48.8513 18.9633 48.4061 18.8917 47.8897C18.844 47.5217 18.295 47.2961 17.8116 47.2308C17.8116 47.2308 18.8738 47.4742 18.5277 48.0797C18.0801 48.8039 16.5405 48.9523 15.0009 48.6258Z" fill="#835313"/>
<path d="M28.1475 68.0191L30.2481 69.2597L29.9497 62.6113L27.8551 61.5012L28.1475 68.0191Z" fill="url(#paint51_linear_11_4756)"/>
<path d="M28.0162 65.0332L28.1475 68.0013L30.2481 69.2419L30.1824 67.7579C29.4118 66.8889 28.6887 65.9793 28.0162 65.0332Z" fill="url(#paint52_linear_11_4756)"/>
<path d="M30.2481 69.2598L30.9224 68.963L30.6718 62.3621L29.9497 62.6114L30.2481 69.2598Z" fill="url(#paint53_linear_11_4756)"/>
<path d="M27.8551 61.5013L29.9258 62.6351L30.6718 62.3621L28.6547 61.2283L27.8551 61.5013Z" fill="url(#paint54_linear_11_4756)"/>
<path d="M28.5354 62.4333C28.058 62.5876 27.861 63.2881 28.0997 63.9945C28.3384 64.7009 28.9054 65.1817 29.3828 64.9977C29.8602 64.8137 30.0511 64.1429 29.8184 63.4306C29.5857 62.7182 29.0128 62.273 28.5354 62.4333Z" fill="#92571B"/>
<path d="M28.4757 62.5816C28.0818 62.7122 27.9327 63.3414 28.1475 63.9825C28.3623 64.6236 28.8517 65.0451 29.2455 64.9145C29.6394 64.7839 29.7886 64.1547 29.5797 63.5136C29.3708 62.8725 28.8696 62.451 28.4757 62.5816Z" fill="url(#paint55_radial_11_4756)"/>
<path d="M30.2958 70.1797L31.7579 69.4436L30.9045 68.9509L30.2361 69.2477L30.2958 70.1797Z" fill="url(#paint56_linear_11_4756)"/>
<path d="M28.1296 68.951L30.2958 70.1798L30.2361 69.2478L28.0699 67.9834L28.1296 68.951Z" fill="url(#paint57_linear_11_4756)"/>
<defs>
<linearGradient id="paint0_linear_11_4756" x1="26.7661" y1="26.4976" x2="32.3516" y2="26.53" gradientUnits="userSpaceOnUse">
<stop stop-color="#FFD50E"/>
<stop offset="0.65" stop-color="#F6A713"/>
</linearGradient>
<linearGradient id="paint1_linear_11_4756" x1="27.5801" y1="26.081" x2="31.5365" y2="26.1039" gradientUnits="userSpaceOnUse">
<stop stop-color="#F8EB5C"/>
<stop offset="0.65" stop-color="#FFD848"/>
</linearGradient>
<linearGradient id="paint2_linear_11_4756" x1="42.9143" y1="35.8328" x2="48.4999" y2="35.8651" gradientUnits="userSpaceOnUse">
<stop stop-color="#FFD50E"/>
<stop offset="0.65" stop-color="#F6A713"/>
</linearGradient>
<linearGradient id="paint3_linear_11_4756" x1="43.7283" y1="35.4161" x2="47.6848" y2="35.439" gradientUnits="userSpaceOnUse">
<stop stop-color="#F8EB5C"/>
<stop offset="0.65" stop-color="#FFD848"/>
</linearGradient>
<linearGradient id="paint4_linear_11_4756" x1="26.8346" y1="26.5256" x2="32.4263" y2="26.5256" gradientUnits="userSpaceOnUse">
<stop stop-color="#FFD50E"/>
<stop offset="0.65" stop-color="#F6A713"/>
</linearGradient>
<linearGradient id="paint5_linear_11_4756" x1="27.6522" y1="26.1043" x2="31.6087" y2="26.1043" gradientUnits="userSpaceOnUse">
<stop stop-color="#F8EB5C"/>
<stop offset="0.65" stop-color="#FFD848"/>
</linearGradient>
<linearGradient id="paint6_linear_11_4756" x1="43.0367" y1="35.7683" x2="48.6223" y2="35.7683" gradientUnits="userSpaceOnUse">
<stop stop-color="#FFD50E"/>
<stop offset="0.65" stop-color="#F6A713"/>
</linearGradient>
<linearGradient id="paint7_linear_11_4756" x1="43.8542" y1="35.3467" x2="47.8107" y2="35.3467" gradientUnits="userSpaceOnUse">
<stop stop-color="#F8EB5C"/>
<stop offset="0.65" stop-color="#FFD848"/>
</linearGradient>
<linearGradient id="paint8_linear_11_4756" x1="43.8005" y1="8.53344" x2="52.5669" y2="8.53344" gradientUnits="userSpaceOnUse">
<stop stop-color="#F8EB5C"/>
<stop offset="0.65" stop-color="#FFD848"/>
</linearGradient>
<linearGradient id="paint9_linear_11_4756" x1="53.6411" y1="29.8262" x2="66.0776" y2="29.8262" gradientUnits="userSpaceOnUse">
<stop stop-color="#C57613"/>
<stop offset="0.65" stop-color="#DB9302"/>
</linearGradient>
<linearGradient id="paint10_linear_11_4756" x1="21.6428" y1="20.3165" x2="62.324" y2="20.3165" gradientUnits="userSpaceOnUse">
<stop stop-color="#A0D5DC"/>
<stop offset="0.65" stop-color="#77B2BB"/>
</linearGradient>
<linearGradient id="paint11_linear_11_4756" x1="44.0989" y1="25.1425" x2="32.8814" y2="34.6038" gradientUnits="userSpaceOnUse">
<stop stop-color="#F8EB5C"/>
<stop offset="0.65" stop-color="#FFD848"/>
</linearGradient>
<linearGradient id="paint12_linear_11_4756" x1="62.324" y1="29.5531" x2="51.7553" y2="29.5531" gradientUnits="userSpaceOnUse">
<stop stop-color="#F8EB5C"/>
<stop offset="0.65" stop-color="#FFD848"/>
</linearGradient>
<linearGradient id="paint13_linear_11_4756" x1="21.6428" y1="11.0859" x2="32.0324" y2="11.0859" gradientUnits="userSpaceOnUse">
<stop stop-color="#F8EB5C"/>
<stop offset="0.65" stop-color="#FFD848"/>
</linearGradient>
<linearGradient id="paint14_linear_11_4756" x1="30.2839" y1="11.0859" x2="62.324" y2="11.0859" gradientUnits="userSpaceOnUse">
<stop stop-color="#F8EB5C"/>
<stop offset="0.65" stop-color="#FFD848"/>
</linearGradient>
<linearGradient id="paint15_linear_11_4756" x1="61.0708" y1="31.1737" x2="57.1354" y2="29.0669" gradientUnits="userSpaceOnUse">
<stop stop-color="#CC7B11"/>
<stop offset="0.65" stop-color="#E49800"/>
</linearGradient>
<linearGradient id="paint16_linear_11_4756" x1="43.0188" y1="10.1301" x2="52.3222" y2="10.1301" gradientUnits="userSpaceOnUse">
<stop stop-color="#F49C14"/>
<stop offset="0.65" stop-color="#EF7F0F"/>
</linearGradient>
<linearGradient id="paint17_linear_11_4756" x1="32.0324" y1="14.6297" x2="57.4902" y2="14.6297" gradientUnits="userSpaceOnUse">
<stop stop-color="#CC7B11"/>
<stop offset="0.65" stop-color="#E49800"/>
</linearGradient>
<linearGradient id="paint18_linear_11_4756" x1="26.2856" y1="13.4959" x2="32.665" y2="13.4959" gradientUnits="userSpaceOnUse">
<stop stop-color="#CC7B11"/>
<stop offset="0.65" stop-color="#E49800"/>
</linearGradient>
<linearGradient id="paint19_linear_11_4756" x1="58.6897" y1="30.9897" x2="63.7502" y2="30.9897" gradientUnits="userSpaceOnUse">
<stop offset="0.25" stop-color="#9E5D15"/>
<stop offset="0.74" stop-color="#985515"/>
<stop offset="1" stop-color="#934E15"/>
</linearGradient>
<linearGradient id="paint20_linear_11_4756" x1="58.5888" y1="31.1442" x2="63.6552" y2="31.1735" gradientUnits="userSpaceOnUse">
<stop offset="0.25" stop-color="#9E5D15"/>
<stop offset="0.74" stop-color="#985515"/>
<stop offset="1" stop-color="#934E15"/>
</linearGradient>
<linearGradient id="paint21_linear_11_4756" x1="58.6718" y1="30.9837" x2="63.7323" y2="30.9837" gradientUnits="userSpaceOnUse">
<stop offset="0.25" stop-color="#9E5D15"/>
<stop offset="0.74" stop-color="#985515"/>
<stop offset="1" stop-color="#934E15"/>
</linearGradient>
<linearGradient id="paint22_linear_11_4756" x1="21.1415" y1="31.9573" x2="53.0026" y2="31.9573" gradientUnits="userSpaceOnUse">
<stop stop-color="#FAE849"/>
<stop offset="0.65" stop-color="#F9CB3D"/>
</linearGradient>
<linearGradient id="paint23_linear_11_4756" x1="20.9327" y1="22.5249" x2="3.13193" y2="37.5351" gradientUnits="userSpaceOnUse">
<stop stop-color="#FAE849"/>
<stop offset="0.65" stop-color="#F9CB3D"/>
</linearGradient>
<linearGradient id="paint24_linear_11_4756" x1="0.690536" y1="43.8176" x2="32.5456" y2="43.8176" gradientUnits="userSpaceOnUse">
<stop stop-color="#F8EB5C"/>
<stop offset="0.65" stop-color="#FFD848"/>
</linearGradient>
<linearGradient id="paint25_linear_11_4756" x1="32.5456" y1="46.9875" x2="53.0026" y2="46.9875" gradientUnits="userSpaceOnUse">
<stop stop-color="#F8EB5C"/>
<stop offset="0.65" stop-color="#FFD848"/>
</linearGradient>
<linearGradient id="paint26_linear_11_4756" x1="32.5337" y1="49.6232" x2="53.0026" y2="49.6232" gradientUnits="userSpaceOnUse">
<stop stop-color="#CC7B11"/>
<stop offset="0.65" stop-color="#E49800"/>
</linearGradient>
<linearGradient id="paint27_linear_11_4756" x1="32.5337" y1="49.6232" x2="53.0026" y2="49.6232" gradientUnits="userSpaceOnUse">
<stop stop-color="#F8EB5C"/>
<stop offset="0.65" stop-color="#FFD848"/>
</linearGradient>
<linearGradient id="paint28_linear_11_4756" x1="0.672634" y1="46.3761" x2="32.5456" y2="46.3761" gradientUnits="userSpaceOnUse">
<stop stop-color="#FFD50E"/>
<stop offset="0.65" stop-color="#F6A713"/>
</linearGradient>
<linearGradient id="paint29_linear_11_4756" x1="0.672634" y1="52.8998" x2="32.5456" y2="52.8998" gradientUnits="userSpaceOnUse">
<stop stop-color="#F8EB5C"/>
<stop offset="0.65" stop-color="#FFD848"/>
</linearGradient>
<linearGradient id="paint30_linear_11_4756" x1="0.672633" y1="40.9029" x2="32.5516" y2="40.9029" gradientUnits="userSpaceOnUse">
<stop stop-color="#F8EB5C"/>
<stop offset="0.65" stop-color="#FFD848"/>
</linearGradient>
<linearGradient id="paint31_linear_11_4756" x1="0.672634" y1="48.1212" x2="32.5456" y2="48.1212" gradientUnits="userSpaceOnUse">
<stop stop-color="#F8EB5C"/>
<stop offset="0.65" stop-color="#FFD848"/>
</linearGradient>
<linearGradient id="paint32_linear_11_4756" x1="0.672634" y1="48.8336" x2="32.5337" y2="48.8336" gradientUnits="userSpaceOnUse">
<stop stop-color="#F8EB5C"/>
<stop offset="0.65" stop-color="#FFD848"/>
</linearGradient>
<linearGradient id="paint33_linear_11_4756" x1="0.672634" y1="46.3761" x2="32.5456" y2="46.3761" gradientUnits="userSpaceOnUse">
<stop stop-color="#F49C14"/>
<stop offset="0.65" stop-color="#EF7F0F"/>
</linearGradient>
<linearGradient id="paint34_linear_11_4756" x1="8.15601" y1="56.8295" x2="9.67775" y2="56.8295" gradientUnits="userSpaceOnUse">
<stop stop-color="#B56019"/>
<stop offset="0.65" stop-color="#E17E08"/>
</linearGradient>
<linearGradient id="paint35_linear_11_4756" x1="7.38619" y1="55.951" x2="6.80543" y2="56.7613" gradientUnits="userSpaceOnUse">
<stop stop-color="#FFD50E"/>
<stop offset="0.65" stop-color="#F6A713"/>
</linearGradient>
<linearGradient id="paint36_linear_11_4756" x1="5.14834" y1="52.4664" x2="8.15601" y2="52.4664" gradientUnits="userSpaceOnUse">
<stop stop-color="#F7A914"/>
<stop offset="0.65" stop-color="#F6A713"/>
</linearGradient>
<linearGradient id="paint37_linear_11_4756" x1="5.1543" y1="54.0038" x2="8.15601" y2="54.0038" gradientUnits="userSpaceOnUse">
<stop stop-color="#F8EB5C"/>
<stop offset="0.65" stop-color="#FFD848"/>
</linearGradient>
<linearGradient id="paint38_linear_11_4756" x1="7.53538" y1="52.9769" x2="8.82438" y2="52.9769" gradientUnits="userSpaceOnUse">
<stop stop-color="#B56019"/>
<stop offset="0.65" stop-color="#E17E08"/>
</linearGradient>
<linearGradient id="paint39_linear_11_4756" x1="5.14834" y1="48.9346" x2="8.34101" y2="48.9346" gradientUnits="userSpaceOnUse">
<stop stop-color="#F8EB5C"/>
<stop offset="0.65" stop-color="#FFD848"/>
</linearGradient>
<radialGradient id="paint40_radial_11_4756" cx="0" cy="0" r="1" gradientUnits="userSpaceOnUse" gradientTransform="translate(6.51229 50.7215) scale(1.02452 1.01911)">
<stop stop-color="#FBFAE6"/>
<stop offset="0.27" stop-color="#F8EB5C"/>
<stop offset="0.7" stop-color="#FFD848"/>
</radialGradient>
<radialGradient id="paint41_radial_11_4756" cx="0" cy="0" r="1" gradientUnits="userSpaceOnUse" gradientTransform="translate(2.5467 38.2813) scale(1.02452 1.01911)">
<stop stop-color="#FBFAE6"/>
<stop offset="0.27" stop-color="#F8EB5C"/>
<stop offset="0.7" stop-color="#FFD848"/>
</radialGradient>
<radialGradient id="paint42_radial_11_4756" cx="0" cy="0" r="1" gradientUnits="userSpaceOnUse" gradientTransform="translate(9.84198 42.4807) scale(1.02452 1.01911)">
<stop stop-color="#FBFAE6"/>
<stop offset="0.27" stop-color="#F8EB5C"/>
<stop offset="0.7" stop-color="#FFD848"/>
</radialGradient>
<radialGradient id="paint43_radial_11_4756" cx="0" cy="0" r="1" gradientUnits="userSpaceOnUse" gradientTransform="translate(23.5405 50.3701) scale(1.02452 1.01911)">
<stop stop-color="#FBFAE6"/>
<stop offset="0.27" stop-color="#F8EB5C"/>
<stop offset="0.7" stop-color="#FFD848"/>
</radialGradient>
<radialGradient id="paint44_radial_11_4756" cx="0" cy="0" r="1" gradientUnits="userSpaceOnUse" gradientTransform="translate(30.8358 54.5695) scale(1.02452 1.01911)">
<stop stop-color="#FBFAE6"/>
<stop offset="0.27" stop-color="#F8EB5C"/>
<stop offset="0.7" stop-color="#FFD848"/>
</radialGradient>
<radialGradient id="paint45_radial_11_4756" cx="0" cy="0" r="1" gradientUnits="userSpaceOnUse" gradientTransform="translate(34.8544 54.5695) scale(1.02452 1.01911)">
<stop stop-color="#FBFAE6"/>
<stop offset="0.27" stop-color="#F8EB5C"/>
<stop offset="0.7" stop-color="#FFD848"/>
</radialGradient>
<radialGradient id="paint46_radial_11_4756" cx="0" cy="0" r="1" gradientUnits="userSpaceOnUse" gradientTransform="translate(43.5098 49.2105) scale(1.02452 1.01911)">
<stop stop-color="#FBFAE6"/>
<stop offset="0.27" stop-color="#F8EB5C"/>
<stop offset="0.7" stop-color="#FFD848"/>
</radialGradient>
<radialGradient id="paint47_radial_11_4756" cx="0" cy="0" r="1" gradientUnits="userSpaceOnUse" gradientTransform="translate(51.3968 44.6596) scale(1.02452 1.01911)">
<stop stop-color="#FBFAE6"/>
<stop offset="0.27" stop-color="#F8EB5C"/>
<stop offset="0.7" stop-color="#FFD848"/>
</radialGradient>
<linearGradient id="paint48_linear_11_4756" x1="12.8465" y1="46.5542" x2="19.5362" y2="46.5542" gradientUnits="userSpaceOnUse">
<stop stop-color="#FFDC11"/>
<stop offset="0.65" stop-color="#F8AE15"/>
</linearGradient>
<linearGradient id="paint49_linear_11_4756" x1="12.9062" y1="44.8742" x2="20.2106" y2="44.8742" gradientUnits="userSpaceOnUse">
<stop stop-color="#F49C14"/>
<stop offset="0.65" stop-color="#EF7F0F"/>
</linearGradient>
<linearGradient id="paint50_linear_11_4756" x1="11.9395" y1="46.9875" x2="18.8738" y2="46.9875" gradientUnits="userSpaceOnUse">
<stop stop-color="#F8EB5C"/>
<stop offset="0.65" stop-color="#FFD848"/>
</linearGradient>
<linearGradient id="paint51_linear_11_4756" x1="27.8551" y1="65.3775" x2="30.2481" y2="65.3775" gradientUnits="userSpaceOnUse">
<stop stop-color="#F7A914"/>
<stop offset="0.65" stop-color="#F6A713"/>
</linearGradient>
<linearGradient id="paint52_linear_11_4756" x1="27.8551" y1="67.1465" x2="30.2481" y2="67.1465" gradientUnits="userSpaceOnUse">
<stop stop-color="#F8EB5C"/>
<stop offset="0.65" stop-color="#FFD848"/>
</linearGradient>
<linearGradient id="paint53_linear_11_4756" x1="29.9497" y1="65.8109" x2="30.9224" y2="65.8109" gradientUnits="userSpaceOnUse">
<stop stop-color="#B56019"/>
<stop offset="0.65" stop-color="#E17E08"/>
</linearGradient>
<linearGradient id="paint54_linear_11_4756" x1="27.8551" y1="61.9347" x2="30.6718" y2="61.9347" gradientUnits="userSpaceOnUse">
<stop stop-color="#F8EB5C"/>
<stop offset="0.65" stop-color="#FFD848"/>
</linearGradient>
<radialGradient id="paint55_radial_11_4756" cx="0" cy="0" r="1" gradientUnits="userSpaceOnUse" gradientTransform="translate(29.0252 63.6888) scale(1.02452 1.01911)">
<stop stop-color="#FBFAE6"/>
<stop offset="0.27" stop-color="#F8EB5C"/>
<stop offset="0.7" stop-color="#FFD848"/>
</radialGradient>
<linearGradient id="paint56_linear_11_4756" x1="30.2361" y1="69.5683" x2="31.7579" y2="69.5683" gradientUnits="userSpaceOnUse">
<stop stop-color="#B56019"/>
<stop offset="0.65" stop-color="#E17E08"/>
</linearGradient>
<linearGradient id="paint57_linear_11_4756" x1="29.4663" y1="68.6957" x2="28.8855" y2="69.5" gradientUnits="userSpaceOnUse">
<stop stop-color="#FFD50E"/>
<stop offset="0.65" stop-color="#F6A713"/>
</linearGradient>
</defs>
</svg>
