<svg width="178" height="80" viewBox="0 0 300 80" fill="none"
    xmlns="http://www.w3.org/2000/svg" xmlns:xlink="http://www.w3.org/1999/xlink">
    <path
        d="M0.0904472 8.12521C0.402122 11.7872 3.20984 14.6567 6.62771 14.6567L170.627 14.6567C174.045 14.6567 176.85 11.7902 177.164 8.12521C177.164 7.85206 177.164 7.49787 177.164 7.22472C176.853 3.55974 174.045 0.693197 170.627 0.693197L6.62771 0.6932C3.20984 0.693201 0.404764 3.55975 0.0904472 7.22473C0.0904472 7.5429 0.0904472 7.79203 0.0904472 8.12521Z"
        fill="#EF7A06" />
    <path
        d="M1.02538 8.06389C1.33441 11.2546 4.09723 13.752 7.46226 13.752L169.792 13.752C173.157 13.752 175.923 11.2546 176.229 8.06388C176.229 7.82675 176.229 7.51759 176.229 7.28046C175.92 4.08974 173.157 1.59239 169.792 1.59239L7.46226 1.59239C4.09723 1.59239 1.33177 4.08974 1.02538 7.28046C1.02538 7.55661 1.02538 7.77573 1.02538 8.06389Z"
        fill="url(#paint0_linear_11_4397)" />
    <path
        d="M7.46226 3.39538L169.792 3.39537C172.978 3.39537 175.619 5.63158 176.155 8.57617C176.187 8.40808 176.213 8.23999 176.229 8.0689C176.229 7.83177 176.229 7.5226 176.229 7.28548C175.92 4.09475 173.157 1.5974 169.792 1.5974L7.46226 1.59741C4.09723 1.59741 1.33177 4.09476 1.02538 7.28548C1.02538 7.56163 1.02538 7.78075 1.02538 8.0689C1.04122 8.23999 1.06763 8.41109 1.09933 8.57618C1.63551 5.63159 4.27948 3.39538 7.46226 3.39538Z"
        fill="url(#paint1_linear_11_4397)" />
    <path
        d="M6.96278 10.2083C6.96278 9.76709 7.2771 9.4069 7.66801 9.4069L11.5428 9.4069C11.9311 9.4069 12.2481 9.76409 12.2481 10.2083C12.2481 10.6496 11.9337 11.0098 11.5428 11.0098L7.66801 11.0098C7.2771 11.0068 6.96278 10.6496 6.96278 10.2083Z"
        fill="white" fill-opacity="0.79" />
    <path
        d="M14.0078 10.2083C14.0078 9.7671 14.3221 9.4069 14.713 9.4069L170.39 9.4069C170.778 9.4069 171.095 9.76409 171.095 10.2083C171.095 10.6496 170.78 11.0098 170.39 11.0098L14.7104 11.0098C14.3221 11.0068 14.0078 10.6496 14.0078 10.2083Z"
        fill="white" fill-opacity="0.79" />
    <defs>
        <linearGradient id="paint0_linear_11_4397"
            x1="88.6279" y1="3.52708" x2="88.6279"
            y2="16.7138" gradientUnits="userSpaceOnUse">
            <stop stop-color="#FFC700" stop-opacity="0.51" />
            <stop offset="1" stop-color="#EC6707" />
        </linearGradient>
        <linearGradient id="paint1_linear_11_4397"
            x1="88.4802" y1="12.6848" x2="88.8007"
            y2="5.97848" gradientUnits="userSpaceOnUse">
            <stop stop-color="#FFC700" stop-opacity="0.64" />
            <stop offset="1" stop-color="#EC6707" />
        </linearGradient>
    </defs>
</svg>
