<svg width="21" height="22" viewBox="0 0 21 22" fill="none" xmlns="http://www.w3.org/2000/svg">
<g clip-path="url(#clip0_837_8788)">
<path d="M9.625 12.5313C9.625 12.1699 9.32925 11.875 8.96875 11.875H5.6875V14.5C5.6875 14.983 5.2955 15.375 4.8125 15.375C4.3295 15.375 3.9375 14.983 3.9375 14.5V11.875H0.65625C0.294875 11.875 0 12.1699 0 12.5313V20.8438C0 21.2051 0.294875 21.5 0.65625 21.5H8.96875C9.32925 21.5 9.625 21.2051 9.625 20.8438V12.5313Z" fill="#E74111"/>
<path d="M21 12.5313C21 12.1699 20.7043 11.875 20.3438 11.875H17.0625V14.5C17.0625 14.983 16.6705 15.375 16.1875 15.375C15.7045 15.375 15.3125 14.983 15.3125 14.5V11.875H12.0312C11.6699 11.875 11.375 12.1699 11.375 12.5313V20.8438C11.375 21.2051 11.6699 21.5 12.0312 21.5H20.3438C20.7043 21.5 21 21.2051 21 20.8438V12.5313Z" fill="#E74111"/>
<path d="M15.3125 1.15625C15.3125 0.79575 15.0168 0.5 14.6562 0.5H11.375V3.125C11.375 3.608 10.983 4 10.5 4C10.017 4 9.625 3.608 9.625 3.125V0.5H6.34375C5.98237 0.5 5.6875 0.79575 5.6875 1.15625V9.46875C5.6875 9.83013 5.98237 10.125 6.34375 10.125H14.6562C15.0168 10.125 15.3125 9.83013 15.3125 9.46875V1.15625Z" fill="#FBBA00"/>
</g>
<defs>
<clipPath id="clip0_837_8788">
<rect width="21" height="21" fill="white" transform="translate(0 0.5)"/>
</clipPath>
</defs>
</svg>
