<svg width="24" height="24" viewBox="0 0 24 24" fill="none" xmlns="http://www.w3.org/2000/svg">
    <path
        d="M23.5972 10.9252L19.9599 7.28791V3.0862C19.9599 2.32647 19.3442 1.71077 18.5834 1.71077C17.8243 1.71077 17.2086 2.32647 17.2086 3.0862V4.53671L14.5003 1.82835C13.1613 0.490077 10.8333 0.49245 9.49733 1.83077L0.402681 10.9252C-0.134196 11.4632 -0.134196 12.3336 0.402681 12.8707C0.939801 13.4085 1.81192 13.4085 2.34885 12.8707L11.4426 3.77602C11.7389 3.48132 12.261 3.48132 12.5557 3.77514L21.6511 12.8707C21.9207 13.1396 22.2724 13.2734 22.6239 13.2734C22.9761 13.2734 23.3283 13.1395 23.5972 12.8707C24.1343 12.3336 24.1343 11.4632 23.5972 10.9252Z"
        fill="#D9D9D9" />
    <path
        d="M12.4778 6.38692C12.2135 6.12284 11.7857 6.12284 11.5223 6.38692L3.5226 14.3842C3.3963 14.5105 3.3247 14.6828 3.3247 14.8627V20.6957C3.3247 22.0644 4.43449 23.1741 5.80319 23.1741H9.76383V17.0404H14.2353V23.1741H18.196C19.5647 23.1741 20.6745 22.0644 20.6745 20.6957V14.8627C20.6745 14.6828 20.6035 14.5105 20.4766 14.3842L12.4778 6.38692Z"
        fill="#B3B3B3" />
</svg>
