<svg width="32" height="32" viewBox="0 0 32 32" fill="none" xmlns="http://www.w3.org/2000/svg">
<path d="M25.9599 20.2927C25.9599 19.6461 25.4358 19.122 24.7892 19.122C24.1426 19.122 23.6185 19.6461 23.6185 20.2927V23.8049H20.1063C19.4597 23.8049 18.9355 24.3291 18.9355 24.9756C18.9355 25.6222 19.4597 26.1463 20.1063 26.1463H23.6185V29.6585C23.6185 30.3051 24.1426 30.8293 24.7892 30.8293C25.4358 30.8293 25.9599 30.3051 25.9599 29.6585V26.1463H29.4721C30.1187 26.1463 30.6429 25.6222 30.6429 24.9756C30.6429 24.3291 30.1187 23.8049 29.4721 23.8049H25.9599V20.2927Z" fill="#FBBA00"/>
<path d="M6.05762 7.41463C6.05762 3.31965 9.37727 0 13.4723 0C17.5673 0 20.8869 3.31965 20.8869 7.41463C20.8869 11.5096 17.5673 14.8293 13.4723 14.8293C9.37727 14.8293 6.05762 11.5096 6.05762 7.41463Z" fill="#EC6707"/>
<path d="M1.375 24.5854C1.375 20.4903 4.69465 17.1707 8.78963 17.1707H18.1555C19.6846 17.1707 21.1057 17.6337 22.2863 18.427C21.8978 18.9474 21.6677 19.5932 21.6677 20.2927V21.8537H20.1067C18.3825 21.8537 16.9848 23.2514 16.9848 24.9756C16.9848 26.6999 18.3825 28.0976 20.1067 28.0976H21.6677V29.6585C21.6677 30.1218 21.7687 30.5616 21.9497 30.957C20.8397 31.6194 19.5421 32 18.1555 32H8.78963C4.69465 32 1.375 28.6804 1.375 24.5854Z" fill="#EC6707"/>
</svg>
