<svg width="24" height="24" viewBox="0 0 24 24" fill="none" xmlns="http://www.w3.org/2000/svg">
<path d="M23.143 18.857H20.5716V16.2856C20.5716 16.0583 20.4813 15.8403 20.3205 15.6795C20.1598 15.5188 19.9418 15.4285 19.7144 15.4285C19.4871 15.4285 19.2691 15.5188 19.1083 15.6795C18.9476 15.8403 18.8573 16.0583 18.8573 16.2856V18.857H16.2859C16.0585 18.857 15.8405 18.9473 15.6798 19.1081C15.519 19.2688 15.4287 19.4869 15.4287 19.7142C15.4287 19.9415 15.519 20.1595 15.6798 20.3203C15.8405 20.481 16.0585 20.5713 16.2859 20.5713H18.8573V23.1428C18.8573 23.3701 18.9476 23.5881 19.1083 23.7488C19.2691 23.9096 19.4871 23.9999 19.7144 23.9999C19.9418 23.9999 20.1598 23.9096 20.3205 23.7488C20.4813 23.5881 20.5716 23.3701 20.5716 23.1428V20.5713H23.143C23.3703 20.5713 23.5883 20.481 23.7491 20.3203C23.9098 20.1595 24.0001 19.9415 24.0001 19.7142C24.0001 19.4869 23.9098 19.2688 23.7491 19.1081C23.5883 18.9473 23.3703 18.857 23.143 18.857Z" fill="#E74111"/>
<path d="M12.8571 18.8571H2.57143C2.3441 18.8571 2.12608 18.7668 1.96534 18.6061C1.80459 18.4453 1.71429 18.2273 1.71429 18V2.57143C1.71429 2.3441 1.80459 2.12608 1.96534 1.96534C2.12608 1.80459 2.3441 1.71429 2.57143 1.71429H18C18.2273 1.71429 18.4453 1.80459 18.6061 1.96534C18.7668 2.12608 18.8571 2.3441 18.8571 2.57143V12.8571C18.8571 13.0845 18.9474 13.3025 19.1082 13.4632C19.2689 13.624 19.487 13.7143 19.7143 13.7143C19.9416 13.7143 20.1596 13.624 20.3204 13.4632C20.4811 13.3025 20.5714 13.0845 20.5714 12.8571V2.57143C20.5714 1.88944 20.3005 1.23539 19.8183 0.753154C19.336 0.270918 18.682 0 18 0H2.57143C1.88944 0 1.23539 0.270918 0.753154 0.753154C0.270918 1.23539 0 1.88944 0 2.57143V18C0 18.682 0.270918 19.336 0.753154 19.8183C1.23539 20.3005 1.88944 20.5714 2.57143 20.5714H12.8571C13.0845 20.5714 13.3025 20.4811 13.4632 20.3204C13.624 20.1596 13.7143 19.9416 13.7143 19.7143C13.7143 19.487 13.624 19.2689 13.4632 19.1082C13.3025 18.9474 13.0845 18.8571 12.8571 18.8571Z" fill="#E74111"/>
<path d="M7.71415 7.71418C8.89761 7.71418 9.857 6.75479 9.857 5.57132C9.857 4.38786 8.89761 3.42847 7.71415 3.42847C6.53068 3.42847 5.57129 4.38786 5.57129 5.57132C5.57129 6.75479 6.53068 7.71418 7.71415 7.71418Z" fill="#E74111"/>
<path d="M4.53443 10.5342L3.42871 11.6485V17.1428H17.143V11.6485L13.4659 7.96277C13.3862 7.88243 13.2914 7.81866 13.1869 7.77515C13.0825 7.73163 12.9704 7.70923 12.8573 7.70923C12.7441 7.70923 12.6321 7.73163 12.5276 7.77515C12.4232 7.81866 12.3284 7.88243 12.2487 7.96277L7.71443 12.5056L5.75157 10.5342C5.67189 10.4539 5.57708 10.3901 5.47263 10.3466C5.36818 10.3031 5.25615 10.2807 5.143 10.2807C5.02984 10.2807 4.91781 10.3031 4.81336 10.3466C4.70891 10.3901 4.61411 10.4539 4.53443 10.5342Z" fill="#E74111"/>
</svg>
