<svg width="97" height="96" viewBox="0 0 97 96" fill="none" xmlns="http://www.w3.org/2000/svg">
<g clip-path="url(#clip0_2413_8997)">
<path d="M95.0089 73.3686L58.2874 11.55C56.2625 7.94982 52.606 5.81232 48.4999 5.81232C44.3939 5.81232 40.7374 7.94982 38.7124 11.4936L1.94219 73.425C-0.0267444 76.9688 0.0295058 81.1313 2.05488 84.6188C4.07988 88.1063 7.73576 90.1875 11.7297 90.1875H85.2779C89.2718 90.1875 92.9279 88.1063 94.9527 84.6188C96.9779 81.1311 97.0341 76.9688 95.0089 73.3686Z" fill="#EC6707"/>
<path d="M94.9526 84.6186C92.9276 88.1061 89.2717 90.1873 85.2778 90.1873H48.5V5.81232C52.6061 5.81232 56.2625 7.94982 58.2875 11.55L95.009 73.3688C97.0342 76.9688 96.978 81.1311 94.9526 84.6186Z" fill="#EC6707"/>
<path d="M54.125 64.8748H42.875V76.1248H54.125V64.8748Z" fill="white"/>
<path d="M54.125 31.1248H42.875V59.2498H54.125V31.1248Z" fill="white"/>
<path d="M54.125 31.1248H48.5V59.2498H54.125V31.1248Z" fill="white"/>
<path d="M54.125 64.8748H48.5V76.1248H54.125V64.8748Z" fill="white"/>
</g>
<defs>
<clipPath id="clip0_2413_8997">
<rect width="96" height="96" fill="white" transform="translate(0.5)"/>
</clipPath>
</defs>
</svg>
