<svg width="25" height="25" viewBox="0 0 25 25" fill="none" xmlns="http://www.w3.org/2000/svg">
<path d="M9.06002 12.6C9.34092 12.3187 9.4987 11.9375 9.4987 11.54C9.4987 11.1425 9.34092 10.7612 9.06002 10.48L8.08602 9.50398H16.5C16.8978 9.50398 17.2794 9.34595 17.5607 9.06464C17.842 8.78334 18 8.40181 18 8.00398C18 7.60616 17.842 7.22463 17.5607 6.94332C17.2794 6.66202 16.8978 6.50398 16.5 6.50398H8.08602L9.06102 5.52998C9.34242 5.24859 9.5005 4.86693 9.5005 4.46898C9.5005 4.07103 9.34242 3.68938 9.06102 3.40798C8.77963 3.12659 8.39798 2.9685 8.00002 2.9685C7.60207 2.9685 7.22042 3.12659 6.93902 3.40798L3.40402 6.94398C3.12282 7.22527 2.96484 7.60674 2.96484 8.00448C2.96484 8.40223 3.12282 8.78369 3.40402 9.06498L6.93902 12.601C7.07832 12.7404 7.24372 12.8509 7.42578 12.9264C7.60783 13.0018 7.80296 13.0407 8.00002 13.0407C8.19709 13.0407 8.39222 13.0018 8.57427 12.9264C8.75632 12.8509 8.92172 12.7404 9.06102 12.601L9.06002 12.6ZM15.94 21.6C16.2024 21.8626 16.5528 22.0186 16.9235 22.0378C17.2942 22.057 17.6589 21.9381 17.947 21.704L18.061 21.601L21.596 18.065C21.8585 17.8025 22.0143 17.452 22.0333 17.0813C22.0523 16.7106 21.9332 16.346 21.699 16.058L21.596 15.944L18.061 12.408C17.7898 12.1327 17.4228 11.9728 17.0365 11.9615C16.6502 11.9501 16.2745 12.0883 15.9876 12.3472C15.7007 12.6062 15.5249 12.9658 15.4966 13.3512C15.4684 13.7366 15.59 14.118 15.836 14.416L15.939 14.53L16.914 15.504H8.50002C8.11289 15.5013 7.73971 15.6484 7.45854 15.9145C7.17737 16.1807 7.00998 16.5452 6.99138 16.9319C6.97279 17.3186 7.10442 17.6975 7.35875 17.9894C7.61308 18.2813 7.97042 18.4635 8.35602 18.498L8.50002 18.504H16.914L15.939 19.479C15.7996 19.6183 15.6891 19.7837 15.6136 19.9657C15.5382 20.1478 15.4993 20.3429 15.4993 20.54C15.4993 20.737 15.5382 20.9322 15.6136 21.1142C15.6891 21.2963 15.7996 21.4617 15.939 21.601L15.94 21.6Z" fill="#E74111"/>
</svg>
