<svg width="16" height="8" viewBox="0 0 16 8" fill="none" xmlns="http://www.w3.org/2000/svg">
<path d="M0.183311 4.44241L0.183873 4.443L3.44962 7.693C3.69428 7.93647 4.09 7.93556 4.33353 7.69088C4.57703 7.44622 4.57609 7.0505 4.33144 6.807L2.13881 4.625L15.375 4.625C15.7202 4.625 16 4.34519 16 4C16 3.65481 15.7202 3.375 15.375 3.375L2.13884 3.375L4.33141 1.193C4.57606 0.949501 4.577 0.553782 4.3335 0.309126C4.08997 0.0644077 3.69422 0.0635642 3.44959 0.307001L0.183842 3.557L0.183279 3.55759C-0.0615021 3.80191 -0.0607201 4.19891 0.183311 4.44241Z" fill="white"/>
</svg>
