<svg width="184" height="106" viewBox="0 0 184 106" fill="none" xmlns="http://www.w3.org/2000/svg">
    <g clip-path="url(#clip0_1964_6349)">
        <path
            d="M43.2914 61.5537C43.8703 61.9221 44.2361 62.8501 44.1064 63.433C43.9768 64.0159 43.4836 64.319 42.7983 64.4053C42.1106 64.5125 41.3396 64.4915 40.6519 64.4053C39.9434 64.34 39.4502 64.298 38.8482 64.319C38.2462 64.34 37.7322 64.5125 37.4104 64.8599C37.239 65.0325 37.1533 65.2493 37.1325 65.5291C37.1117 66.4594 38.0772 67.1076 39.4062 67.518C40.7376 67.9283 42.4116 68.1009 43.8494 68.0356C45.2873 67.9703 46.445 67.6672 46.7251 67.1286C46.8317 66.8908 46.6603 66.3731 46.4033 65.8322C46.2736 65.5524 46.1463 65.2913 45.9958 65.0535C45.8453 64.8156 45.7596 64.6221 45.6948 64.4915C46.5307 63.9086 47.348 63.3677 48.1838 62.8268C48.42 63.2814 48.6122 63.6685 48.8067 63.9506C49.1494 64.5335 49.3439 65.0301 49.3855 65.6783C49.4064 66.0024 49.3647 66.4338 49.279 66.9747C49.2142 67.3431 49.2142 67.6229 49.4944 67.7954C49.624 67.9027 49.837 67.968 50.1172 68.0123C50.3974 68.0566 50.8049 68.0775 51.3189 68.0775C51.5967 68.0775 51.8329 68.4669 51.8329 68.9636C51.8329 69.4602 51.5967 69.8729 51.3189 69.8729C49.2813 69.8519 48.2718 69.4835 47.6073 68.7071C46.6418 69.248 44.8173 69.6794 42.7797 69.8099C40.7399 69.9405 38.5518 69.7889 36.857 69.1827C35.1366 68.5975 33.979 67.5389 33.9998 65.8975C34.0206 64.4286 34.9445 63.6288 36.1022 63.2838C37.2599 62.9387 38.6769 63.025 39.772 63.2838C39.9642 63.3281 40.2235 63.37 40.5014 63.4353C41.0802 63.5659 41.6822 63.6288 42.2611 63.6079C42.8399 63.5869 43.2474 63.391 43.3979 62.9807C43.4628 62.7871 43.4628 62.505 43.3539 62.1389C43.31 62.0527 43.2891 61.9454 43.2891 61.7939V61.5537H43.2914ZM43.2914 72.4656C43.2914 73.1791 42.7126 73.762 42.0041 73.762C41.2956 73.762 40.7167 73.1791 40.7167 72.4656C40.7167 71.7522 41.2956 71.1693 42.0041 71.1693C42.7126 71.1693 43.2914 71.7545 43.2914 72.4656Z"
            fill="#E74111" />
        <path
            d="M57.3042 62.8291C57.4755 63.1532 57.626 63.4353 57.7765 63.6708C58.0544 64.1884 58.3137 64.6431 58.441 65.1187C58.5059 65.3566 58.5267 65.6364 58.5267 65.9185C58.5267 66.2869 58.4827 66.611 58.4202 66.8908C58.2697 67.4317 58.3345 67.7768 58.9134 67.9493C59.1912 68.0356 59.7076 68.0799 60.4161 68.0799C60.7379 68.0799 60.9532 68.4693 60.9532 68.9659C60.9532 69.4625 60.7379 69.8729 60.4161 69.8729C58.4202 69.8519 57.3899 69.4835 56.7253 68.7071C55.9312 69.1617 54.9448 69.4625 53.9793 69.6374C53.0138 69.8099 52.0691 69.8752 51.3189 69.8752C50.9971 69.8752 50.7817 69.4649 50.7817 68.9682C50.7817 68.4716 50.9971 68.0822 51.3189 68.0822C52.4558 68.0822 53.5926 67.9516 54.4516 67.7371C55.3106 67.5203 55.8686 67.1962 55.8686 66.7649C55.8038 66.506 55.6325 66.0724 55.4171 65.641L55.0745 64.9928C54.968 64.7993 54.8823 64.6244 54.8175 64.4962L57.3042 62.8291ZM54.579 72.4656C54.579 73.1791 54.0001 73.762 53.2916 73.762C52.5831 73.762 52.0251 73.1791 52.0251 72.4656C52.0251 71.7522 52.5831 71.1693 53.2916 71.1693C54.0001 71.1693 54.579 71.7545 54.579 72.4656ZM57.5635 71.927C57.5635 72.6405 57.0055 73.2234 56.297 73.2234C55.5885 73.2234 55.0096 72.6405 55.0096 71.927C55.0096 71.2136 55.5885 70.6307 56.297 70.6307C57.0055 70.6307 57.5635 71.2136 57.5635 71.927Z"
            fill="#E74111" />
        <path
            d="M64.2572 57.231C64.2572 57.252 64.1923 57.2753 64.0858 57.2963C63.6783 57.4036 63.4838 57.9025 63.3982 58.4411C63.2917 58.9821 63.3125 59.586 63.3982 59.9334C63.5695 60.8637 63.7848 61.5748 64.1067 62.4189C64.4494 63.3492 64.535 64.2981 64.5142 65.0116C64.4933 65.422 64.4702 65.8323 64.4077 66.2217C65.181 65.38 66.1674 64.494 67.2186 63.8015C68.2489 63.1323 69.3858 62.722 70.5018 62.8945C71.1246 62.9808 71.7035 63.2629 72.111 63.629C72.5185 63.9974 72.7755 64.536 72.7755 65.0769C72.7755 67.0005 71.7451 68.1896 70.2864 68.8797C68.8277 69.5699 66.9384 69.81 65.1787 69.873C64.2989 69.894 63.463 69.894 62.7105 69.873C61.958 69.852 61.3583 69.852 60.9068 69.873H60.4136C60.0918 69.873 59.8765 69.4836 59.8765 68.987C59.8765 68.4904 60.0918 68.101 60.4136 68.101C62.2798 68.101 62.817 67.4971 62.7962 66.6088C62.7753 66.1774 62.6665 65.6784 62.4303 65.1165C61.958 64.0137 61.4 62.8898 61.1638 61.4419C61.0342 60.7284 61.099 60.0383 61.356 59.3668C61.5922 58.7839 61.9997 58.2429 62.472 57.8326C62.9444 57.4222 63.4815 57.1844 64.0604 57.2054C64.1923 57.21 64.2572 57.21 64.2572 57.231ZM67.7974 65.7461C67.0889 66.1774 66.3156 66.9119 65.8664 67.9727C66.2947 67.9727 67.1537 67.7792 67.9919 67.4761C68.8277 67.173 69.6219 66.7626 69.9438 66.266C70.3096 65.7251 70.1359 65.38 69.6868 65.2727C69.2376 65.1655 68.5059 65.3147 67.7974 65.7461Z"
            fill="#E74111" />
        <path
            d="M87.5616 61.5539C88.1404 61.9223 88.5063 62.8503 88.3766 63.4332C88.2469 64.0161 87.7538 64.3192 87.0684 64.4055C86.3807 64.5127 85.6097 64.4917 84.922 64.4055C84.2135 64.3402 83.7204 64.2982 83.1184 64.3192C82.5163 64.3402 82.0023 64.5127 81.6805 64.8601C81.5092 65.0327 81.4235 65.2495 81.4026 65.5293C81.3818 66.4596 82.3473 67.1078 83.6764 67.5182C85.0077 67.9285 86.6817 68.1011 88.1196 68.0358C89.5574 67.9705 90.7151 67.6674 90.9953 67.1288C91.1018 66.891 90.9305 66.3734 90.6735 65.8324C90.5438 65.5526 90.4164 65.2915 90.2659 65.0537C90.1154 64.8158 90.0298 64.6223 89.9649 64.4917C90.8008 63.9088 91.6181 63.3679 92.454 62.827C92.6902 63.2816 92.8823 63.6687 93.0768 63.9508C93.4195 64.5337 93.614 65.0303 93.6557 65.6785C93.6765 66.0026 93.6348 66.434 93.5492 66.9749C93.4843 67.3433 93.4843 67.6231 93.7645 67.7956C93.8942 67.9029 94.1072 67.9682 94.3873 68.0125C94.6675 68.0568 95.075 68.0778 95.589 68.0778C95.8669 68.0778 96.103 68.4671 96.103 68.9638C96.103 69.4604 95.8669 69.8708 95.589 69.8708C93.5515 69.8498 92.542 69.4814 91.8775 68.705C90.9119 69.2459 89.0874 69.6772 87.0499 69.8078C85.01 69.9384 82.822 69.7868 81.1271 69.1806C79.4114 68.5977 78.2514 67.5392 78.2722 65.8954C78.2931 64.4265 79.2169 63.6267 80.3746 63.2816C81.5323 62.9366 82.9493 63.0228 84.0445 63.2816C84.2367 63.3259 84.496 63.3679 84.7739 63.4332C85.3527 63.5638 85.9547 63.6267 86.5335 63.6057C87.1124 63.5848 87.5199 63.3889 87.6704 62.9785C87.7352 62.785 87.7352 62.5029 87.6264 62.1368C87.5824 62.0506 87.5616 61.9433 87.5616 61.7917V61.5539ZM87.3486 61.4234C87.3486 62.1368 86.7697 62.6987 86.0612 62.6987C85.3527 62.6987 84.7739 62.1368 84.7739 61.4234C84.7739 60.7099 85.3527 60.127 86.0612 60.127C86.7697 60.127 87.3486 60.7122 87.3486 61.4234ZM90.3308 60.8848C90.3308 61.5982 89.7519 62.1601 89.0434 62.1601C88.3349 62.1601 87.7561 61.5982 87.7561 60.8848C87.7561 60.1713 88.3349 59.5884 89.0434 59.5884C89.7519 59.5884 90.3308 60.1713 90.3308 60.8848Z"
            fill="#E74111" />
        <path
            d="M101.574 62.8293C101.746 63.1534 101.896 63.4355 102.047 63.671C102.324 64.1886 102.584 64.6433 102.711 65.1189C102.776 65.3567 102.797 65.6365 102.797 65.9187C102.797 67.0215 102.26 67.8213 101.489 68.4042C100.694 68.9871 99.6432 69.3555 98.5711 69.57C97.4991 69.7868 96.4248 69.8731 95.5889 69.8731C95.2671 69.8731 95.0518 69.4627 95.0518 68.9661C95.0518 68.4694 95.2671 68.0801 95.5889 68.0801C96.7258 68.0801 97.8626 67.9495 98.7216 67.735C99.5807 67.5181 100.159 67.1941 100.159 66.7627C100.139 66.6974 100.095 66.6112 100.074 66.5039C100.053 66.3966 99.9882 66.2871 99.9233 66.1798L99.0875 64.4941L101.574 62.8293ZM100.331 61.4233C100.331 62.1368 99.7728 62.6987 99.0643 62.6987C98.3558 62.6987 97.777 62.1368 97.777 61.4233C97.777 60.7099 98.3558 60.127 99.0643 60.127C99.7728 60.127 100.331 60.7122 100.331 61.4233Z"
            fill="#E74111" />
        <path
            d="M107.048 57.2311C107.048 57.2521 106.983 57.2754 106.877 57.2964C106.469 57.4037 106.277 57.9026 106.189 58.4412C106.083 58.9822 106.103 59.5861 106.168 59.9335C106.404 61.1226 106.682 61.9643 107.199 63.1744C107.777 64.557 107.798 65.8324 107.435 66.9982C107.069 68.164 106.298 69.2249 105.288 70.2392L105.159 70.0666C105.846 68.7703 105.974 67.7537 105.758 66.7394C105.652 66.2428 105.478 65.7229 105.244 65.2052C104.793 64.1677 104.193 62.8923 103.957 61.4444C103.827 60.7309 103.892 60.0407 104.149 59.3692C104.385 58.7863 104.793 58.2454 105.265 57.835C105.738 57.4247 106.275 57.1868 106.854 57.2078C106.983 57.2102 107.048 57.2102 107.048 57.2311Z"
            fill="#E74111" />
        <path
            d="M114.772 63.3049C114.43 63.65 114.365 64.0184 114.406 64.4497C114.448 64.8811 114.643 65.3357 114.835 65.8324C115.458 67.3246 115.972 68.6419 116.036 69.873C116.122 71.4935 115.629 72.6383 114.856 73.3098C114.061 74.0023 112.925 74.1749 111.723 73.8274C110.864 73.5896 110.241 73.072 109.727 72.6383C109.213 72.207 108.782 71.8386 108.354 71.8596C107.988 71.8805 108.053 71.6217 108.333 71.4282C108.59 71.2557 109.063 71.1694 109.491 71.5145C110.285 72.1837 111.014 72.6803 112.11 72.4868C112.989 72.3142 113.397 71.5145 113.503 70.1318C112.302 71.0831 111.121 70.8243 110.241 70.0246C109.361 69.2458 108.762 67.9075 108.674 66.7837C108.588 65.7671 108.889 64.8181 109.468 64.0813C110.047 63.3469 110.926 62.8269 112.022 62.7197C112.862 62.6124 113.677 62.8945 114.772 63.3049ZM111.038 66.8699C111.082 67.4971 111.424 67.9938 112.283 68.1453C112.797 67.6487 112.797 67.0868 112.561 66.4806C112.455 66.2008 112.304 65.8976 112.11 65.6155C111.917 65.3334 111.767 65.0536 111.616 64.7948C111.253 65.4873 110.996 66.2637 111.038 66.8699Z"
            fill="#E74111" />
        <path
            d="M131.318 63.1743C131.167 64.3192 131.274 65.5526 131.661 66.5015C132.047 67.4528 132.756 68.101 133.893 68.101C134.214 68.101 134.43 68.4904 134.43 68.987C134.43 69.4837 134.214 69.873 133.893 69.873C132.198 69.873 131.188 69.1386 130.524 68.08C129.859 67.0215 129.579 65.6155 129.387 64.2982C128.442 64.1466 127.521 64.0604 126.555 64.1676C124.816 64.3611 123.851 65.3334 123.723 66.308C123.594 67.2803 124.281 68.2736 125.911 68.5977C127.393 68.8798 128.294 68.2946 128.551 67.6044C128.808 66.9352 128.421 66.2008 127.328 66.2008C127.5 66.5249 127.479 66.8699 127.328 67.1311C127.157 67.4109 126.856 67.6067 126.493 67.6067C125.979 67.6067 125.548 67.1754 125.548 66.6554C125.548 66.1145 126.02 65.7041 126.643 65.5316C127.266 65.3591 128.081 65.401 128.704 65.6832C129.327 65.9653 129.841 66.5249 129.862 67.3899C129.882 68.1453 129.475 68.9031 128.382 69.486C127.437 69.9826 126.3 69.9826 125.27 69.6376C124.219 69.3135 123.209 68.6443 122.524 67.8212C121.839 66.9982 121.429 66.0282 121.579 65.056C121.73 63.9531 122.288 63.2186 123.124 62.743C123.962 62.2674 125.034 62.0505 126.171 61.9642C127.287 61.878 128.509 61.9199 129.561 61.9433C129.882 60.971 130.591 60.43 132.221 60.3648C131.79 60.971 131.466 62.0295 131.318 63.1743ZM125.502 58.8515C125.823 59.5207 125.566 60.2552 124.902 60.5793C124.237 60.9034 123.508 60.6236 123.184 59.9521C122.862 59.2829 123.14 58.5484 123.807 58.2243C124.471 57.9026 125.18 58.1824 125.502 58.8515ZM128.57 58.6137C128.891 59.2829 128.611 59.9964 127.947 60.3205C127.324 60.6446 126.574 60.3857 126.252 59.7142C125.93 59.0451 126.208 58.3106 126.875 57.9865C127.542 57.6624 128.248 57.9446 128.57 58.6137Z"
            fill="#E74111" />
        <path
            d="M139.878 62.8293C140.049 63.1534 140.2 63.4355 140.35 63.671C140.628 64.1886 140.887 64.6433 141.015 65.1189C141.08 65.3567 141.1 65.6365 141.1 65.9187C141.1 66.2871 141.056 66.6111 140.994 66.8909C140.843 67.4319 140.908 67.777 141.487 67.9495C141.765 68.0358 142.281 68.0801 142.99 68.0801C143.312 68.0801 143.527 68.4694 143.527 68.9661C143.527 69.4627 143.312 69.8731 142.99 69.8731C140.994 69.8521 139.964 69.4837 139.299 68.7073C138.505 69.1619 137.519 69.4627 136.553 69.6376C135.588 69.8101 134.643 69.8754 133.893 69.8754C133.571 69.8754 133.355 69.465 133.355 68.9684C133.355 68.4718 133.571 68.0824 133.893 68.0824C135.029 68.0824 136.166 67.9518 137.025 67.7373C137.884 67.5205 138.442 67.1964 138.442 66.765C138.378 66.5062 138.206 66.0725 137.991 65.6412L137.648 64.993C137.542 64.7995 137.456 64.6246 137.391 64.4964L139.878 62.8293ZM138.676 61.4233C138.676 62.1368 138.097 62.6987 137.389 62.6987C136.68 62.6987 136.122 62.1368 136.122 61.4233C136.122 60.7099 136.68 60.127 137.389 60.127C138.097 60.127 138.676 60.7122 138.676 61.4233Z"
            fill="#E74111" />
        <path
            d="M155.308 63.6942C155.609 64.2119 155.822 64.6455 155.951 65.1212C156.016 65.359 156.037 65.6388 156.037 65.9419C156.037 67.2593 155.308 68.2968 154.277 68.8168C153.247 69.3344 151.895 69.3344 150.628 68.558C149.19 69.444 148.204 69.5093 146.743 68.6652C146.12 69.465 145.048 69.8753 142.987 69.8753C142.707 69.8753 142.45 69.4859 142.45 68.9893C142.45 68.4927 142.707 68.1033 142.987 68.1033C143.867 68.1033 144.49 67.9961 144.833 67.8002C145.52 67.4108 145.497 66.7416 145.069 65.8766L144.404 64.515C144.812 64.2352 145.24 63.953 145.65 63.6733L146.896 62.8315C147.088 63.1999 147.282 63.566 147.475 63.9111C147.882 64.6036 148.139 65.3147 148.139 66.0725C148.118 66.4619 148.009 66.8722 147.796 67.3036C148.139 67.7139 148.676 67.6929 149.042 67.4551C149.385 67.2173 149.6 66.7416 149.322 66.2007C149.172 65.9186 149.021 65.6388 148.829 65.359C148.637 65.0792 148.486 64.7971 148.336 64.5173L149.582 63.6756C149.989 63.3935 150.42 63.1137 150.827 62.8339C151.019 63.2023 151.214 63.5683 151.427 63.9134C151.855 64.6059 152.177 65.317 152.2 66.0748C152.2 66.4642 152.094 66.8745 151.878 67.3059C152.33 67.8025 153.036 67.7606 153.36 67.1543C153.467 66.9165 153.295 66.3756 153.038 65.837C152.909 65.5782 152.781 65.3194 152.631 65.0815C152.48 64.8437 152.395 64.6502 152.33 64.5196L153.576 63.6779C153.983 63.3958 154.411 63.116 154.821 62.8362C154.986 63.1533 155.157 63.4564 155.308 63.6942Z"
            fill="#E74111" />
        <path
            d="M168.635 57.2312C168.635 57.2521 168.57 57.2755 168.464 57.2964C168.056 57.4037 167.864 57.9027 167.776 58.4203C167.669 58.9612 167.69 59.5861 167.776 59.9335C167.968 60.9711 168.464 62.2884 168.978 63.6501C169.471 65.0327 169.987 66.4806 170.244 67.8423C170.374 67.9286 170.566 67.9939 170.846 68.0358C171.126 68.0778 171.511 68.1011 172.004 68.1011C172.326 68.1011 172.541 68.4905 172.541 68.9871C172.541 69.4838 172.326 69.8731 172.004 69.8731C171.381 69.8731 170.846 69.8288 170.395 69.7659C170.33 71.2138 169.45 72.2933 168.269 72.8786C167.088 73.4638 165.629 73.5711 164.363 73.0954C163.076 72.6198 162.001 71.6032 161.638 69.8755C161.446 68.9032 161.703 67.9099 162.045 67.0449C162.217 66.6135 162.388 66.2032 162.559 65.8348C162.881 65.0793 162.967 64.5174 162.624 64.2143C162.432 64.0628 162.087 63.9975 161.552 63.9975L161.531 63.8902C162.541 63.5661 163.034 63.6967 163.27 64.1071C163.506 64.5384 163.441 65.1866 163.27 65.9444C163.205 66.2685 163.12 66.5926 163.034 66.8747C162.863 67.4576 162.819 68.0638 162.99 68.733C163.161 69.4255 163.763 70.5493 164.9 71.2185C165.458 71.5426 166.058 71.6941 166.704 71.6731C167.477 71.6521 168.012 71.1555 167.95 69.8568C167.885 68.6467 167.498 67.3713 167.07 66.1192L166.382 64.261C165.93 63.0508 165.588 61.8827 165.523 60.8475C165.458 59.8122 165.824 59.0755 166.211 58.5345C166.597 58.0169 167.07 57.6042 167.605 57.3454C167.885 57.2382 168.163 57.1729 168.44 57.1939C168.57 57.2102 168.635 57.2102 168.635 57.2312Z"
            fill="#E74111" />
        <path
            d="M178.998 57.9654C178.806 59.7165 178.183 61.1201 177.604 62.0924C177.262 62.6753 176.875 63.1719 176.468 63.6266C177.176 63.2162 178.271 62.8058 179.408 62.589C180.524 62.3722 181.705 62.3302 182.585 62.6543C183.465 62.9994 184.023 63.7128 184.002 64.9439C183.937 66.154 183.143 67.1053 181.92 67.8398C180.698 68.5742 179.065 69.0709 177.306 69.395C175.546 69.74 173.657 69.8706 172.006 69.8706C171.684 69.8706 171.469 69.4812 171.469 68.9846C171.469 68.488 171.684 68.0986 172.006 68.0986C173.187 68.0986 174.56 67.968 175.868 67.7302C177.155 67.4924 178.401 67.1473 179.302 66.7136C180.202 66.2823 180.783 65.7833 180.804 65.2004C180.825 64.2281 180.246 63.925 179.366 63.9693C178.487 64.0136 177.285 64.4007 176.104 64.7481C174.902 65.0932 173.68 65.3963 172.8 65.31C171.835 65.2027 171.082 64.8786 171.082 64.0346C171.082 63.538 171.469 63.1486 171.962 63.1486C172.305 63.1486 172.585 63.3421 172.735 63.6033C172.8 63.7548 172.842 63.9064 172.842 64.0579C172.842 64.2095 172.798 64.361 172.712 64.5126C173.828 64.4473 174.643 63.8201 175.245 62.8921C175.824 61.9618 176.19 60.7517 176.447 59.5206C176.704 58.2895 176.833 57.0141 176.94 55.9976L178.998 57.9654Z"
            fill="#E74111" />
    </g>
    <path
        d="M11.0872 91.32L11.7452 90.97V97.662C11.7452 98.4367 11.5118 99.034 11.0452 99.454C10.6438 99.818 10.1118 100 9.44916 100H4.45116C3.77916 100 3.2425 99.79 2.84116 99.37C2.44916 98.95 2.25316 98.3807 2.25316 97.662V95.688L2.91116 95.338V97.55C2.91116 98.7913 3.48983 99.412 4.64716 99.412H9.37916C10.5178 99.412 11.0872 98.7913 11.0872 97.55V91.32ZM6.90116 93.616C7.60116 93.616 7.95116 93.924 7.95116 94.54C7.95116 95.072 7.68983 95.338 7.16716 95.338H5.54316L5.75316 94.946H7.13916C7.41916 94.946 7.55916 94.8107 7.55916 94.54C7.55916 94.1853 7.32583 94.008 6.85916 94.008C6.60716 94.008 6.37383 94.0547 6.15916 94.148V93.756L7.29316 92.496H7.74116L6.76116 93.616H6.90116ZM13.1507 100L13.4587 99.412H16.2167C16.7021 99.412 17.0427 99.2907 17.2387 99.048C17.4347 98.796 17.5327 98.3667 17.5327 97.76C17.5327 96.276 16.8981 95.1793 15.6287 94.47L15.9507 93.938C17.4441 94.806 18.1907 96.0847 18.1907 97.774C18.1907 99.258 17.5654 100 16.3147 100H13.1507ZM27.8428 99.412H28.4448V100H27.7448C26.8208 100 26.1674 99.6593 25.7848 98.978C25.3928 99.6593 24.7348 100 23.8108 100H19.4568L19.7648 99.412H21.9908V93.14L22.6488 92.79V99.412H23.7128C24.8701 99.412 25.4488 98.8147 25.4488 97.62V91.32L26.1068 90.97V97.62C26.1068 98.8147 26.6854 99.412 27.8428 99.412ZM32.3345 99.412H32.9365V100H32.2365C31.3125 100 30.6591 99.6593 30.2765 98.978C29.8845 99.6593 29.2265 100 28.3025 100H27.6025V99.412H28.2045C29.3618 99.412 29.9405 98.8147 29.9405 97.62V94.428L30.5985 94.078V97.62C30.5985 98.8147 31.1771 99.412 32.3345 99.412ZM29.2965 101.54C29.5858 101.54 29.7305 101.694 29.7305 102.002C29.7305 102.301 29.5858 102.45 29.2965 102.45C28.9978 102.45 28.8485 102.301 28.8485 102.002C28.8485 101.694 28.9978 101.54 29.2965 101.54ZM30.7105 101.54C30.9998 101.54 31.1445 101.694 31.1445 102.002C31.1445 102.301 30.9998 102.45 30.7105 102.45C30.4118 102.45 30.2625 102.301 30.2625 102.002C30.2625 101.694 30.4118 101.54 30.7105 101.54ZM34.4385 96.29C34.4385 95.506 34.6672 94.904 35.1245 94.484C35.5258 94.12 36.0532 93.938 36.7065 93.938C37.5558 93.938 38.2045 94.2507 38.6525 94.876C39.0445 95.408 39.2405 96.108 39.2405 96.976C39.2405 97.9653 38.9932 98.7353 38.4985 99.286C38.0598 99.762 37.4858 100 36.7765 100C35.8338 100 35.1665 99.6593 34.7745 98.978C34.3825 99.6593 33.7245 100 32.8005 100H32.1005V99.412H32.7025C33.8598 99.412 34.4385 98.8147 34.4385 97.62V96.29ZM35.0965 97.62C35.0965 98.8147 35.6752 99.412 36.8325 99.412C37.3738 99.412 37.7985 99.1973 38.1065 98.768C38.4238 98.3293 38.5825 97.732 38.5825 96.976C38.5825 96.1827 38.4052 95.5667 38.0505 95.128C37.7238 94.7267 37.2758 94.526 36.7065 94.526C35.6332 94.526 35.0965 95.1513 35.0965 96.402V97.62ZM43.5023 100L43.8103 99.412H46.5683C47.0536 99.412 47.3943 99.2907 47.5903 99.048C47.7863 98.796 47.8843 98.3667 47.8843 97.76C47.8843 96.2853 47.2403 95.2073 45.9523 94.526L46.3023 93.938C47.7956 94.806 48.5423 96.0333 48.5423 97.62C48.5423 98.8147 49.121 99.412 50.2783 99.412H50.8803V100H50.1803C49.331 100 48.701 99.7013 48.2903 99.104C47.9916 99.7013 47.4503 100 46.6663 100H43.5023ZM54.77 99.412H55.372V100H54.672C53.748 100 53.0947 99.6593 52.712 98.978C52.32 99.6593 51.662 100 50.738 100H50.038V99.412H50.64C51.7973 99.412 52.376 98.8147 52.376 97.62V94.428L53.034 94.078V97.62C53.034 98.8147 53.6127 99.412 54.77 99.412ZM51.732 101.54C52.0213 101.54 52.166 101.694 52.166 102.002C52.166 102.301 52.0213 102.45 51.732 102.45C51.4333 102.45 51.284 102.301 51.284 102.002C51.284 101.694 51.4333 101.54 51.732 101.54ZM53.146 101.54C53.4353 101.54 53.58 101.694 53.58 102.002C53.58 102.301 53.4353 102.45 53.146 102.45C52.8473 102.45 52.698 102.301 52.698 102.002C52.698 101.694 52.8473 101.54 53.146 101.54ZM61.8861 99.412V100H54.5361V99.412H57.4621C56.6967 98.824 56.3141 97.956 56.3141 96.808C56.3141 95.8747 56.6267 95.1373 57.2521 94.596C57.7467 94.1667 58.3347 93.9473 59.0161 93.938C59.9587 93.938 60.6914 94.302 61.2141 95.03V95.744C60.6821 94.932 59.9727 94.526 59.0861 94.526C58.4607 94.526 57.9521 94.7407 57.5601 95.17C57.1681 95.59 56.9721 96.1407 56.9721 96.822C56.9721 97.606 57.2054 98.2407 57.6721 98.726C58.1107 99.1833 58.6941 99.412 59.4221 99.412H61.8861ZM68.3771 92.09C68.0785 92.09 67.9291 91.936 67.9291 91.628C67.9291 91.3293 68.0785 91.18 68.3771 91.18C68.6665 91.18 68.8111 91.3293 68.8111 91.628C68.8111 91.936 68.6665 92.09 68.3771 92.09ZM69.7911 92.09C69.4925 92.09 69.3431 91.936 69.3431 91.628C69.3431 91.3293 69.4925 91.18 69.7911 91.18C70.0805 91.18 70.2251 91.3293 70.2251 91.628C70.2251 91.936 70.0805 92.09 69.7911 92.09ZM72.6191 99.412H73.2211V100H72.5211C71.4665 100 70.7618 99.566 70.4071 98.698C69.9125 99.286 69.2778 99.58 68.5031 99.58C67.7191 99.58 67.1031 99.2813 66.6551 98.684C66.2725 98.18 66.0811 97.5407 66.0811 96.766C66.0811 95.8793 66.3285 95.17 66.8231 94.638C67.2618 94.1713 67.8218 93.938 68.5031 93.938C69.2125 93.938 69.7865 94.1667 70.2251 94.624V93.7L70.8831 93.35V97.62C70.8831 98.8147 71.4618 99.412 72.6191 99.412ZM70.2251 95.422C69.7678 94.8247 69.1938 94.526 68.5031 94.526C67.9805 94.526 67.5558 94.736 67.2291 95.156C66.9025 95.5667 66.7391 96.1033 66.7391 96.766C66.7391 97.438 66.8978 97.9793 67.2151 98.39C67.5418 98.7913 67.9711 98.992 68.5031 98.992C69.1938 98.992 69.7771 98.684 70.2531 98.068C70.2345 97.8813 70.2251 97.7367 70.2251 97.634V95.422ZM72.3779 100V99.412H72.9799C74.1372 99.412 74.7159 98.8147 74.7159 97.62V94.428L75.3739 94.078V97.634C75.3739 98.39 75.1545 98.9827 74.7159 99.412C74.3052 99.804 73.7592 100 73.0779 100H72.3779ZM73.1059 102.45C72.8072 102.45 72.6579 102.296 72.6579 101.988C72.6579 101.689 72.8072 101.54 73.1059 101.54C73.3952 101.54 73.5399 101.689 73.5399 101.988C73.5399 102.296 73.3952 102.45 73.1059 102.45ZM74.5199 102.45C74.2212 102.45 74.0719 102.296 74.0719 101.988C74.0719 101.689 74.2212 101.54 74.5199 101.54C74.8092 101.54 74.9539 101.689 74.9539 101.988C74.9539 102.296 74.8092 102.45 74.5199 102.45ZM76.7796 100L77.0876 99.412H79.8456C80.331 99.412 80.6716 99.2907 80.8676 99.048C81.0636 98.796 81.1616 98.3667 81.1616 97.76C81.1616 96.2853 80.5176 95.2073 79.2296 94.526L79.5796 93.938C81.073 94.806 81.8196 96.0333 81.8196 97.62C81.8196 98.8147 82.3983 99.412 83.5556 99.412H84.1576V100H83.4576C82.6083 100 81.9783 99.7013 81.5676 99.104C81.269 99.7013 80.7276 100 79.9436 100H76.7796ZM85.0094 96.01C85.2054 95.1327 85.6207 94.4607 86.2554 93.994C86.7594 93.63 87.3287 93.448 87.9634 93.448C88.8594 93.448 89.6107 93.7747 90.2174 94.428C90.796 95.044 91.0854 95.8327 91.0854 96.794V97.662C91.0854 98.4367 90.852 99.034 90.3854 99.454C89.984 99.818 89.452 100 88.7894 100H87.5294C87.212 100 86.9134 99.9533 86.6334 99.86C86.3534 99.9533 86.0547 100 85.7374 100H83.3154V99.412H85.7234C85.0234 98.8893 84.6734 98.1893 84.6734 97.312C84.6734 96.808 84.7854 96.374 85.0094 96.01ZM90.4274 97.55V96.794C90.4274 95.8887 90.1334 95.1747 89.5454 94.652C89.088 94.2413 88.5467 94.036 87.9214 94.036C86.9694 94.036 86.2787 94.4513 85.8494 95.282C86.1107 95.1887 86.372 95.142 86.6334 95.142C87.2307 95.142 87.7067 95.3427 88.0614 95.744C88.416 96.136 88.5934 96.6587 88.5934 97.312C88.5934 98.1987 88.2387 98.8987 87.5294 99.412H88.7194C89.858 99.412 90.4274 98.7913 90.4274 97.55ZM86.6334 99.286C87.576 98.978 88.0474 98.32 88.0474 97.312C88.0474 96.8173 87.9167 96.4253 87.6554 96.136C87.4034 95.8373 87.0627 95.688 86.6334 95.688C86.204 95.688 85.8587 95.8373 85.5974 96.136C85.3454 96.4253 85.2194 96.8173 85.2194 97.312C85.2194 98.32 85.6907 98.978 86.6334 99.286ZM104.768 92.09C104.469 92.09 104.32 91.936 104.32 91.628C104.32 91.3293 104.469 91.18 104.768 91.18C105.057 91.18 105.202 91.3293 105.202 91.628C105.202 91.936 105.057 92.09 104.768 92.09ZM98.6641 100C97.9921 100 97.4554 99.79 97.0541 99.37C96.6621 98.95 96.4661 98.3807 96.4661 97.662V95.688L97.1241 95.338V97.55C97.1241 98.7913 97.7027 99.412 98.8601 99.412H103.046C102.458 98.88 102.164 98.068 102.164 96.976C102.164 95.9773 102.416 95.2073 102.92 94.666C103.368 94.1807 103.961 93.938 104.698 93.938C105.398 93.938 105.949 94.148 106.35 94.568C106.761 94.988 106.966 95.562 106.966 96.29V97.662C106.966 98.4273 106.728 99.0247 106.252 99.454C105.851 99.818 105.319 100 104.656 100H98.6641ZM106.308 96.402C106.308 95.1513 105.771 94.526 104.698 94.526C104.11 94.526 103.648 94.7453 103.312 95.184C102.985 95.6133 102.822 96.2107 102.822 96.976C102.822 97.7227 102.99 98.32 103.326 98.768C103.643 99.1973 104.059 99.412 104.572 99.412C105.729 99.412 106.308 98.7913 106.308 97.55V96.402ZM113.727 99.412H115.505V100H113.727C113.727 100.803 113.419 101.465 112.803 101.988C112.28 102.436 111.674 102.66 110.983 102.66C110.451 102.66 109.942 102.539 109.457 102.296V101.708C109.942 101.96 110.428 102.086 110.913 102.086C111.529 102.086 112.056 101.862 112.495 101.414C112.878 101.022 113.069 100.56 113.069 100.028V100C112.817 100 112.43 99.9907 111.907 99.972C109.919 99.916 108.925 98.9173 108.925 96.976C108.925 95.9773 109.177 95.2073 109.681 94.666C110.129 94.1807 110.722 93.938 111.459 93.938C112.159 93.938 112.71 94.148 113.111 94.568C113.522 94.988 113.727 95.562 113.727 96.29V99.412ZM113.069 96.402C113.069 95.1513 112.532 94.526 111.459 94.526C110.871 94.526 110.409 94.7453 110.073 95.184C109.746 95.6133 109.583 96.2107 109.583 96.976C109.583 98.488 110.358 99.2907 111.907 99.384C112.159 99.4027 112.546 99.412 113.069 99.412V96.402ZM122.113 91.39C121.842 91.39 121.707 91.25 121.707 90.97C121.707 90.6993 121.842 90.564 122.113 90.564C122.374 90.564 122.505 90.6993 122.505 90.97C122.505 91.25 122.374 91.39 122.113 91.39ZM121.413 92.65C121.114 92.65 120.965 92.496 120.965 92.188C120.965 91.8893 121.114 91.74 121.413 91.74C121.702 91.74 121.847 91.8893 121.847 92.188C121.847 92.496 121.702 92.65 121.413 92.65ZM122.827 92.65C122.528 92.65 122.379 92.496 122.379 92.188C122.379 91.8893 122.528 91.74 122.827 91.74C123.116 91.74 123.261 91.8893 123.261 92.188C123.261 92.496 123.116 92.65 122.827 92.65ZM114.665 100V99.412H115.687C116.844 99.412 117.423 98.8147 117.423 97.62V95.548L118.081 95.198V97.62C118.081 98.8147 118.66 99.412 119.817 99.412H120.181C121.338 99.412 121.917 98.8147 121.917 97.62V94.988L122.575 94.638V97.62C122.575 98.8147 123.154 99.412 124.311 99.412H124.675C125.832 99.412 126.411 98.8147 126.411 97.62V94.428L127.069 94.078V97.634C127.069 98.39 126.85 98.9827 126.411 99.412C126 99.804 125.454 100 124.773 100H124.213C123.289 100 122.636 99.6593 122.253 98.978C121.861 99.6593 121.203 100 120.279 100H119.719C118.795 100 118.142 99.6593 117.759 98.978C117.367 99.6593 116.709 100 115.785 100H114.665ZM133.317 99.356C132.906 99.692 132.332 99.86 131.595 99.86C130.802 99.86 130.186 99.5567 129.747 98.95C129.364 98.418 129.173 97.7367 129.173 96.906C129.173 95.9447 129.425 95.1933 129.929 94.652C130.377 94.176 130.97 93.938 131.707 93.938C132.407 93.938 132.958 94.148 133.359 94.568C133.77 94.988 133.975 95.562 133.975 96.29V99.398C133.975 100.406 133.718 101.209 133.205 101.806C132.72 102.375 132.062 102.66 131.231 102.66C130.699 102.66 130.19 102.539 129.705 102.296V101.708C130.19 101.96 130.676 102.086 131.161 102.086C131.926 102.086 132.5 101.787 132.883 101.19C133.172 100.723 133.317 100.135 133.317 99.426V99.356ZM133.317 96.402C133.317 95.1513 132.78 94.526 131.707 94.526C131.119 94.526 130.652 94.7407 130.307 95.17C129.971 95.59 129.803 96.1687 129.803 96.906C129.803 97.6527 129.98 98.2453 130.335 98.684C130.652 99.076 131.072 99.272 131.595 99.272C132.472 99.272 133.046 99.02 133.317 98.516V96.402ZM146.843 99.412H147.445V100H146.745C145.821 100 145.167 99.6593 144.785 98.978C144.393 99.6593 143.735 100 142.811 100H138.457L138.765 99.412H140.991V93.14L141.649 92.79V99.412H142.713C143.87 99.412 144.449 98.8147 144.449 97.62V91.32L145.107 90.97V97.62C145.107 98.8147 145.685 99.412 146.843 99.412ZM146.602 100V99.412H147.204C148.362 99.412 148.94 98.8147 148.94 97.62V94.428L149.598 94.078V97.634C149.598 98.39 149.379 98.9827 148.94 99.412C148.53 99.804 147.984 100 147.302 100H146.602ZM147.33 102.45C147.032 102.45 146.882 102.296 146.882 101.988C146.882 101.689 147.032 101.54 147.33 101.54C147.62 101.54 147.764 101.689 147.764 101.988C147.764 102.296 147.62 102.45 147.33 102.45ZM148.744 102.45C148.446 102.45 148.296 102.296 148.296 101.988C148.296 101.689 148.446 101.54 148.744 101.54C149.034 101.54 149.178 101.689 149.178 101.988C149.178 102.296 149.034 102.45 148.744 102.45ZM166.442 99.412H166.764V100H166.344C165.43 100 164.776 99.6593 164.384 98.978C163.983 99.6593 163.32 100 162.396 100H157.398C156.726 100 156.19 99.79 155.788 99.37C155.396 98.95 155.2 98.3807 155.2 97.662V95.688L155.858 95.338V97.55C155.858 98.7913 156.437 99.412 157.594 99.412H162.326C163.474 99.412 164.048 98.7913 164.048 97.55V94.428L164.706 94.078V97.62C164.706 98.8147 165.285 99.412 166.442 99.412ZM159.232 101.54C159.522 101.54 159.666 101.689 159.666 101.988C159.666 102.296 159.522 102.45 159.232 102.45C158.934 102.45 158.784 102.296 158.784 101.988C158.784 101.689 158.934 101.54 159.232 101.54ZM171.577 99.174L171.647 99.202C171.917 99.342 172.202 99.412 172.501 99.412H176.407V100H172.501C172.025 100 171.577 99.8647 171.157 99.594C170.737 99.8647 170.289 100 169.813 100H165.921V99.412H169.813C170.121 99.4027 170.405 99.3327 170.667 99.202C170.247 98.95 169.803 98.6 169.337 98.152C168.721 97.564 168.203 96.9667 167.783 96.36V95.968C168.763 94.6147 169.887 93.938 171.157 93.938C172.426 93.938 173.555 94.6193 174.545 95.982V96.36C173.667 97.4987 172.678 98.4367 171.577 99.174ZM171.157 98.88C171.726 98.4973 172.277 98.0447 172.809 97.522C173.35 96.9993 173.737 96.542 173.971 96.15C173.149 95.0673 172.197 94.526 171.115 94.526C170.116 94.526 169.197 95.0673 168.357 96.15C168.898 97.046 169.831 97.956 171.157 98.88ZM175.573 100V99.412H176.175C177.332 99.412 177.911 98.8147 177.911 97.62V91.32L178.569 90.97V97.634C178.569 98.39 178.35 98.9827 177.911 99.412C177.5 99.804 176.954 100 176.273 100H175.573ZM181.095 100V91.32L181.753 90.97V100H181.095ZM180.241 103.136L180.451 102.744H180.787C180.703 102.585 180.661 102.427 180.661 102.268C180.661 102.016 180.754 101.797 180.941 101.61C181.128 101.423 181.352 101.33 181.613 101.33C181.79 101.33 181.968 101.381 182.145 101.484V101.918C181.977 101.797 181.809 101.736 181.641 101.736C181.492 101.736 181.361 101.787 181.249 101.89C181.137 101.993 181.081 102.114 181.081 102.254C181.081 102.422 181.151 102.585 181.291 102.744H182.467L182.257 103.136H180.241Z"
        fill="#E74111" />
    <path
        d="M118.258 26.4964H115.356C112.768 26.4964 110.561 25.5581 108.736 23.6813C106.911 21.8046 105.999 19.5345 106 16.8709C106 14.2085 106.912 11.9384 108.736 10.0605C110.56 8.18264 112.767 7.24597 115.356 7.2505C117.944 7.2505 120.15 8.18858 121.975 10.0647C123.801 11.9409 124.712 14.211 124.711 16.8752V32H120.701V16.7205C120.673 15.2743 120.15 14.0281 119.132 12.9818C118.635 12.471 118.046 12.0658 117.398 11.7894C116.749 11.5129 116.054 11.3706 115.352 11.3706C114.65 11.3706 113.955 11.5129 113.306 11.7894C112.658 12.0658 112.069 12.471 111.572 12.9818C110.823 13.751 110.313 14.7317 110.106 15.7996C109.899 16.8676 110.004 17.9747 110.41 18.9807C110.815 19.9867 111.501 20.8464 112.382 21.4507C113.262 22.055 114.297 22.3768 115.356 22.3753H118.258V26.4964Z"
        fill="#E74111" />
    <path
        d="M139.391 26.131C138.527 26.3787 137.635 26.5016 136.738 26.4964C134.15 26.4964 131.944 25.5581 130.119 23.6813C128.295 21.8046 127.384 19.5345 127.386 16.8709C127.386 14.2085 128.298 11.9384 130.122 10.0605C131.946 8.18264 134.151 7.24597 136.738 7.2505C139.326 7.2505 141.532 8.18858 143.358 10.0647C145.183 11.9409 146.095 14.211 146.094 16.8752V26.4964H142.087V16.7248C142.059 15.2786 141.536 14.0323 140.517 12.986C140.025 12.4587 139.435 12.0378 138.783 11.7479C138.13 11.4579 137.428 11.3048 136.717 11.2975C136.006 11.2902 135.301 11.4288 134.643 11.7053C133.985 11.9817 133.387 12.3904 132.884 12.9075C132.382 13.4246 131.984 14.0396 131.715 14.7166C131.446 15.3937 131.312 16.119 131.319 16.8503C131.325 17.5816 131.474 18.3042 131.756 18.9756C132.037 19.6471 132.446 20.254 132.959 20.7609C133.79 21.6105 134.867 22.1583 136.028 22.3212C137.189 22.484 138.369 22.253 139.391 21.6633V26.131Z"
        fill="#E74111" />
    <path
        d="M158.122 11.3716C156.704 11.372 155.345 11.9516 154.342 12.9828C153.34 14.014 152.776 15.4125 152.775 16.8709V26.4964H148.767V16.8709C148.767 14.2085 149.678 11.9383 151.502 10.0605C153.326 8.18264 155.532 7.24597 158.122 7.2505V11.3716Z"
        fill="#E74111" />
    <path
        d="M170.237 26.131C169.373 26.3786 168.48 26.5016 167.584 26.4964C164.996 26.4964 162.79 25.5581 160.964 23.6813C159.139 21.8046 158.227 19.5345 158.229 16.8709C158.229 14.2085 159.141 11.9384 160.964 10.0605C162.788 8.18264 164.994 7.24597 167.584 7.2505C170.172 7.2505 172.378 8.18858 174.203 10.0647C176.029 11.9409 176.941 14.2096 176.94 16.8709V26.4964H172.93V16.7248C172.902 15.2786 172.379 14.0323 171.361 12.986C170.871 12.447 170.281 12.0148 169.625 11.7153C168.97 11.4158 168.262 11.2551 167.545 11.2428C166.828 11.2304 166.116 11.3667 165.451 11.6435C164.786 11.9202 164.182 12.3318 163.675 12.8538C163.168 13.3757 162.768 13.9973 162.5 14.6815C162.231 15.3657 162.099 16.0985 162.111 16.8363C162.124 17.5741 162.28 18.3018 162.572 18.976C162.863 19.6503 163.284 20.2573 163.808 20.7609C164.639 21.6105 165.716 22.1583 166.877 22.3212C168.038 22.484 169.218 22.253 170.24 21.6633L170.237 26.131Z"
        fill="#E74111" />
    <path
        d="M167.601 0V4.0973C169.232 4.0973 170.846 4.4277 172.352 5.06963C173.859 5.71157 175.227 6.65247 176.38 7.83862C177.533 9.02476 178.448 10.4329 179.072 11.9827C179.696 13.5325 180.017 15.1935 180.017 16.871H184C184 7.55306 176.658 0 167.601 0Z"
        fill="#FBBA00" />
    <defs>
        <clipPath id="clip0_1964_6349">
            <rect width="150" height="18" fill="white" transform="translate(34 56)" />
        </clipPath>
    </defs>
</svg>
