<svg width="40" height="40" viewBox="0 0 40 40" fill="none" xmlns="http://www.w3.org/2000/svg">
<rect width="40" height="40" rx="8" fill="#FDECE8"/>
<g clip-path="url(#clip0_2179_12092)">
<path fill-rule="evenodd" clip-rule="evenodd" d="M9.4873 13.2676H16.2198V26.7327H9.4873V13.2676ZM14.0537 20.3378V22.0726H11.6534V20.3378H14.0537ZM10.9489 17.9277H14.7583V19.9757H10.9489V17.9277Z" fill="#E74111"/>
<path fill-rule="evenodd" clip-rule="evenodd" d="M13.6401 20.751H12.0674V21.6582H13.6401V20.751Z" fill="#FBBA00"/>
<path fill-rule="evenodd" clip-rule="evenodd" d="M11.3628 18.3418H14.3447V19.562H11.3628V18.3418Z" fill="#FBBA00"/>
<path fill-rule="evenodd" clip-rule="evenodd" d="M12.0591 30.075C11.8292 29.7119 11.8726 29.2255 12.1892 28.9089C12.5058 28.5923 12.9922 28.549 13.3552 28.7788L12.0591 30.075Z" fill="#FBBA00"/>
<path fill-rule="evenodd" clip-rule="evenodd" d="M13.6478 29.0713C13.8776 29.4344 13.8343 29.9207 13.5176 30.2373C13.201 30.5539 12.7147 30.5973 12.3516 30.3674L13.6478 29.0713Z" fill="#FBBA00"/>
<path fill-rule="evenodd" clip-rule="evenodd" d="M15.1773 27.1465V31.1704C15.1773 31.6268 14.8039 32.0002 14.3475 32.0002H11.3591C10.9027 32.0002 10.5293 31.6268 10.5293 31.1704V27.1465H15.1773ZM13.8102 28.6165C14.3385 29.1449 14.3385 30.0018 13.8102 30.5302C13.2818 31.0586 12.4248 31.0586 11.8965 30.5302C11.3681 30.0018 11.3681 29.1449 11.8965 28.6165C12.4248 28.0881 13.2818 28.0881 13.8102 28.6165Z" fill="#E74111"/>
<path fill-rule="evenodd" clip-rule="evenodd" d="M12.0591 9.9248C11.8292 10.2879 11.8726 10.7743 12.1892 11.0909C12.5058 11.4075 12.9922 11.4508 13.3552 11.221L12.0591 9.9248Z" fill="#FBBA00"/>
<path fill-rule="evenodd" clip-rule="evenodd" d="M13.6478 10.9285C13.8776 10.5654 13.8343 10.079 13.5176 9.76246C13.201 9.44583 12.7147 9.40248 12.3516 9.63235L13.6478 10.9285Z" fill="#FBBA00"/>
<path fill-rule="evenodd" clip-rule="evenodd" d="M15.1773 12.8537V8.8298C15.1773 8.37338 14.8039 8 14.3475 8H11.3591C10.9027 8 10.5293 8.37338 10.5293 8.8298V12.8537H15.1773ZM13.8102 11.3837C14.3385 10.8553 14.3385 9.99832 13.8102 9.46998C13.2818 8.94158 12.4248 8.94158 11.8965 9.46998C11.3681 9.99832 11.3681 10.8553 11.8965 11.3837C12.4248 11.9121 13.2818 11.9121 13.8102 11.3837Z" fill="#E74111"/>
<path fill-rule="evenodd" clip-rule="evenodd" d="M19.2056 30.075C18.9758 29.7119 19.019 29.2255 19.3357 28.9089C19.6523 28.5923 20.1386 28.549 20.5018 28.7788L19.2056 30.075Z" fill="#FBBA00"/>
<path fill-rule="evenodd" clip-rule="evenodd" d="M20.7942 29.0713C21.0241 29.4344 20.9807 29.9207 20.6641 30.2373C20.3475 30.5539 19.8611 30.5973 19.498 30.3674L20.7942 29.0713Z" fill="#FBBA00"/>
<path fill-rule="evenodd" clip-rule="evenodd" d="M22.3238 27.1465V31.1704C22.3238 31.6268 21.9504 32.0002 21.494 32.0002H18.5056C18.0492 32.0002 17.6758 31.6268 17.6758 31.1704V27.1465H22.3238ZM20.9567 28.6165C21.4851 29.1449 21.4851 30.0018 20.9567 30.5302C20.4283 31.0586 19.5713 31.0586 19.0429 30.5302C18.5146 30.0018 18.5146 29.1449 19.0429 28.6165C19.5713 28.0881 20.4283 28.0881 20.9567 28.6165Z" fill="#E74111"/>
<path fill-rule="evenodd" clip-rule="evenodd" d="M19.2056 9.9248C18.9758 10.2879 19.019 10.7743 19.3357 11.0909C19.6523 11.4075 20.1386 11.4508 20.5018 11.221L19.2056 9.9248Z" fill="#FBBA00"/>
<path fill-rule="evenodd" clip-rule="evenodd" d="M20.7942 10.9285C21.0241 10.5654 20.9807 10.079 20.6641 9.76246C20.3475 9.44583 19.8611 9.40248 19.498 9.63235L20.7942 10.9285Z" fill="#FBBA00"/>
<path fill-rule="evenodd" clip-rule="evenodd" d="M22.3238 12.8537V8.8298C22.3238 8.37338 21.9504 8 21.494 8H18.5056C18.0492 8 17.6758 8.37338 17.6758 8.8298V12.8537H22.3238ZM20.9567 11.3837C21.4851 10.8553 21.4851 9.99832 20.9567 9.46998C20.4283 8.94158 19.5713 8.94158 19.0429 9.46998C18.5146 9.99832 18.5146 10.8553 19.0429 11.3837C19.5713 11.9121 20.4283 11.9121 20.9567 11.3837Z" fill="#E74111"/>
<path fill-rule="evenodd" clip-rule="evenodd" d="M16.6338 26.7327H23.3663V13.2676H16.6338V26.7327ZM21.2002 19.6625H18.7999V17.9276H21.2002V19.6625ZM18.0954 22.0726V20.0246H21.9048V22.0726H18.0954Z" fill="#E74111"/>
<path fill-rule="evenodd" clip-rule="evenodd" d="M20.7861 19.2491V18.3418H19.2134V19.2491H20.7861Z" fill="#FBBA00"/>
<path fill-rule="evenodd" clip-rule="evenodd" d="M18.5088 21.6589H21.4906V20.4385H18.5088V21.6589Z" fill="#FBBA00"/>
<path fill-rule="evenodd" clip-rule="evenodd" d="M26.3521 30.075C26.1222 29.7119 26.1656 29.2255 26.4821 28.9089C26.7988 28.5923 27.2851 28.549 27.6482 28.7788L26.3521 30.075Z" fill="#FBBA00"/>
<path fill-rule="evenodd" clip-rule="evenodd" d="M27.9407 29.0713C28.1705 29.4344 28.1272 29.9207 27.8106 30.2373C27.494 30.5539 27.0077 30.5973 26.6445 30.3674L27.9407 29.0713Z" fill="#FBBA00"/>
<path fill-rule="evenodd" clip-rule="evenodd" d="M29.4703 27.1465V31.1704C29.4703 31.6268 29.0969 32.0002 28.6405 32.0002H25.6521C25.1956 32.0002 24.8223 31.6268 24.8223 31.1704V27.1465H29.4703ZM28.1032 28.6165C28.6315 29.1449 28.6315 30.0018 28.1032 30.5302C27.5748 31.0586 26.7178 31.0586 26.1894 30.5302C25.661 30.0018 25.661 29.1449 26.1894 28.6165C26.7178 28.0881 27.5748 28.0881 28.1032 28.6165Z" fill="#E74111"/>
<path fill-rule="evenodd" clip-rule="evenodd" d="M26.3521 9.9248C26.1222 10.2879 26.1656 10.7743 26.4821 11.0909C26.7988 11.4075 27.2851 11.4508 27.6482 11.221L26.3521 9.9248Z" fill="#FBBA00"/>
<path fill-rule="evenodd" clip-rule="evenodd" d="M27.9407 10.9285C28.1705 10.5654 28.1272 10.079 27.8106 9.76246C27.494 9.44583 27.0077 9.40248 26.6445 9.63235L27.9407 10.9285Z" fill="#FBBA00"/>
<path fill-rule="evenodd" clip-rule="evenodd" d="M29.4703 12.8537V8.8298C29.4703 8.37338 29.0969 8 28.6405 8H25.6521C25.1956 8 24.8223 8.37338 24.8223 8.8298V12.8537H29.4703ZM28.1032 11.3837C28.6315 10.8553 28.6315 9.99832 28.1032 9.46998C27.5748 8.94158 26.7178 8.94158 26.1894 9.46998C25.661 9.99832 25.661 10.8553 26.1894 11.3837C26.7178 11.9121 27.5748 11.9121 28.1032 11.3837Z" fill="#E74111"/>
<path fill-rule="evenodd" clip-rule="evenodd" d="M23.7798 13.2676H30.5123V26.7327H23.7798V13.2676ZM28.3462 20.3378V22.0726H25.9459V20.3378H28.3462ZM25.2413 17.9277H29.0507V19.9757H25.2413V17.9277Z" fill="#E74111"/>
<path fill-rule="evenodd" clip-rule="evenodd" d="M27.9325 20.751H26.3599V21.6582H27.9325V20.751Z" fill="#FBBA00"/>
<path fill-rule="evenodd" clip-rule="evenodd" d="M25.6553 18.3418V19.5622H28.6371V18.3418H25.6553Z" fill="#FBBA00"/>
</g>
<defs>
<clipPath id="clip0_2179_12092">
<rect width="24" height="24" fill="white" transform="translate(8 8)"/>
</clipPath>
</defs>
</svg>
