<svg width="20" height="20" viewBox="0 0 20 20" fill="none" xmlns="http://www.w3.org/2000/svg">
<path d="M0.433571 15.2565C1.05786 14.733 4.71929 12.4144 5.32786 12.5208C5.61357 12.5715 5.83214 12.8151 6.41714 13.513C6.68768 13.8565 6.98478 14.1782 7.30571 14.4751C7.89373 14.3331 8.4629 14.1221 9.00143 13.8465C11.1134 12.8183 12.8195 11.1116 13.8471 8.99939C14.1227 8.46087 14.3337 7.89169 14.4757 7.30368C14.1788 6.98274 13.8571 6.68564 13.5136 6.4151C12.8164 5.8301 12.5721 5.61296 12.5214 5.32582C12.415 4.71582 14.7357 1.05582 15.2571 0.431533C15.4757 0.172961 15.6743 -0.000610352 15.9286 -0.000610352C16.6657 -0.000610352 20 4.12225 20 4.65653C20 4.7001 19.9286 8.99225 14.5079 14.5072C8.99286 19.928 4.70071 19.9994 4.65714 19.9994C4.12286 19.9994 0 16.6651 0 15.928C0 15.6737 0.173571 15.4751 0.433571 15.2565Z" fill="#7A7A7A"/>
<path d="M4.99993 9.28496H3.57136C3.57306 7.76996 4.17565 6.3175 5.24691 5.24623C6.31818 4.17497 7.77064 3.57238 9.28564 3.57068V4.99925C8.14935 5.00038 7.05992 5.45228 6.25644 6.25576C5.45296 7.05924 5.00106 8.14867 4.99993 9.28496Z" fill="#7A7A7A"/>
<path d="M1.4285 9.2851H-7.05719e-05C0.0027647 6.82325 0.981989 4.46304 2.72278 2.72224C4.46358 0.981449 6.82379 0.00222534 9.28564 -0.000610352V1.42796C7.20255 1.43042 5.20549 2.25901 3.73252 3.73198C2.25955 5.20495 1.43096 7.20202 1.4285 9.2851Z" fill="#7A7A7A"/>
</svg>
