<svg width="24" height="24" viewBox="0 0 24 24" fill="none" xmlns="http://www.w3.org/2000/svg">
<g clip-path="url(#clip0_421_4016)">
<path d="M12 0C8.7691 0 6.14062 2.62848 6.14062 5.85938C6.14062 9.09027 8.7691 11.7188 12 11.7188C15.2309 11.7188 17.8594 9.09027 17.8594 5.85938C17.8594 2.62848 15.2309 0 12 0Z" fill="#7A7A7A"/>
<path d="M14.8682 23.9999L12.9895 16.9048H11.0193L9.14062 23.9999H14.8682Z" fill="#7A7A7A"/>
<path d="M10.9787 15.4982H13.0123L13.9443 12.6562H10.0469L10.9787 15.4982Z" fill="#7A7A7A"/>
<path d="M15.398 12.7451L14.2578 16.2228L16.317 24.0002H20.6703V18.9846C20.6703 15.855 18.3865 13.2492 15.398 12.7451Z" fill="#7A7A7A"/>
<path d="M9.74066 16.2228L8.60046 12.7451C5.612 13.2492 3.32812 15.855 3.32812 18.9846V24.0002H7.68146L9.74066 16.2228Z" fill="#7A7A7A"/>
</g>
<defs>
<clipPath id="clip0_421_4016">
<rect width="24" height="24" fill="white"/>
</clipPath>
</defs>
</svg>
