<svg width="24" height="24" viewBox="0 0 24 24" fill="none" xmlns="http://www.w3.org/2000/svg">
<g clip-path="url(#clip0_7318_11690)">
<path fill-rule="evenodd" clip-rule="evenodd" d="M12 0.00012207C5.38125 0.00012207 0 5.38137 0 12.0001C0 18.6189 5.38125 24.0001 12 24.0001C18.6187 24.0001 24 18.6189 24 12.0001C24 5.38137 18.6187 0.00012207 12 0.00012207Z" fill="#FF0000"/>
<path fill-rule="evenodd" clip-rule="evenodd" d="M16.2605 16.2611C15.9699 16.5517 15.4918 16.5517 15.2012 16.2611L11.9996 13.0595L8.80273 16.2611C8.51211 16.5517 8.03398 16.5517 7.74336 16.2611C7.45273 15.9704 7.45273 15.4923 7.74336 15.2017L10.9449 12.0048L7.74336 8.80792C7.45273 8.5173 7.45273 8.03917 7.74336 7.74855C8.03398 7.45792 8.51211 7.45792 8.80273 7.74855L11.9996 10.9454L15.1965 7.74855C15.4871 7.45792 15.9652 7.45792 16.2559 7.74855C16.5465 8.03917 16.5465 8.5173 16.2559 8.80792L13.059 12.0001L16.2559 15.197C16.5512 15.4923 16.5512 15.9658 16.2605 16.2611Z" fill="white"/>
</g>
<defs>
<clipPath id="clip0_7318_11690">
<rect width="24" height="24" fill="white"/>
</clipPath>
</defs>
</svg>
