<svg width="20" height="20" viewBox="0 0 20 20" fill="none" xmlns="http://www.w3.org/2000/svg">
<path d="M16.8359 4.75703V15.1648C16.8359 16.0648 16.1039 16.7969 15.2039 16.7969H4.79609C3.89609 16.7969 3.16406 16.0648 3.16406 15.1648V4.75703C3.16406 3.85703 3.89609 3.125 4.79609 3.125H15.2039C16.1039 3.125 16.8359 3.85703 16.8359 4.75703Z" fill="white"/>
<path d="M19.3754 10.5859H0.6254C-0.149756 10.5859 -0.14999 9.41406 0.6254 9.41406H19.3754C20.1506 9.41406 20.1508 10.5859 19.3754 10.5859Z" fill="#7A7A7A"/>
<path d="M18.8285 4.96094V2.16176C18.8285 1.61594 18.3844 1.17187 17.8387 1.17187H15.0394C14.2647 1.17187 14.2637 0 15.0394 0H17.8387C19.0306 0 20.0004 0.969766 20.0004 2.16176V4.96094C20.0004 5.73562 18.8285 5.73672 18.8285 4.96094Z" fill="#7A7A7A"/>
<path d="M17.8387 20.0004H15.0394C14.2647 20.0004 14.2637 18.8285 15.0394 18.8285H17.8387C18.3845 18.8285 18.8285 18.3844 18.8285 17.8386V15.0394C18.8285 14.2647 20.0004 14.2637 20.0004 15.0394V17.8386C20.0004 19.0306 19.0306 20.0004 17.8387 20.0004Z" fill="#7A7A7A"/>
<path d="M0 4.96094V2.16176C0 0.969766 0.969766 0 2.16172 0H4.96094C5.73562 0 5.73672 1.17187 4.96094 1.17187H2.16172C1.61594 1.17187 1.17187 1.61594 1.17187 2.16176V4.96094C1.17187 5.73562 0 5.73672 0 4.96094H0Z" fill="#7A7A7A"/>
<path d="M4.96094 20.0004H2.16172C0.969766 20.0004 0 19.0306 0 17.8386V15.0394C0 14.2647 1.17187 14.2637 1.17187 15.0394V17.8386C1.17187 18.3844 1.61594 18.8285 2.16172 18.8285H4.96094C5.73562 18.8285 5.73672 20.0004 4.96094 20.0004Z" fill="#7A7A7A"/>
</svg>
