<svg width="24" height="24" viewBox="0 0 24 24" fill="none" xmlns="http://www.w3.org/2000/svg">
    <g clip-path="url(#clip0_226_22802)">
        <path
            d="M23.3645 4.12957L20.6212 1.38622C19.7729 0.537926 18.3985 0.537926 17.5502 1.38622L14.8059 4.12957C13.9576 4.97786 13.9576 6.3523 14.8059 7.2006L17.5492 9.94394C18.3975 10.7922 19.772 10.7922 20.6203 9.94394L23.3636 7.2006C24.2119 6.3523 24.2119 4.97786 23.3645 4.12957ZM19.916 7.82921C19.916 8.28797 19.544 8.65996 19.0852 8.65996C18.6265 8.65996 18.2545 8.28797 18.2545 7.82921V7.66305C18.2545 7.20429 18.6265 6.8323 19.0852 6.8323C19.544 6.8323 19.916 7.20429 19.916 7.66305V7.82921ZM19.916 5.46986C19.916 5.92862 19.544 6.30061 19.0852 6.30061C18.6265 6.30061 18.2545 5.92862 18.2545 5.46986V3.50096C18.2545 3.0422 18.6265 2.6702 19.0852 2.6702C19.544 2.6702 19.916 3.0422 19.916 3.50096V5.46986Z"
            fill="#7A7A7A" />
        <path
            d="M19.0853 11.9654C18.1354 11.9654 17.2419 11.5953 16.5699 10.9233L13.8266 8.17904C13.1546 7.50797 12.7854 6.61537 12.7854 5.66462C12.7854 5.44493 12.8094 5.22985 12.8481 5.01755H2.88919C1.30152 5.01847 0 6.31076 0 7.91689V18.126C0 19.7136 1.30152 21.0152 2.88919 21.0152H7.26451L9.54448 23.3228C9.9414 23.729 10.6152 23.729 11.0121 23.3228L13.2921 21.0152H17.6582C19.2643 21.0152 20.5566 19.7229 20.5566 18.126V11.6368C20.0997 11.8464 19.6031 11.9654 19.0853 11.9654ZM5.8513 14.2436C5.17931 14.2436 4.6347 13.699 4.6347 13.027C4.6347 12.355 5.17931 11.8104 5.8513 11.8104C6.52329 11.8104 7.0679 12.355 7.0679 13.027C7.0679 13.699 6.52421 14.2436 5.8513 14.2436ZM10.2737 14.2436C9.60171 14.2436 9.0571 13.699 9.0571 13.027C9.0571 12.355 9.60171 11.8104 10.2737 11.8104C10.9457 11.8104 11.4903 12.355 11.4903 13.027C11.4903 13.699 10.9457 14.2436 10.2737 14.2436ZM14.6952 14.2436C14.0232 14.2436 13.4786 13.699 13.4786 13.027C13.4786 12.355 14.0232 11.8104 14.6952 11.8104C15.3672 11.8104 15.9118 12.355 15.9118 13.027C15.9118 13.699 15.3672 14.2436 14.6952 14.2436Z"
            fill="#7A7A7A" />
    </g>
    <defs>
        <clipPath id="clip0_226_22802">
            <rect width="24" height="24" fill="white" />
        </clipPath>
    </defs>
</svg>