<svg width="24" height="24" viewBox="0 0 24 24" fill="none" xmlns="http://www.w3.org/2000/svg">
<g clip-path="url(#clip0_276_3454)">
<path d="M12 4.9687C9.28636 4.9687 7.07812 7.17694 7.07812 9.89058C7.07812 12.6042 9.28636 14.8125 12 14.8125C14.7136 14.8125 16.9219 12.6042 16.9219 9.89058C16.9219 7.17694 14.7136 4.9687 12 4.9687ZM9.89062 7.7812C10.2789 7.7812 10.5938 8.09592 10.5938 8.48433C10.5938 8.87264 10.2789 9.18745 9.89062 9.18745C9.50231 9.18745 9.1875 8.87264 9.1875 8.48433C9.1875 8.09597 9.50231 7.7812 9.89062 7.7812ZM14.4856 12.4957C14.211 12.7704 13.7661 12.7704 13.4914 12.4957C12.6688 11.6731 11.3312 11.6731 10.5086 12.4957C10.2339 12.7703 9.78895 12.7703 9.51431 12.4957C9.23967 12.2211 9.23967 11.7761 9.51431 11.5014C10.8848 10.1309 13.1151 10.1309 14.4856 11.5014C14.7603 11.7761 14.7603 12.2211 14.4856 12.4957ZM14.1094 9.18745C13.7211 9.18745 13.4062 8.87264 13.4062 8.48433C13.4062 8.09592 13.7211 7.7812 14.1094 7.7812C14.4977 7.7812 14.8125 8.09592 14.8125 8.48433C14.8125 8.87264 14.4977 9.18745 14.1094 9.18745Z" fill="#7A7A7A"/>
<path d="M21.8906 0.749952H2.10938C0.946219 0.749952 0 1.69617 0 2.85933V16.9218C0 18.085 0.946219 19.0312 2.10938 19.0312H4.26562V22.5468C4.26562 23.1738 5.02612 23.4837 5.46586 23.0439L9.47859 19.0312H21.8906C23.0538 19.0312 24 18.085 24 16.9218V2.85933C24 1.69617 23.0538 0.749952 21.8906 0.749952ZM12 16.2187C8.51048 16.2187 5.67188 13.3801 5.67188 9.89058C5.67188 6.40106 8.51048 3.56245 12 3.56245C15.4895 3.56245 18.3281 6.40106 18.3281 9.89058C18.3281 13.3801 15.4895 16.2187 12 16.2187Z" fill="#7A7A7A"/>
</g>
<defs>
<clipPath id="clip0_276_3454">
<rect width="24" height="24" fill="white"/>
</clipPath>
</defs>
</svg>
