<svg width="24" height="24" viewBox="0 0 24 24" fill="none" xmlns="http://www.w3.org/2000/svg">
    <g clip-path="url(#clip0_710_11323)">
        <path
            d="M18.6667 0.32C18.808 0.405635 18.9393 0.507023 19.0578 0.622222L23.3511 4.91556C23.4663 5.03408 23.5677 5.16529 23.6533 5.30667H20C19.6464 5.30667 19.3072 5.16619 19.0572 4.91614C18.8071 4.66609 18.6667 4.32695 18.6667 3.97333V0.32ZM24 6.19556H20C19.4106 6.19556 18.8454 5.96143 18.4287 5.54468C18.0119 5.12793 17.7778 4.5627 17.7778 3.97333V5.76851e-09H17.4844H7.55556C6.97078 -4.20998e-05 6.40955 0.23042 5.99356 0.641418C5.57757 1.05241 5.34035 1.61082 5.33334 2.19556V7.20889C5.77308 7.12703 6.21937 7.08537 6.66667 7.08444C8.67053 7.08444 10.5923 7.88047 12.0093 9.29741C13.4262 10.7144 14.2222 12.6361 14.2222 14.64C14.2222 16.6439 13.4262 18.5656 12.0093 19.9826C10.5923 21.3995 8.67053 22.1956 6.66667 22.1956C6.23112 22.1951 5.79659 22.1534 5.36889 22.0711C5.44546 22.5974 5.70822 23.0787 6.10945 23.4277C6.51067 23.7768 7.02377 23.9704 7.55556 23.9733H21.7778C22.3671 23.9733 22.9324 23.7392 23.3491 23.3225C23.7659 22.9057 24 22.3405 24 21.7511V6.48889C24 6.39111 23.9822 6.29333 23.9733 6.19556H24ZM13.7778 7.08444H11.1111C10.9932 7.08444 10.8802 7.03762 10.7968 6.95427C10.7135 6.87092 10.6667 6.75787 10.6667 6.64C10.6667 6.52213 10.7135 6.40908 10.7968 6.32573C10.8802 6.24238 10.9932 6.19556 11.1111 6.19556H13.7778C13.8957 6.19556 14.0087 6.24238 14.092 6.32573C14.1754 6.40908 14.2222 6.52213 14.2222 6.64C14.2222 6.75787 14.1754 6.87092 14.092 6.95427C14.0087 7.03762 13.8957 7.08444 13.7778 7.08444ZM20.8889 17.7511H15.5556C15.4377 17.7511 15.3246 17.7043 15.2413 17.6209C15.1579 17.5376 15.1111 17.4245 15.1111 17.3067C15.1111 17.1888 15.1579 17.0757 15.2413 16.9924C15.3246 16.909 15.4377 16.8622 15.5556 16.8622H20.8889C21.0068 16.8622 21.1198 16.909 21.2032 16.9924C21.2865 17.0757 21.3333 17.1888 21.3333 17.3067C21.3333 17.4245 21.2865 17.5376 21.2032 17.6209C21.1198 17.7043 21.0068 17.7511 20.8889 17.7511ZM20.8889 14.1956H16.4444C16.3266 14.1956 16.2135 14.1487 16.1302 14.0654C16.0468 13.982 16 13.869 16 13.7511C16 13.6332 16.0468 13.5202 16.1302 13.4368C16.2135 13.3535 16.3266 13.3067 16.4444 13.3067H20.8889C21.0068 13.3067 21.1198 13.3535 21.2032 13.4368C21.2865 13.5202 21.3333 13.6332 21.3333 13.7511C21.3333 13.869 21.2865 13.982 21.2032 14.0654C21.1198 14.1487 21.0068 14.1956 20.8889 14.1956ZM20.8889 10.64H15.5556C15.4377 10.64 15.3246 10.5932 15.2413 10.5098C15.1579 10.4265 15.1111 10.3134 15.1111 10.1956C15.1111 10.0777 15.1579 9.96463 15.2413 9.88128C15.3246 9.79794 15.4377 9.75111 15.5556 9.75111H20.8889C21.0068 9.75111 21.1198 9.79794 21.2032 9.88128C21.2865 9.96463 21.3333 10.0777 21.3333 10.1956C21.3333 10.3134 21.2865 10.4265 21.2032 10.5098C21.1198 10.5932 21.0068 10.64 20.8889 10.64ZM6.66667 7.97333C5.34813 7.97333 4.0592 8.36433 2.96287 9.09687C1.86654 9.82941 1.01206 10.8706 0.507473 12.0888C0.00288857 13.307 -0.129134 14.6474 0.128101 15.9406C0.385336 17.2338 1.02027 18.4217 1.95262 19.354C2.88497 20.2864 4.07286 20.9213 5.36607 21.1786C6.65927 21.4358 7.99972 21.3038 9.21789 20.7992C10.4361 20.2946 11.4773 19.4401 12.2098 18.3438C12.9423 17.2475 13.3333 15.9585 13.3333 14.64C13.3333 13.7645 13.1609 12.8976 12.8259 12.0888C12.4908 11.2799 11.9998 10.545 11.3807 9.92595C10.7617 9.3069 10.0267 8.81583 9.21789 8.4808C8.40905 8.14577 7.54215 7.97333 6.66667 7.97333ZM7.11111 14.64C7.11182 14.6983 7.10033 14.7561 7.07736 14.8097C7.0544 14.8632 7.02048 14.9114 6.97778 14.9511L5.64445 16.2844C5.60454 16.327 5.55635 16.3608 5.50284 16.384C5.44933 16.4072 5.39164 16.4191 5.33334 16.4191C5.27503 16.4191 5.21734 16.4072 5.16383 16.384C5.11032 16.3608 5.06213 16.327 5.02222 16.2844C4.97971 16.2445 4.94582 16.1963 4.92266 16.1428C4.89949 16.0893 4.88754 16.0316 4.88754 15.9733C4.88754 15.915 4.89949 15.8573 4.92266 15.8038C4.94582 15.7503 4.97971 15.7021 5.02222 15.6622L6.22222 14.4533V11.9733C6.22222 11.8555 6.26905 11.7424 6.3524 11.6591C6.43575 11.5757 6.54879 11.5289 6.66667 11.5289C6.78454 11.5289 6.89759 11.5757 6.98094 11.6591C7.06429 11.7424 7.11111 11.8555 7.11111 11.9733V14.64Z"
            fill="#7A7A7A" />
    </g>
    <defs>
        <clipPath id="clip0_710_11323">
            <rect width="24" height="24" fill="white" />
        </clipPath>
    </defs>
</svg>