<svg width="43" height="42" viewBox="0 0 43 42" fill="none" xmlns="http://www.w3.org/2000/svg">
<g clip-path="url(#clip0_7318_11544)">
<path fill-rule="evenodd" clip-rule="evenodd" d="M31.8751 33.1924C31.5612 33.0197 31.1427 32.778 30.5847 32.4671C30.0267 32.1563 29.5036 31.8799 29.0503 31.6382C28.5969 31.3964 28.1784 31.1546 27.7599 30.9128C27.6902 30.8783 27.4809 30.7401 27.167 30.4984C26.888 30.2911 26.6091 30.153 26.3301 29.9803C26.1208 29.8767 25.8767 29.8076 25.6326 29.8076C25.3187 29.8076 24.9002 30.0493 24.4468 30.4984C23.9586 30.9474 23.5401 31.4309 23.1216 31.9836C22.738 32.5017 22.3195 32.9852 21.8662 33.4688C21.4128 33.9178 21.064 34.1595 20.7502 34.1595C20.5758 34.1595 20.3666 34.125 20.2271 34.0559C20.0527 33.9868 19.8783 33.9178 19.7388 33.8487C19.6342 33.7796 19.425 33.676 19.146 33.5033C18.867 33.3306 18.7275 33.2615 18.6926 33.227C16.635 32.1217 14.7169 30.7401 13.043 29.0822C11.4039 27.4243 9.97402 25.5592 8.85804 23.4868C8.85804 23.4523 8.75342 23.3141 8.57905 23.0378C8.40468 22.7615 8.30005 22.5888 8.2303 22.4507C8.16056 22.278 8.09081 22.1398 8.02106 21.9671C7.95131 21.7944 7.91644 21.6217 7.91644 21.449C7.91644 21.1727 8.16056 20.7928 8.61392 20.3438C9.06729 19.8947 9.5904 19.4803 10.1135 19.1003C10.6366 18.7204 11.1597 18.2714 11.6131 17.7878C12.0665 17.3043 12.3106 16.9243 12.3106 16.6135C12.3106 16.3717 12.2408 16.1299 12.1362 15.9227C11.9967 15.6464 11.8224 15.3355 11.6131 15.0938C11.369 14.7484 11.2295 14.5757 11.1946 14.5066C10.9505 14.1267 10.7064 13.6776 10.4623 13.2286C10.2181 12.7796 9.93915 12.2615 9.62528 11.7089C9.31141 11.1563 9.06729 10.7418 8.89292 10.4309C8.33493 9.32566 7.91644 8.70395 7.63744 8.63488C7.46307 8.5658 7.2887 8.5658 7.1492 8.5658C6.59121 8.60034 5.99835 8.66941 5.47524 8.80757C4.91725 8.91119 4.35926 9.08389 3.83614 9.29112C3.03404 9.63652 2.19705 10.6036 1.29032 12.1924C0.209218 13.8849 -0.1744 15.8882 0.0697205 17.8569C0.139469 18.3059 0.244092 18.7895 0.383589 19.2385C0.523086 19.7566 0.627709 20.1365 0.732332 20.3783C0.836955 20.6201 0.976452 21.0691 1.22057 21.6908C1.46469 22.3125 1.60419 22.727 1.63906 22.8651C2.16218 24.3158 2.82479 25.6974 3.6269 27.0099C5.09162 29.2895 6.83533 31.3964 8.78829 33.2961C10.7064 35.2303 12.8337 36.9572 15.1354 38.4079C16.4606 39.2023 17.8556 39.8586 19.3203 40.3767C19.4598 40.4112 19.8434 40.5839 20.5061 40.7911C21.1338 41.0329 21.5872 41.2056 21.8313 41.2747C22.0754 41.3783 22.459 41.4819 22.9821 41.6201C23.4355 41.7582 23.8889 41.8619 24.3771 41.9309C26.3649 42.2072 28.3876 41.7928 30.0965 40.7911C31.7007 39.8931 32.6772 39.0641 33.0259 38.2697C33.2352 37.7516 33.4095 37.199 33.5142 36.6464C33.6537 36.0938 33.7234 35.5411 33.7583 34.9885C33.7583 34.8158 33.7583 34.6431 33.6885 34.5049C33.6188 34.1595 32.9911 33.7451 31.8751 33.1924Z" fill="#EC6707"/>
<path fill-rule="evenodd" clip-rule="evenodd" d="M42.9996 11.9506C42.895 5.24995 37.35 -0.103665 30.5843 -4.67639e-05C23.8187 0.103572 18.4132 5.59535 18.483 12.296C18.5178 14.5411 19.1805 16.7516 20.4011 18.6513C19.4246 19.9292 18.1691 21.0345 16.7393 21.7944C17.0531 22.5888 18.1691 22.8305 18.9712 22.8996C20.6801 23.0723 22.354 22.7269 23.9931 22.2779C29.6427 25.9391 37.2453 24.3848 40.942 18.7894C42.337 16.7516 43.0345 14.4029 42.9996 11.9506ZM25.3532 14.1957C24.307 14.1957 23.47 13.3667 23.47 12.3305C23.47 11.2944 24.307 10.4654 25.3532 10.4654C26.3994 10.4654 27.2364 11.2944 27.2364 12.3305C27.2364 13.3322 26.3994 14.1957 25.3532 14.1957ZM30.8982 14.1957C29.852 14.1957 29.015 13.3667 29.015 12.3305C29.015 11.2944 29.852 10.4654 30.8982 10.4654C31.9444 10.4654 32.7814 11.2944 32.7814 12.3305C32.8163 13.3322 31.9444 14.1957 30.8982 14.1957ZM36.4781 14.1957C35.4319 14.1957 34.5949 13.3667 34.5949 12.3305C34.5949 11.2944 35.4319 10.4654 36.4781 10.4654C37.5243 10.4654 38.3613 11.2944 38.3613 12.3305C38.3613 13.3322 37.5243 14.1957 36.4781 14.1957Z" fill="#EC6707"/>
</g>
<defs>
<clipPath id="clip0_7318_11544">
<rect width="43" height="42" fill="white"/>
</clipPath>
</defs>
</svg>
