<svg width="48" height="48" viewBox="0 0 48 48" fill="none" xmlns="http://www.w3.org/2000/svg">
<g clip-path="url(#clip0_777_8546)">
<path d="M36.5168 8.19581C36.5168 7.06969 36.0773 6.00956 35.2808 5.21306L31.3038 1.236C30.5183 0.450469 29.4034 0 28.2938 0H28.0521V8.4375H36.5169L36.5168 8.19581Z" fill="#7A7A7A"/>
<path d="M25.6816 29.0191C25.9508 28.202 26.4204 27.4412 27.0329 26.8246L36.5543 17.3415V11.25H26.6731C25.8958 11.25 25.3125 10.621 25.3125 9.84375V0H4.21875C1.89244 0 0 1.89244 0 4.21875V43.7812C0 46.1076 1.89244 48 4.21875 48H32.2981C34.6244 48 36.5543 46.1076 36.5543 43.7812V33.2858L35.009 34.7937C34.3828 35.4144 33.6495 35.8662 32.8227 36.1423L28.3513 37.6351L27.6701 37.6722C26.544 37.6722 25.4783 37.1242 24.8165 36.2069C24.16 35.2937 23.9815 34.1099 24.3385 33.0401L25.6816 29.0191ZM7.03125 25.3125H21.0481C21.8254 25.3125 22.4543 25.9415 22.4543 26.7188C22.4543 27.496 21.8254 28.125 21.0481 28.125H7.03125C6.25397 28.125 5.625 27.496 5.625 26.7188C5.625 25.9415 6.25397 25.3125 7.03125 25.3125ZM5.625 21.0938C5.625 20.3165 6.25397 19.6875 7.03125 19.6875H21.0481C21.8254 19.6875 22.4543 20.3165 22.4543 21.0938C22.4543 21.871 21.8254 22.5 21.0481 22.5H7.03125C6.25397 22.5 5.625 21.871 5.625 21.0938ZM5.625 32.3438C5.625 31.5665 6.25397 30.9375 7.03125 30.9375H21.0481C21.8254 30.9375 22.4543 31.5665 22.4543 32.3438C22.4543 33.121 21.8254 33.75 21.0481 33.75H7.03125C6.25397 33.75 5.625 33.121 5.625 32.3438ZM26.6731 39.375C27.4504 39.375 28.0793 40.004 28.0793 40.7812C28.0793 41.5585 27.4505 42.1875 26.6731 42.1875H18.2356C17.4583 42.1875 16.8293 41.5585 16.8293 40.7812C16.8293 40.004 17.4583 39.375 18.2356 39.375H26.6731ZM7.03125 16.875C6.25397 16.875 5.625 16.246 5.625 15.4688C5.625 14.6915 6.25397 14.0625 7.03125 14.0625H26.6731C27.4504 14.0625 28.0793 14.6915 28.0793 15.4688C28.0793 16.246 27.4504 16.875 26.6731 16.875H7.03125Z" fill="#7A7A7A"/>
<path d="M28.2292 30.2633L27.0057 33.9337C26.8223 34.4836 27.3456 35.0066 27.8954 34.8229L31.5637 33.5978L28.2292 30.2633Z" fill="#7A7A7A"/>
<path d="M39.1509 18.6851L29.8894 27.9465L33.8836 31.9407C35.9769 29.8471 40.0498 25.7736 43.1446 22.6788L39.1509 18.6851Z" fill="#7A7A7A"/>
<path d="M47.1736 14.6516C46.6793 14.1545 45.9514 13.8702 45.1795 13.8702C44.4077 13.8702 43.6799 14.1545 43.1828 14.6531L41.1393 16.6965L45.1328 20.6901C46.2516 19.5713 47.0248 18.798 47.1765 18.6464C48.275 17.5463 48.2749 15.7543 47.1736 14.6516Z" fill="#7A7A7A"/>
<path d="M47.1764 18.6466C47.1765 18.6466 47.1765 18.6465 47.1766 18.6464C47.1801 18.6428 47.1817 18.6412 47.1846 18.6383C47.1817 18.6413 47.1801 18.6429 47.1764 18.6466Z" fill="#7A7A7A"/>
<path d="M47.1846 18.6382C47.1891 18.6337 47.1944 18.6285 47.1971 18.6257C47.1943 18.6285 47.1891 18.6337 47.1846 18.6382Z" fill="#7A7A7A"/>
<path d="M47.1971 18.6258C47.2062 18.6167 47.2064 18.6165 47.1971 18.6258V18.6258Z" fill="#7A7A7A"/>
</g>
<defs>
<clipPath id="clip0_777_8546">
<rect width="48" height="48" fill="white"/>
</clipPath>
</defs>
</svg>
