<svg width="24" height="24" viewBox="0 0 24 24" fill="none" xmlns="http://www.w3.org/2000/svg">
<path d="M18.0901 1.5H9.54755C8.16006 1.5 6.97505 2.3925 6.54004 3.62997H14.4526C17.04 3.62997 19.1476 5.73747 19.1476 8.32498V18.6825C20.3851 18.2475 21.2776 17.0625 21.2776 15.675V4.6875C21.2776 2.93248 19.8451 1.5 18.0901 1.5Z" fill="#EC6707"/>
<path d="M14.4556 5.13281H5.91187C4.15222 5.13281 2.7207 6.5647 2.7207 8.32397V19.3088C2.7207 21.0681 4.15222 22.5 5.91187 22.5H14.4556C16.2152 22.5 17.6467 21.0681 17.6467 19.3088V8.32397C17.6467 6.5647 16.2152 5.13281 14.4556 5.13281Z" fill="#EC6707"/>
</svg>
