<svg width="18" height="24" viewBox="0 0 18 24" fill="none" xmlns="http://www.w3.org/2000/svg">
<path d="M9 0C5.7691 0 3.14062 2.62848 3.14062 5.85938C3.14062 9.09027 5.7691 11.7188 9 11.7188C12.2309 11.7188 14.8594 9.09027 14.8594 5.85938C14.8594 2.62848 12.2309 0 9 0Z" fill="#7A7A7A"/>
<path d="M11.8638 23.9999L9.98511 16.9048H8.01489L6.13623 23.9999H11.8638Z" fill="#7A7A7A"/>
<path d="M7.98309 15.4982H10.0167L10.9487 12.6562H7.05127L7.98309 15.4982Z" fill="#7A7A7A"/>
<path d="M12.3995 12.7451L11.2593 16.2228L13.3185 24.0002H17.6718V18.9846C17.6718 15.855 15.3879 13.2492 12.3995 12.7451Z" fill="#7A7A7A"/>
<path d="M6.74066 16.2228L5.60046 12.7451C2.612 13.2492 0.328125 15.855 0.328125 18.9846V24.0002H4.68146L6.74066 16.2228Z" fill="#7A7A7A"/>
</svg>
