<svg width="24" height="24" viewBox="0 0 24 24" fill="none" xmlns="http://www.w3.org/2000/svg">
<path d="M6.14746 10.0447H7.99361L15.9044 5.47548C15.9571 5.44497 16.0153 5.42517 16.0756 5.41724C16.136 5.40931 16.1973 5.4134 16.2561 5.42927C16.3149 5.44515 16.3699 5.47249 16.4181 5.50973C16.4662 5.54697 16.5065 5.59337 16.5367 5.64625C16.6275 5.80391 16.7486 5.94212 16.8929 6.05298C17.0371 6.16384 17.2019 6.24516 17.3776 6.29232C17.5534 6.33947 17.7367 6.35152 17.9171 6.32777C18.0975 6.30403 18.2714 6.24496 18.429 6.15394C18.4817 6.12343 18.5399 6.10363 18.6002 6.0957C18.6606 6.08777 18.7219 6.09186 18.7807 6.10774C18.8395 6.12361 18.8945 6.15095 18.9427 6.18819C18.9908 6.22543 19.0312 6.27183 19.0613 6.32471L21.2028 10.0447H22.2644L18.9228 4.26164C18.7386 3.94526 18.4366 3.71471 18.0828 3.62043C17.7291 3.52615 17.3524 3.57582 17.0352 3.75856L6.14746 10.0447Z" fill="#EC6707"/>
<path d="M16.0014 6.48584L9.83984 10.0443H20.1322C20.1783 10.0443 20.1322 10.0443 18.4614 7.14584C18.0318 7.28937 17.5695 7.30332 17.1321 7.18596C16.6946 7.0686 16.3014 6.82511 16.0014 6.48584Z" fill="#EC6707"/>
<path d="M7.89228 2.91374C7.92244 2.86085 7.96275 2.81445 8.01091 2.77721C8.05907 2.73997 8.11412 2.71263 8.1729 2.69676C8.23167 2.68089 8.293 2.6768 8.35336 2.68473C8.41372 2.69266 8.47191 2.71245 8.52459 2.74297C8.68235 2.83471 8.85668 2.89436 9.03757 2.91848C9.21846 2.94261 9.40233 2.93075 9.57862 2.88356C9.75491 2.83638 9.92013 2.75482 10.0648 2.64356C10.2094 2.5323 10.3307 2.39355 10.4215 2.23528C10.4824 2.12971 10.5826 2.0525 10.7002 2.02051C10.8178 1.98852 10.9432 2.00433 11.0492 2.06451L14.58 4.10912C14.6307 4.10912 14.4231 4.20143 15.5031 3.57374C9.34151 0.0198909 9.59074 0.0152757 8.8569 0.204506C8.12305 0.393737 8.39536 0.204507 2.70459 10.0445H3.77074L7.89228 2.91374Z" fill="#EC6707"/>
<path d="M8.48788 3.73542L5.11865 9.58311L13.6617 4.64003L10.9479 3.0708C10.6484 3.41087 10.2554 3.65525 9.81793 3.77343C9.38047 3.89162 8.91788 3.8784 8.48788 3.73542Z" fill="#EC6707"/>
<path d="M22.9846 11.0231C22.8969 10.9354 19.2277 10.9677 1.38462 10.9677C1.01739 10.9677 0.66521 11.1136 0.405544 11.3733C0.145879 11.6329 0 11.9851 0 12.3523V22.5062C0 22.8734 0.145879 23.2256 0.405544 23.4853C0.66521 23.7449 1.01739 23.8908 1.38462 23.8908H22.6154C22.9826 23.8908 23.3348 23.7449 23.5945 23.4853C23.8541 23.2256 24 22.8734 24 22.5062V12.3523C23.9989 12.0504 23.899 11.757 23.7157 11.5171C23.5324 11.2771 23.2757 11.1036 22.9846 11.0231ZM23.0769 20.66C23.0769 20.7824 23.0283 20.8998 22.9417 20.9864C22.8552 21.0729 22.7378 21.1216 22.6154 21.1216C22.2482 21.1216 21.896 21.2675 21.6363 21.5271C21.3766 21.7868 21.2308 22.139 21.2308 22.5062C21.2308 22.6286 21.1821 22.746 21.0956 22.8325C21.009 22.9191 20.8916 22.9677 20.7692 22.9677H3.23077C3.10836 22.9677 2.99097 22.9191 2.90441 22.8325C2.81786 22.746 2.76923 22.6286 2.76923 22.5062C2.76923 22.139 2.62335 21.7868 2.36369 21.5271C2.10402 21.2675 1.75184 21.1216 1.38462 21.1216C1.26221 21.1216 1.14481 21.0729 1.05826 20.9864C0.971703 20.8998 0.923077 20.7824 0.923077 20.66V14.1985C0.923077 14.0761 0.971703 13.9587 1.05826 13.8721C1.14481 13.7856 1.26221 13.737 1.38462 13.737C1.75184 13.737 2.10402 13.5911 2.36369 13.3314C2.62335 13.0717 2.76923 12.7196 2.76923 12.3523C2.76923 12.2299 2.81786 12.1125 2.90441 12.026C2.99097 11.9394 3.10836 11.8908 3.23077 11.8908H20.7692C20.8916 11.8908 21.009 11.9394 21.0956 12.026C21.1821 12.1125 21.2308 12.2299 21.2308 12.3523C21.2308 12.7196 21.3766 13.0717 21.6363 13.3314C21.896 13.5911 22.2482 13.737 22.6154 13.737C22.7378 13.737 22.8552 13.7856 22.9417 13.8721C23.0283 13.9587 23.0769 14.0761 23.0769 14.1985V20.66Z" fill="#EC6707"/>
<path d="M20.3539 12.814H3.64619C3.55574 13.2575 3.33688 13.6646 3.01683 13.9846C2.69678 14.3047 2.28968 14.5235 1.84619 14.614V20.2447C2.28968 20.3352 2.69678 20.554 3.01683 20.8741C3.33688 21.1941 3.55574 21.6012 3.64619 22.0447H20.3539C20.4443 21.6012 20.6632 21.1941 20.9832 20.8741C21.3033 20.554 21.7104 20.3352 22.1539 20.2447V14.614C21.7104 14.5235 21.3033 14.3047 20.9832 13.9846C20.6632 13.6646 20.4443 13.2575 20.3539 12.814ZM12 21.1217C10.2185 21.1217 8.76927 19.4647 8.76927 17.4293C8.76927 15.394 10.2185 13.737 12 13.737C13.7816 13.737 15.2308 15.394 15.2308 17.4293C15.2308 19.4647 13.7816 21.1217 12 21.1217Z" fill="#EC6707"/>
<path d="M12.0001 20.1981C13.2746 20.1981 14.3078 18.9583 14.3078 17.4289C14.3078 15.8995 13.2746 14.6597 12.0001 14.6597C10.7256 14.6597 9.69238 15.8995 9.69238 17.4289C9.69238 18.9583 10.7256 20.1981 12.0001 20.1981Z" fill="#EC6707"/>
</svg>
