<svg width="24" height="24" viewBox="0 0 24 24" fill="none" xmlns="http://www.w3.org/2000/svg">
<path d="M18.7515 6.14128C18.5893 4.46022 17.8068 2.89985 16.5565 1.76444C15.3062 0.629034 13.6779 0 11.989 0C10.3002 0 8.67185 0.629034 7.4216 1.76444C6.17134 2.89985 5.3888 4.46022 5.22656 6.14128H18.7515Z" fill="#7A7A7A"/>
<path d="M5.19336 7.4502V7.73994C5.19336 9.54226 5.90933 11.2708 7.18376 12.5452C8.45819 13.8196 10.1867 14.5356 11.989 14.5356C13.7913 14.5356 15.5198 13.8196 16.7943 12.5452C18.0687 11.2708 18.7847 9.54226 18.7847 7.73994V7.4502H5.19336Z" fill="#7A7A7A"/>
<path d="M16.3527 14.8364H15.8975C14.7011 15.4983 13.3563 15.8455 11.989 15.8455C10.6218 15.8455 9.27694 15.4983 8.08057 14.8364H7.62535C6.06351 14.8382 4.56615 15.4594 3.46177 16.5638C2.35738 17.6682 1.73615 19.1656 1.73438 20.7274V23.3456C1.73438 23.5192 1.80334 23.6857 1.92609 23.8084C2.04884 23.9312 2.21533 24.0002 2.38893 24.0002H21.5891C21.7627 24.0002 21.9292 23.9312 22.052 23.8084C22.1747 23.6857 22.2437 23.5192 22.2437 23.3456V20.7274C22.2419 19.1656 21.6207 17.6682 20.5163 16.5638C19.4119 15.4594 17.9145 14.8382 16.3527 14.8364ZM12.6436 21.0001C12.6436 21.1737 12.5746 21.3402 12.4519 21.463C12.3291 21.5857 12.1626 21.6547 11.989 21.6547C11.8154 21.6547 11.6489 21.5857 11.5262 21.463C11.4034 21.3402 11.3345 21.1737 11.3345 21.0001V17.8059C11.3345 17.6323 11.4034 17.4658 11.5262 17.3431C11.6489 17.2203 11.8154 17.1514 11.989 17.1514C12.1626 17.1514 12.3291 17.2203 12.4519 17.3431C12.5746 17.4658 12.6436 17.6323 12.6436 17.8059V21.0001Z" fill="#7A7A7A"/>
</svg>
