<svg width="24" height="24" viewBox="0 0 24 24" fill="none" xmlns="http://www.w3.org/2000/svg">
<g clip-path="url(#clip0_102_5810)">
<path d="M16.7685 6.74995C16.7535 6.74995 16.7362 6.75075 16.72 6.75198C16.9516 2.92918 17.7115 -0.000577272 11.9999 8.53185e-08C6.31491 0.000552344 7.05115 2.92918 7.2827 6.75198C7.26651 6.75075 7.25074 6.74995 7.2357 6.74995C6.99597 6.74995 6.61045 6.96608 6.66427 7.86576C6.72426 8.86876 7.33842 10.1691 7.75947 10.236C8.50088 12.9609 10.0416 14.2412 11.9999 14.2412C13.9535 14.2412 15.5015 12.9609 16.2429 10.236C16.664 10.1691 17.2807 8.86876 17.3407 7.86576C17.3945 6.96608 17.0083 6.74995 16.7685 6.74995Z" fill="#7A7A7A"/>
<path d="M16.0763 13.7368C15.0956 15.9739 13.6334 16.8797 11.9997 16.8797C10.3661 16.8797 8.90395 15.9739 7.92321 13.7368C4.22888 14.5539 1.64062 16.4475 1.64062 18.6534C1.64062 21.6063 6.27859 24.0001 11.9998 24.0001C17.721 24.0001 22.3589 21.6063 22.3589 18.6534C22.3589 16.4475 19.7706 14.5539 16.0763 13.7368Z" fill="#7A7A7A"/>
</g>
<defs>
<clipPath id="clip0_102_5810">
<rect width="24" height="24" fill="white"/>
</clipPath>
</defs>
</svg>
