<svg width="24" height="24" viewBox="0 0 24 24" fill="none" xmlns="http://www.w3.org/2000/svg">
<g clip-path="url(#clip0_137_5058)">
<path d="M11.9967 12.8C15.5313 12.8 18.3967 9.93462 18.3967 6.4C18.3967 2.86538 15.5313 0 11.9967 0C8.46206 0 5.59668 2.86538 5.59668 6.4C5.59668 9.93462 8.46206 12.8 11.9967 12.8Z" fill="#7A7A7A"/>
<path d="M3.19687 24.0002H13.0849C11.6801 22.8743 10.7499 21.2615 10.4787 19.4818C10.2075 17.702 10.6152 15.8854 11.6209 14.3922C9.55269 14.2894 7.60395 13.3924 6.18087 11.8882C4.5856 12.5616 3.22413 13.6902 2.26657 15.1329C1.30901 16.5757 0.797824 18.2686 0.796875 20.0002V21.6002C0.798774 22.2361 1.05224 22.8455 1.50192 23.2951C1.95159 23.7448 2.56094 23.9983 3.19687 24.0002Z" fill="#7A7A7A"/>
<path d="M11.9971 18.3998C11.9971 19.5074 12.3255 20.5901 12.9408 21.511C13.5562 22.4319 14.4308 23.1497 15.454 23.5735C16.4773 23.9974 17.6033 24.1083 18.6896 23.8922C19.7759 23.6761 20.7737 23.1428 21.5569 22.3596C22.34 21.5764 22.8734 20.5786 23.0895 19.4923C23.3055 18.406 23.1946 17.28 22.7708 16.2568C22.3469 15.2335 21.6292 14.3589 20.7083 13.7436C19.7873 13.1282 18.7046 12.7998 17.5971 12.7998C16.1124 12.8015 14.689 13.392 13.6391 14.4419C12.5893 15.4917 11.9988 16.9151 11.9971 18.3998ZM18.3971 16.7998V17.5998H19.1971C19.4092 17.5998 19.6127 17.6841 19.7628 17.8341C19.9128 17.9841 19.9971 18.1876 19.9971 18.3998C19.9971 18.612 19.9128 18.8155 19.7628 18.9655C19.6127 19.1155 19.4092 19.1998 19.1971 19.1998H18.3971V19.9998C18.3971 20.212 18.3128 20.4155 18.1628 20.5655C18.0127 20.7155 17.8092 20.7998 17.5971 20.7998C17.3849 20.7998 17.1814 20.7155 17.0314 20.5655C16.8814 20.4155 16.7971 20.212 16.7971 19.9998V19.1998H15.9971C15.7849 19.1998 15.5814 19.1155 15.4314 18.9655C15.2814 18.8155 15.1971 18.612 15.1971 18.3998C15.1971 18.1876 15.2814 17.9841 15.4314 17.8341C15.5814 17.6841 15.7849 17.5998 15.9971 17.5998H16.7971V16.7998C16.7971 16.5876 16.8814 16.3841 17.0314 16.2341C17.1814 16.0841 17.3849 15.9998 17.5971 15.9998C17.8092 15.9998 18.0127 16.0841 18.1628 16.2341C18.3128 16.3841 18.3971 16.5876 18.3971 16.7998Z" fill="#7A7A7A"/>
</g>
<defs>
<clipPath id="clip0_137_5058">
<rect width="24" height="24" fill="white"/>
</clipPath>
</defs>
</svg>
