<svg width="24" height="24" viewBox="0 0 24 24" fill="none" xmlns="http://www.w3.org/2000/svg">
<g clip-path="url(#clip0_1_278)">
<path d="M3.27065 11.9954V23.2964C3.27065 23.6903 3.5801 23.9998 3.97404 23.9998H18.0417C18.4357 23.9998 18.7451 23.6903 18.7451 23.2964V13.0926C18.7451 12.8394 18.6045 12.6144 18.3934 12.4877L16.4943 11.3905C16.3817 11.3201 16.2551 11.292 16.1426 11.292H13.118L11.0079 13.0926L8.89773 11.292H3.97404C3.5801 11.292 3.27065 11.6014 3.27065 11.9954Z" fill="#7A7A7A"/>
<path d="M10.53 1.4073C10.6566 1.18217 10.8254 0.9712 11.0083 0.816362C11.3459 0.464669 11.7679 0.225565 12.2322 0.099003C12.9638 -0.0979447 13.7234 0.000529082 14.3705 0.38031C15.2709 0.900908 15.8054 1.87149 15.7773 2.91254C15.7632 3.05322 15.6929 5.14462 15.6929 5.14462C15.8476 5.06021 17.4514 4.06136 17.4514 4.06136C17.6342 3.97695 18.9003 3.02035 20.4618 3.9347C21.109 4.31457 21.5732 4.91944 21.7702 5.63694C21.9671 6.36851 21.8686 7.12811 21.4888 7.77527C20.7151 9.12573 18.9847 9.57589 17.6483 8.80217L15.8373 7.75656L18.3602 7.58836C18.5724 7.70944 18.8115 7.77316 19.0534 7.77316C19.5562 7.77316 20.0219 7.50597 20.2685 7.07527C20.4649 6.74074 20.5117 6.37394 20.4121 6.00303C20.3138 5.6465 20.0783 5.34086 19.7499 5.14851C19.5205 5.01388 19.3021 4.94861 19.0829 4.94861C18.7189 4.94861 18.4173 5.12652 18.2559 5.22199L18.1666 5.27282C17.9461 5.41021 16.516 6.29765 16.3676 6.37873L16.3147 6.40757L16.3267 6.41446L16.3072 6.4153L14.6191 7.40004L14.2909 5.243L14.2827 5.21744L14.287 5.09632C14.287 5.09632 14.3632 2.91568 14.3783 2.76868C14.3859 2.34693 14.1152 1.85784 13.6667 1.5982C13.4475 1.46976 13.2167 1.40655 12.9736 1.40655C12.8486 1.40655 12.7222 1.42371 12.5972 1.45738C12.3712 1.51918 12.1755 1.63187 12.023 1.79121L11.9172 1.89081C11.8773 1.92377 11.8121 1.9973 11.7571 2.09549C11.4205 2.66425 11.5243 3.41888 11.9872 3.86675C12.0635 3.93611 12.1638 4.0117 12.2551 4.06389L12.325 4.10426L12.5129 5.83707L11.5571 5.2852C11.3601 5.17266 11.1772 5.03198 11.0084 4.87728C10.108 4.00513 9.85475 2.54678 10.53 1.4073Z" fill="#7A7A7A"/>
<path d="M13.1184 11.292V19.0761C13.1184 19.3575 12.9496 19.6107 12.6823 19.7232C12.4291 19.8358 12.1196 19.7795 11.9227 19.5684L11.0083 18.6681L10.0938 19.5684C9.89691 19.7795 9.58737 19.8357 9.3342 19.7232C9.06691 19.6107 8.8981 19.3575 8.8981 19.0761V11.292H13.1184Z" fill="#7A7A7A"/>
<path d="M1.48503 7.40677H2.18841V6.70338C2.18841 6.3146 2.50301 6 2.8918 6C3.28058 6 3.59518 6.3146 3.59518 6.70338V7.40677H4.29857C4.68735 7.40677 5.00195 7.72137 5.00195 8.11015C5.00195 8.49894 4.68735 8.81354 4.29857 8.81354H3.59518V9.51692C3.59518 9.90571 3.28058 10.2203 2.8918 10.2203C2.50301 10.2203 2.18841 9.90571 2.18841 9.51692V8.81354H1.48503C1.09625 8.81354 0.781645 8.49894 0.781645 8.11015C0.781645 7.72137 1.09625 7.40677 1.48503 7.40677Z" fill="#7A7A7A"/>
<path d="M4.29857 4.40677C3.9101 4.40677 3.59518 4.09185 3.59518 3.70338C3.59518 3.31492 3.9101 3 4.29857 3C4.68704 3 5.00195 3.31492 5.00195 3.70338C5.00195 4.09185 4.68704 4.40677 4.29857 4.40677Z" fill="#7A7A7A"/>
<path d="M7.29857 10.4068C6.9101 10.4068 6.59518 10.0919 6.59518 9.70338C6.59518 9.31492 6.9101 9 7.29857 9C7.68704 9 8.00195 9.31492 8.00195 9.70338C8.00195 10.0919 7.68704 10.4068 7.29857 10.4068Z" fill="#7A7A7A"/>
<path d="M4.91689 5.52433L7.02704 1.86673C7.22399 1.52911 7.66009 1.41656 7.99771 1.61351L11.0082 3.35791L11.4112 3.5904L19.4101 8.20559L22.614 10.0542C22.9517 10.2371 23.1111 10.6732 22.9142 11.0108L20.7571 14.6684C20.5602 15.0061 20.1381 15.1185 19.8005 14.9215L11.0082 9.84316L5.18418 6.48093C4.84655 6.28408 4.73396 5.86205 4.91689 5.52433Z" fill="#7A7A7A"/>
</g>
<defs>
<clipPath id="clip0_1_278">
<rect width="24" height="24" fill="white" transform="matrix(-1 0 0 1 24 0)"/>
</clipPath>
</defs>
</svg>
