<svg width="22" height="24" viewBox="0 0 22 24" fill="none" xmlns="http://www.w3.org/2000/svg">
<path d="M15.7685 6.74995C15.7535 6.74995 15.7362 6.75075 15.72 6.75198C15.9516 2.92918 16.7115 -0.000577272 10.9999 8.53185e-08C5.31491 0.000552344 6.05115 2.92918 6.2827 6.75198C6.26651 6.75075 6.25074 6.74995 6.2357 6.74995C5.99597 6.74995 5.61045 6.96608 5.66427 7.86576C5.72426 8.86876 6.33842 10.1691 6.75947 10.236C7.50088 12.9609 9.04155 14.2412 10.9999 14.2412C12.9535 14.2412 14.5015 12.9609 15.2429 10.236C15.664 10.1691 16.2807 8.86876 16.3407 7.86576C16.3945 6.96608 16.0083 6.74995 15.7685 6.74995Z" fill="#7A7A7A"/>
<path d="M15.0763 13.7368C14.0956 15.9739 12.6334 16.8797 10.9997 16.8797C9.36615 16.8797 7.90395 15.9739 6.92321 13.7368C3.22888 14.5539 0.640625 16.4475 0.640625 18.6534C0.640625 21.6063 5.27859 24.0001 10.9998 24.0001C16.721 24.0001 21.3589 21.6063 21.3589 18.6534C21.3589 16.4475 18.7706 14.5539 15.0763 13.7368Z" fill="#7A7A7A"/>
</svg>
