<svg width="16" height="16" viewBox="0 0 16 16" fill="none" xmlns="http://www.w3.org/2000/svg">
<g clip-path="url(#clip0_886_9953)">
<path d="M7.9748 7.99995C7.81484 7.99995 7.65488 7.95205 7.53491 7.86401L1.53491 3.86396C1.31885 3.71997 1.17485 3.48003 1.17485 3.19995L1.17485 0.799951C1.17485 0.360058 1.53491 -5.78738e-07 1.9748 -5.5951e-07C2.13491 -5.52512e-07 2.29487 0.0480463 2.41484 0.135937L7.9748 3.83994L13.5349 0.135937C13.6549 0.0480468 13.8148 -4.19655e-08 13.9748 -3.49734e-08C14.4148 -1.57387e-08 14.7749 0.360059 14.7749 0.799951L14.7749 3.19995C14.7749 3.48003 14.6309 3.71997 14.4148 3.86396L8.41484 7.86401C8.29487 7.95205 8.13491 7.99995 7.9748 7.99995Z" fill="#FBBA00"/>
<path d="M7.9748 16.0001C7.81484 16.0001 7.65488 15.9521 7.53491 15.864L1.53491 11.8641C1.31885 11.7201 1.17485 11.48 1.17485 11.2001L1.17485 8.8001C1.17485 8.36006 1.53491 8 1.9748 8C2.13491 8 2.29487 8.04805 2.41484 8.13608L7.9748 11.8401L13.5349 8.13608C13.6549 8.04805 13.8148 8 13.9748 8C14.4148 8 14.7749 8.36006 14.7749 8.8001L14.7749 11.2001C14.7749 11.48 14.6309 11.7201 14.4148 11.8641L8.41484 15.864C8.29487 15.9521 8.13491 16.0001 7.9748 16.0001Z" fill="#FBBA00"/>
</g>
<defs>
<clipPath id="clip0_886_9953">
<rect width="16" height="16" fill="white" transform="translate(16) rotate(90)"/>
</clipPath>
</defs>
</svg>
