<svg width="24" height="23" viewBox="0 0 24 23" fill="none" xmlns="http://www.w3.org/2000/svg">
    <path
        d="M1.5 0.5H22.5C23.3284 0.5 24 1.17163 24 2C24 2.82837 23.3284 3.5 22.5 3.5H1.5C0.671631 3.5 0 2.82837 0 2C0 1.17163 0.671631 0.5 1.5 0.5Z"
        fill="#C6C6C6" />
    <path
        d="M1.5 6.5H22.5C23.3284 6.5 24 7.17163 24 8C24 8.82837 23.3284 9.5 22.5 9.5H1.5C0.671631 9.5 0 8.82837 0 8C0 7.17163 0.671631 6.5 1.5 6.5Z"
        fill="#C6C6C6" />
    <path
        d="M1.17188 12.5H17.5781C18.2253 12.5 18.75 13.1716 18.75 14C18.75 14.8284 18.2253 15.5 17.5781 15.5H1.17188C0.524712 15.5 0 14.8284 0 14C0 13.1716 0.524712 12.5 1.17188 12.5Z"
        fill="#ECECEC" />
</svg>
