<svg width="10" height="14" viewBox="0 0 20 24" fill="none" xmlns="http://www.w3.org/2000/svg">
<path d="M15.625 5.71875H15.4473C15.0034 3.99891 13.7598 2.57719 12.1094 1.90922V0.703125C12.1094 0.315 11.7944 0 11.4062 0H8.59375C8.20563 0 7.89062 0.315 7.89062 0.703125V1.90922C6.21344 2.58797 4.95625 4.04484 4.53156 5.80266C3.63016 6.06187 2.96875 6.89391 2.96875 7.87781V9.23438C2.96875 9.6225 3.28375 9.9375 3.67188 9.9375H16.3281C16.7163 9.9375 17.0312 9.6225 17.0312 9.23438V7.125C17.0312 6.34969 16.4003 5.71875 15.625 5.71875ZM11.9036 6.91922L10.4973 8.32547C9.83969 8.98266 8.84453 7.98938 9.50266 7.33078L10.2194 6.61453L8.27922 5.64469C7.85078 5.43 7.7575 4.85766 8.09641 4.51828L9.50266 3.11203C10.1603 2.45484 11.1555 3.44813 10.4973 4.10672L9.78063 4.82297L11.7208 5.79281C12.1492 6.0075 12.2425 6.57984 11.9036 6.91922Z" fill="#7A7A7A"/>
<path d="M15.625 11.3438C15.625 14.4455 13.1017 16.9688 10 16.9688C6.89828 16.9688 4.375 14.4455 4.375 11.3438H15.625Z" fill="#7A7A7A"/>
<path d="M0.15625 23.2969C0.15625 23.685 0.47125 24 0.859375 24H4.375V20.4844C4.375 20.0963 4.69 19.7812 5.07812 19.7812H5.78125V17.0077C2.62141 17.3583 0.15625 20.0452 0.15625 23.2969ZM5.78125 21.1875V24H14.2188V21.1875H5.78125ZM7.1875 16.9688V19.7812H12.8125V16.9688H7.1875ZM14.2188 17.0077V19.7812H14.9219C15.31 19.7812 15.625 20.0963 15.625 20.4844V24H19.1406C19.5287 24 19.8438 23.685 19.8438 23.2969C19.8438 20.0452 17.3786 17.3583 14.2188 17.0077Z" fill="#7A7A7A"/>
</svg>
