<svg width="32" height="32" viewBox="0 0 32 32" fill="none" xmlns="http://www.w3.org/2000/svg">
<g clip-path="url(#clip0_6496_9848)">
<path d="M12.1128 31.9651C8.32971 31.9651 4.54663 31.9651 0.763553 31.9651C0.0694097 31.9651 -0.138833 31.7224 0.0694097 31.0637C0.763553 28.4635 1.4924 25.8979 2.15184 23.2977C2.39479 22.431 2.70715 21.5989 3.36659 20.9749C3.9219 20.4548 4.58134 20.1775 5.31019 20.0041C6.52494 19.7268 7.70499 19.4494 8.91974 19.2067C9.16269 19.1721 9.30151 19.068 9.2321 18.7907C9.2321 18.756 9.2321 18.7214 9.2321 18.6867C9.33622 17.8893 9.19739 17.1959 8.57266 16.6065C8.08676 16.1211 7.87852 15.4277 7.73969 14.7344C7.70499 14.5263 7.60086 14.4223 7.39262 14.4223C6.55965 14.3877 5.90021 13.9023 5.69197 13.1049C5.48373 12.3422 5.76138 11.5448 6.42082 11.094C6.59436 10.9554 6.66377 10.8514 6.66377 10.6087C6.66377 10.3313 6.66377 10.054 6.66377 9.77661C6.66377 9.53392 6.76789 9.3259 7.01084 9.25656C7.18438 9.18722 7.21908 9.08322 7.25379 8.94454C7.39262 8.28582 7.67028 7.69643 8.08676 7.17639C8.22559 7.00304 8.2603 6.89903 8.05206 6.76036C7.84381 6.58701 7.84381 6.44833 8.05206 6.27498C8.12147 6.24031 8.15618 6.17097 8.22559 6.10163C8.57266 5.75494 8.57266 5.75494 8.95444 6.10163C9.05856 6.20564 9.16269 6.24031 9.30151 6.1363C9.718 5.89362 10.1692 5.72027 10.6204 5.65093C10.7939 5.61626 10.8633 5.54692 10.8286 5.3389C10.7245 4.78419 10.9328 4.57617 11.4881 4.5415C12.0781 4.5415 12.6681 4.5415 13.2581 4.5415C13.7787 4.5415 14.0217 4.78419 13.8829 5.30423C13.8134 5.54692 13.8829 5.65093 14.1258 5.6856C14.5423 5.75494 14.9241 5.89362 15.3059 6.10163C15.5141 6.20564 15.6182 6.20564 15.7918 6.03229C16.1041 5.6856 16.1041 5.72027 16.4512 6.03229C16.4859 6.06696 16.5206 6.10163 16.5553 6.1363C16.833 6.41366 16.9371 6.41366 16.59 6.76036C16.4512 6.86436 16.4859 6.96837 16.59 7.07238C17.0412 7.62709 17.3536 8.25115 17.4577 8.94454C17.4924 9.08322 17.5618 9.15255 17.6659 9.18722C17.9436 9.29123 18.0477 9.49925 18.0477 9.77661C18.0477 9.88062 18.0477 9.98462 18.0477 10.0886C18.013 10.5393 18.0824 10.9207 18.4989 11.2327C19.0542 11.6488 19.2278 12.5155 18.9501 13.1742C18.6724 13.9023 18.0477 14.353 17.3189 14.353C17.0759 14.353 16.9718 14.4223 16.9371 14.665C16.7636 15.6011 16.3471 16.3985 15.6876 17.0919C15.5488 17.2652 15.4794 17.4039 15.4794 17.6466C15.4794 18.028 15.4794 18.3747 15.4794 18.756C15.4794 18.9987 15.5488 19.1027 15.7918 19.1374C17.0759 19.4147 18.3948 19.6921 19.679 20.0041C21.2061 20.3855 22.1779 21.3909 22.4902 22.9164C23.0803 25.6206 23.6356 28.3595 24.1909 31.0637C24.295 31.6531 24.1215 31.8958 23.4967 31.8958C19.7484 31.9651 15.9306 31.9651 12.1128 31.9651ZM12.3905 11.8914C11.3145 11.8914 10.2386 11.8914 9.12798 11.8914C8.95444 11.8914 8.78091 11.8914 8.78091 12.1341C8.81561 12.8275 8.78091 13.5556 8.81561 14.249C8.95444 16.0171 10.5857 17.6813 12.7375 17.4386C14.4035 17.2652 15.757 15.9478 15.8959 14.2836C15.9653 13.5903 15.8959 12.8969 15.9306 12.2035C15.9306 11.9261 15.8265 11.8568 15.5835 11.8914C14.5423 11.8914 13.4664 11.8914 12.3905 11.8914ZM18.5683 25.9326C18.5683 24.4765 18.5683 23.0204 18.5683 21.5643C18.5683 20.9402 18.6724 20.9749 17.9783 20.8362C17.5965 20.7669 17.5965 20.7669 17.5965 21.1482C17.5965 22.639 17.5965 24.1298 17.5965 25.6206C17.5965 26.1753 17.423 26.314 16.8677 26.314C13.8829 26.314 10.9328 26.314 7.94794 26.314C7.39262 26.314 7.21908 26.1406 7.21908 25.5859C7.21908 24.0951 7.21908 22.6043 7.21908 21.1136C7.21908 20.8362 7.14967 20.6975 6.87201 20.8362C6.8026 20.8709 6.73318 20.8709 6.66377 20.8709C6.3167 20.9055 6.24728 21.0789 6.24728 21.3909C6.24728 24.3378 6.24728 27.2847 6.24728 30.2316C6.24728 30.9944 6.10846 30.8904 6.94143 30.8904C7.18438 30.8904 7.25379 30.7864 7.21908 30.5783C7.21908 30.0583 7.21908 29.5383 7.21908 29.0182C7.21908 28.5675 7.2885 28.4635 7.70499 28.2901C8.46854 27.9781 9.2321 27.7008 9.96095 27.3887C10.1345 27.3194 10.2733 27.2847 10.4469 27.2847C11.731 27.2847 13.0152 27.2847 14.2646 27.2847C14.4035 27.2847 14.577 27.2847 14.7158 27.3541C15.5141 27.6661 16.3124 28.0128 17.1453 28.3248C17.423 28.4288 17.5618 28.6368 17.5618 28.9489C17.5618 29.3996 17.5618 29.8503 17.5618 30.301C17.5618 30.9597 17.4924 30.8904 18.1518 30.8904C18.4642 30.8904 18.5336 30.7864 18.5336 30.4743C18.5336 28.9835 18.5683 27.4581 18.5683 25.9326ZM12.3905 25.2392C13.6399 25.2392 14.8894 25.2392 16.1388 25.2392C16.4512 25.2392 16.5206 25.1352 16.5206 24.8579C16.5206 23.6444 16.5206 22.431 16.5206 21.2176C16.5206 20.3508 16.6594 20.5588 15.8265 20.3162C15.5488 20.2468 15.4447 20.3162 15.3059 20.5935C14.82 21.7723 13.9523 22.431 12.7028 22.535C11.3145 22.639 10.2733 22.0496 9.61388 20.8362C9.30151 20.2468 9.33622 20.2468 8.67679 20.3855C8.39913 20.4548 8.29501 20.5588 8.29501 20.8362C8.29501 22.1883 8.29501 23.5057 8.29501 24.8579C8.29501 25.1352 8.36442 25.2392 8.67679 25.2392C9.89154 25.2392 11.141 25.2392 12.3905 25.2392ZM5.13666 26.0713C5.13666 25.6553 5.13666 25.2046 5.13666 24.7885C5.13666 23.7138 5.13666 22.639 5.13666 21.5296C5.13666 21.2522 5.06724 21.2176 4.82429 21.3216C4.47722 21.4949 4.19956 21.7029 3.95661 21.9456C3.54013 22.3963 3.36659 22.951 3.22776 23.5404C2.60303 25.8633 1.9783 28.1861 1.35357 30.4743C1.24945 30.8557 1.24945 30.8557 1.66594 30.8557C2.67245 30.8557 3.67895 30.8557 4.68546 30.8557C5.13666 30.8557 5.13666 30.8557 5.13666 30.4397C5.13666 29.0182 5.13666 27.5274 5.13666 26.0713ZM19.6442 26.0713C19.6442 27.5621 19.6442 29.0182 19.6442 30.509C19.6442 30.821 19.7137 30.925 20.026 30.925C20.9284 30.8904 21.7961 30.8904 22.6985 30.925C23.0108 30.925 23.0456 30.8557 23.0108 30.5783C22.4902 28.1515 22.0043 25.6899 21.4837 23.2631C21.3102 22.3963 20.7896 21.7723 19.9913 21.3909C19.679 21.2522 19.6442 21.2522 19.6442 21.5989C19.6442 23.055 19.6442 24.5805 19.6442 26.0713ZM12.3905 30.8904C13.6399 30.8904 14.9241 30.8904 16.1735 30.8904C16.4165 30.8904 16.4859 30.821 16.4859 30.5783C16.4859 30.2316 16.4859 29.8503 16.4859 29.4689C16.4859 29.2609 16.4165 29.1916 16.2429 29.1222C15.6876 28.9142 15.1323 28.7062 14.6117 28.4635C14.4382 28.3942 14.2646 28.3595 14.0911 28.3595C12.9805 28.3595 11.8351 28.3595 10.7245 28.3595C10.5857 28.3595 10.4816 28.3595 10.3427 28.4288C9.75271 28.6715 9.16269 28.9142 8.53796 29.1569C8.36442 29.2262 8.29501 29.3302 8.29501 29.5383C8.29501 29.8849 8.32971 30.2316 8.29501 30.5783C8.29501 30.8557 8.36442 30.9597 8.64208 30.9597C9.89154 30.8904 11.141 30.8904 12.3905 30.8904ZM12.3905 9.25656C12.8416 9.25656 13.2581 9.25656 13.7093 9.25656C14.5076 9.25656 15.3059 9.25656 16.1388 9.25656C16.3818 9.25656 16.4512 9.18722 16.3818 8.94454C16.2777 8.59784 16.1041 8.25115 15.8612 7.93912C15.7918 7.83511 15.6876 7.76577 15.5835 7.90445C15.41 8.14714 15.2711 8.0778 15.0976 7.86978C14.9935 7.7311 14.8547 7.62709 14.7505 7.48842C14.6811 7.41908 14.6117 7.34974 14.6811 7.2804C14.8547 7.07238 14.7158 7.03771 14.5423 6.96837C14.4035 6.89903 14.2299 6.86436 14.0911 6.82969C13.6399 6.72569 13.6399 6.72569 13.5358 7.17639C13.397 7.62709 13.2581 7.7311 12.7722 7.76577C12.5293 7.76577 12.2516 7.76577 12.0087 7.76577C11.6269 7.76577 11.4881 7.62709 11.3492 7.2804C11.1757 6.72569 11.1757 6.72569 10.6204 6.86436C10.4816 6.89903 10.308 6.96837 10.1692 7.03771C10.0651 7.07238 9.99566 7.14172 10.0998 7.24573C10.2386 7.38441 10.1692 7.48842 10.0651 7.59242C9.92624 7.7311 9.78741 7.83511 9.68329 7.97379C9.54447 8.14714 9.44034 8.14714 9.30151 7.97379C9.16269 7.80044 9.05856 7.86978 8.95444 8.00846C8.7462 8.28582 8.60737 8.56317 8.50325 8.90987C8.39913 9.25656 8.39913 9.29123 8.78091 9.29123C9.92624 9.25656 11.1757 9.25656 12.3905 9.25656ZM10.3427 18.9294C10.3427 19.2414 10.3427 19.5188 10.3774 19.8308C10.551 20.8015 11.3839 21.5296 12.3557 21.5296C13.3623 21.5296 14.1952 20.8015 14.3688 19.8308C14.4382 19.3454 14.4035 18.86 14.4035 18.3747C14.4035 18.2013 14.3341 18.2013 14.1952 18.236C12.9805 18.7214 11.7657 18.756 10.551 18.236C10.4121 18.1666 10.3427 18.2013 10.3427 18.3747C10.3427 18.5133 10.3427 18.7214 10.3427 18.9294ZM12.3905 10.8167C13.8134 10.8167 15.2711 10.8167 16.6941 10.8167C16.9718 10.8167 17.0759 10.678 16.9718 10.47C16.9024 10.2966 16.7288 10.366 16.6247 10.366C14.1952 10.366 11.8004 10.366 9.37093 10.366C8.91974 10.366 8.43384 10.366 7.98264 10.366C7.70499 10.366 7.70499 10.5393 7.7744 10.7127C7.80911 10.886 7.98264 10.8167 8.08676 10.8167C9.54446 10.8167 10.9675 10.8167 12.3905 10.8167ZM7.73969 12.6542C7.73969 12.4808 7.73969 12.3075 7.73969 12.1341C7.73969 11.9261 7.67028 11.8568 7.46204 11.8914C7.04555 11.9608 6.76789 12.2381 6.76789 12.6195C6.76789 13.0009 7.01084 13.2782 7.42733 13.3822C7.67028 13.4516 7.7744 13.3476 7.73969 13.1049C7.70499 12.9662 7.73969 12.7929 7.73969 12.6542ZM17.0412 12.6195C17.0412 12.7929 17.0412 12.9662 17.0412 13.1396C17.0412 13.3476 17.1106 13.4169 17.3189 13.3822C17.7354 13.3129 18.013 13.0355 18.013 12.6542C18.013 12.3075 17.7701 11.9955 17.3883 11.8914C17.1106 11.8221 17.0065 11.8914 17.0412 12.2035C17.0759 12.3422 17.0412 12.4808 17.0412 12.6195ZM12.3557 5.72027C12.1475 5.6856 12.0434 5.75494 12.1128 5.99762C12.1475 6.1363 12.1822 6.27498 12.2169 6.44833C12.2516 6.51767 12.2169 6.65635 12.3557 6.69102C12.4946 6.69102 12.4599 6.55234 12.4946 6.483C12.5293 6.34432 12.564 6.20564 12.5987 6.03229C12.7375 5.75494 12.6334 5.6856 12.3557 5.72027Z" fill="#7A7A7A"/>
<path d="M27.8698 0.658604C27.8351 0.762613 27.8004 0.935961 27.731 1.10931C27.3492 2.42675 26.9327 3.74419 26.551 5.06164C26.4815 5.30432 26.5163 5.40833 26.7592 5.47767C28.321 6.03239 29.8828 6.5871 31.41 7.17648C31.6529 7.28049 31.9306 7.3845 31.9653 7.69652C32.0347 8.00855 31.8264 8.1819 31.5835 8.35525C28.9805 10.4701 26.3774 12.6196 23.7397 14.7344C23.705 14.7691 23.705 14.7691 23.6703 14.8038C23.4273 15.0118 23.1844 15.0811 22.9067 14.8731C22.6291 14.6651 22.6638 14.3877 22.7679 14.1104C23.115 13.3823 23.4273 12.6543 23.7744 11.9262C24.1562 11.0595 24.5727 10.1927 24.9544 9.32599C25.0586 9.11798 25.0238 9.01397 24.8156 8.87529C23.2538 8.04322 21.6573 7.17648 20.0954 6.30974C19.436 5.96305 19.4013 5.54701 20.026 5.09631C22.2473 3.50151 24.4685 1.90671 26.7245 0.311909C26.8633 0.2079 26.9674 0.138561 27.1063 0.069222C27.4881 -0.138795 27.9045 0.138561 27.8698 0.658604ZM26.308 2.04539C26.1692 2.04539 26.0998 2.11473 25.9956 2.18406C24.4685 3.25882 22.9414 4.33358 21.449 5.443C21.1714 5.61635 21.1714 5.68569 21.4837 5.82437C22.9414 6.62177 24.4338 7.41917 25.8915 8.21657C26.3427 8.45925 26.4468 8.70194 26.2386 9.18731C25.8915 9.95004 25.5445 10.7128 25.1974 11.4755C25.0586 11.7875 24.9197 12.0649 24.7809 12.3769C24.9544 12.3769 25.0238 12.2729 25.0933 12.2382C26.7245 10.9208 28.3904 9.56868 30.0217 8.25124C30.1258 8.1819 30.2993 8.11256 30.2646 7.97388C30.2299 7.8352 30.0911 7.8352 29.9523 7.80053C28.564 7.28049 27.141 6.79512 25.7527 6.27507C25.3015 6.10172 25.1974 5.89371 25.3362 5.443C25.5097 4.81895 25.718 4.1949 25.8915 3.57085C25.9956 3.0508 26.1692 2.56543 26.308 2.04539Z" fill="#7A7A7A"/>
<path d="M31.4794 17.2653C31.4794 17.508 31.4794 17.7507 31.4794 17.9934C31.4794 18.2708 31.4447 18.5134 31.7918 18.6521C31.9653 18.7215 32 18.8948 32 19.1028C32 19.8656 32.0347 20.663 32 21.4257C31.9653 22.6045 31.0282 23.7485 29.8135 24.0952C29.5011 24.1993 29.3623 24.3379 29.4317 24.65C29.4664 24.8233 29.4317 25.0313 29.4317 25.2047C29.4317 25.586 29.2581 25.7594 28.8764 25.7941C28.2169 25.8634 27.6269 26.0367 27.141 26.5221C26.4122 27.2502 26.1692 28.1516 26.4816 29.157C26.7939 30.1277 27.5228 30.7171 28.5293 30.8558C28.807 30.8905 28.9458 30.9945 28.8764 31.2718C28.8764 31.3065 28.8764 31.3065 28.8764 31.3412C28.8764 32.0346 28.8764 32.0692 28.1822 31.9306C26.551 31.5839 25.3015 30.1971 25.2321 28.637C25.128 26.7301 26.4122 25.2393 27.974 24.8233C28.1128 24.7886 28.3211 24.8233 28.3211 24.5806C28.3558 24.3379 28.2863 24.2339 28.0434 24.1299C26.7939 23.7485 25.9957 22.9165 25.7874 21.6337C25.6833 21.0097 25.7527 20.3163 25.7527 19.6922C25.7527 19.4842 25.7527 19.3108 25.7527 19.1028C25.7527 18.8948 25.8221 18.7215 26.0304 18.6175C26.2733 18.5134 26.2733 18.3748 26.2733 18.1667C26.2733 17.5427 26.2733 16.9533 26.2733 16.3293C26.2733 16.0866 26.3427 15.9479 26.6204 15.9826C27.4881 16.0172 27.3493 15.8786 27.3493 16.7106C27.3493 17.2307 27.3493 17.7507 27.3493 18.2708C27.3493 18.5134 27.4534 18.5828 27.6616 18.5828C28.4599 18.5481 28.3211 18.6521 28.3211 17.9241C28.3211 17.404 28.3211 16.8493 28.3211 16.3293C28.3211 16.1212 28.3905 16.0172 28.5987 16.0172C29.5358 16.0172 29.3623 15.9132 29.397 16.78C29.397 17.3 29.397 17.7854 29.397 18.3054C29.397 18.5481 29.4664 18.6175 29.7093 18.6175C30.5076 18.5828 30.3688 18.6868 30.4035 17.9587C30.4035 17.4387 30.4035 16.884 30.4035 16.3639C30.4035 16.1212 30.4729 16.0519 30.7158 16.0519C31.6182 16.0866 31.4794 15.9479 31.4794 16.78C31.4794 16.884 31.4794 17.092 31.4794 17.2653ZM28.8764 19.6229C28.2863 19.6229 27.6963 19.6229 27.1063 19.6229C26.9328 19.6229 26.8286 19.6575 26.8286 19.8656C26.8634 20.4203 26.7939 20.975 26.8981 21.5297C27.0716 22.4658 27.9046 23.1938 28.8764 23.1938C29.8482 23.1938 30.6811 22.4658 30.8547 21.5297C30.9588 21.0097 30.8894 20.4549 30.9241 19.9349C30.9241 19.6922 30.8547 19.6229 30.6117 19.6575C30.0564 19.6229 29.4664 19.6229 28.8764 19.6229Z" fill="#7A7A7A"/>
</g>
<defs>
<clipPath id="clip0_6496_9848">
<rect width="32" height="32" fill="white"/>
</clipPath>
</defs>
</svg>
