<svg width="40" height="40" viewBox="0 0 40 40" fill="none" xmlns="http://www.w3.org/2000/svg">
<rect width="40" height="40" rx="8" fill="#FDECE8"/>
<g clip-path="url(#clip0_842_16969)">
<path d="M27.4801 10.5312H12.6001V22.9641H27.4801V10.5312ZM23.4515 16.8184L19.2558 21.7127C19.1707 21.811 19.0654 21.8899 18.9471 21.9439C18.8287 21.9979 18.7002 22.0257 18.5701 22.0255C18.3872 22.0263 18.2087 21.9693 18.0601 21.8627C17.8859 21.7439 17.7594 21.5672 17.7029 21.3641C17.6464 21.1609 17.6636 20.9444 17.7515 20.7527L18.9858 18.0312L17.3872 18.117C17.2072 18.1259 17.0284 18.082 16.873 17.9906C16.7176 17.8992 16.5923 17.7643 16.5126 17.6026C16.4328 17.4409 16.4022 17.2593 16.4243 17.0804C16.4465 16.9015 16.5205 16.7329 16.6372 16.5955L20.7558 11.787C20.8357 11.6926 20.9342 11.6157 21.0451 11.5612C21.1561 11.5066 21.2771 11.4756 21.4006 11.4699C21.5241 11.4643 21.6474 11.4842 21.7629 11.5284C21.8783 11.5727 21.9834 11.6403 22.0715 11.727C22.2066 11.8581 22.2973 12.0281 22.3311 12.2132C22.3649 12.3984 22.3401 12.5895 22.2601 12.7598L21.0001 15.4298L22.7615 15.3784C22.8925 15.3748 23.0227 15.4002 23.1427 15.4528C23.2628 15.5054 23.3697 15.5839 23.4558 15.6827C23.5911 15.8412 23.665 16.043 23.6642 16.2513C23.6634 16.4597 23.588 16.6609 23.4515 16.8184Z" fill="#E74111"/>
<path d="M20.1003 16.0213C20.0411 15.933 20.006 15.8308 19.9985 15.7248C19.991 15.6188 20.0113 15.5127 20.0575 15.417L21.4846 12.3956C21.4888 12.3865 21.4902 12.3763 21.4887 12.3664C21.4872 12.3565 21.4828 12.3473 21.476 12.3398L21.4075 12.3441L17.2889 17.1527C17.2808 17.1655 17.2763 17.1804 17.276 17.1956C17.2754 17.2044 17.2768 17.2132 17.2803 17.2213C17.2932 17.247 17.3018 17.2598 17.3446 17.2598L19.3032 17.157H19.3375C19.4444 17.1569 19.5497 17.1837 19.6436 17.235C19.7375 17.2864 19.8169 17.3605 19.8745 17.4506C19.9322 17.5407 19.9662 17.6439 19.9735 17.7506C19.9807 17.8574 19.961 17.9642 19.916 18.0613L18.5318 21.1084C18.5282 21.1177 18.528 21.1278 18.5311 21.1372C18.5343 21.1466 18.5405 21.1546 18.5489 21.1598C18.5575 21.1659 18.5681 21.1684 18.5785 21.1668C18.5889 21.1652 18.5982 21.1596 18.6046 21.1513L22.8003 16.2613L20.636 16.2998C20.53 16.3057 20.4243 16.283 20.33 16.2339C20.2358 16.1849 20.1564 16.1115 20.1003 16.0213Z" fill="#FBBA00"/>
<path d="M31.5714 30.9139H23.6374C23.4545 30.9137 23.2792 30.841 23.1499 30.7117C23.0206 30.5824 22.9479 30.4071 22.9477 30.2242V25.2615H23.434V29.3179C23.4343 29.5791 23.5382 29.8295 23.7229 30.0142C23.9076 30.1989 24.158 30.3028 24.4192 30.3031H31.5714C31.6851 30.3031 31.7941 30.258 31.8745 30.1776C31.9548 30.0972 32 29.9882 32 29.8745C32 29.7609 31.9548 29.6519 31.8745 29.5715C31.7941 29.4911 31.6851 29.446 31.5714 29.446H24.4192C24.3853 29.4459 24.3527 29.4324 24.3287 29.4084C24.3047 29.3844 24.2912 29.3519 24.2912 29.3179V27.563H25.8987C26.2396 27.5626 26.5664 27.4271 26.8074 27.186C27.0485 26.945 27.184 26.6182 27.1844 26.2773V25.2615H28.363C28.7124 25.2616 29.0475 25.1232 29.295 24.8765C29.5424 24.6299 29.6819 24.2952 29.683 23.9458V9.55009C29.6819 9.20072 29.5424 8.86602 29.2949 8.61938C29.0475 8.37274 28.7124 8.23429 28.363 8.23438H11.7173C11.3679 8.23428 11.0327 8.37274 10.7853 8.61938C10.5379 8.86602 10.3983 9.20072 10.3973 9.55009V23.9458C10.3983 24.2952 10.5379 24.6299 10.7853 24.8765C11.0327 25.1232 11.3679 25.2616 11.7173 25.2615H12.8788V26.2773C12.8791 26.6182 13.0147 26.945 13.2558 27.186C13.4968 27.4271 13.8236 27.5626 14.1645 27.563H15.6293V28.9584C15.6291 29.1152 15.5667 29.2656 15.4557 29.3764C15.3448 29.4873 15.1944 29.5496 15.0375 29.5497H8.42857C8.31491 29.5497 8.2059 29.5949 8.12553 29.6753C8.04515 29.7556 8 29.8647 8 29.9783C8 30.092 8.04515 30.201 8.12553 30.2814C8.2059 30.3617 8.31491 30.4069 8.42857 30.4069H15.0375C15.4216 30.4065 15.7899 30.2538 16.0615 29.9823C16.3332 29.7107 16.486 29.3425 16.4865 28.9584V25.2615H17.2285V29.989C17.2283 30.2342 17.1307 30.4693 16.9573 30.6427C16.7839 30.8161 16.5488 30.9137 16.3036 30.9139H8.57254C8.45888 30.9139 8.34987 30.9591 8.2695 31.0395C8.18912 31.1198 8.14397 31.2288 8.14397 31.3425C8.14397 31.4562 8.18912 31.5652 8.2695 31.6456C8.34987 31.7259 8.45888 31.7711 8.57254 31.7711H16.3036C16.7761 31.7706 17.229 31.5826 17.5631 31.2485C17.8972 30.9145 18.0851 30.4615 18.0857 29.989V27.563H18.8758V31.3425C18.8758 31.4562 18.921 31.5652 19.0014 31.6456C19.0817 31.7259 19.1907 31.7711 19.3044 31.7711C19.4181 31.7711 19.5271 31.7259 19.6075 31.6456C19.6878 31.5652 19.733 31.4562 19.733 31.3425V25.2615H20.3633V31.3425C20.3633 31.4562 20.4084 31.5652 20.4888 31.6456C20.5692 31.7259 20.6782 31.7711 20.7918 31.7711C20.9055 31.7711 21.0145 31.7259 21.0949 31.6456C21.1753 31.5652 21.2204 31.4562 21.2204 31.3425V27.563H22.0905V30.2242C22.091 30.6343 22.2541 31.0275 22.5441 31.3175C22.8341 31.6075 23.2273 31.7706 23.6374 31.7711H31.5714C31.6851 31.7711 31.7941 31.7259 31.8745 31.6456C31.9548 31.5652 32 31.4562 32 31.3425C32 31.2289 31.9548 31.1198 31.8745 31.0395C31.7941 30.9591 31.6851 30.9139 31.5714 30.9139ZM11.743 10.4415C11.7429 10.3407 11.7627 10.2409 11.8012 10.1478C11.8397 10.0547 11.8962 9.9701 11.9675 9.89884C12.0387 9.82759 12.1233 9.77108 12.2164 9.73257C12.3096 9.69405 12.4094 9.67428 12.5101 9.67437H27.5701C27.6709 9.67428 27.7707 9.69405 27.8638 9.73257C27.9569 9.77108 28.0415 9.82759 28.1128 9.89884C28.1841 9.9701 28.2406 10.0547 28.2791 10.1478C28.3176 10.2409 28.3374 10.3407 28.3373 10.4415V23.0544C28.3374 23.1551 28.3176 23.2549 28.2791 23.3481C28.2406 23.4412 28.1841 23.5258 28.1128 23.5971C28.0416 23.6683 27.9569 23.7248 27.8638 23.7633C27.7707 23.8018 27.6709 23.8216 27.5701 23.8215H12.5101C12.4094 23.8216 12.3096 23.8018 12.2164 23.7633C12.1233 23.7248 12.0387 23.6683 11.9674 23.5971C11.8962 23.5258 11.8397 23.4412 11.8012 23.3481C11.7627 23.2549 11.7429 23.1551 11.743 23.0544V10.4415ZM26.3273 26.2773C26.3272 26.3909 26.282 26.4999 26.2016 26.5802C26.1213 26.6606 26.0123 26.7057 25.8987 26.7059H24.2911V25.2615H26.3273V26.2773ZM14.1645 26.7059C14.0508 26.7057 13.9419 26.6606 13.8615 26.5802C13.7812 26.4999 13.736 26.3909 13.7359 26.2773V25.2615H15.6293V26.7059L14.1645 26.7059ZM18.8758 26.7059H18.0857V25.2615H18.8758L18.8758 26.7059ZM21.2204 26.7059V25.2615H22.0905V26.7059L21.2204 26.7059Z" fill="#E74111"/>
</g>
<defs>
<clipPath id="clip0_842_16969">
<rect width="24" height="24" fill="white" transform="translate(8 8)"/>
</clipPath>
</defs>
</svg>
