<svg width="318" height="108" viewBox="0 0 318 108" fill="none" xmlns="http://www.w3.org/2000/svg">
<rect x="195" y="22" width="32" height="32" rx="8" fill="#C6C6C6"/>
<rect x="91" y="46" width="32" height="32" rx="8" fill="#C6C6C6"/>
<rect x="286" width="32" height="32" rx="8" fill="#D9D9D9"/>
<rect y="40" width="32" height="32" rx="8" fill="#D9D9D9"/>
<rect x="247" y="63" width="24" height="24" rx="6" fill="#ECECEC"/>
<rect x="55" y="4" width="24" height="24" rx="6" fill="#ECECEC"/>
<rect x="111" y="12" width="96" height="96" rx="16" fill="#F8F8F8"/>
<path d="M168.375 49.5312H168.079C167.339 46.6648 165.266 44.2953 162.516 43.182V41.1719C162.516 40.525 161.991 40 161.344 40H156.656C156.009 40 155.484 40.525 155.484 41.1719V43.182C152.689 44.3133 150.594 46.7414 149.886 49.6711C148.384 50.1031 147.281 51.4898 147.281 53.1297V55.3906C147.281 56.0375 147.806 56.5625 148.453 56.5625H169.547C170.194 56.5625 170.719 56.0375 170.719 55.3906V51.875C170.719 50.5828 169.667 49.5312 168.375 49.5312ZM162.173 51.532L159.829 53.8758C158.733 54.9711 157.074 53.3156 158.171 52.218L159.366 51.0242L156.132 49.4078C155.418 49.05 155.262 48.0961 155.827 47.5305L158.171 45.1867C159.267 44.0914 160.926 45.7469 159.829 46.8445L158.634 48.0383L161.868 49.6547C162.582 50.0125 162.737 50.9664 162.173 51.532Z" fill="#7A7A7A"/>
<path d="M168.375 58.9062C168.375 64.0758 164.17 68.2812 159 68.2812C153.83 68.2812 149.625 64.0758 149.625 58.9062H168.375Z" fill="#7A7A7A"/>
<path d="M142.594 78.8281C142.594 79.475 143.119 80 143.766 80H149.625V74.1406C149.625 73.4938 150.15 72.9688 150.797 72.9688H151.969V68.3461C146.702 68.9305 142.594 73.4086 142.594 78.8281ZM151.969 75.3125V80H166.031V75.3125H151.969ZM154.312 68.2812V72.9688H163.688V68.2812H154.312ZM166.031 68.3461V72.9688H167.203C167.85 72.9688 168.375 73.4938 168.375 74.1406V80H174.234C174.881 80 175.406 79.475 175.406 78.8281C175.406 73.4086 171.298 68.9305 166.031 68.3461Z" fill="#7A7A7A"/>
</svg>
