<svg width="20" height="16" viewBox="0 0 20 16" fill="none" xmlns="http://www.w3.org/2000/svg">
<path d="M3.33333 8.65625C1.86296 8.65625 0.666667 7.46029 0.666667 5.98958C0.666667 4.51888 1.86296 3.32292 3.33333 3.32292C4.80371 3.32292 6 4.51888 6 5.98958C6 7.46029 4.80371 8.65625 3.33333 8.65625ZM4.51335 9.10286C3.75326 9.39648 2.91341 9.39648 2.15332 9.10286C1.95996 9.0293 1.73991 9.05599 1.56673 9.16276C0.586589 9.7832 0 10.8359 0 11.9896V14.6562C0 15.0228 0.30013 15.3229 0.666667 15.3229H4V11.9896C4 10.9564 4.27344 9.94987 4.7666 9.06966C4.68001 9.05599 4.59342 9.06966 4.51335 9.10286ZM16.6667 8.65625C18.137 8.65625 19.3333 7.46029 19.3333 5.98958C19.3333 4.51888 18.137 3.32292 16.6667 3.32292C15.1963 3.32292 14 4.51888 14 5.98958C14 7.46029 15.1963 8.65625 16.6667 8.65625ZM18.4333 9.16276C18.2601 9.05599 18.04 9.0293 17.8467 9.10286C17.0866 9.39648 16.2467 9.39648 15.4867 9.10286C15.4066 9.06966 15.32 9.05599 15.2334 9.06966C15.7266 9.94987 16 10.9564 16 11.9896V15.3229H19.3333C19.6999 15.3229 20 15.0228 20 14.6562V11.9896C20 10.8359 19.4134 9.7832 18.4333 9.16276ZM10 7.32292C8.16211 7.32292 6.66667 5.82747 6.66667 3.98958C6.66667 2.15169 8.16211 0.65625 10 0.65625C11.8379 0.65625 13.3333 2.15169 13.3333 3.98958C13.3333 5.82747 11.8379 7.32292 10 7.32292ZM14.6667 11.9896C14.6667 10.5026 13.9535 9.10286 12.7533 8.22982C12.5534 8.08268 12.2868 8.06315 12.0667 8.16927C11.6201 8.39648 11.1468 8.53646 10.6667 8.60286V11.9896C10.6667 12.3561 10.3665 12.6562 10 12.6562C9.63346 12.6562 9.33333 12.3561 9.33333 11.9896V8.60286C8.85319 8.53646 8.37988 8.39648 7.93327 8.16927C7.71322 8.06315 7.44661 8.08268 7.24675 8.22982C6.04655 9.10286 5.33333 10.5026 5.33333 11.9896V15.3229H14.6667V11.9896Z" fill="#7A7A7A"/>
</svg>
