<svg width="24" height="18" viewBox="0 0 24 18" fill="none" xmlns="http://www.w3.org/2000/svg">
<path d="M4 9.7875C2.23555 9.7875 0.8 8.35234 0.8 6.5875C0.8 4.82266 2.23555 3.3875 4 3.3875C5.76445 3.3875 7.2 4.82266 7.2 6.5875C7.2 8.35234 5.76445 9.7875 4 9.7875ZM5.41602 10.3234C4.50391 10.6758 3.49609 10.6758 2.58398 10.3234C2.35195 10.2352 2.08789 10.2672 1.88008 10.3953C0.703906 11.1398 0 12.4031 0 13.7875V16.9875C0 17.4273 0.360156 17.7875 0.8 17.7875H4.8V13.7875C4.8 12.5477 5.12813 11.3398 5.71992 10.2836C5.61602 10.2672 5.51211 10.2836 5.41602 10.3234ZM20 9.7875C21.7645 9.7875 23.2 8.35234 23.2 6.5875C23.2 4.82266 21.7645 3.3875 20 3.3875C18.2355 3.3875 16.8 4.82266 16.8 6.5875C16.8 8.35234 18.2355 9.7875 20 9.7875ZM22.1199 10.3953C21.9121 10.2672 21.648 10.2352 21.416 10.3234C20.5039 10.6758 19.4961 10.6758 18.584 10.3234C18.4879 10.2836 18.384 10.2672 18.2801 10.2836C18.8719 11.3398 19.2 12.5477 19.2 13.7875V17.7875H23.2C23.6398 17.7875 24 17.4273 24 16.9875V13.7875C24 12.4031 23.2961 11.1398 22.1199 10.3953ZM12 8.1875C9.79453 8.1875 8 6.39297 8 4.1875C8 1.98203 9.79453 0.1875 12 0.1875C14.2055 0.1875 16 1.98203 16 4.1875C16 6.39297 14.2055 8.1875 12 8.1875ZM17.6 13.7875C17.6 12.0031 16.7441 10.3234 15.3039 9.27578C15.0641 9.09922 14.7441 9.07578 14.4801 9.20312C13.9441 9.47578 13.3762 9.64375 12.8 9.72344V13.7875C12.8 14.2273 12.4398 14.5875 12 14.5875C11.5602 14.5875 11.2 14.2273 11.2 13.7875V9.72344C10.6238 9.64375 10.0559 9.47578 9.51992 9.20312C9.25586 9.07578 8.93594 9.09922 8.69609 9.27578C7.25586 10.3234 6.4 12.0031 6.4 13.7875V17.7875H17.6V13.7875Z" fill="#E74111"/>
</svg>
