<svg width="40" height="40" viewBox="0 0 40 40" fill="none" xmlns="http://www.w3.org/2000/svg">
<rect width="40" height="40" rx="8" fill="#FDECE8"/>
<g clip-path="url(#clip0_842_16953)">
<path d="M16.7947 21.209C16.6109 21.3058 16.3714 21.437 16.0916 21.6024C14.7503 22.3921 11.6179 24.4901 11.4876 26.9099C11.4186 28.1843 12.1947 29.4343 13.7939 30.6255C14.0704 30.8436 14.4132 30.9605 14.7653 30.9568C15.1309 30.9379 15.6224 30.7832 15.6596 29.6614C15.7857 27.5221 16.4371 25.4469 17.5562 23.6193C17.668 23.1947 17.7705 22.8626 17.8382 22.6573C17.3689 22.2749 17.0089 21.7753 16.7947 21.209Z" fill="#E74111"/>
<path d="M16.5876 20.3507C16.577 20.235 16.5717 20.1178 16.5717 19.9993C16.572 19.5128 16.6766 19.0321 16.8785 18.5895C16.6763 18.5265 16.4093 18.4481 16.0896 18.3658C16.0735 18.3619 16.0578 18.3569 16.0425 18.3508C14.166 17.8747 10.8146 17.3254 9.09626 18.8697C8.14671 19.7224 7.81202 21.1563 8.09998 23.1274C8.1408 23.4758 8.30011 23.7995 8.55118 24.0444C8.82288 24.2917 9.27966 24.5321 10.0994 23.762C11.7022 22.342 13.6286 21.3362 15.7099 20.8327C16.0875 20.6112 16.3947 20.4483 16.5876 20.3507Z" fill="#E74111"/>
<path d="M31.4482 15.9543C31.1765 15.7066 30.7197 15.4671 29.9 16.2367C28.2963 17.6603 26.3663 18.6665 24.2809 19.166C23.9047 19.3867 23.5996 19.5491 23.4076 19.6472C23.4706 20.2494 23.3712 20.8573 23.1196 21.408C23.321 21.4706 23.5871 21.5494 23.9055 21.6334C25.773 22.1129 29.1694 22.6863 30.9031 21.1286C31.8519 20.2763 32.1887 18.8442 31.8994 16.873C31.8589 16.5241 31.6996 16.1997 31.4482 15.9543Z" fill="#E74111"/>
<path d="M29.6575 24.34C27.5229 24.2093 25.4526 23.5591 23.6266 22.446C23.198 22.3311 22.8617 22.227 22.656 22.1602C22.2743 22.6281 21.7761 22.9872 21.2114 23.2014C21.3087 23.3848 21.439 23.6222 21.6026 23.8999C22.3915 25.242 24.4857 28.3775 26.9051 28.5099C28.1821 28.5784 29.429 27.8045 30.6216 26.2053C30.8389 25.9288 30.9558 25.5865 30.9528 25.2347C30.9366 24.8671 30.7849 24.376 29.6575 24.34Z" fill="#E74111"/>
<path d="M20.8328 24.2812C20.613 23.9059 20.4511 23.6012 20.3529 23.4096C20.2356 23.4217 20.1178 23.4279 19.9998 23.428C19.514 23.4277 19.0339 23.3233 18.5917 23.1221C18.5317 23.3145 18.4572 23.5664 18.3775 23.8681C18.3775 23.8775 18.3737 23.8865 18.3715 23.8951C17.982 25.4013 17.2505 29.0994 18.869 30.9034C19.7213 31.8526 21.1534 32.1868 23.1267 31.9001C23.476 31.8595 23.8007 31.6998 24.0463 31.448C24.294 31.1763 24.5335 30.7196 23.7635 29.9003C22.3398 28.2965 21.3332 26.3666 20.8328 24.2812Z" fill="#E74111"/>
<path d="M16.8739 8.09941C16.5246 8.14009 16.1999 8.29972 15.9543 8.5515C15.7066 8.8232 15.4671 9.27998 16.2371 10.0993C17.6581 11.7112 18.6649 13.6452 19.1703 15.7338C19.3845 16.1027 19.5448 16.4014 19.6416 16.5908C20.2461 16.5268 20.8566 16.6265 21.4092 16.8796C21.4718 16.6769 21.5506 16.4083 21.6329 16.0882C22.1141 14.2211 22.6884 10.8303 21.1316 9.09696C20.2797 8.14782 18.8476 7.81229 16.8739 8.09941Z" fill="#E74111"/>
<path d="M23.8991 18.3965C25.2416 17.608 28.3757 15.5139 28.5082 13.0924C28.578 11.8171 27.8016 10.5642 26.2007 9.37333C25.9248 9.15482 25.5821 9.03784 25.2301 9.0421C24.8645 9.06095 24.373 9.2135 24.3358 10.3375C24.2075 12.47 23.5586 14.5386 22.446 16.3624C22.3333 16.7948 22.2288 17.1337 22.1606 17.3433C22.6281 17.7254 22.9867 18.2239 23.2002 18.7887C23.3823 18.6922 23.621 18.5615 23.8991 18.3965Z" fill="#E74111"/>
<path d="M19.9998 22.5709C21.4198 22.5709 22.5709 21.4198 22.5709 19.9998C22.5709 18.5798 21.4198 17.4287 19.9998 17.4287C18.5798 17.4287 17.4287 18.5798 17.4287 19.9998C17.4304 21.4191 18.5805 22.5692 19.9998 22.5709ZM19.9998 18.2857C20.2364 18.2857 20.4283 18.4775 20.4283 18.7142C20.4283 18.9509 20.2365 19.1427 19.9998 19.1427C19.5265 19.1427 19.1427 19.5265 19.1427 19.9998C19.1427 20.2364 18.9509 20.4283 18.7142 20.4283C18.4775 20.4283 18.2857 20.2365 18.2857 19.9998C18.2857 19.0531 19.0532 18.2857 19.9998 18.2857Z" fill="#FBBA00"/>
<path d="M10.3375 15.6597C12.4724 15.7902 14.5431 16.4405 16.3693 17.5542C16.7978 17.6664 17.1329 17.7684 17.3407 17.8379C17.722 17.3711 18.2193 17.0128 18.7827 16.7988C18.6854 16.6158 18.5569 16.3814 18.397 16.108C17.6111 14.7642 15.5217 11.6266 13.0942 11.4912C11.8236 11.4252 10.5659 12.1953 9.37424 13.7945C9.15687 14.071 9.04007 14.4133 9.04302 14.7651C9.05244 14.9998 9.07986 15.6194 10.3375 15.6597Z" fill="#E74111"/>
</g>
<defs>
<clipPath id="clip0_842_16953">
<rect width="24" height="24" fill="white" transform="translate(8 8)"/>
</clipPath>
</defs>
</svg>
