<svg width="16" height="16" viewBox="0 0 16 16" fill="none" xmlns="http://www.w3.org/2000/svg">
<g clip-path="url(#clip0_53_2168)">
<path d="M15.9401 0.239469C15.8571 0.0915938 15.7008 0 15.5312 0H0.468742C0.299179 0 0.142836 0.0915938 0.0598981 0.239469C-0.0230082 0.387344 -0.0196644 0.5685 0.0687731 0.713156L5.52287 9.63816V14.025C5.52287 14.2204 5.64409 14.3953 5.82699 14.4639L9.84365 15.9702C9.89702 15.9902 9.95277 16 10.0082 16C10.1024 16 10.1957 15.9717 10.2753 15.9165C10.4016 15.8289 10.477 15.685 10.477 15.5312V9.63816L15.9312 0.713188C16.0196 0.5685 16.023 0.387375 15.9401 0.239469Z" fill="white"/>
<path d="M15.9401 0.239469C15.8571 0.0915938 15.7008 0 15.5312 0H8V15.2788L9.84369 15.9702C9.89706 15.9902 9.95281 16 10.0083 16C10.1024 16 10.1958 15.9717 10.2753 15.9165C10.4017 15.8289 10.4771 15.685 10.4771 15.5312V9.63816L15.9312 0.713188C16.0197 0.5685 16.023 0.387375 15.9401 0.239469Z" fill="white"/>
</g>
<defs>
<clipPath id="clip0_53_2168">
<rect width="16" height="16" fill="white"/>
</clipPath>
</defs>
</svg>
