<svg width="20" height="20" viewBox="0 0 20 20" fill="none" xmlns="http://www.w3.org/2000/svg">
<path d="M7.31638 9.8718C7.63063 10.3266 7.53669 9.94762 7.53669 19.0123C7.53669 19.8235 8.46216 20.2877 9.11442 19.8025C11.9017 17.7011 12.4585 17.5191 12.4585 16.5362C12.4585 9.93055 12.3815 10.302 12.6788 9.8718L17.205 3.71094H2.79028L7.31638 9.8718Z" fill="#EC6707"/>
<path d="M18.9148 0.502344C18.7531 0.192578 18.4359 0 18.0867 0H1.90875C1.15465 0 0.710938 0.850664 1.14352 1.46875C1.14707 1.47469 1.09441 1.40262 1.92945 2.53906H18.066C18.7776 1.57059 19.2532 1.15215 18.9148 0.502344Z" fill="#EC6707"/>
</svg>
