<svg width="20" height="20" viewBox="0 0 20 20" fill="none" xmlns="http://www.w3.org/2000/svg">
<g clip-path="url(#clip0_632_15525)">
<path d="M1.66675 12.083H9.37508V19.9997H3.12508C2.32508 19.9997 1.66675 19.3413 1.66675 18.5413V12.083Z" fill="#7A7A7A"/>
<path d="M18.3333 12.083V18.5413C18.3333 19.3413 17.675 19.9997 16.875 19.9997H10.625V12.083H18.3333Z" fill="#7A7A7A"/>
<path d="M0 7.29134V9.37467C0 10.1747 0.658333 10.833 1.45833 10.833H1.66667H9.375V9.58301V5.83301H1.45833C0.658333 5.83301 0 6.49134 0 7.29134Z" fill="#7A7A7A"/>
<path d="M18.5417 5.83301H10.625V9.58301V10.833H18.3333H18.5417C19.3417 10.833 20 10.1747 20 9.37467V7.29134C20 6.49134 19.3417 5.83301 18.5417 5.83301Z" fill="#7A7A7A"/>
<path d="M9.99978 6.70372C9.81811 6.70372 9.64478 6.62456 9.52728 6.48706C9.40811 6.34956 9.35561 6.16706 9.38144 5.98706C9.68978 3.90372 11.3173 -0.0371094 15.2739 -0.0371094C17.5323 -0.036276 18.3331 1.18372 18.3331 2.22872C18.3331 4.08622 15.7473 6.70372 9.99978 6.70372ZM15.2739 1.21372C12.2889 1.21372 11.1556 4.05122 10.7798 5.43539C13.1348 5.32539 14.6198 4.72956 15.4748 4.22206C16.6606 3.51789 17.0831 2.73039 17.0831 2.22789C17.0831 1.47956 16.1489 1.21372 15.2739 1.21372Z" fill="#7A7A7A"/>
<path d="M10.0015 6.70289C4.25405 6.70289 1.66821 4.08539 1.66821 2.22789C1.66821 1.18289 2.46988 -0.0371094 4.72821 -0.0371094C8.68405 -0.0371094 10.3115 3.90372 10.6199 5.98706C10.6457 6.16706 10.5932 6.34956 10.474 6.48706C10.3565 6.62372 10.1832 6.70289 10.0015 6.70289ZM4.72821 1.21289C3.85321 1.21289 2.91821 1.47956 2.91821 2.22789C2.91821 3.29206 4.77905 5.23122 9.22071 5.43539C8.84571 4.05039 7.71238 1.21289 4.72821 1.21289Z" fill="#7A7A7A"/>
</g>
<defs>
<clipPath id="clip0_632_15525">
<rect width="20" height="20" fill="white"/>
</clipPath>
</defs>
</svg>
