<svg width="48" height="48" viewBox="0 0 48 48" fill="none" xmlns="http://www.w3.org/2000/svg">
<rect width="48" height="48" rx="12" fill="#F1F9F1"/>
<g clip-path="url(#clip0_487_6086)">
<path d="M15.6667 26.083H23.375V33.9997H17.125C16.325 33.9997 15.6667 33.3413 15.6667 32.5413V26.083Z" fill="#4BAE4F"/>
<path d="M32.3333 26.083V32.5413C32.3333 33.3413 31.675 33.9997 30.875 33.9997H24.625V26.083H32.3333Z" fill="#4BAE4F"/>
<path d="M14 21.2913V23.3747C14 24.1747 14.6583 24.833 15.4583 24.833H15.6667H23.375V23.583V19.833H15.4583C14.6583 19.833 14 20.4913 14 21.2913Z" fill="#4BAE4F"/>
<path d="M32.5417 19.833H24.625V23.583V24.833H32.3333H32.5417C33.3417 24.833 34 24.1747 34 23.3747V21.2913C34 20.4913 33.3417 19.833 32.5417 19.833Z" fill="#4BAE4F"/>
<path d="M23.9998 20.7037C23.8181 20.7037 23.6448 20.6246 23.5273 20.4871C23.4081 20.3496 23.3556 20.1671 23.3814 19.9871C23.6898 17.9037 25.3173 13.9629 29.2739 13.9629C31.5323 13.9637 32.3331 15.1837 32.3331 16.2287C32.3331 18.0862 29.7473 20.7037 23.9998 20.7037ZM29.2739 15.2137C26.2889 15.2137 25.1556 18.0512 24.7798 19.4354C27.1348 19.3254 28.6198 18.7296 29.4748 18.2221C30.6606 17.5179 31.0831 16.7304 31.0831 16.2279C31.0831 15.4796 30.1489 15.2137 29.2739 15.2137V15.2137Z" fill="#4BAE4F"/>
<path d="M24.0016 20.7029C18.2541 20.7029 15.6683 18.0854 15.6683 16.2279C15.6683 15.1829 16.4699 13.9629 18.7283 13.9629C22.6841 13.9629 24.3116 17.9037 24.6199 19.9871C24.6458 20.1671 24.5933 20.3496 24.4741 20.4871C24.3566 20.6237 24.1833 20.7029 24.0016 20.7029ZM18.7283 15.2129C17.8533 15.2129 16.9183 15.4796 16.9183 16.2279C16.9183 17.2921 18.7791 19.2312 23.2208 19.4354C22.8458 18.0504 21.7124 15.2129 18.7283 15.2129V15.2129Z" fill="#4BAE4F"/>
</g>
<defs>
<clipPath id="clip0_487_6086">
<rect width="20" height="20" fill="white" transform="translate(14 14)"/>
</clipPath>
</defs>
</svg>
