<svg width="20" height="20" viewBox="0 0 20 20" fill="none" xmlns="http://www.w3.org/2000/svg">
<g clip-path="url(#clip0_4823_9882)">
<path d="M10.6172 6.89682C10.4175 6.85715 10.2112 6.83594 10 6.83594C8.25531 6.83594 6.83594 8.25531 6.83594 10C6.83594 11.7447 8.25531 13.1641 10 13.1641C11.7447 13.1641 13.1641 11.7447 13.1641 10C13.1641 9.78882 13.1429 9.58252 13.1032 9.38278L11.243 11.243C10.9109 11.575 10.4695 11.7578 10 11.7578C9.53049 11.7578 9.08905 11.575 8.75702 11.243C8.42499 10.9109 8.24219 10.4695 8.24219 10C8.24219 9.53049 8.42499 9.08905 8.75702 8.75702L10.6172 6.89682Z" fill="#7A7A7A"/>
<path d="M19.1051 5.8667L17.8444 7.12738C17.7182 7.25357 17.576 7.35825 17.4225 7.43942C17.7002 8.24249 17.8516 9.10385 17.8516 10C17.8516 14.3294 14.3294 17.8516 10 17.8516C5.67062 17.8516 2.14844 14.3294 2.14844 10C2.14844 5.67062 5.67062 2.14844 10 2.14844C10.8965 2.14844 11.7583 2.29996 12.5615 2.57782C12.6428 2.42416 12.7467 2.28134 12.8728 2.15546L14.1333 0.894928C12.8728 0.320435 11.4732 0 10 0C4.48593 0 0 4.48593 0 10C0 15.5141 4.48593 20 10 20C15.5141 20 20 15.5141 20 10C20 8.52676 19.6796 7.12723 19.1051 5.8667Z" fill="#7A7A7A"/>
<path d="M12.4887 5.02533L12.3819 3.75946C11.6417 3.4758 10.8388 3.32031 10 3.32031C6.31683 3.32031 3.32031 6.31683 3.32031 10C3.32031 13.6832 6.31683 16.6797 10 16.6797C13.6832 16.6797 16.6797 13.6832 16.6797 10C16.6797 9.16122 16.5242 8.35831 16.2405 7.6181L14.9747 7.51129L14.0456 8.44025C14.2329 8.92456 14.3359 9.45038 14.3359 10C14.3359 12.3909 12.3909 14.3359 10 14.3359C7.6091 14.3359 5.66406 12.3909 5.66406 10C5.66406 7.6091 7.6091 5.66406 10 5.66406C10.5496 5.66406 11.0754 5.76706 11.5598 5.95444L12.4887 5.02533Z" fill="#7A7A7A"/>
<path d="M13.5316 3.44771L13.7022 5.46919L9.58572 9.58571C9.35684 9.81444 9.35684 10.1855 9.58572 10.4143C9.70001 10.5287 9.85001 10.5859 10 10.5859C10.15 10.5859 10.3 10.5287 10.4143 10.4143L14.5308 6.29774L16.5523 6.46819C16.5688 6.46956 16.5851 6.47032 16.6016 6.47032C16.7563 6.47032 16.9055 6.40898 17.0158 6.29866L19.5016 3.8127C19.6629 3.65157 19.716 3.41139 19.6378 3.19716C19.5593 2.98293 19.3639 2.83369 19.1367 2.81462L17.337 2.6628L17.1854 0.863327C17.1661 0.635971 17.0169 0.440506 16.8028 0.362228C16.5886 0.283798 16.3484 0.337051 16.1871 0.498184L13.7013 2.98415C13.5793 3.10622 13.5172 3.27574 13.5316 3.44771Z" fill="#7A7A7A"/>
</g>
<defs>
<clipPath id="clip0_4823_9882">
<rect width="20" height="20" fill="white"/>
</clipPath>
</defs>
</svg>
