<svg width="10" height="14" viewBox="0 0 22 24" fill="none" xmlns="http://www.w3.org/2000/svg">
<path d="M17.7515 6.14128C17.5893 4.46022 16.8068 2.89985 15.5565 1.76444C14.3062 0.629034 12.6779 0 10.989 0C9.30018 0 7.67185 0.629034 6.4216 1.76444C5.17134 2.89985 4.3888 4.46022 4.22656 6.14128H17.7515Z" fill="#7A7A7A"/>
<path d="M4.19336 7.4502V7.73994C4.19336 9.54226 4.90933 11.2708 6.18376 12.5452C7.45819 13.8196 9.18669 14.5356 10.989 14.5356C12.7913 14.5356 14.5198 13.8196 15.7943 12.5452C17.0687 11.2708 17.7847 9.54226 17.7847 7.73994V7.4502H4.19336Z" fill="#7A7A7A"/>
<path d="M15.3527 14.8364H14.8975C13.7011 15.4983 12.3563 15.8455 10.989 15.8455C9.62179 15.8455 8.27694 15.4983 7.08057 14.8364H6.62535C5.06351 14.8382 3.56615 15.4594 2.46177 16.5638C1.35738 17.6682 0.736154 19.1656 0.734375 20.7274V23.3456C0.734375 23.5192 0.803336 23.6857 0.926089 23.8084C1.04884 23.9312 1.21533 24.0002 1.38893 24.0002H20.5891C20.7627 24.0002 20.9292 23.9312 21.052 23.8084C21.1747 23.6857 21.2437 23.5192 21.2437 23.3456V20.7274C21.2419 19.1656 20.6207 17.6682 19.5163 16.5638C18.4119 15.4594 16.9145 14.8382 15.3527 14.8364ZM11.6436 21.0001C11.6436 21.1737 11.5746 21.3402 11.4519 21.463C11.3291 21.5857 11.1626 21.6547 10.989 21.6547C10.8154 21.6547 10.6489 21.5857 10.5262 21.463C10.4034 21.3402 10.3345 21.1737 10.3345 21.0001V17.8059C10.3345 17.6323 10.4034 17.4658 10.5262 17.3431C10.6489 17.2203 10.8154 17.1514 10.989 17.1514C11.1626 17.1514 11.3291 17.2203 11.4519 17.3431C11.5746 17.4658 11.6436 17.6323 11.6436 17.8059V21.0001Z" fill="#7A7A7A"/>
</svg>
