<svg width="20" height="20" viewBox="0 0 20 20" fill="none" xmlns="http://www.w3.org/2000/svg">
    <path d="M19.023 10.1343C19.8056 8.85964 20.1329 7.35733 19.9516 5.87264C19.8043 4.63939 19.3153 3.47186 18.5396 2.50182C17.764 1.53177 16.7327 0.797846 15.562 0.382876C14.3914 -0.0320944 13.128 -0.111586 11.9146 0.153375C10.7011 0.418335 9.58592 1.0172 8.69481 1.88236C9.4374 2.39651 10.0344 3.09394 10.4279 3.90693C10.8214 4.71991 10.9979 5.62083 10.9404 6.5222C10.8829 7.42356 10.5933 8.29474 10.0997 9.05114C9.60611 9.80753 8.9253 10.4234 8.1234 10.8391C9.16901 12.1452 10.6688 13.009 12.3233 13.258C13.7121 13.4701 15.1324 13.2367 16.3803 12.5914L17.4755 12.8961C17.7117 12.9618 17.9609 12.9654 18.1989 12.9067C18.437 12.848 18.6558 12.7288 18.8344 12.5608C19.013 12.3928 19.1452 12.1815 19.2183 11.9475C19.2913 11.7135 19.3028 11.4645 19.2516 11.2248L19.023 10.1343ZM13.8089 3.57276C13.9502 3.57276 14.0883 3.61465 14.2057 3.69313C14.3232 3.77161 14.4148 3.88316 14.4688 4.01367C14.5229 4.14419 14.537 4.2878 14.5095 4.42635C14.4819 4.5649 14.4139 4.69217 14.314 4.79206C14.2141 4.89195 14.0868 4.95997 13.9483 4.98753C13.8097 5.01509 13.6661 5.00095 13.5356 4.94689C13.4051 4.89283 13.2935 4.80128 13.215 4.68382C13.1366 4.56636 13.0947 4.42827 13.0947 4.28701C13.0947 4.09758 13.1699 3.9159 13.3039 3.78196C13.4378 3.64801 13.6195 3.57276 13.8089 3.57276ZM14.7613 10.4772H12.8566C12.7303 10.4772 12.6092 10.427 12.5199 10.3377C12.4306 10.2484 12.3804 10.1273 12.3804 10.001C12.3804 9.87472 12.4306 9.7536 12.5199 9.6643C12.6092 9.57501 12.7303 9.52484 12.8566 9.52484H13.3328V6.66784H13.0947C12.9684 6.66784 12.8473 6.61767 12.758 6.52837C12.6687 6.43908 12.6185 6.31796 12.6185 6.19167C12.6185 6.06539 12.6687 5.94427 12.758 5.85497C12.8473 5.76567 12.9684 5.71551 13.0947 5.71551H14.5232C14.6495 5.71551 14.7706 5.76567 14.8599 5.85497C14.9492 5.94427 14.9994 6.06539 14.9994 6.19167C14.9994 6.31796 14.9492 6.43908 14.8599 6.52837C14.7706 6.61767 14.6495 6.66784 14.5232 6.66784H14.2851V9.52484H14.7613C14.8876 9.52484 15.0087 9.57501 15.098 9.6643C15.1873 9.7536 15.2374 9.87472 15.2374 10.001C15.2374 10.1273 15.1873 10.2484 15.098 10.3377C15.0087 10.427 14.8876 10.4772 14.7613 10.4772Z" fill="#EC6707"/>
    <path d="M6.19027 11.429H5.23792C3.84924 11.4306 2.51791 11.983 1.53596 12.9649C0.554015 13.9468 0.00163827 15.2781 0 16.6668V18.5715C0 18.9503 0.150505 19.3137 0.418405 19.5816C0.686306 19.8495 1.04966 20 1.42852 20H9.99967C10.3785 20 10.7419 19.8495 11.0098 19.5816C11.2777 19.3137 11.4282 18.9503 11.4282 18.5715V16.6668C11.4266 15.2781 10.8742 13.9468 9.89223 12.9649C8.91029 11.983 7.57895 11.4306 6.19027 11.429Z" fill="#EC6707"/>
    <path d="M5.71399 10.4772C8.08085 10.4772 9.99957 8.55857 9.99957 6.19175C9.99957 3.82493 8.08085 1.90625 5.71399 1.90625C3.34714 1.90625 1.42842 3.82493 1.42842 6.19175C1.42842 8.55857 3.34714 10.4772 5.71399 10.4772Z" fill="#EC6707"/>
</svg>
