<svg width="54" height="54" viewBox="0 0 54 54" fill="none" xmlns="http://www.w3.org/2000/svg">
<rect width="54" height="54" rx="12" fill="#FDECE8"/>
<g clip-path="url(#clip0_1502_12531)">
<path d="M25.6374 33.7476C24.7018 34.6122 23.4077 34.8058 22.2599 34.2532C21.845 34.0533 21.4948 33.7774 21.2207 33.447L19.6579 36.9037C19.5867 37.061 19.6662 37.1795 19.7036 37.2232C19.741 37.2668 19.846 37.3633 20.0122 37.3171L21.15 37.0004C21.2796 36.9643 21.4107 36.9469 21.5399 36.9469C22.0851 36.9469 22.5983 37.2555 22.8454 37.7669L23.3592 38.8302C23.4342 38.9856 23.575 39.0011 23.6336 39C23.6911 38.9992 23.8325 38.9806 23.9035 38.8233L26.3894 33.3247C26.1163 33.4033 25.8576 33.544 25.6374 33.7476Z" fill="#E74111"/>
<path d="M34.342 36.9037L32.7792 33.447C32.505 33.7775 32.1549 34.0534 31.7399 34.2532C30.5921 34.8058 29.2981 34.6122 28.3625 33.7476C28.1422 33.544 27.8836 33.4033 27.6104 33.3247L30.0963 38.8233C30.1674 38.9806 30.3088 38.9992 30.3662 39C30.4248 39.0011 30.5655 38.9856 30.6406 38.8302L31.1544 37.7669C31.4015 37.2555 31.9146 36.9469 32.4599 36.9469C32.5891 36.9469 32.7202 36.9643 32.8498 37.0004L33.9876 37.3171C34.1538 37.3633 34.2589 37.2668 34.2962 37.2232C34.3337 37.1795 34.4131 37.0609 34.342 36.9037Z" fill="#E74111"/>
<path d="M35.5697 24.7402C34.2718 23.8515 33.869 22.0868 34.6529 20.7229C35.124 19.903 34.8788 19.0928 34.4922 18.608C34.1056 18.1233 33.3702 17.704 32.4662 17.9808C30.9622 18.4415 29.3313 17.6562 28.7536 16.193C28.4064 15.3134 27.62 15 27 15C26.38 15 25.5937 15.3134 25.2464 16.193C24.6687 17.6563 23.038 18.4415 21.5339 17.9809C20.6297 17.7041 19.8945 18.1233 19.5078 18.6081C19.1212 19.0929 18.876 19.903 19.3472 20.723C20.131 22.0868 19.7282 23.8515 18.4303 24.7403C17.65 25.2746 17.5195 26.1109 17.6574 26.7154C17.7953 27.3199 18.2758 28.0167 19.2107 28.1595C20.7657 28.3971 21.8942 29.8121 21.7798 31.3811C21.711 32.3243 22.2835 32.9478 22.8421 33.2168C23.4008 33.4859 24.2452 33.5447 24.9397 32.9029C25.5173 32.3691 26.2588 32.1021 27 32.1021C27.7414 32.1021 28.4825 32.369 29.0602 32.9029C29.7548 33.5448 30.5993 33.4859 31.1579 33.2168C31.7165 32.9478 32.2889 32.3243 32.2202 31.3811C32.1058 29.8122 33.2343 28.3971 34.7893 28.1595C35.7242 28.0167 36.2046 27.3198 36.3426 26.7154C36.4806 26.1108 36.3499 25.2745 35.5697 24.7402ZM27 30.7464C23.5981 30.7464 20.8304 27.9787 20.8304 24.5767C20.8304 21.1748 23.598 18.4071 27 18.4071C30.402 18.4071 33.1697 21.1747 33.1697 24.5767C33.1696 27.9787 30.402 30.7464 27 30.7464Z" fill="#E74111"/>
<path d="M26.9999 19.5574C24.2322 19.5574 21.9806 21.8091 21.9806 24.5767C21.9806 27.3444 24.2322 29.5961 26.9999 29.5961C29.7677 29.5961 32.0192 27.3444 32.0192 24.5767C32.0192 21.8091 29.7676 19.5574 26.9999 19.5574ZM29.5722 24.0901L26.4483 26.3717C26.3492 26.4442 26.2302 26.4825 26.1091 26.4825C26.0779 26.4825 26.0465 26.4799 26.0153 26.4748C25.863 26.4496 25.7272 26.3642 25.6384 26.2379L24.704 24.9075C24.5214 24.6474 24.5842 24.2887 24.8441 24.1061C25.1041 23.9235 25.4627 23.9863 25.6454 24.2462L26.243 25.0972L28.8937 23.1612C29.1503 22.9739 29.5101 23.0298 29.6974 23.2864C29.8848 23.5429 29.8287 23.9027 29.5722 24.0901Z" fill="#FBBA00"/>
</g>
<defs>
<clipPath id="clip0_1502_12531">
<rect width="24" height="24" fill="white" transform="translate(15 15)"/>
</clipPath>
</defs>
</svg>
