<svg width="20" height="20" viewBox="0 0 20 20" fill="none" xmlns="http://www.w3.org/2000/svg">
    <path d="M0.433571 15.2571C1.05786 14.7336 4.71929 12.415 5.32786 12.5214C5.61357 12.5721 5.83214 12.8157 6.41714 13.5136C6.68768 13.8571 6.98478 14.1788 7.30571 14.4757C7.89373 14.3337 8.4629 14.1227 9.00143 13.8471C11.1134 12.8189 12.8195 11.1122 13.8471 9C14.1227 8.46148 14.3337 7.8923 14.4757 7.30429C14.1788 6.98336 13.8571 6.68625 13.5136 6.41571C12.8164 5.83071 12.5721 5.61357 12.5214 5.32643C12.415 4.71643 14.7357 1.05643 15.2571 0.432143C15.4757 0.173571 15.6743 0 15.9286 0C16.6657 0 20 4.12286 20 4.65714C20 4.70071 19.9286 8.99286 14.5079 14.5079C8.99286 19.9286 4.70071 20 4.65714 20C4.12286 20 0 16.6657 0 15.9286C0 15.6743 0.173571 15.4757 0.433571 15.2571Z" fill="#EC6707"/>
    <path d="M5.00001 9.28557H3.57144C3.57314 7.77057 4.17573 6.31811 5.247 5.24684C6.31827 4.17558 7.77073 3.57299 9.28573 3.57129V4.99986C8.14943 5.001 7.06001 5.45289 6.25652 6.25637C5.45304 7.05985 5.00115 8.14928 5.00001 9.28557Z" fill="#EC6707"/>
    <path d="M1.42858 9.28572H1.33514e-05C0.00284863 6.82386 0.982073 4.46365 2.72287 2.72285C4.46366 0.98206 6.82387 0.0028357 9.28573 0V1.42857C7.20264 1.43103 5.20557 2.25962 3.7326 3.73259C2.25964 5.20556 1.43104 7.20263 1.42858 9.28572Z" fill="#EC6707"/>
</svg>
