<svg width="20" height="20" viewBox="0 0 20 20" fill="none" xmlns="http://www.w3.org/2000/svg">
<g clip-path="url(#clip0_886_9346)">
<path d="M1.00621 3.21896V6.31755H18.9941V3.21896C18.9941 2.75578 18.7334 2.35337 18.3503 2.15136C18.1821 2.06202 17.9905 2.01172 17.7869 2.01172H2.21346C1.75028 2.01172 1.34786 2.27248 1.14585 2.65558C1.05652 2.82379 1.00621 3.01534 1.00621 3.21896Z" fill="#E74111"/>
<path d="M15.6943 8.72559H13.6239C13.5128 8.72559 13.4227 8.81569 13.4227 8.92679V10.9972C13.4227 11.1083 13.5128 11.1984 13.6239 11.1984H15.6943C15.8054 11.1984 15.8955 11.1083 15.8955 10.9972V8.92679C15.8955 8.81569 15.8054 8.72559 15.6943 8.72559Z" fill="#E6E6E6"/>
<path d="M15.6943 11.8018H13.6239C13.5128 11.8018 13.4227 11.8919 13.4227 12.003V14.0738C13.4227 14.1849 13.5128 14.275 13.6239 14.275H15.6943C15.8054 14.275 15.8955 14.1849 15.8955 14.0738V12.003C15.8955 11.8919 15.8054 11.8018 15.6943 11.8018Z" fill="#E6E6E6"/>
<path d="M15.6943 14.8789H13.6239C13.5128 14.8789 13.4227 14.969 13.4227 15.0801V17.1505C13.4227 17.2616 13.5128 17.3517 13.6239 17.3517H15.6943C15.8054 17.3517 15.8955 17.2616 15.8955 17.1505V15.0801C15.8955 14.969 15.8054 14.8789 15.6943 14.8789Z" fill="#E6E6E6"/>
<path d="M12.6176 8.72559H10.503C10.3918 8.72559 10.3017 8.81569 10.3017 8.92679V10.9972C10.3017 11.1083 10.3918 11.1984 10.503 11.1984H12.6176C12.7287 11.1984 12.8188 11.1083 12.8188 10.9972V8.92679C12.8188 8.81569 12.7287 8.72559 12.6176 8.72559Z" fill="#E6E6E6"/>
<path d="M12.6176 11.8018H10.503C10.3918 11.8018 10.3017 11.8919 10.3017 12.003V14.0738C10.3017 14.1849 10.3918 14.275 10.503 14.275H12.6176C12.7287 14.275 12.8188 14.1849 12.8188 14.0738V12.003C12.8188 11.8919 12.7287 11.8018 12.6176 11.8018Z" fill="#E6E6E6"/>
<path d="M12.6176 14.8789H10.503C10.3918 14.8789 10.3017 14.969 10.3017 15.0801V17.1505C10.3017 17.2616 10.3918 17.3517 10.503 17.3517H12.6176C12.7287 17.3517 12.8188 17.2616 12.8188 17.1505V15.0801C12.8188 14.969 12.7287 14.8789 12.6176 14.8789Z" fill="#E6E6E6"/>
<path d="M9.49703 8.72559H7.38235C7.27124 8.72559 7.18114 8.81569 7.18114 8.92679V10.9972C7.18114 11.1083 7.27124 11.1984 7.38235 11.1984H9.49703C9.60814 11.1984 9.69824 11.1083 9.69824 10.9972V8.92679C9.69824 8.81569 9.60814 8.72559 9.49703 8.72559Z" fill="#E6E6E6"/>
<path d="M9.49703 11.8018H7.38235C7.27124 11.8018 7.18114 11.8919 7.18114 12.003V14.0738C7.18114 14.1849 7.27124 14.275 7.38235 14.275H9.49703C9.60814 14.275 9.69824 14.1849 9.69824 14.0738V12.003C9.69824 11.8919 9.60814 11.8018 9.49703 11.8018Z" fill="#E6E6E6"/>
<path d="M9.49703 14.8789H7.38235C7.27124 14.8789 7.18114 14.969 7.18114 15.0801V17.1505C7.18114 17.2616 7.27124 17.3517 7.38235 17.3517H9.49703C9.60814 17.3517 9.69824 17.2616 9.69824 17.1505V15.0801C9.69824 14.969 9.60814 14.8789 9.49703 14.8789Z" fill="#E6E6E6"/>
<path d="M4.1048 8.92679V10.9972C4.1048 11.1083 4.1949 11.1984 4.30601 11.1984H6.37643C6.48754 11.1984 6.57764 11.1083 6.57764 10.9972V8.92679C6.57764 8.81569 6.48754 8.72559 6.37643 8.72559H4.30601C4.1949 8.72559 4.1048 8.81569 4.1048 8.92679Z" fill="#E6E6E6"/>
<path d="M6.37643 11.8018H4.30601C4.1949 11.8018 4.1048 11.8919 4.1048 12.003V14.0738C4.1048 14.1849 4.1949 14.275 4.30601 14.275H6.37643C6.48754 14.275 6.57764 14.1849 6.57764 14.0738V12.003C6.57764 11.8919 6.48754 11.8018 6.37643 11.8018Z" fill="#E6E6E6"/>
<path d="M6.37643 14.8789H4.30601C4.1949 14.8789 4.1048 14.969 4.1048 15.0801V17.1505C4.1048 17.2616 4.1949 17.3517 4.30601 17.3517H6.37643C6.48754 17.3517 6.57764 17.2616 6.57764 17.1505V15.0801C6.57764 14.969 6.48754 14.8789 6.37643 14.8789Z" fill="#E6E6E6"/>
<path d="M18.9941 6.03613V18.7927C18.9941 19.4595 18.4537 19.9999 17.7869 19.9999H2.21346C1.54666 19.9999 1.00621 19.4595 1.00621 18.7927V6.03613H18.9941Z" fill="#FDECE8"/>
<path d="M14.1652 0.402414V3.62173C14.1652 3.84386 14.3455 4.02414 14.5676 4.02414H15.7748C15.997 4.02414 16.1772 3.84386 16.1772 3.62173V0.402414C16.1772 0.180282 15.997 0 15.7748 0H14.5676C14.3455 0 14.1652 0.180282 14.1652 0.402414Z" fill="#FBBA00"/>
<path d="M15.8955 8.72559H13.4227V11.1984H15.8955V8.72559Z" fill="#FBBA00"/>
<path d="M6.57764 8.72559H4.1048V11.1984H6.57764V8.72559Z" fill="#FBBA00"/>
<path d="M12.8188 8.72559H10.3017V11.1984H12.8188V8.72559Z" fill="#FBBA00"/>
<path d="M15.8955 11.8018H13.4227V14.275H15.8955V11.8018Z" fill="#FBBA00"/>
<path d="M6.57764 11.8018H4.1048V14.275H6.57764V11.8018Z" fill="#FBBA00"/>
<path d="M12.8188 11.8018H10.3017V14.275H12.8188V11.8018Z" fill="#FBBA00"/>
<path d="M15.8955 14.8789H13.4227V17.3517H15.8955V14.8789Z" fill="#FBBA00"/>
<path d="M6.57764 14.8789H4.1048V17.3517H6.57764V14.8789Z" fill="#FBBA00"/>
<path d="M12.8188 14.8789H10.3017V17.3517H12.8188V14.8789Z" fill="#FBBA00"/>
<path d="M9.69824 8.72559H7.18114V11.1984H9.69824V8.72559Z" fill="#FBBA00"/>
<path d="M9.69824 11.8018H7.18114V14.275H9.69824V11.8018Z" fill="#FBBA00"/>
<path d="M9.69824 14.8789H7.18114V17.3517H9.69824V14.8789Z" fill="#FBBA00"/>
<path d="M3.82289 0.402414V3.62173C3.82289 3.84386 4.00317 4.02414 4.2253 4.02414H5.43255C5.65468 4.02414 5.83496 3.84386 5.83496 3.62173V0.402414C5.83496 0.180282 5.65468 0 5.43255 0H4.2253C4.00317 0 3.82289 0.180282 3.82289 0.402414Z" fill="#FBBA00"/>
</g>
<defs>
<clipPath id="clip0_886_9346">
<rect width="20" height="20" fill="white" transform="matrix(-1 0 0 1 20 0)"/>
</clipPath>
</defs>
</svg>
