<svg width="20" height="20" viewBox="0 0 20 20" fill="none" xmlns="http://www.w3.org/2000/svg">
<path d="M19.6429 19.095H13.0312C12.8788 19.0948 12.7327 19.0342 12.6249 18.9264C12.5172 18.8187 12.4566 18.6726 12.4564 18.5202V14.3846H12.8617V17.7649C12.8619 17.9826 12.9485 18.1913 13.1024 18.3452C13.2563 18.4991 13.465 18.5857 13.6827 18.5859H19.6429C19.7376 18.5859 19.8284 18.5483 19.8954 18.4813C19.9624 18.4143 20 18.3235 20 18.2288C20 18.1341 19.9624 18.0432 19.8954 17.9762C19.8284 17.9093 19.7376 17.8716 19.6429 17.8716H13.6827C13.6544 17.8716 13.6273 17.8604 13.6073 17.8404C13.5872 17.8203 13.576 17.7932 13.576 17.7649V16.3025H14.9156C15.1996 16.3022 15.472 16.1892 15.6729 15.9883C15.8737 15.7875 15.9867 15.5151 15.987 15.2311V14.3846H16.9692C17.2603 14.3847 17.5396 14.2693 17.7458 14.0638C17.952 13.8582 18.0683 13.5793 18.0692 13.2882V1.29174C18.0683 1.0006 17.952 0.721685 17.7458 0.516151C17.5396 0.310617 17.2603 0.195238 16.9692 0.195313H3.09772C2.80658 0.195237 2.52729 0.310616 2.32109 0.51615C2.11488 0.721684 1.9986 1.0006 1.99773 1.29174V13.2882C1.99859 13.5793 2.11488 13.8582 2.32108 14.0638C2.52729 14.2693 2.80658 14.3847 3.09772 14.3846H4.06564V15.2311C4.06595 15.5152 4.17893 15.7875 4.37979 15.9884C4.58066 16.1892 4.853 16.3022 5.13706 16.3025H6.35778V17.4653C6.3576 17.596 6.30557 17.7213 6.21311 17.8137C6.12065 17.9061 5.99532 17.958 5.86461 17.9581H0.357143C0.262423 17.9581 0.171582 17.9958 0.104605 18.0627C0.0376273 18.1297 0 18.2205 0 18.3153C0 18.41 0.0376273 18.5008 0.104605 18.5678C0.171582 18.6348 0.262423 18.6724 0.357143 18.6724H5.86461C6.18469 18.6721 6.49158 18.5448 6.71794 18.3185C6.9443 18.0922 7.07166 17.7854 7.07206 17.4653V14.3846H7.69043V18.3242C7.69022 18.5285 7.60894 18.7245 7.46444 18.869C7.31993 19.0135 7.124 19.0947 6.91964 19.0949H0.477118C0.382398 19.0949 0.291557 19.1326 0.22458 19.1996C0.157602 19.2665 0.119975 19.3574 0.119975 19.4521C0.119975 19.5468 0.157602 19.6377 0.22458 19.7046C0.291557 19.7716 0.382398 19.8092 0.477118 19.8092H6.91964C7.31338 19.8088 7.69086 19.6522 7.96927 19.3738C8.24769 19.0954 8.40429 18.7179 8.40471 18.3242V16.3025H9.0632V19.4521C9.0632 19.5468 9.10082 19.6377 9.1678 19.7046C9.23478 19.7716 9.32562 19.8092 9.42034 19.8092C9.51506 19.8092 9.6059 19.7716 9.67288 19.7046C9.73985 19.6377 9.77748 19.5468 9.77748 19.4521V14.3846H10.3027V19.4521C10.3027 19.5468 10.3404 19.6377 10.4073 19.7046C10.4743 19.7716 10.5651 19.8092 10.6599 19.8092C10.7546 19.8092 10.8454 19.7716 10.9124 19.7046C10.9794 19.6377 11.017 19.5468 11.017 19.4521V16.3025H11.7421V18.5202C11.7425 18.8619 11.8784 19.1896 12.1201 19.4313C12.3618 19.6729 12.6894 19.8089 13.0312 19.8092H19.6429C19.7376 19.8092 19.8284 19.7716 19.8954 19.7046C19.9624 19.6377 20 19.5468 20 19.4521C20 19.3574 19.9624 19.2665 19.8954 19.1996C19.8284 19.1326 19.7376 19.095 19.6429 19.095ZM3.11915 2.0346C3.11907 1.95062 3.13555 1.86746 3.16765 1.78986C3.19974 1.71226 3.24683 1.64175 3.30621 1.58237C3.36559 1.52299 3.4361 1.4759 3.5137 1.44381C3.5913 1.41171 3.67446 1.39523 3.75844 1.39531H16.3084C16.3924 1.39523 16.4756 1.41171 16.5532 1.44381C16.6308 1.4759 16.7013 1.52299 16.7607 1.58237C16.82 1.64175 16.8671 1.71226 16.8992 1.78986C16.9313 1.86746 16.9478 1.95062 16.9477 2.0346V12.5453C16.9478 12.6293 16.9313 12.7125 16.8992 12.7901C16.8671 12.8677 16.8201 12.9382 16.7607 12.9975C16.7013 13.0569 16.6308 13.104 16.5532 13.1361C16.4756 13.1682 16.3924 13.1847 16.3084 13.1846H3.75844C3.67446 13.1847 3.59129 13.1682 3.51369 13.1361C3.43609 13.104 3.36558 13.0569 3.3062 12.9975C3.24682 12.9382 3.19974 12.8677 3.16764 12.7901C3.13554 12.7125 3.11907 12.6293 3.11915 12.5453V2.0346ZM15.2727 15.2311C15.2726 15.3258 15.235 15.4166 15.168 15.4835C15.1011 15.5505 15.0103 15.5881 14.9156 15.5882H13.5759V14.3846H15.2727V15.2311ZM5.13705 15.5882C5.04236 15.5881 4.95158 15.5505 4.88462 15.4835C4.81766 15.4166 4.78001 15.3258 4.77991 15.2311V14.3846H6.35777V15.5882L5.13705 15.5882ZM9.06318 15.5882H8.40471V14.3846H9.0632L9.06318 15.5882ZM11.017 15.5882V14.3846H11.7421V15.5882L11.017 15.5882Z" fill="#B3B3B3"/>
</svg>
