<svg width="20" height="20" viewBox="0 0 20 20" fill="none" xmlns="http://www.w3.org/2000/svg">
<path d="M7.32877 11.0078C7.17559 11.0885 6.97597 11.1978 6.74279 11.3356C5.6251 11.9937 3.01475 13.7421 2.90617 15.7586C2.84868 16.8206 3.49539 17.8622 4.82806 18.8549C5.05849 19.0366 5.34416 19.134 5.63759 19.131C5.9422 19.1153 6.35179 18.9863 6.38284 18.0515C6.48787 16.2687 7.03072 14.5394 7.96333 13.0164C8.05652 12.6625 8.14186 12.3858 8.1983 12.2148C7.80722 11.896 7.50726 11.4797 7.32877 11.0078Z" fill="#B3B3B3"/>
<path d="M7.15629 10.2927C7.14747 10.1963 7.14309 10.0987 7.14309 9.9999C7.14333 9.59453 7.2305 9.19388 7.39876 8.82506C7.23023 8.77257 7.00776 8.70723 6.74135 8.63864C6.72795 8.63544 6.71483 8.63126 6.70206 8.62615C5.13833 8.2294 2.34551 7.77161 0.913553 9.05859C0.122255 9.76919 -0.156652 10.964 0.0833147 12.6067C0.117334 12.897 0.250089 13.1667 0.459318 13.3708C0.685732 13.5769 1.06638 13.7772 1.74949 13.1355C3.08517 11.9521 4.69046 11.114 6.42491 10.6944C6.73955 10.5098 6.99557 10.3741 7.15629 10.2927Z" fill="#B3B3B3"/>
<path d="M19.5401 6.62909C19.3137 6.42268 18.933 6.2231 18.2499 6.86441C16.9135 8.05074 15.3051 8.88921 13.5673 9.30553C13.2538 9.48945 12.9996 9.62478 12.8396 9.70652C12.8921 10.2083 12.8093 10.7149 12.5996 11.1738C12.7674 11.226 12.9892 11.2917 13.2545 11.3616C14.8108 11.7612 17.6411 12.239 19.0859 10.941C19.8765 10.2308 20.1572 9.03732 19.9161 7.39469C19.8824 7.10387 19.7496 6.83356 19.5401 6.62909Z" fill="#B3B3B3"/>
<path d="M18.0481 13.6163C16.2693 13.5074 14.544 12.9656 13.0224 12.038C12.6653 11.9423 12.385 11.8555 12.2135 11.7998C11.8955 12.1898 11.4803 12.489 11.0098 12.6675C11.0908 12.8204 11.1994 13.0182 11.3358 13.2496C11.9932 14.368 13.7383 16.9809 15.7545 17.0912C16.8186 17.1484 17.8577 16.5035 18.8515 15.1708C19.0327 14.9403 19.1301 14.6551 19.1276 14.362C19.114 14.0556 18.9877 13.6463 18.0481 13.6163Z" fill="#B3B3B3"/>
<path d="M10.694 13.5675C10.5108 13.2547 10.3758 13.0008 10.2941 12.8412C10.1963 12.8513 10.0981 12.8564 9.9998 12.8565C9.59497 12.8562 9.19487 12.7693 8.8264 12.6016C8.77641 12.7619 8.71427 12.9719 8.64787 13.2233C8.64787 13.2311 8.64467 13.2386 8.64287 13.2458C8.31827 14.501 7.70871 17.5827 9.05747 19.086C9.76772 19.877 10.9612 20.1555 12.6055 19.9166C12.8966 19.8827 13.1672 19.7497 13.3719 19.5399C13.5783 19.3135 13.7779 18.9328 13.1362 18.25C11.9498 16.9136 11.111 15.3053 10.694 13.5675Z" fill="#B3B3B3"/>
<path d="M7.39484 0.08284C7.10375 0.116742 6.83316 0.24977 6.6285 0.459585C6.42209 0.686 6.2225 1.06665 6.86417 1.74941C8.04835 3.0927 8.88734 4.70436 9.30849 6.44482C9.48702 6.75228 9.62059 7.00119 9.70129 7.15902C10.205 7.10567 10.7138 7.18878 11.1743 7.39969C11.2264 7.23077 11.2921 7.00689 11.3607 6.74013C11.7617 5.18429 12.2402 2.35858 10.9429 0.914133C10.233 0.123186 9.03962 -0.156424 7.39484 0.08284Z" fill="#B3B3B3"/>
<path d="M13.2494 8.6636C14.3682 8.00654 16.9799 6.26143 17.0903 4.2435C17.1485 3.18079 16.5014 2.13664 15.1673 1.14427C14.9374 0.96219 14.6518 0.864704 14.3585 0.868258C14.0539 0.883959 13.6443 1.01109 13.6133 1.94776C13.5064 3.72486 12.9657 5.44869 12.0385 6.96852C11.9445 7.32882 11.8574 7.61128 11.8007 7.78591C12.1902 8.10434 12.489 8.51975 12.667 8.99039C12.8187 8.91001 13.0176 8.80108 13.2494 8.6636Z" fill="#B3B3B3"/>
<path d="M9.99998 12.1425C11.1833 12.1425 12.1425 11.1833 12.1425 9.99998C12.1425 8.81667 11.1833 7.85742 9.99998 7.85742C8.81667 7.85742 7.85742 8.81667 7.85742 9.99998C7.85879 11.1827 8.81725 12.1411 9.99998 12.1425ZM9.99998 8.57158C10.1972 8.57158 10.3571 8.73144 10.3571 8.92868C10.3571 9.12592 10.1972 9.28578 9.99998 9.28578C9.60554 9.28578 9.28578 9.60554 9.28578 9.99998C9.28578 10.1972 9.12592 10.3571 8.92868 10.3571C8.73144 10.3571 8.57158 10.1972 8.57158 9.99998C8.57162 9.2111 9.21114 8.57158 9.99998 8.57158Z" fill="#D9D9D9"/>
<path d="M1.94794 6.38227C3.72704 6.49101 5.45262 7.03297 6.97441 7.961C7.33151 8.05454 7.61077 8.13953 7.78395 8.19742C8.10168 7.80845 8.51607 7.50981 8.98558 7.33148C8.90453 7.179 8.7974 6.98368 8.66418 6.75586C8.00927 5.63601 6.26806 3.02137 4.24513 2.90853C3.18633 2.85354 2.13827 3.49525 1.1452 4.82792C0.964056 5.05839 0.866726 5.34363 0.869186 5.63675C0.877037 5.83235 0.899885 6.34872 1.94794 6.38227Z" fill="#B3B3B3"/>
</svg>
