<svg width="80" height="80" viewBox="0 0 80 80" fill="none" xmlns="http://www.w3.org/2000/svg">
<g filter="url(#filter0_d_842_20706)">
<rect x="16" y="12" width="48" height="48" rx="12" fill="white" shape-rendering="crispEdges"/>
<g clip-path="url(#clip0_842_20706)">
<path d="M37.3161 35.8718C37.6304 36.3266 37.5364 35.9476 37.5364 45.0123C37.5364 45.8235 38.4619 46.2877 39.1142 45.8025C41.9014 43.7011 42.4583 43.5191 42.4583 42.5362C42.4583 35.9305 42.3813 36.302 42.6786 35.8718L47.2047 29.7109H32.79L37.3161 35.8718Z" fill="#E74111"/>
<path d="M48.9148 26.5023C48.7531 26.1926 48.4359 26 48.0867 26H31.9088C31.1546 26 30.7109 26.8507 31.1435 27.4688C31.1471 27.4747 31.0944 27.4026 31.9295 28.5391H48.066C48.7776 27.5706 49.2532 27.1521 48.9148 26.5023Z" fill="#FBBA00"/>
</g>
</g>
<defs>
<filter id="filter0_d_842_20706" x="0" y="0" width="80" height="80" filterUnits="userSpaceOnUse" color-interpolation-filters="sRGB">
<feFlood flood-opacity="0" result="BackgroundImageFix"/>
<feColorMatrix in="SourceAlpha" type="matrix" values="0 0 0 0 0 0 0 0 0 0 0 0 0 0 0 0 0 0 127 0" result="hardAlpha"/>
<feOffset dy="4"/>
<feGaussianBlur stdDeviation="8"/>
<feComposite in2="hardAlpha" operator="out"/>
<feColorMatrix type="matrix" values="0 0 0 0 0.129412 0 0 0 0 0.129412 0 0 0 0 0.129412 0 0 0 0.08 0"/>
<feBlend mode="normal" in2="BackgroundImageFix" result="effect1_dropShadow_842_20706"/>
<feBlend mode="normal" in="SourceGraphic" in2="effect1_dropShadow_842_20706" result="shape"/>
</filter>
<clipPath id="clip0_842_20706">
<rect x="30" y="26" width="20" height="20" rx="10" fill="white"/>
</clipPath>
</defs>
</svg>
