<svg width="20" height="20" viewBox="0 0 20 20" fill="none" xmlns="http://www.w3.org/2000/svg">
<g clip-path="url(#clip0_886_9582)">
<path d="M2.72571 9.99631V19.4138C2.72571 19.7421 2.98358 20 3.31186 20H15.0349C15.3632 20 15.6211 19.7421 15.6211 19.4138V10.9107C15.6211 10.6997 15.5039 10.5121 15.328 10.4066L13.7454 9.49222C13.6516 9.43356 13.5461 9.41016 13.4524 9.41016H10.9319L9.1734 10.9107L7.41494 9.41016H3.31186C2.98358 9.41016 2.72571 9.66802 2.72571 9.99631Z" fill="#E74111"/>
<path d="M8.77529 1.17275C8.88083 0.98514 9.02151 0.809333 9.17391 0.680301C9.45527 0.387224 9.80692 0.187971 10.1938 0.0825025C10.8035 -0.0816206 11.4365 0.000440902 11.9758 0.316925C12.726 0.750757 13.1715 1.55957 13.1481 2.42712C13.1363 2.54435 13.0777 4.28718 13.0777 4.28718C13.2067 4.21684 14.5431 3.38446 14.5431 3.38446C14.6955 3.31413 15.7506 2.51696 17.0518 3.27892C17.5911 3.59548 17.978 4.09953 18.1421 4.69745C18.3062 5.30709 18.2241 5.9401 17.9077 6.4794C17.2629 7.60477 15.8209 7.97991 14.7072 7.33514L13.1981 6.4638L15.3005 6.32364C15.4773 6.42453 15.6765 6.47764 15.8781 6.47764C16.2972 6.47764 16.6852 6.25498 16.8907 5.89606C17.0544 5.61728 17.0934 5.31162 17.0104 5.00252C16.9285 4.70542 16.7322 4.45072 16.4586 4.29042C16.2674 4.17823 16.0854 4.12384 15.9028 4.12384C15.5994 4.12384 15.3481 4.2721 15.2136 4.35166L15.1392 4.39402C14.9554 4.50851 13.7637 5.24804 13.64 5.31561L13.5959 5.33964L13.6059 5.34538L13.5897 5.34609L12.1829 6.1667L11.9094 4.36916L11.9026 4.34787L11.9061 4.24693C11.9061 4.24693 11.9697 2.42974 11.9823 2.30723C11.9885 1.95577 11.763 1.5482 11.3892 1.33183C11.2066 1.2248 11.0143 1.17212 10.8117 1.17212C10.7075 1.17212 10.6022 1.18643 10.498 1.21448C10.3097 1.26599 10.1465 1.35989 10.0195 1.49267L9.9313 1.57567C9.89808 1.60314 9.84373 1.66441 9.79793 1.74624C9.51744 2.22021 9.60387 2.84907 9.98968 3.22229C10.0532 3.28009 10.1368 3.34308 10.2129 3.38657L10.2712 3.42022L10.4278 4.86423L9.63123 4.40433C9.4671 4.31055 9.31467 4.19332 9.17403 4.0644C8.42363 3.33761 8.21262 2.12232 8.77529 1.17275Z" fill="#FBBA00"/>
<path d="M10.9326 9.41016V15.8969C10.9326 16.1314 10.7919 16.3424 10.5692 16.4361C10.3582 16.53 10.1002 16.4831 9.93619 16.3072L9.17416 15.5569L8.41212 16.3072C8.24803 16.4831 7.99008 16.5299 7.77911 16.4361C7.55637 16.3424 7.41569 16.1314 7.41569 15.8969V9.41016H10.9326Z" fill="#FBBA00"/>
<path d="M1.23818 6.17231H1.82433V5.58615C1.82433 5.26217 2.0865 5 2.41048 5C2.73447 5 2.99664 5.26217 2.99664 5.58615V6.17231H3.58279C3.90678 6.17231 4.16895 6.43447 4.16895 6.75846C4.16895 7.08245 3.90678 7.34462 3.58279 7.34462H2.99664V7.93077C2.99664 8.25476 2.73447 8.51692 2.41048 8.51692C2.0865 8.51692 1.82433 8.25476 1.82433 7.93077V7.34462H1.23818C0.914189 7.34462 0.652022 7.08245 0.652022 6.75846C0.652022 6.43447 0.914189 6.17231 1.23818 6.17231Z" fill="#FBBA00"/>
<path d="M3.58279 3.67231C3.25907 3.67231 2.99664 3.40988 2.99664 3.08615C2.99664 2.76243 3.25907 2.5 3.58279 2.5C3.90652 2.5 4.16895 2.76243 4.16895 3.08615C4.16895 3.40988 3.90652 3.67231 3.58279 3.67231Z" fill="#FBBA00"/>
<path d="M6.08279 8.67231C5.75907 8.67231 5.49664 8.40988 5.49664 8.08615C5.49664 7.76243 5.75907 7.5 6.08279 7.5C6.40652 7.5 6.66895 7.76243 6.66895 8.08615C6.66895 8.40988 6.40652 8.67231 6.08279 8.67231Z" fill="#FBBA00"/>
<path d="M4.09774 4.60345L5.8562 1.55545C6.02032 1.27409 6.38373 1.18031 6.66509 1.34443L9.17383 2.79809L9.50969 2.99184L16.1754 6.83783L18.8454 8.37832C19.1267 8.53072 19.2596 8.89413 19.0955 9.17549L17.2979 12.2235C17.1338 12.5049 16.7821 12.5986 16.5007 12.4345L9.17383 8.20247L4.32047 5.40062C4.03912 5.23657 3.9453 4.88488 4.09774 4.60345Z" fill="#EC6741"/>
</g>
<defs>
<clipPath id="clip0_886_9582">
<rect width="20" height="20" fill="white" transform="matrix(-1 0 0 1 20 0)"/>
</clipPath>
</defs>
</svg>
