<svg width="54" height="54" viewBox="0 0 54 54" fill="none" xmlns="http://www.w3.org/2000/svg">
<rect width="54" height="54" rx="12" fill="#FDECE8"/>
<g clip-path="url(#clip0_1502_12519)">
<path d="M27.0234 33.5865C28.3179 33.5865 29.3672 32.5373 29.3672 31.2429C29.3672 29.9485 28.3179 28.8992 27.0234 28.8992C25.729 28.8992 24.6797 29.9485 24.6797 31.2429C24.6797 32.5373 25.729 33.5865 27.0234 33.5865Z" fill="#FBBA00"/>
<path d="M38.2969 15H15.7031C15.3148 15 15 15.3148 15 15.7031V32.5772C15 32.9655 15.3148 33.2803 15.7031 33.2803H23.8778C22.2659 30.8006 24.0539 27.493 27.0234 27.493C29.993 27.493 31.781 30.8005 30.1691 33.2803H38.2969C38.6852 33.2803 39 32.9655 39 32.5772V15.7031C39 15.3148 38.6852 15 38.2969 15V15ZM24.1875 17.8592H29.8125C30.2008 17.8592 30.5156 18.174 30.5156 18.5623C30.5156 18.9506 30.2008 19.2654 29.8125 19.2654H24.1875C23.7992 19.2654 23.4844 18.9506 23.4844 18.5623C23.4844 18.174 23.7992 17.8592 24.1875 17.8592ZM34.0312 26.2963H19.9688C19.5804 26.2963 19.2656 25.9815 19.2656 25.5932C19.2656 25.2049 19.5804 24.8902 19.9688 24.8902H34.0312C34.4196 24.8902 34.7344 25.2049 34.7344 25.5932C34.7344 25.9815 34.4196 26.2963 34.0312 26.2963ZM34.0312 23.484H19.9688C19.5804 23.484 19.2656 23.1692 19.2656 22.7809C19.2656 22.3926 19.5804 22.0778 19.9688 22.0778H34.0312C34.4196 22.0778 34.7344 22.3926 34.7344 22.7809C34.7344 23.1692 34.4196 23.484 34.0312 23.484Z" fill="#E74111"/>
<path d="M24.2227 33.7327V38.2957C24.2227 38.8532 24.8452 39.1927 25.3143 38.8817L27.0469 37.7331L28.7796 38.8817C29.2415 39.188 29.8712 38.8598 29.8712 38.2957V33.6786C28.3899 35.4078 25.7379 35.4352 24.2227 33.7327Z" fill="#FBBA00"/>
</g>
<defs>
<clipPath id="clip0_1502_12519">
<rect width="24" height="24" fill="white" transform="translate(15 15)"/>
</clipPath>
</defs>
</svg>
