<svg width="20" height="20" viewBox="0 0 20 20" fill="none" xmlns="http://www.w3.org/2000/svg">
<g clip-path="url(#clip0_2228_12821)">
<path d="M10 2.88083C9.655 2.88083 9.375 2.60083 9.375 2.25583V0.625C9.375 0.28 9.655 0 10 0C10.345 0 10.625 0.28 10.625 0.625V2.25583C10.625 2.60083 10.345 2.88083 10 2.88083Z" fill="#D9D9D9"/>
<path d="M15.4758 5.14908C15.3158 5.14908 15.1558 5.08824 15.0341 4.96574C14.79 4.72158 14.79 4.32574 15.0341 4.08158L16.1875 2.92824C16.4316 2.68408 16.8275 2.68408 17.0716 2.92824C17.3158 3.17241 17.3158 3.56824 17.0716 3.81241L15.9183 4.96574C15.7958 5.08741 15.6358 5.14908 15.4758 5.14908Z" fill="#D9D9D9"/>
<path d="M19.375 10.625H17.7441C17.3991 10.625 17.1191 10.345 17.1191 10C17.1191 9.655 17.3991 9.375 17.7441 9.375H19.375C19.72 9.375 20 9.655 20 10C20 10.345 19.72 10.625 19.375 10.625Z" fill="#D9D9D9"/>
<path d="M16.6292 17.2545C16.4692 17.2545 16.3092 17.1937 16.1875 17.0712L15.0342 15.9179C14.79 15.6737 14.79 15.2779 15.0342 15.0337C15.2784 14.7895 15.6742 14.7895 15.9184 15.0337L17.0717 16.187C17.3159 16.4312 17.3159 16.827 17.0717 17.0712C16.9492 17.1937 16.7892 17.2545 16.6292 17.2545Z" fill="#D9D9D9"/>
<path d="M3.37089 17.2545C3.21089 17.2545 3.05089 17.1937 2.92922 17.0712C2.68505 16.827 2.68505 16.4312 2.92922 16.187L4.08255 15.0337C4.32672 14.7895 4.72255 14.7895 4.96672 15.0337C5.21089 15.2779 5.21089 15.6737 4.96672 15.9179L3.81339 17.0712C3.69089 17.1937 3.53089 17.2545 3.37089 17.2545Z" fill="#D9D9D9"/>
<path d="M2.25583 10.625H0.625C0.28 10.625 0 10.345 0 10C0 9.655 0.28 9.375 0.625 9.375H2.25583C2.60083 9.375 2.88083 9.655 2.88083 10C2.88083 10.345 2.60083 10.625 2.25583 10.625Z" fill="#D9D9D9"/>
<path d="M4.52416 5.14908C4.36416 5.14908 4.20416 5.08824 4.08249 4.96574L2.92916 3.81241C2.68499 3.56824 2.68499 3.17241 2.92916 2.92824C3.17332 2.68408 3.56916 2.68408 3.81332 2.92824L4.96666 4.08158C5.21082 4.32574 5.21082 4.72158 4.96666 4.96574C4.84332 5.08741 4.68416 5.14908 4.52416 5.14908Z" fill="#D9D9D9"/>
<path d="M12.5 17.5V18.5417C12.5 19.3417 11.8417 20 11.0417 20H8.95833C8.25833 20 7.5 19.4667 7.5 18.3V17.5H12.5Z" fill="#B3B3B3"/>
<path d="M13.675 5.46683C12.3083 4.35849 10.5083 3.92516 8.74999 4.30016C6.54166 4.75849 4.74999 6.55849 4.29166 8.76683C3.82499 11.0335 4.67499 13.2835 6.49166 14.6585C6.98333 15.0252 7.32499 15.5918 7.44166 16.2502V16.2585C7.45833 16.2502 7.48333 16.2502 7.49999 16.2502H12.5C12.5167 16.2502 12.525 16.2502 12.5417 16.2585V16.2502C12.6583 15.6168 13.0333 15.0335 13.6083 14.5835C15.0167 13.4668 15.8333 11.8002 15.8333 10.0002C15.8333 8.23349 15.05 6.58349 13.675 5.46683ZM13.125 10.4168C12.7833 10.4168 12.5 10.1335 12.5 9.79183C12.5 8.52516 11.475 7.50016 10.2083 7.50016C9.86666 7.50016 9.58333 7.21683 9.58333 6.87516C9.58333 6.53349 9.86666 6.25016 10.2083 6.25016C12.1583 6.25016 13.75 7.84183 13.75 9.79183C13.75 10.1335 13.4667 10.4168 13.125 10.4168Z" fill="#B3B3B3"/>
<path d="M7.44165 16.25H7.49998C7.48332 16.25 7.45832 16.25 7.44165 16.2583V16.25Z" fill="#B3B3B3"/>
<path d="M12.5417 16.25V16.2583C12.525 16.25 12.5167 16.25 12.5 16.25H12.5417Z" fill="#B3B3B3"/>
</g>
<defs>
<clipPath id="clip0_2228_12821">
<rect width="20" height="20" fill="white"/>
</clipPath>
</defs>
</svg>
