<svg width="16" height="16" viewBox="0 0 16 16" fill="none" xmlns="http://www.w3.org/2000/svg">
<circle cx="8" cy="8" r="8" fill="#B3B3B3"/>
<g clip-path="url(#clip0_842_16267)">
<path d="M10.25 7H10V6C10 4.897 9.103 4 8 4C6.897 4 6 4.897 6 6V7H5.75C5.33667 7 5 7.33633 5 7.75V11.25C5 11.6637 5.33667 12 5.75 12H10.25C10.6633 12 11 11.6637 11 11.25V7.75C11 7.33633 10.6633 7 10.25 7ZM6.66667 6C6.66667 5.26467 7.26467 4.66667 8 4.66667C8.73533 4.66667 9.33333 5.26467 9.33333 6V7H6.66667V6ZM8.33333 9.574V10.3333C8.33333 10.5173 8.18433 10.6667 8 10.6667C7.81567 10.6667 7.66667 10.5173 7.66667 10.3333V9.574C7.46833 9.45833 7.33333 9.24567 7.33333 9C7.33333 8.63233 7.63233 8.33333 8 8.33333C8.36767 8.33333 8.66667 8.63233 8.66667 9C8.66667 9.24567 8.53167 9.45833 8.33333 9.574Z" fill="white"/>
</g>
<defs>
<clipPath id="clip0_842_16267">
<rect width="8" height="8" fill="white" transform="translate(4 4)"/>
</clipPath>
</defs>
</svg>
