<svg width="40" height="40" viewBox="0 0 40 40" fill="none" xmlns="http://www.w3.org/2000/svg">
<rect width="40" height="40" rx="8" fill="#FDECE8"/>
<g clip-path="url(#clip0_842_20719)">
<path d="M14.1143 18.0447H15.9707L23.9257 13.4755C23.9787 13.445 24.0372 13.4252 24.0979 13.4172C24.1586 13.4093 24.2202 13.4134 24.2793 13.4293C24.3384 13.4451 24.3938 13.4725 24.4422 13.5097C24.4907 13.547 24.5312 13.5934 24.5615 13.6463C24.6529 13.8039 24.7746 13.9421 24.9197 14.053C25.0648 14.1638 25.2304 14.2452 25.4072 14.2923C25.5839 14.3395 25.7682 14.3515 25.9496 14.3278C26.131 14.304 26.306 14.245 26.4644 14.1539C26.5174 14.1234 26.5759 14.1036 26.6366 14.0957C26.6973 14.0878 26.759 14.0919 26.8181 14.1077C26.8772 14.1236 26.9325 14.151 26.981 14.1882C27.0294 14.2254 27.0699 14.2718 27.1002 14.3247L29.2537 18.0447H30.3212L26.961 12.2616C26.7758 11.9453 26.4721 11.7147 26.1163 11.6204C25.7606 11.5262 25.3818 11.5758 25.0628 11.7586L14.1143 18.0447Z" fill="#FBBA00"/>
<path d="M24.0231 14.4858L17.8271 18.0443H28.177C28.2234 18.0443 28.177 18.0443 26.4969 15.1458C26.0649 15.2894 25.6 15.3033 25.1601 15.186C24.7202 15.0686 24.3248 14.8251 24.0231 14.4858Z" fill="#FBBA00"/>
<path d="M15.869 10.9137C15.8993 10.8609 15.9399 10.8145 15.9883 10.7772C16.0367 10.74 16.0921 10.7126 16.1512 10.6968C16.2103 10.6809 16.272 10.6768 16.3327 10.6847C16.3934 10.6927 16.4519 10.7125 16.5049 10.743C16.6635 10.8347 16.8388 10.8944 17.0207 10.9185C17.2026 10.9426 17.3875 10.9307 17.5648 10.8836C17.742 10.8364 17.9082 10.7548 18.0537 10.6436C18.1991 10.5323 18.321 10.3935 18.4124 10.2353C18.4736 10.1297 18.5743 10.0525 18.6926 10.0205C18.8108 9.98852 18.937 10.0043 19.0436 10.0645L22.5941 12.1091C22.6451 12.1091 22.4363 12.2014 23.5223 11.5737C17.3263 8.01989 17.577 8.01528 16.839 8.20451C16.1011 8.39374 16.3749 8.20451 10.6523 18.0445H11.7245L15.869 10.9137Z" fill="#FBBA00"/>
<path d="M16.4681 11.7354L13.0801 17.5831L21.6709 12.64L18.9419 11.0708C18.6407 11.4109 18.2455 11.6552 17.8056 11.7734C17.3657 11.8916 16.9005 11.8784 16.4681 11.7354Z" fill="#FBBA00"/>
<path d="M31.0456 19.0231C30.9575 18.9354 27.2677 18.9677 9.32497 18.9677C8.95569 18.9677 8.60154 19.1136 8.34043 19.3733C8.07931 19.6329 7.93262 19.9851 7.93262 20.3523V30.5062C7.93262 30.8734 8.07931 31.2256 8.34043 31.4853C8.60154 31.7449 8.95569 31.8908 9.32497 31.8908H30.6743C31.0436 31.8908 31.3978 31.7449 31.6589 31.4853C31.92 31.2256 32.0667 30.8734 32.0667 30.5062V20.3523C32.0655 20.0504 31.9652 19.757 31.7808 19.5171C31.5965 19.2771 31.3383 19.1036 31.0456 19.0231ZM31.1385 28.66C31.1385 28.7824 31.0896 28.8998 31.0025 28.9864C30.9155 29.0729 30.7974 29.1216 30.6743 29.1216C30.3051 29.1216 29.9509 29.2675 29.6898 29.5271C29.4287 29.7868 29.282 30.139 29.282 30.5062C29.282 30.6286 29.2331 30.746 29.1461 30.8325C29.059 30.9191 28.941 30.9677 28.8179 30.9677H11.1814C11.0583 30.9677 10.9403 30.9191 10.8533 30.8325C10.7662 30.746 10.7173 30.6286 10.7173 30.5062C10.7173 30.139 10.5706 29.7868 10.3095 29.5271C10.0484 29.2675 9.69424 29.1216 9.32497 29.1216C9.20188 29.1216 9.08383 29.0729 8.99679 28.9864C8.90975 28.8998 8.86085 28.7824 8.86085 28.66V22.1985C8.86085 22.0761 8.90975 21.9587 8.99679 21.8721C9.08383 21.7856 9.20188 21.737 9.32497 21.737C9.69424 21.737 10.0484 21.5911 10.3095 21.3314C10.5706 21.0717 10.7173 20.7196 10.7173 20.3523C10.7173 20.2299 10.7662 20.1125 10.8533 20.026C10.9403 19.9394 11.0583 19.8908 11.1814 19.8908H28.8179C28.941 19.8908 29.059 19.9394 29.1461 20.026C29.2331 20.1125 29.282 20.2299 29.282 20.3523C29.282 20.7196 29.4287 21.0717 29.6898 21.3314C29.9509 21.5911 30.3051 21.737 30.6743 21.737C30.7974 21.737 30.9155 21.7856 31.0025 21.8721C31.0896 21.9587 31.1385 22.0761 31.1385 22.1985V28.66Z" fill="#E74111"/>
<path d="M28.4002 20.814H11.5991C11.5082 21.2575 11.2881 21.6646 10.9662 21.9846C10.6444 22.3047 10.235 22.5235 9.78906 22.614V28.2447C10.235 28.3352 10.6444 28.554 10.9662 28.8741C11.2881 29.1941 11.5082 29.6012 11.5991 30.0447H28.4002C28.4911 29.6012 28.7112 29.1941 29.033 28.8741C29.3549 28.554 29.7642 28.3352 30.2102 28.2447V22.614C29.7642 22.5235 29.3549 22.3047 29.033 21.9846C28.7112 21.6646 28.4911 21.2575 28.4002 20.814ZM19.9996 29.1217C18.2081 29.1217 16.7508 27.4647 16.7508 25.4293C16.7508 23.394 18.2081 21.737 19.9996 21.737C21.7911 21.737 23.2485 23.394 23.2485 25.4293C23.2485 27.4647 21.7911 29.1217 19.9996 29.1217Z" fill="#E74111"/>
<path d="M19.9993 28.1981C21.2809 28.1981 22.3199 26.9583 22.3199 25.4289C22.3199 23.8995 21.2809 22.6597 19.9993 22.6597C18.7177 22.6597 17.6787 23.8995 17.6787 25.4289C17.6787 26.9583 18.7177 28.1981 19.9993 28.1981Z" fill="#E74111"/>
</g>
<defs>
<clipPath id="clip0_842_20719">
<rect width="24.1341" height="24" fill="white" transform="translate(7.93262 8)"/>
</clipPath>
</defs>
</svg>
