<svg width="54" height="54" viewBox="0 0 54 54" fill="none" xmlns="http://www.w3.org/2000/svg">
<rect width="54" height="54" rx="12" fill="#FDECE8"/>
<path d="M18.7734 23.2031H32.1797V24.7969H18.7734V23.2031Z" fill="#E74111"/>
<path d="M18.7734 19.4531H32.1797V21.7969H18.7734V19.4531Z" fill="#E74111"/>
<path d="M18.7734 29.2031H32.1797V30.7969H18.7734V29.2031Z" fill="#E74111"/>
<path d="M18.7734 32.2031H32.1797V34.5469H18.7734V32.2031Z" fill="#E74111"/>
<path d="M34.4297 37.4766C34.4297 38.3156 33.75 39 32.9062 39H18.0469C17.2055 39 16.5234 38.3179 16.5234 37.4766C16.5234 36.6375 17.2032 35.9531 18.0469 35.9531H32.9062C33.7476 35.9531 34.4297 36.6352 34.4297 37.4766Z" fill="#FBBA00"/>
<path d="M34.4297 16.5234C34.4297 17.3625 33.75 18.0469 32.9062 18.0469H18.0469C17.2055 18.0469 16.5234 17.3648 16.5234 16.5234C16.5234 15.6844 17.2032 15 18.0469 15H32.9062C33.7476 15 34.4297 15.6821 34.4297 16.5234Z" fill="#FBBA00"/>
<path d="M37.4766 20.625C37.4766 21.0131 37.1616 21.3281 36.7734 21.3281H35.8828C35.4952 21.3281 35.1797 21.6436 35.1797 22.0312V25.5938C35.1797 26.7567 34.2333 27.7031 33.0703 27.7031H18.7734V26.2969H33.0703C33.458 26.2969 33.7734 25.9814 33.7734 25.5938V22.0312C33.7734 20.8683 34.7198 19.9219 35.8828 19.9219H36.7734C37.1616 19.9219 37.4766 20.2369 37.4766 20.625Z" fill="#E74111"/>
</svg>
