<svg width="56" height="56" viewBox="0 0 56 56" fill="none" xmlns="http://www.w3.org/2000/svg">
<rect width="56" height="56" rx="12" fill="#FDECE8"/>
<path d="M30.7122 31.1846C30.2533 31.0929 29.9232 30.6926 29.9232 30.2277V28.0278H27.7494H25.5757V30.2277C25.5757 30.6926 25.2455 31.0929 24.7866 31.1846L24.257 31.2903V34.8231H27.7494H31.2419V31.2903L30.7122 31.1846Z" fill="#F8C6B8"/>
<path d="M35.2379 32.3709L30.8233 31.0039C30.7203 30.972 30.6081 30.9929 30.5238 31.0596L27.7492 33.2526L24.9745 31.0596C24.8901 30.9929 24.778 30.972 24.675 31.0039L20.2604 32.3709C18.3273 32.9361 17.0001 34.6983 17.0001 36.6995V39.5841C17.0001 39.8137 17.1876 39.9999 17.4188 39.9999H38.0795C38.3107 39.9999 38.4982 39.8137 38.4982 39.5841V36.6995C38.4982 34.6983 37.171 32.9361 35.2379 32.3709Z" fill="#E74111"/>
<path d="M19.7877 35.9016C19.5822 35.9016 19.4156 36.067 19.4156 36.2711V39.9998H20.1597V36.2711C20.1597 36.067 19.9932 35.9016 19.7877 35.9016Z" fill="#FBBA00"/>
<path d="M33.2802 25.7327H32.397V23.1891H33.2802C33.7353 23.1891 34.1043 23.5555 34.1043 24.0075V24.9144C34.1042 25.3663 33.7353 25.7327 33.2802 25.7327Z" fill="#F8C6B8"/>
<path d="M22.2186 25.7329H23.1018V23.1892H22.2186C21.7635 23.1892 21.3945 23.5556 21.3945 24.0076V24.9145C21.3945 25.3665 21.7635 25.7329 22.2186 25.7329Z" fill="#F8C6B8"/>
<path d="M27.7482 29.7523C24.9003 29.7523 22.5917 27.4596 22.5917 24.6313V23.1922C22.5917 20.3639 24.9003 18.0712 27.7482 18.0712C30.5961 18.0712 32.9048 20.3639 32.9048 23.1922V24.6313C32.9048 27.4596 30.5961 29.7523 27.7482 29.7523Z" fill="#F8C6B8"/>
<path d="M28.6266 16.1655H26.8717C23.905 16.1655 21.5 18.5539 21.5 21.5001V23.6076C21.6412 23.358 21.9098 23.1892 22.2185 23.1892H22.5925C22.5929 22.5662 22.7054 21.9692 22.9109 21.4171C25.191 20.7756 27.5084 22.5265 30.0287 22.5265C31.2874 22.5265 32.1466 22.2467 32.7277 21.9046L32.7412 21.9045C32.8482 22.315 32.9054 22.7455 32.9056 23.1892H33.2796C33.5883 23.1892 33.857 23.3581 33.9982 23.6076V21.5002C33.9982 18.5539 31.5932 16.1655 28.6266 16.1655Z" fill="#E74111"/>
<path d="M27.7494 33.2526L26.6247 34.2295C26.4384 34.3913 26.1578 34.382 25.9828 34.2083L23.2106 31.4575L24.6753 31.0039C24.7783 30.972 24.8905 30.9929 24.9748 31.0596L27.7494 33.2526Z" fill="#FBBA00"/>
<path d="M27.7495 33.2526L28.8742 34.2295C29.0605 34.3913 29.3411 34.382 29.5162 34.2083L32.2884 31.4575L30.8236 31.0039C30.7207 30.972 30.6085 30.9929 30.5241 31.0596L27.7495 33.2526Z" fill="#FBBA00"/>
</svg>
