<svg width="142" height="240" viewBox="0 0 142 240" fill="none" xmlns="http://www.w3.org/2000/svg">
<path d="M111.293 172.533C111.293 172.533 124.188 225.576 124.866 227.934C125.544 230.292 127.583 237.411 127.583 237.411L141.797 237.023C141.797 237.023 142.411 217.643 141.503 210.001C139.644 194.321 139.698 165.072 139.698 165.072L111.293 172.533Z" fill="#F5B3A0"/>
<path d="M141.486 167.145L127.059 172.027L127.569 237.411C127.569 237.411 111.154 238.55 97.0176 238.898C90.5753 239.049 83.4377 239.173 76.3238 239.193C53.504 239.26 42.8837 240.975 31.5987 239.193C31.0688 221.923 31.8585 194.184 31.5987 185.61C31.3388 177.037 33.6437 142.239 33.6437 142.239C33.6437 142.239 14.0467 166.974 8.70119 165.209C3.35563 163.444 -0.461174 159.65 0.0450336 147.795C0.551241 135.94 12.1366 105.136 20.9109 95.7628C26.9854 89.2861 46.1977 84.9861 51.7154 83.5929C51.7896 83.5025 51.7154 83.1308 51.7154 83.1308C52.9876 82.1261 65.3391 75.291 65.3391 75.291L98.1717 80.9841L110.28 88.0403L111.293 90.696C119.439 94.9893 133.181 101.051 137.507 113.884C141.834 126.717 141.486 167.145 141.486 167.145Z" fill="#E74111"/>
<path d="M41.2916 132.644L40.7617 132.427C42.9813 127.05 44.2189 121.325 44.4165 115.518C44.5448 110.903 43.9103 106.496 42.6718 103.422L43.1949 103.214C44.4638 106.356 45.1151 110.847 44.9835 115.535C44.7844 121.41 43.5343 127.204 41.2916 132.644Z" fill="black"/>
<path d="M50.2609 152.185C39.5731 169.934 13.8544 166.673 9.16353 165.303C5.71457 164.298 5.73482 160.427 5.94743 157.266C5.94743 157.222 5.94743 157.178 5.94743 157.135C5.94743 156.967 5.97105 156.8 5.98455 156.633C6.02505 156.144 6.0723 155.651 6.13304 155.162C6.19379 154.673 6.25453 154.228 6.32877 153.766C7.64154 145.394 11.7891 137.202 19.6387 135.421C28.5479 133.411 44.3281 130.371 49.6737 128L50.2609 152.185Z" fill="#F5B3A0"/>
<path d="M97.0275 96.3756C97.0275 96.3756 97.1523 99.9154 97.0275 102.313C93.2073 106.101 81.8817 104.081 81.8817 104.081C81.8817 104.081 81.443 97.8525 80.9908 95.6221C80.6533 93.8807 79.5869 90.8198 77.552 88.6732C75.517 86.5265 65.3389 79.0752 65.3389 75.2776C65.9699 74.4035 68.1804 75.0365 69.2772 62.5518L98.806 72.7592C97.0275 78.4523 98.806 83.8742 99.4438 85.2606C96.1332 91.8312 97.0275 96.3756 97.0275 96.3756Z" fill="#F5B3A0"/>
<path d="M58.8328 99.3998L51.4624 83.7002L51.9754 83.4624L59.1095 98.6597C61.1715 97.7555 74.2181 92.2968 80.3702 95.7529L80.0902 96.2418C73.7963 92.692 59.2378 99.219 59.0926 99.286L58.8328 99.3998Z" fill="black"/>
<path d="M97.5174 97.0993L97.1191 96.7074C99.8695 93.891 109.548 94.8153 111.597 95.033L111.009 90.7196L111.57 90.6426L112.245 95.6659L111.88 95.619C111.765 95.6324 100.335 94.2125 97.5174 97.0993Z" fill="black"/>
<path d="M97.0181 238.898C90.5758 239.049 83.4383 239.173 76.3244 239.193C75.727 228.43 77.6742 185.155 80.2255 163.19C82.7768 141.224 81.8825 104.082 81.8825 104.082C81.8825 104.082 93.2081 106.091 97.0282 102.313C97.0282 102.313 99.0193 145.632 97.1092 168.364C95.2869 190.088 96.5659 234.659 97.0181 238.898Z" fill="#FBBA00"/>
<path d="M85.6452 76.778C70.6311 74.1391 64.3608 63.4829 63.5509 44.4846C63.4159 41.2663 64.0605 38.2891 64.5633 35.5497C67.7997 17.8441 77.7585 9.93398 92.0032 10.6339C114.509 11.7424 115.336 27.0268 112.815 43.1517C112.386 45.8878 111.958 48.6674 111.33 51.3666C107.75 66.6878 100.649 79.4169 85.6452 76.778Z" fill="#F5B3A0"/>
<path d="M85.1453 43.2655C84.8888 44.605 83.8595 45.5494 82.8437 45.3719C81.8279 45.1944 81.2104 43.9687 81.4635 42.6292C81.7166 41.2896 82.7459 40.3486 83.765 40.5227C84.7842 40.6968 85.3984 41.9259 85.1453 43.2655Z" fill="black"/>
<path d="M106.878 45.7108C106.625 47.0503 105.596 47.9947 104.58 47.8172C103.564 47.6397 102.943 46.414 103.2 45.0745C103.456 43.7349 104.482 42.7939 105.498 42.968C106.514 43.1422 107.135 44.3746 106.878 45.7108Z" fill="black"/>
<path d="M93.2079 55.8607C92.5031 55.588 91.8478 55.2034 91.2674 54.722C91.2312 54.6933 91.2013 54.6575 91.1797 54.6168C91.158 54.5761 91.1451 54.5315 91.1416 54.4856C91.1381 54.4397 91.1442 54.3936 91.1594 54.3502C91.1747 54.3067 91.1988 54.2669 91.2303 54.2331C91.2943 54.1631 91.3832 54.1205 91.4783 54.1143C91.5733 54.108 91.6671 54.1386 91.7399 54.1996C93.6635 55.7769 95.8064 55.8406 97.0753 55.2043C97.4582 55.0451 97.7795 54.7682 97.9921 54.4144C98.2047 54.0606 98.2974 53.6484 98.2565 53.2385C98.0911 51.7917 97.5815 49.3906 97.1833 47.4616C97.0314 46.7282 96.8863 46.0383 96.7817 45.5059C96.772 45.4604 96.772 45.4133 96.7816 45.3678C96.7912 45.3223 96.8103 45.2793 96.8376 45.2414C96.8649 45.2036 96.8998 45.1719 96.9402 45.1482C96.9805 45.1246 97.0254 45.1095 97.0719 45.104C97.1177 45.0922 97.1655 45.0901 97.2122 45.0978C97.2588 45.1055 97.3033 45.1229 97.3428 45.1488C97.3822 45.1747 97.4158 45.2086 97.4412 45.2481C97.4666 45.2877 97.4834 45.3322 97.4904 45.3786C97.595 45.9077 97.7401 46.5976 97.892 47.3277C98.297 49.27 98.8065 51.6812 98.9719 53.1648C99.1001 54.2699 98.5163 55.2612 97.4128 55.8138C96.7527 56.1075 96.0387 56.2633 95.3152 56.2713C94.5918 56.2794 93.8745 56.1396 93.2079 55.8607Z" fill="black"/>
<path d="M78.9422 35.9309C78.7206 35.8647 78.5205 35.7416 78.3622 35.5741C78.204 35.4065 78.0932 35.2004 78.0412 34.9766C78.0064 34.809 78.0058 34.6361 78.0393 34.4682C78.0728 34.3003 78.1398 34.1407 78.2363 33.9988C78.3328 33.8569 78.4569 33.7356 78.6013 33.6419C78.7457 33.5482 78.9075 33.484 79.0772 33.4532C82.4042 32.6763 85.8803 32.7977 89.144 33.8048C89.3092 33.8509 89.4636 33.9293 89.598 34.0353C89.7324 34.1412 89.8442 34.2727 89.9268 34.422C90.0094 34.5713 90.0612 34.7354 90.0792 34.9048C90.0972 35.0742 90.081 35.2454 90.0315 35.4086C89.9195 35.7421 89.6798 36.0186 89.3641 36.1784C89.0484 36.3381 88.6821 36.3683 88.3442 36.2623C85.5181 35.3823 82.5043 35.2793 79.6239 35.9643C79.3973 36.0079 79.1634 35.9964 78.9422 35.9309Z" fill="black"/>
<path d="M99.6464 38.7077C99.5024 38.5836 99.3887 38.4287 99.3139 38.2547C99.239 38.0807 99.205 37.892 99.2144 37.703C99.2387 37.3561 99.4003 37.0329 99.664 36.8038C99.9277 36.5748 100.272 36.4586 100.622 36.4807C104.028 36.5733 107.346 37.5764 110.226 39.3842C110.375 39.4686 110.505 39.5822 110.609 39.7181C110.712 39.854 110.787 40.0094 110.828 40.1748C110.869 40.3402 110.876 40.5122 110.848 40.6803C110.82 40.8483 110.757 41.009 110.665 41.1524C110.469 41.4445 110.167 41.6505 109.822 41.7278C109.477 41.8051 109.116 41.7478 108.812 41.5677C106.322 39.9911 103.446 39.1192 100.493 39.0459C100.18 39.0343 99.8806 38.9147 99.6464 38.7077Z" fill="black"/>
<path d="M61.4141 49.7088C61.0985 49.5846 60.8132 49.3951 60.5772 49.1529C60.1947 48.7378 59.9171 48.2385 59.7672 47.6961C59.6329 47.2605 59.5491 46.8111 59.5175 46.3566C59.4469 45.7544 59.5647 45.1452 59.855 44.6118C60.0143 44.3275 60.2518 44.094 60.5399 43.9386C60.8279 43.7833 61.1545 43.7124 61.4816 43.7344C62.1869 43.8147 62.6695 44.364 63.1048 44.9165C63.1171 44.9324 63.1259 44.9506 63.1309 44.9699C63.1358 44.9893 63.1367 45.0095 63.1336 45.0292C63.1304 45.0489 63.1233 45.0678 63.1125 45.0847C63.1018 45.1016 63.0877 45.1162 63.0711 45.1275C63.0378 45.1519 62.9962 45.1624 62.9552 45.1567C62.9143 45.1511 62.8771 45.1298 62.8517 45.0974C62.4569 44.595 62.0249 44.0927 61.4445 44.0358C61.1794 44.0226 60.916 44.0834 60.6839 44.2113C60.4519 44.3391 60.2606 44.5289 60.1317 44.7591C59.875 45.2432 59.7737 45.7936 59.8415 46.3365C59.8726 46.7716 59.953 47.2018 60.0811 47.6191C60.2176 48.1172 60.4709 48.5762 60.8202 48.9587C60.9932 49.1427 61.202 49.2902 61.434 49.392C61.666 49.4939 61.9164 49.5481 62.17 49.5514C62.4132 49.5499 62.6503 49.4759 62.8506 49.3392C63.051 49.2025 63.2053 49.0093 63.2938 48.7845C63.3 48.7651 63.3099 48.7471 63.3231 48.7316C63.3363 48.716 63.3524 48.7032 63.3706 48.6938C63.3888 48.6845 63.4087 48.6788 63.4291 48.6771C63.4495 48.6755 63.4701 48.6778 63.4896 48.684C63.5092 48.6891 63.5276 48.698 63.5438 48.7102C63.5599 48.7224 63.5734 48.7377 63.5834 48.7552C63.5935 48.7727 63.6 48.792 63.6024 48.812C63.6048 48.832 63.6032 48.8522 63.5976 48.8716C63.4878 49.1574 63.294 49.4039 63.0412 49.5789C62.7884 49.7539 62.4884 49.8493 62.1802 49.8528C61.9178 49.8545 61.6577 49.8056 61.4141 49.7088Z" fill="black"/>
<path d="M111.465 51.3531C111.995 48.6305 112.379 45.8844 112.815 43.1483L111.951 42.8134C111.951 42.8134 111.718 49.029 109.281 53.5299C107.375 57.0663 104.287 59.5579 100.089 57.917C95.0265 55.9445 85.6111 55.1407 77.0832 57.4515C72.9728 58.5666 71.7174 55.1809 69.7701 52.0128C68.535 50.0035 65.8791 42.1704 67.2189 34.6187L64.563 35.5329L64.2086 35.7707C63.7348 38.6361 63.4473 41.5288 63.3481 44.4309C62.0825 68.4191 77.9842 78.0572 87.3929 80.0498C97.2066 82.1462 107.8 70.0936 111.465 51.3531ZM91.8408 70.5088C85.1352 69.839 81.6492 63.7876 81.7167 60.4889C81.7167 59.933 82.8708 59.4273 83.4513 59.367C86.5447 59.0839 89.6595 59.1209 92.7452 59.4775C95.7339 59.8087 98.704 60.2882 101.644 60.9142C101.843 60.959 102.016 61.0799 102.125 61.2505C102.234 61.421 102.272 61.6276 102.228 61.8251C101.506 64.9697 99.7174 71.2958 91.8408 70.5088Z" fill="black"/>
<path d="M83.6938 60.2812C88.4185 62.0026 96.8957 62.3844 100.905 61.3161C96.9295 69.7151 85.8705 67.4111 83.6938 60.2812Z" fill="white"/>
<path d="M63.8847 40.2081C63.3549 33.8452 61.2254 33.1185 59.9093 26.6685C58.5932 20.2185 61.4245 11.9066 69.8377 14.1369C71.002 14.445 70.3102 13.3566 72.1764 8.57776C74.0426 3.79888 79.6312 -0.926419 90.842 1.16999C102.053 3.2664 103.686 -2.84869 112.44 1.77614C119.821 5.67761 114.863 11.4712 114.863 11.4712C120.766 11.8061 126.239 18.303 115.687 26.6183C118.953 31.856 112.616 44.3038 112.616 44.3038L111.941 42.8169C111.941 42.8169 112.744 38.9523 111.489 31.7421C110.233 24.5319 101.999 20.828 96.1707 22.0303C90.3425 23.2325 92.3977 20.9854 86.6202 19.321C80.8427 17.6566 75.4195 24.753 72.875 28.4133C71.0459 31.0455 67.0198 37.6328 67.1042 42.9509C67.1616 46.4203 63.9488 40.975 63.8847 40.2081Z" fill="black"/>
<path d="M127.343 172.048L126.776 172.004C127.681 160.283 127.579 116.958 125.015 110.89L125.534 110.672C128.126 116.798 128.248 160.286 127.343 172.048Z" fill="black"/>
<path d="M70.9346 93.7269C66.6082 94.611 66.48 103.07 64.8264 106.734C63.1728 110.398 55.4076 122.648 51.2229 126.184C47.0382 129.721 42.8941 141.311 50.2746 152.172C55.529 156.08 67.0031 154.345 68.1066 152.326C69.2102 150.307 69.7197 148.116 69.038 147.021C73.5365 146.77 76.3376 144.242 74.1305 139.865C78.8821 139.195 78.4569 133.298 76.3376 132.541C78.5413 132.792 80.9002 125.712 77.8562 123.947C74.8122 122.183 72.2845 121.509 71.586 120.562C70.8874 119.614 70.3137 112.166 72.8582 107.745C75.4028 103.325 76.3679 92.6151 70.9346 93.7269Z" fill="#F5B3A0"/>
<path d="M76.2663 132.815C74.5958 132.48 65.1061 129.647 64.7012 129.526L64.8665 128.987C64.9644 129.017 74.7342 131.934 76.3777 132.263L76.2663 132.815Z" fill="black"/>
<path d="M72.9825 140.222C69.817 140.222 63.5333 139.074 62.0146 138.237L62.2914 137.745C63.918 138.642 71.825 139.998 74.0658 139.586L74.1704 140.129C73.7777 140.193 73.3804 140.224 72.9825 140.222Z" fill="black"/>
<path d="M68.5212 147.309C65.6459 147.309 62.0417 146.639 60.4219 146.02L60.6311 145.498C62.2847 146.167 66.1285 146.837 69.0038 146.74V147.302L68.5212 147.309Z" fill="black"/>
<path d="M64.0974 47.8405C64.7723 51.2196 64.8938 52.6462 63.8982 53.383C61.4988 53.8183 59.879 51.3937 59.204 48.0247C58.5291 44.6557 59.9262 41.5513 62.3256 41.1159C64.725 40.6806 63.4224 44.4582 64.0974 47.8405Z" fill="#F5B3A0"/>
<path d="M48.5907 149.472C46.964 146.405 46.1912 142.403 46.4106 138.207C46.6198 134.225 47.72 130.441 49.4478 127.825L49.9237 128.133C48.2633 130.668 47.1935 134.349 46.991 138.237C46.7751 142.333 47.5276 146.231 49.107 149.211L48.5907 149.472Z" fill="black"/>
<path d="M106.11 122.73H105.42C104.804 122.73 104.279 122.504 103.844 122.052C103.41 121.6 103.193 121.054 103.193 120.413C103.193 119.772 103.41 119.226 103.844 118.774C104.279 118.322 104.804 118.096 105.42 118.097C106.035 118.097 106.561 118.323 106.995 118.775C107.429 119.226 107.646 119.773 107.646 120.414V124.054H106.692V120.377C106.685 120.029 106.56 119.729 106.318 119.477C106.2 119.354 106.06 119.256 105.906 119.19C105.751 119.123 105.586 119.089 105.419 119.089C105.252 119.089 105.086 119.123 104.932 119.19C104.778 119.256 104.637 119.354 104.519 119.477C104.341 119.662 104.22 119.898 104.17 120.155C104.121 120.412 104.146 120.679 104.243 120.921C104.339 121.163 104.502 121.37 104.712 121.515C104.921 121.661 105.168 121.738 105.42 121.738H106.11V122.73Z" fill="white"/>
<path d="M111.139 122.642C110.934 122.701 110.721 122.731 110.508 122.73C109.892 122.73 109.367 122.504 108.933 122.052C108.499 121.6 108.282 121.054 108.282 120.413C108.282 119.772 108.499 119.226 108.933 118.774C109.367 118.322 109.892 118.096 110.508 118.097C111.124 118.097 111.649 118.323 112.083 118.775C112.517 119.226 112.734 119.773 112.734 120.414V122.73H111.78V120.378C111.774 120.03 111.649 119.73 111.407 119.478C111.29 119.351 111.15 119.249 110.994 119.18C110.839 119.11 110.672 119.073 110.503 119.071C110.334 119.07 110.166 119.103 110.009 119.169C109.853 119.236 109.71 119.334 109.591 119.459C109.471 119.583 109.376 119.731 109.312 119.894C109.249 120.057 109.216 120.232 109.218 120.408C109.22 120.584 109.255 120.758 109.322 120.919C109.389 121.081 109.486 121.227 109.608 121.349C109.806 121.554 110.063 121.686 110.339 121.725C110.615 121.764 110.896 121.708 111.139 121.566V122.642Z" fill="white"/>
<path d="M115.596 119.089C115.259 119.089 114.935 119.229 114.697 119.477C114.458 119.725 114.324 120.062 114.324 120.413V122.73H113.37V120.413C113.37 119.772 113.587 119.226 114.021 118.774C114.455 118.322 114.98 118.096 115.596 118.097V119.089Z" fill="white"/>
<path d="M118.479 122.642C118.273 122.701 118.061 122.731 117.848 122.73C117.232 122.73 116.707 122.504 116.272 122.052C115.838 121.6 115.621 121.054 115.622 120.413C115.622 119.772 115.839 119.226 116.272 118.774C116.706 118.322 117.231 118.096 117.848 118.097C118.463 118.097 118.989 118.323 119.423 118.775C119.857 119.226 120.074 119.772 120.074 120.413V122.73H119.12V120.378C119.113 120.03 118.989 119.73 118.746 119.478C118.63 119.348 118.489 119.244 118.333 119.172C118.177 119.1 118.009 119.061 117.838 119.058C117.668 119.055 117.498 119.088 117.34 119.155C117.182 119.221 117.038 119.32 116.918 119.446C116.797 119.572 116.702 119.721 116.638 119.886C116.574 120.051 116.542 120.227 116.545 120.404C116.548 120.582 116.586 120.757 116.655 120.92C116.724 121.082 116.824 121.228 116.949 121.349C117.147 121.554 117.403 121.686 117.679 121.725C117.956 121.764 118.237 121.708 118.48 121.566L118.479 122.642Z" fill="white"/>
<path d="M117.852 116.352V117.338C118.24 117.338 118.624 117.418 118.983 117.572C119.341 117.727 119.667 117.953 119.941 118.239C120.216 118.524 120.433 118.863 120.582 119.236C120.73 119.609 120.806 120.009 120.806 120.413H121.754C121.754 118.17 120.007 116.352 117.852 116.352Z" fill="#FBBA00"/>
</svg>
