<svg width="20" height="20" viewBox="0 0 20 20" fill="none" xmlns="http://www.w3.org/2000/svg">
<path d="M1.17188 1.17188H4.72656V0H0V4.72656H1.17188V1.17188Z" fill="#FBBA00"/>
<path d="M4.72656 18.8281H1.17188V15.2734H0V20H4.72656V18.8281Z" fill="#FBBA00"/>
<path d="M15.2734 1.17188H18.8281V4.72656H20V0H15.2734V1.17188Z" fill="#FBBA00"/>
<path d="M18.8281 18.8281H15.2734V20H20V15.2734H18.8281V18.8281Z" fill="#FBBA00"/>
<path d="M9.41406 2.34375H10.5859V3.55469H9.41406V2.34375Z" fill="#E74111"/>
<path d="M5.89844 10.5859V9.41406H2.34375V17.6172H8.24219V11.7578H3.51562V10.5859H5.89844ZM4.72656 14.1016H5.89844V15.2734H4.72656V14.1016Z" fill="#E74111"/>
<path d="M17.6562 2.34375H11.7578V5.89844H10.5859V4.72656H8.24219V2.34375H2.34375V8.24219H7.07031V10.5859H8.24219V9.41406H9.41406V15.2734H11.7578V14.1016H10.5859V8.24219H8.24219C8.24219 8.1218 8.24219 5.77148 8.24219 5.89844H9.41406V7.07031H11.7578V8.24219H17.6562V2.34375ZM5.89844 5.89844H4.72656V4.72656H5.89844V5.89844ZM15.2734 5.89844H14.1016V4.72656H15.2734V5.89844Z" fill="#E74111"/>
<path d="M17.6562 9.41406H16.4844V10.5859H15.2734V9.41406H11.7578V10.5859H14.1016V12.9297H15.2734V11.7578H17.6562V9.41406Z" fill="#E74111"/>
<path d="M11.7578 11.7578H12.9297V12.9297H11.7578V11.7578Z" fill="#E74111"/>
<path d="M12.9297 16.4453H9.41406V17.6172H14.1016V15.2734H12.9297V16.4453Z" fill="#E74111"/>
<path d="M17.6562 17.6172V12.9297H16.4844V14.1016H14.1016V15.2734H16.4844V17.6172H17.6562Z" fill="#E74111"/>
</svg>
