<svg width="18" height="20" viewBox="0 0 18 20" fill="none" xmlns="http://www.w3.org/2000/svg">
<path fill-rule="evenodd" clip-rule="evenodd" d="M0.239502 4.38965H5.84994V15.6106H0.239502V4.38965ZM4.04483 10.2815V11.7272H2.04456V10.2815H4.04483ZM1.45747 8.27309H4.63197V9.97974H1.45747V8.27309Z" fill="#B3B3B3"/>
<path fill-rule="evenodd" clip-rule="evenodd" d="M3.70002 10.626H2.3894V11.382H3.70002V10.626Z" fill="#D9D9D9"/>
<path fill-rule="evenodd" clip-rule="evenodd" d="M1.80237 8.61816H4.2873V9.63502H1.80237V8.61816Z" fill="#D9D9D9"/>
<path fill-rule="evenodd" clip-rule="evenodd" d="M2.38283 18.3953C2.19127 18.0927 2.2274 17.6875 2.49126 17.4236C2.75507 17.1598 3.16038 17.1237 3.46295 17.3152L2.38283 18.3953Z" fill="#D9D9D9"/>
<path fill-rule="evenodd" clip-rule="evenodd" d="M3.70668 17.5596C3.8982 17.8622 3.86212 18.2674 3.59826 18.5313C3.33441 18.7951 2.92914 18.8312 2.62653 18.6397L3.70668 17.5596Z" fill="#D9D9D9"/>
<path fill-rule="evenodd" clip-rule="evenodd" d="M4.98137 15.9551V19.3083C4.98137 19.6887 4.67022 19.9998 4.28987 19.9998H1.79953C1.41923 19.9998 1.10803 19.6887 1.10803 19.3083V15.9551H4.98137ZM3.84211 17.1801C4.28239 17.6204 4.28239 18.3345 3.84211 18.7748C3.40182 19.2152 2.68762 19.2152 2.24734 18.7748C1.80701 18.3345 1.80701 17.6204 2.24734 17.1801C2.68762 16.7397 3.40182 16.7397 3.84211 17.1801Z" fill="#B3B3B3"/>
<path fill-rule="evenodd" clip-rule="evenodd" d="M2.38283 1.60449C2.19127 1.9071 2.2274 2.31237 2.49126 2.57623C2.75507 2.84009 3.16038 2.87617 3.46295 2.68465L2.38283 1.60449Z" fill="#D9D9D9"/>
<path fill-rule="evenodd" clip-rule="evenodd" d="M3.70687 2.44024C3.89838 2.13763 3.8623 1.73236 3.59845 1.46855C3.33459 1.20469 2.92932 1.16857 2.62671 1.36013L3.70687 2.44024Z" fill="#D9D9D9"/>
<path fill-rule="evenodd" clip-rule="evenodd" d="M4.98137 4.04473V0.691501C4.98137 0.311148 4.67022 0 4.28987 0H1.79953C1.41923 0 1.10803 0.311148 1.10803 0.691501V4.04473H4.98137ZM3.84211 2.81975C4.28239 2.37942 4.28239 1.66527 3.84211 1.22498C3.40182 0.784651 2.68762 0.784651 2.24734 1.22498C1.80701 1.66527 1.80701 2.37942 2.24734 2.81975C2.68762 3.26008 3.40182 3.26008 3.84211 2.81975Z" fill="#B3B3B3"/>
<path fill-rule="evenodd" clip-rule="evenodd" d="M8.33789 18.3953C8.14638 18.0927 8.18246 17.6875 8.44632 17.4236C8.71017 17.1598 9.11544 17.1237 9.41805 17.3152L8.33789 18.3953Z" fill="#D9D9D9"/>
<path fill-rule="evenodd" clip-rule="evenodd" d="M9.66196 17.5596C9.85352 17.8622 9.8174 18.2674 9.55354 18.5313C9.28973 18.7951 8.88441 18.8312 8.58185 18.6397L9.66196 17.5596Z" fill="#D9D9D9"/>
<path fill-rule="evenodd" clip-rule="evenodd" d="M10.9367 15.9551V19.3083C10.9367 19.6887 10.6255 19.9998 10.2451 19.9998H7.75484C7.37449 19.9998 7.06329 19.6887 7.06329 19.3083V15.9551H10.9367ZM9.79737 17.1801C10.2377 17.6204 10.2377 18.3345 9.79737 18.7748C9.35708 19.2152 8.64288 19.2152 8.2026 18.7748C7.76231 18.3345 7.76231 17.6204 8.2026 17.1801C8.64288 16.7397 9.35708 16.7397 9.79737 17.1801V17.1801Z" fill="#B3B3B3"/>
<path fill-rule="evenodd" clip-rule="evenodd" d="M8.33789 1.60449C8.14638 1.9071 8.18246 2.31237 8.44632 2.57623C8.71017 2.84009 9.11544 2.87617 9.41805 2.68465L8.33789 1.60449Z" fill="#D9D9D9"/>
<path fill-rule="evenodd" clip-rule="evenodd" d="M9.6619 2.44024C9.85346 2.13763 9.81733 1.73236 9.55348 1.46855C9.28967 1.20469 8.88435 1.16857 8.58179 1.36013L9.6619 2.44024Z" fill="#D9D9D9"/>
<path fill-rule="evenodd" clip-rule="evenodd" d="M10.9367 4.04473V0.691501C10.9367 0.311148 10.6255 0 10.2451 0H7.75484C7.37449 0 7.06329 0.311148 7.06329 0.691501V4.04473H10.9367ZM9.79737 2.81975C10.2377 2.37942 10.2377 1.66527 9.79737 1.22498C9.35708 0.784651 8.64288 0.784651 8.2026 1.22498C7.76231 1.66527 7.76231 2.37942 8.2026 2.81975C8.64288 3.26008 9.35708 3.26008 9.79737 2.81975V2.81975Z" fill="#B3B3B3"/>
<path fill-rule="evenodd" clip-rule="evenodd" d="M6.19476 15.6106H11.8052V4.38965H6.19476V15.6106ZM10.0001 9.71874H7.99983V8.27304H10.0001V9.71874ZM7.41273 11.7271V10.0205H10.5872V11.7271H7.41273Z" fill="#B3B3B3"/>
<path fill-rule="evenodd" clip-rule="evenodd" d="M9.65509 9.37421V8.61816H8.34448V9.37421H9.65509Z" fill="#D9D9D9"/>
<path fill-rule="evenodd" clip-rule="evenodd" d="M7.75757 11.3822H10.2424V10.3652H7.75757V11.3822Z" fill="#D9D9D9"/>
<path fill-rule="evenodd" clip-rule="evenodd" d="M14.2935 18.3953C14.1019 18.0927 14.138 17.6875 14.4019 17.4236C14.6657 17.1598 15.071 17.1237 15.3736 17.3152L14.2935 18.3953Z" fill="#D9D9D9"/>
<path fill-rule="evenodd" clip-rule="evenodd" d="M15.6172 17.5596C15.8088 17.8622 15.7727 18.2674 15.5088 18.5313C15.245 18.7951 14.8397 18.8312 14.5371 18.6397L15.6172 17.5596Z" fill="#D9D9D9"/>
<path fill-rule="evenodd" clip-rule="evenodd" d="M16.892 15.9551V19.3083C16.892 19.6887 16.5808 19.9998 16.2005 19.9998H13.7101C13.3298 19.9998 13.0186 19.6887 13.0186 19.3083V15.9551H16.892ZM15.7527 17.1801C16.193 17.6204 16.193 18.3345 15.7527 18.7748C15.3124 19.2152 14.5982 19.2152 14.1579 18.7748C13.7176 18.3345 13.7176 17.6204 14.1579 17.1801C14.5982 16.7397 15.3124 16.7397 15.7527 17.1801Z" fill="#B3B3B3"/>
<path fill-rule="evenodd" clip-rule="evenodd" d="M14.2935 1.60449C14.1019 1.9071 14.138 2.31237 14.4019 2.57623C14.6657 2.84009 15.071 2.87617 15.3736 2.68465L14.2935 1.60449Z" fill="#D9D9D9"/>
<path fill-rule="evenodd" clip-rule="evenodd" d="M15.6175 2.44024C15.809 2.13763 15.7729 1.73236 15.5091 1.46855C15.2452 1.20469 14.84 1.16857 14.5374 1.36013L15.6175 2.44024Z" fill="#D9D9D9"/>
<path fill-rule="evenodd" clip-rule="evenodd" d="M16.892 4.04473V0.691501C16.892 0.311148 16.5808 0 16.2005 0H13.7101C13.3298 0 13.0186 0.311148 13.0186 0.691501V4.04473H16.892ZM15.7527 2.81975C16.193 2.37942 16.193 1.66527 15.7527 1.22498C15.3124 0.784651 14.5982 0.784651 14.1579 1.22498C13.7176 1.66527 13.7176 2.37942 14.1579 2.81975C14.5982 3.26008 15.3124 3.26008 15.7527 2.81975Z" fill="#B3B3B3"/>
<path fill-rule="evenodd" clip-rule="evenodd" d="M12.15 4.38965H17.7605V15.6106H12.15V4.38965ZM15.9554 10.2815V11.7272H13.9551V10.2815H15.9554ZM13.368 8.27309H16.5425V9.97974H13.368V8.27309Z" fill="#B3B3B3"/>
<path fill-rule="evenodd" clip-rule="evenodd" d="M15.6106 10.626H14.3V11.382H15.6106V10.626Z" fill="#D9D9D9"/>
<path fill-rule="evenodd" clip-rule="evenodd" d="M13.7126 8.61816V9.63516H16.1975V8.61816H13.7126Z" fill="#D9D9D9"/>
</svg>
