<svg width="20" height="20" viewBox="0 0 20 20" fill="none" xmlns="http://www.w3.org/2000/svg">
<path d="M17.9997 2.06248C11.9078 -3.65091 2.89595 3.84087 7.512 10.8248C9.86046 14.2558 15.0575 14.7413 17.9997 11.7354C20.6654 9.19085 20.6679 4.60863 17.9997 2.06248ZM13.14 12.1126C10.4015 12.1975 7.81396 9.70093 7.89983 6.89715C7.89816 6.21098 8.0332 5.53137 8.29706 4.89796C8.56092 4.26456 8.94831 3.69007 9.43662 3.20802C12.6736 -0.054502 18.4169 2.28877 18.3803 6.89729C18.4657 9.70378 15.8809 12.1986 13.14 12.1126Z" fill="white"/>
<path d="M3.14695 14.0479L0.574825 16.6094C0.205451 16.9814 -0.00127173 17.4848 5.88698e-06 18.009C0.0012835 18.5333 0.210457 19.0357 0.581641 19.4059C0.952824 19.7761 1.45571 19.984 1.97997 19.984C2.50424 19.9839 3.00708 19.7759 3.37819 19.4056L5.95031 16.8442C5.73227 16.6284 3.66926 14.5611 3.14695 14.0479Z" fill="white"/>
<path d="M7.41982 14.2614C7.13602 13.9797 5.74065 12.5893 5.74065 12.5893L5.69796 12.5466C5.55897 12.4099 5.37178 12.3332 5.17677 12.3332C4.98176 12.3332 4.79457 12.4099 4.65558 12.5466L3.65234 13.5463C3.65234 13.5463 5.7807 15.6638 6.45571 16.3426L7.45896 15.3429C7.53053 15.271 7.58657 15.1851 7.62358 15.0906C7.6606 14.9961 7.6778 14.8951 7.67413 14.7936C7.67046 14.6922 7.646 14.5927 7.60225 14.5011C7.55851 14.4096 7.49641 14.328 7.41982 14.2614Z" fill="white"/>
<path d="M7.90713 12.1126C7.62442 11.8318 7.36505 11.5284 7.13158 11.2054L6.11768 12.2122C6.6128 12.7019 7.30175 13.3946 7.79685 13.8843L8.81075 12.8775C8.48976 12.6469 8.1876 12.3911 7.90713 12.1126Z" fill="white"/>
</svg>
