<svg width="16" height="20" viewBox="0 0 16 20" fill="none" xmlns="http://www.w3.org/2000/svg">
<path d="M15.1036 1.68742C14.7719 1.355 14.3307 1.17188 13.8613 1.17188H13.0822V1.95312C13.0822 2.81469 12.3821 3.51562 11.5214 3.51562H4.49801C3.63738 3.51562 2.93723 2.81469 2.93723 1.95312V1.17188H2.15555C1.18844 1.17188 0.400782 1.95953 0.399689 2.92773L0.382814 18.2402C0.382267 18.7101 0.564689 19.152 0.896369 19.4845C1.22813 19.8169 1.6693 20 2.13867 20H13.8444C14.8115 20 15.5992 19.2123 15.6003 18.2441L15.6172 2.93164C15.6177 2.46176 15.4353 2.01988 15.1036 1.68742ZM8.19899 7.03125H12.3573C12.6805 7.03125 12.9426 7.29359 12.9426 7.61719C12.9426 7.94078 12.6805 8.20312 12.3573 8.20312H8.19899C7.87574 8.20312 7.61371 7.94078 7.61371 7.61719C7.61371 7.29359 7.87574 7.03125 8.19899 7.03125ZM8.19899 10.9375H12.3573C12.6805 10.9375 12.9426 11.1998 12.9426 11.5234C12.9426 11.847 12.6805 12.1094 12.3573 12.1094H8.19899C7.87574 12.1094 7.61371 11.847 7.61371 11.5234C7.61371 11.1998 7.87574 10.9375 8.19899 10.9375ZM8.19899 14.8438H12.374C12.6973 14.8438 12.9593 15.1061 12.9593 15.4297C12.9593 15.7533 12.6973 16.0156 12.374 16.0156H8.19899C7.87574 16.0156 7.61371 15.7533 7.61371 15.4297C7.61371 15.1061 7.87574 14.8438 8.19899 14.8438ZM3.21215 7.05437C3.44074 6.82555 3.81129 6.82555 4.03988 7.05437L4.35813 7.37301L5.70789 6.02176C5.93649 5.79297 6.30703 5.79289 6.53559 6.02176C6.76414 6.25055 6.76414 6.62156 6.53559 6.85039L4.77195 8.61594C4.71763 8.67034 4.65312 8.7135 4.58211 8.74295C4.51109 8.7724 4.43497 8.78755 4.35809 8.78755C4.28121 8.78755 4.20508 8.7724 4.13407 8.74295C4.06305 8.7135 3.99854 8.67034 3.94422 8.61594L3.21211 7.88297C2.98356 7.65418 2.98356 7.28316 3.21215 7.05437ZM3.21215 11.2589C3.44074 11.0301 3.81129 11.0301 4.03988 11.2589L4.35813 11.5775L5.70789 10.2263C5.93645 9.9975 6.30703 9.9975 6.53559 10.2263C6.76414 10.4551 6.76414 10.8261 6.53559 11.0549L4.77195 12.8205C4.71763 12.8749 4.65312 12.9181 4.5821 12.9475C4.51109 12.9769 4.43496 12.9921 4.35809 12.9921C4.28121 12.9921 4.20509 12.9769 4.13407 12.9475C4.06306 12.9181 3.99854 12.8749 3.94422 12.8205L3.21211 12.0875C2.98356 11.8588 2.98356 11.4878 3.21215 11.2589ZM3.21215 15.1652C3.44074 14.9364 3.81129 14.9364 4.03988 15.1652L4.35813 15.4838L5.70789 14.1325C5.93645 13.9038 6.30703 13.9038 6.53559 14.1325C6.76414 14.3613 6.76414 14.7323 6.53559 14.9612L4.77195 16.7268C4.71763 16.7812 4.65312 16.8243 4.5821 16.8537C4.51109 16.8832 4.43496 16.8983 4.35809 16.8983C4.28121 16.8983 4.20509 16.8832 4.13407 16.8537C4.06306 16.8243 3.99854 16.7812 3.94422 16.7268L3.21211 15.9938C2.98356 15.765 2.98356 15.394 3.21215 15.1652Z" fill="#7A7A7A"/>
<path d="M4.10785 1.95312C4.10785 2.16887 4.28254 2.34375 4.49804 2.34375H11.5215C11.737 2.34375 11.9117 2.16887 11.9117 1.95312V0.390625C11.9117 0.174883 11.737 0 11.5215 0H4.49804C4.28254 0 4.10785 0.174883 4.10785 0.390625V1.95312Z" fill="#7A7A7A"/>
</svg>
