<svg width="20" height="20" viewBox="0 0 20 20" fill="none" xmlns="http://www.w3.org/2000/svg">
<path d="M13.5806 4.3177L4.95174 0.444336L3.14447 4.31777L8.77143 5.81137L13.5806 4.3177Z" fill="#B3B3B3"/>
<path d="M16.25 4.3177L7.62117 0.444336L5.81391 4.31777L11.7834 6.03043L16.25 4.3177Z" fill="#D9D9D9"/>
<path d="M2.85488 19.557H18.1671C19.1794 19.557 20 18.7363 20 17.724V6.15129C20 5.13898 19.1794 4.31836 18.1671 4.31836H2.85488C1.84258 4.31836 1.02195 5.13898 1.02195 6.15129V17.724C1.02195 18.7363 1.84258 19.557 2.85488 19.557Z" fill="#B3B3B3"/>
<path d="M6.69576 14.8119H1.06271C0.475878 14.8119 0.000175476 14.3362 0.000175476 13.7494V10.1241C0.000175476 9.53723 0.475878 9.06152 1.06271 9.06152H6.69576C7.2826 9.06152 7.7583 9.53723 7.7583 10.1241V13.7494C7.7583 14.3362 7.2826 14.8119 6.69576 14.8119Z" fill="#D9D9D9"/>
<path d="M4.49643 13.3655C3.70782 13.3655 3.06854 12.7263 3.06854 11.9377C3.06854 11.1491 3.70782 10.5098 4.49643 10.5098C5.28503 10.5098 5.92432 11.1491 5.92432 11.9377C5.92432 12.7263 5.28503 13.3655 4.49643 13.3655Z" fill="#B3B3B3"/>
</svg>
