<svg width="24" height="24" viewBox="0 0 24 24" fill="none" xmlns="http://www.w3.org/2000/svg">
<g clip-path="url(#clip0_470_4824)">
<path d="M16.7684 6.74995C16.7533 6.74995 16.7361 6.75075 16.7199 6.75198C16.9515 2.92918 17.7114 -0.000577272 11.9998 8.53185e-08C6.31479 0.000552344 7.05103 2.92918 7.28257 6.75198C7.26638 6.75075 7.25062 6.74995 7.23558 6.74995C6.99585 6.74995 6.61033 6.96608 6.66415 7.86576C6.72414 8.86876 7.3383 10.1691 7.75935 10.236C8.50075 12.9609 10.0414 14.2412 11.9998 14.2412C13.9533 14.2412 15.5014 12.9609 16.2428 10.236C16.6638 10.1691 17.2806 8.86876 17.3405 7.86576C17.3944 6.96608 17.0081 6.74995 16.7684 6.74995Z" fill="#7A7A7A"/>
<path d="M16.0763 13.7368C15.0956 15.9739 13.6334 16.8797 11.9997 16.8797C10.3661 16.8797 8.90395 15.9739 7.92321 13.7368C4.22888 14.5539 1.64062 16.4475 1.64062 18.6534C1.64062 21.6063 6.27859 24.0001 11.9998 24.0001C17.721 24.0001 22.3589 21.6063 22.3589 18.6534C22.3589 16.4475 19.7706 14.5539 16.0763 13.7368Z" fill="#7A7A7A"/>
</g>
<defs>
<clipPath id="clip0_470_4824">
<rect width="24" height="24" fill="white"/>
</clipPath>
</defs>
</svg>
