<svg width="24" height="24" viewBox="0 0 24 24" fill="none" xmlns="http://www.w3.org/2000/svg">
<path d="M20.2031 5.70844V18.1978C20.2031 19.2778 19.3247 20.1562 18.2447 20.1562H5.75531C4.67531 20.1562 3.79688 19.2778 3.79688 18.1978V5.70844C3.79688 4.62844 4.67531 3.75 5.75531 3.75H18.2447C19.3247 3.75 20.2031 4.62844 20.2031 5.70844V5.70844Z" fill="white"/>
<path d="M23.2505 12.7031H0.75048C-0.179707 12.7031 -0.179988 11.2969 0.75048 11.2969H23.2505C24.1807 11.2969 24.1809 12.7031 23.2505 12.7031Z" fill="#7A7A7A"/>
<path d="M22.5942 5.95312V2.59411C22.5942 1.93913 22.0613 1.40625 21.4064 1.40625H18.0473C17.1177 1.40625 17.1164 0 18.0473 0H21.4064C22.8367 0 24.0004 1.16372 24.0004 2.59411V5.95312C24.0004 6.88275 22.5942 6.88406 22.5942 5.95312Z" fill="#7A7A7A"/>
<path d="M21.4064 24.0004H18.0473C17.1177 24.0004 17.1164 22.5942 18.0473 22.5942H21.4064C22.0614 22.5942 22.5942 22.0613 22.5942 21.4063V18.0473C22.5942 17.1177 24.0004 17.1164 24.0004 18.0473V21.4063C24.0004 22.8367 22.8367 24.0004 21.4064 24.0004V24.0004Z" fill="#7A7A7A"/>
<path d="M0 5.95312V2.59411C0 1.16372 1.16372 0 2.59406 0H5.95312C6.88275 0 6.88406 1.40625 5.95312 1.40625H2.59406C1.93913 1.40625 1.40625 1.93913 1.40625 2.59411V5.95312C1.40625 6.88275 0 6.88406 0 5.95312H0Z" fill="#7A7A7A"/>
<path d="M5.95312 24.0004H2.59406C1.16372 24.0004 0 22.8367 0 21.4063V18.0473C0 17.1177 1.40625 17.1164 1.40625 18.0473V21.4063C1.40625 22.0613 1.93913 22.5942 2.59406 22.5942H5.95312C6.88275 22.5942 6.88406 24.0004 5.95312 24.0004Z" fill="#7A7A7A"/>
</svg>
