<svg width="54" height="54" viewBox="0 0 54 54" fill="none" xmlns="http://www.w3.org/2000/svg">
    <rect width="54" height="54" rx="12" fill="#FDECE8"/>
    <path d="M37.8276 27.1602C38.7667 25.6306 39.1594 23.8278 38.9419 22.0462C38.7652 20.5663 38.1783 19.1653 37.2475 18.0012C36.3168 16.8372 35.0792 15.9564 33.6744 15.4585C32.2696 14.9605 30.7536 14.8651 29.2975 15.1831C27.8413 15.501 26.5031 16.2197 25.4337 17.2579C26.3248 17.8748 27.0413 18.7118 27.5134 19.6873C27.9856 20.6629 28.1975 21.744 28.1285 22.8257C28.0595 23.9073 27.7119 24.9527 27.1196 25.8604C26.5273 26.7681 25.7103 27.5072 24.748 28.0059C26.0028 29.5733 27.8025 30.6098 29.7879 30.9086C31.4544 31.1631 33.1588 30.8831 34.6563 30.1086L35.9705 30.4743C36.254 30.5532 36.553 30.5575 36.8387 30.4871C37.1243 30.4166 37.387 30.2736 37.6013 30.072C37.8155 29.8704 37.9742 29.6169 38.0619 29.336C38.1496 29.0552 38.1634 28.7565 38.1019 28.4687L37.8276 27.1602ZM31.5707 19.2863C31.7402 19.2863 31.9059 19.3366 32.0469 19.4308C32.1878 19.525 32.2977 19.6588 32.3625 19.8154C32.4274 19.972 32.4444 20.1444 32.4113 20.3106C32.3783 20.4769 32.2966 20.6296 32.1768 20.7495C32.0569 20.8694 31.9042 20.951 31.7379 20.9841C31.5716 21.0171 31.3993 21.0002 31.2427 20.9353C31.0861 20.8704 30.9522 20.7606 30.858 20.6196C30.7638 20.4787 30.7136 20.3129 30.7136 20.1434C30.7136 19.9161 30.8039 19.6981 30.9646 19.5374C31.1253 19.3766 31.3434 19.2863 31.5707 19.2863V19.2863ZM32.7135 27.5716H30.4279C30.2763 27.5716 30.131 27.5114 30.0238 27.4043C29.9167 27.2971 29.8565 27.1518 29.8565 27.0002C29.8565 26.8487 29.9167 26.7033 30.0238 26.5962C30.131 26.489 30.2763 26.4288 30.4279 26.4288H30.9993V23.0004H30.7136C30.562 23.0004 30.4167 22.9402 30.3095 22.8331C30.2024 22.7259 30.1422 22.5806 30.1422 22.429C30.1422 22.2775 30.2024 22.1321 30.3095 22.025C30.4167 21.9178 30.562 21.8576 30.7136 21.8576H32.4278C32.5793 21.8576 32.7247 21.9178 32.8318 22.025C32.939 22.1321 32.9992 22.2775 32.9992 22.429C32.9992 22.5806 32.939 22.7259 32.8318 22.8331C32.7247 22.9402 32.5793 23.0004 32.4278 23.0004H32.1421V26.4288H32.7135C32.865 26.4288 33.0104 26.489 33.1175 26.5962C33.2247 26.7033 33.2849 26.8487 33.2849 27.0002C33.2849 27.1518 33.2247 27.2971 33.1175 27.4043C33.0104 27.5114 32.865 27.5716 32.7135 27.5716Z"
          fill="#FBBA00"/>
    <path d="M22.4283 28.7138H21.2855C19.6191 28.7158 18.0215 29.3787 16.8432 30.557C15.6648 31.7353 15.002 33.3329 15 34.9992V37.2848C15 37.7395 15.1806 38.1755 15.5021 38.497C15.8236 38.8184 16.2596 38.999 16.7142 38.999H26.9996C27.4542 38.999 27.8903 38.8184 28.2117 38.497C28.5332 38.1755 28.7138 37.7395 28.7138 37.2848V34.9992C28.7119 33.3329 28.049 31.7353 26.8707 30.557C25.6923 29.3787 24.0947 28.7158 22.4283 28.7138Z"
          fill="#E74111"/>
    <path d="M21.8568 27.5718C24.697 27.5718 26.9995 25.2694 26.9995 22.4292C26.9995 19.589 24.697 17.2866 21.8568 17.2866C19.0166 17.2866 16.7141 19.589 16.7141 22.4292C16.7141 25.2694 19.0166 27.5718 21.8568 27.5718Z"
          fill="#E74111"/>
</svg>
