<svg width="24" height="24" viewBox="0 0 24 24" fill="none" xmlns="http://www.w3.org/2000/svg">
<path d="M23.6243 17.5805L20.004 9.11364C19.3448 7.5637 18.3616 6.68463 17.2397 6.6268C16.1293 6.56896 15.0536 7.34393 14.2324 8.82447L12.0348 12.7688C11.5721 13.6016 10.9128 14.0989 10.1957 14.1568C9.46701 14.2262 8.73833 13.8445 8.14844 13.0926L7.89398 12.7688C7.07277 11.7393 6.05492 11.2419 5.01395 11.346C3.97297 11.4501 3.08236 12.1673 2.49247 13.3355L0.491483 17.326C-0.225634 18.7719 -0.156236 20.449 0.688112 21.8139C1.53246 23.1788 3.00139 24 4.60912 24H19.3679C20.9178 24 22.3636 23.2251 23.2195 21.9296C24.0985 20.6341 24.2373 19.0032 23.6243 17.5805Z" fill="#B3B3B3"/>
<path d="M6.21821 7.81909C8.37734 7.81909 10.1276 6.06874 10.1276 3.90955C10.1276 1.75037 8.37734 0 6.21821 0C4.05908 0 2.30876 1.75037 2.30876 3.90955C2.30876 6.06874 4.05908 7.81909 6.21821 7.81909Z" fill="#B3B3B3"/>
</svg>
