<svg width="24" height="24" viewBox="0 0 24 24" fill="none" xmlns="http://www.w3.org/2000/svg">
<g clip-path="url(#clip0_102_8375)">
<path d="M23.9724 11.3538V18.7214C24.0445 19.3436 23.975 19.974 23.7691 20.5655C23.5632 21.157 23.2262 21.6942 22.7833 22.1371C22.3404 22.58 21.8031 22.917 21.2117 23.1229C20.6202 23.3288 19.9898 23.3983 19.3676 23.3262H4.63239C4.01024 23.3983 3.37984 23.3288 2.78835 23.1229C2.19686 22.917 1.65958 22.58 1.21671 22.1371C0.773842 21.6942 0.436846 21.157 0.230932 20.5655C0.0250179 19.974 -0.044484 19.3436 0.0276253 18.7214V6.44207C-0.044484 5.81992 0.0250179 5.18953 0.230932 4.59803C0.436846 4.00654 0.773842 3.46926 1.21671 3.0264C1.65958 2.58353 2.19686 2.24653 2.78835 2.04062C3.37984 1.8347 4.01024 1.7652 4.63239 1.83731H13.2279C13.4722 1.83731 13.7064 1.93434 13.8791 2.10705C14.0519 2.27976 14.1489 2.51401 14.1489 2.75826C14.1489 3.00251 14.0519 3.23676 13.8791 3.40947C13.7064 3.58219 13.4722 3.67921 13.2279 3.67921H4.63239C2.69593 3.67921 1.86953 4.50562 1.86953 6.44207V17.8005L4.98849 14.6815C5.22033 14.4515 5.53371 14.3224 5.86032 14.3224C6.18694 14.3224 6.50031 14.4515 6.73216 14.6815L7.88641 15.8358C8.00118 15.9483 8.15549 16.0113 8.31619 16.0113C8.4769 16.0113 8.6312 15.9483 8.74597 15.8358L14.812 9.76978C15.0438 9.53972 15.3572 9.41063 15.6838 9.41063C16.0104 9.41063 16.3238 9.53972 16.5556 9.76978L22.1305 15.3446V11.3538C22.1305 11.1096 22.2275 10.8753 22.4002 10.7026C22.5729 10.5299 22.8072 10.4329 23.0514 10.4329C23.2957 10.4329 23.5299 10.5299 23.7026 10.7026C23.8753 10.8753 23.9724 11.1096 23.9724 11.3538ZM7.07966 7.36302C6.67197 7.36416 6.2814 7.52706 5.99372 7.81594C5.70605 8.10483 5.54479 8.49608 5.54536 8.90377C5.54593 9.31146 5.70828 9.70226 5.99676 9.99034C6.28524 10.2784 6.67627 10.4402 7.08396 10.4402C7.49165 10.4402 7.88267 10.2784 8.17116 9.99034C8.45964 9.70226 8.62199 9.31146 8.62256 8.90377C8.62313 8.49608 8.46187 8.10483 8.17419 7.81594C7.88652 7.52706 7.49595 7.36416 7.08826 7.36302H7.07966ZM18.1397 4.90715H19.6746V6.44207C19.6746 6.68632 19.7716 6.92057 19.9443 7.09328C20.1171 7.26599 20.3513 7.36302 20.5956 7.36302C20.8398 7.36302 21.0741 7.26599 21.2468 7.09328C21.4195 6.92057 21.5165 6.68632 21.5165 6.44207V4.90715H23.0514C23.2957 4.90715 23.5299 4.81012 23.7026 4.63741C23.8753 4.4647 23.9724 4.23045 23.9724 3.9862C23.9724 3.74195 23.8753 3.5077 23.7026 3.33499C23.5299 3.16228 23.2957 3.06525 23.0514 3.06525H21.5165V1.53033C21.5165 1.28608 21.4195 1.05183 21.2468 0.879115C21.0741 0.706403 20.8398 0.609375 20.5956 0.609375C20.3513 0.609375 20.1171 0.706403 19.9443 0.879115C19.7716 1.05183 19.6746 1.28608 19.6746 1.53033V3.06525H18.1397C17.8954 3.06525 17.6612 3.16228 17.4885 3.33499C17.3158 3.5077 17.2187 3.74195 17.2187 3.9862C17.2187 4.23045 17.3158 4.4647 17.4885 4.63741C17.6612 4.81012 17.8954 4.90715 18.1397 4.90715Z" fill="#FBBA00"/>
</g>
<defs>
<clipPath id="clip0_102_8375">
<rect width="24" height="24" fill="white"/>
</clipPath>
</defs>
</svg>
