<svg width="48" height="48" viewBox="0 0 48 48" fill="none" xmlns="http://www.w3.org/2000/svg">
<rect width="48" height="48" rx="12" fill="#F2F2F2"/>
<g clip-path="url(#clip0_487_6085)">
<path d="M14.2726 24.0263C14.0576 24.1054 13.9468 24.3438 14.0251 24.5596L14.2868 25.2795L16.2792 23.2871L14.2726 24.0263Z" fill="#666666"/>
<path d="M16.1584 30.4258L17.3583 33.7257C17.3958 33.8298 17.4742 33.9148 17.5742 33.9607C17.63 33.9865 17.69 33.9998 17.75 33.9998C17.7991 33.9998 17.8475 33.9915 17.8941 33.974L19.2183 33.4857L16.1584 30.4258Z" fill="#666666"/>
<path d="M33.9752 27.6077L32.6019 23.832L29.3062 27.1277L30.9395 26.5261C31.1536 26.4444 31.3953 26.5561 31.4744 26.7727C31.5544 26.9886 31.4436 27.2286 31.2278 27.3077L29.1528 28.0727C29.1053 28.0902 29.057 28.0985 29.0087 28.0985C28.8395 28.0985 28.6795 27.9943 28.6179 27.826C28.617 27.8235 28.6179 27.821 28.617 27.8185L25.1247 31.3109L33.7277 28.141C33.9435 28.0619 34.0543 27.8235 33.9752 27.6077Z" fill="#666666"/>
<path d="M33.877 20.7883L27.2106 14.1219C27.0481 13.9594 26.7839 13.9594 26.6214 14.1219L14.1219 26.6214C13.9594 26.7839 13.9594 27.0481 14.1219 27.2106L20.7883 33.877C20.8691 33.9587 20.9758 33.9995 21.0825 33.9995C21.1892 33.9995 21.2958 33.9587 21.3775 33.8779L33.877 21.3783C34.0395 21.215 34.0395 20.9516 33.877 20.7883ZM18.8776 25.5448L17.2109 27.2114C17.1293 27.2922 17.0226 27.3331 16.916 27.3331C16.8093 27.3331 16.7026 27.2923 16.621 27.2114C16.4585 27.0489 16.4585 26.7847 16.621 26.6223L18.2876 24.9556C18.4501 24.7931 18.7142 24.7931 18.8767 24.9556C19.0392 25.1182 19.0401 25.3815 18.8776 25.5448ZM26.0731 26.0739C25.7781 26.3689 25.3773 26.5106 24.9315 26.5106C24.1948 26.5106 23.334 26.1248 22.6141 25.404C22.0874 24.8773 21.7174 24.2473 21.5733 23.6307C21.4133 22.9432 21.545 22.3449 21.9441 21.945C22.3433 21.545 22.9416 21.4133 23.6299 21.5741C24.2465 21.7183 24.8765 22.0874 25.4031 22.6149C26.5606 23.7715 26.8556 25.2915 26.0731 26.0739ZM31.3771 21.3783L29.7105 23.0449C29.6288 23.1257 29.5222 23.1666 29.4155 23.1666C29.3088 23.1666 29.2022 23.1258 29.1205 23.0449C28.958 22.8824 28.958 22.6183 29.1205 22.4558L30.7871 20.7891C30.9496 20.6266 31.2138 20.6266 31.3763 20.7891C31.5388 20.9516 31.5396 21.215 31.3771 21.3783Z" fill="#666666"/>
</g>
<defs>
<clipPath id="clip0_487_6085">
<rect width="20" height="20" fill="white" transform="translate(14 14)"/>
</clipPath>
</defs>
</svg>
