<svg width="64" height="64" viewBox="0 0 64 64" fill="none" xmlns="http://www.w3.org/2000/svg">
<rect width="64" height="64" rx="32" fill="#F5F5F5"/>
<g clip-path="url(#clip0_20_8368)">
<path d="M31.9918 20C28.1193 20 24.9688 23.1505 24.9688 27.023V27.1105C24.9688 28.3384 25.9678 29.3373 27.1955 29.3373C27.5375 29.3373 27.8662 29.2615 28.1724 29.1119C28.9434 28.735 29.4224 27.9682 29.4224 27.1105V27.023C29.4224 25.6063 30.5751 24.4537 31.9918 24.4537C33.4086 24.4537 34.5613 25.6063 34.5613 27.023C34.5613 28.4399 33.4086 29.5925 31.9918 29.5925H31.6532C30.4253 29.5925 29.4265 30.5914 29.4265 31.8193V35.4986C29.4265 36.7265 30.4253 37.7255 31.6532 37.7255C32.8811 37.7255 33.8799 36.7265 33.8799 35.4986V33.7886C36.888 32.9509 39.0148 30.1937 39.0148 27.023C39.015 23.1505 35.8644 20 31.9918 20Z" fill="#EC6707"/>
<path d="M31.6168 38.5708C30.1199 38.5708 28.9022 39.7886 28.9022 41.2855C28.9022 42.7822 30.1201 44.0001 31.6168 44.0001C33.1136 44.0001 34.3313 42.7822 34.3313 41.2855C34.3313 39.7886 33.1136 38.5708 31.6168 38.5708Z" fill="#EC6707"/>
</g>
<defs>
<clipPath id="clip0_20_8368">
<rect width="24" height="24" fill="white" transform="translate(20 20)"/>
</clipPath>
</defs>
</svg>
