<svg width="48" height="48" viewBox="0 0 48 48" fill="none" xmlns="http://www.w3.org/2000/svg">
<rect width="48" height="48" rx="12" fill="#F1F9F1"/>
<g clip-path="url(#clip0_487_6083)">
<path d="M15 22C15.2652 22 15.5196 21.8946 15.7071 21.7071C15.8946 21.5196 16 21.2652 16 21V17C16 16.7348 16.1054 16.4804 16.2929 16.2929C16.4804 16.1054 16.7348 16 17 16H21C21.2652 16 21.5196 15.8946 21.7071 15.7071C21.8946 15.5196 22 15.2652 22 15C22 14.7348 21.8946 14.4804 21.7071 14.2929C21.5196 14.1054 21.2652 14 21 14H17C16.2044 14 15.4413 14.3161 14.8787 14.8787C14.3161 15.4413 14 16.2044 14 17V21C14 21.2652 14.1054 21.5196 14.2929 21.7071C14.4804 21.8946 14.7348 22 15 22Z" fill="#4BAE4F"/>
<path d="M31.0003 14H27.0003C26.7351 14 26.4807 14.1054 26.2932 14.2929C26.1057 14.4804 26.0003 14.7348 26.0003 15C26.0003 15.2652 26.1057 15.5196 26.2932 15.7071C26.4807 15.8946 26.7351 16 27.0003 16H31.0003C31.2655 16 31.5199 16.1054 31.7074 16.2929C31.8949 16.4804 32.0003 16.7348 32.0003 17V21C32.0003 21.2652 32.1057 21.5196 32.2932 21.7071C32.4807 21.8946 32.7351 22 33.0003 22C33.2655 22 33.5199 21.8946 33.7074 21.7071C33.8949 21.5196 34.0003 21.2652 34.0003 21V17C34.0003 16.2044 33.6842 15.4413 33.1216 14.8787C32.559 14.3161 31.796 14 31.0003 14Z" fill="#4BAE4F"/>
<path d="M33.0003 26C32.7351 26 32.4807 26.1054 32.2932 26.2929C32.1057 26.4804 32.0003 26.7348 32.0003 27V31C32.0003 31.2652 31.8949 31.5196 31.7074 31.7071C31.5199 31.8946 31.2655 32 31.0003 32H27.0003C26.7351 32 26.4807 32.1054 26.2932 32.2929C26.1057 32.4804 26.0003 32.7348 26.0003 33C26.0003 33.2652 26.1057 33.5196 26.2932 33.7071C26.4807 33.8946 26.7351 34 27.0003 34H31.0003C31.796 34 32.559 33.6839 33.1216 33.1213C33.6842 32.5587 34.0003 31.7956 34.0003 31V27C34.0003 26.7348 33.8949 26.4804 33.7074 26.2929C33.5199 26.1054 33.2655 26 33.0003 26Z" fill="#4BAE4F"/>
<path d="M21 32H17C16.7348 32 16.4804 31.8946 16.2929 31.7071C16.1054 31.5196 16 31.2652 16 31V27C16 26.7348 15.8946 26.4804 15.7071 26.2929C15.5196 26.1054 15.2652 26 15 26C14.7348 26 14.4804 26.1054 14.2929 26.2929C14.1054 26.4804 14 26.7348 14 27V31C14 31.7956 14.3161 32.5587 14.8787 33.1213C15.4413 33.6839 16.2044 34 17 34H21C21.2652 34 21.5196 33.8946 21.7071 33.7071C21.8946 33.5196 22 33.2652 22 33C22 32.7348 21.8946 32.4804 21.7071 32.2929C21.5196 32.1054 21.2652 32 21 32Z" fill="#4BAE4F"/>
<path d="M28.0005 18H20.0005C18.8959 18 18.0005 18.8954 18.0005 20V28C18.0005 29.1046 18.8959 30 20.0005 30H28.0005C29.1051 30 30.0005 29.1046 30.0005 28V20C30.0005 18.8954 29.1051 18 28.0005 18Z" fill="#4BAE4F"/>
</g>
<defs>
<clipPath id="clip0_487_6083">
<rect width="20" height="20" fill="white" transform="translate(14 14)"/>
</clipPath>
</defs>
</svg>
