<svg width="40" height="40" viewBox="0 0 40 40" fill="none" xmlns="http://www.w3.org/2000/svg">
<rect width="40" height="40" rx="8" fill="#FDECE8"/>
<g clip-path="url(#clip0_2179_12030)">
<path d="M20 11.457C19.586 11.457 19.25 11.121 19.25 10.707V8.75C19.25 8.336 19.586 8 20 8C20.414 8 20.75 8.336 20.75 8.75V10.707C20.75 11.121 20.414 11.457 20 11.457Z" fill="#FBBA00"/>
<path d="M26.571 14.1787C26.379 14.1787 26.187 14.1057 26.041 13.9587C25.748 13.6657 25.748 13.1907 26.041 12.8977L27.425 11.5137C27.718 11.2207 28.193 11.2207 28.486 11.5137C28.779 11.8067 28.779 12.2817 28.486 12.5747L27.102 13.9587C26.955 14.1047 26.763 14.1787 26.571 14.1787Z" fill="#FBBA00"/>
<path d="M31.25 20.75H29.293C28.879 20.75 28.543 20.414 28.543 20C28.543 19.586 28.879 19.25 29.293 19.25H31.25C31.664 19.25 32 19.586 32 20C32 20.414 31.664 20.75 31.25 20.75Z" fill="#FBBA00"/>
<path d="M27.955 28.7051C27.763 28.7051 27.571 28.6321 27.425 28.4851L26.041 27.1011C25.748 26.8081 25.748 26.3331 26.041 26.0401C26.334 25.7471 26.809 25.7471 27.102 26.0401L28.486 27.4241C28.779 27.7171 28.779 28.1921 28.486 28.4851C28.339 28.6321 28.147 28.7051 27.955 28.7051Z" fill="#FBBA00"/>
<path d="M12.0452 28.7051C11.8532 28.7051 11.6612 28.6321 11.5152 28.4851C11.2222 28.1921 11.2222 27.7171 11.5152 27.4241L12.8992 26.0401C13.1922 25.7471 13.6672 25.7471 13.9602 26.0401C14.2532 26.3331 14.2532 26.8081 13.9602 27.1011L12.5762 28.4851C12.4292 28.6321 12.2372 28.7051 12.0452 28.7051Z" fill="#FBBA00"/>
<path d="M10.707 20.75H8.75C8.336 20.75 8 20.414 8 20C8 19.586 8.336 19.25 8.75 19.25H10.707C11.121 19.25 11.457 19.586 11.457 20C11.457 20.414 11.121 20.75 10.707 20.75Z" fill="#FBBA00"/>
<path d="M13.4292 14.1787C13.2372 14.1787 13.0452 14.1057 12.8992 13.9587L11.5152 12.5747C11.2222 12.2817 11.2222 11.8067 11.5152 11.5137C11.8082 11.2207 12.2832 11.2207 12.5762 11.5137L13.9602 12.8977C14.2532 13.1907 14.2532 13.6657 13.9602 13.9587C13.8122 14.1047 13.6212 14.1787 13.4292 14.1787Z" fill="#FBBA00"/>
<path d="M23 29V30.25C23 31.21 22.21 32 21.25 32H18.75C17.91 32 17 31.36 17 29.96V29H23Z" fill="#E74111"/>
<path d="M24.4098 14.5596C22.7698 13.2296 20.6098 12.7096 18.4998 13.1596C15.8498 13.7096 13.6998 15.8696 13.1498 18.5196C12.5898 21.2396 13.6098 23.9396 15.7898 25.5896C16.3798 26.0296 16.7898 26.7096 16.9298 27.4996V27.5096C16.9498 27.4996 16.9798 27.4996 16.9998 27.4996H22.9998C23.0198 27.4996 23.0298 27.4996 23.0498 27.5096V27.4996C23.1898 26.7396 23.6398 26.0396 24.3298 25.4996C26.0198 24.1596 26.9998 22.1596 26.9998 19.9996C26.9998 17.8796 26.0598 15.8996 24.4098 14.5596ZM23.7498 20.4996C23.3398 20.4996 22.9998 20.1596 22.9998 19.7496C22.9998 18.2296 21.7698 16.9996 20.2498 16.9996C19.8398 16.9996 19.4998 16.6596 19.4998 16.2496C19.4998 15.8396 19.8398 15.4996 20.2498 15.4996C22.5898 15.4996 24.4998 17.4096 24.4998 19.7496C24.4998 20.1596 24.1598 20.4996 23.7498 20.4996Z" fill="#E74111"/>
<path d="M16.9302 27.5H17.0002C16.9802 27.5 16.9502 27.5 16.9302 27.51V27.5Z" fill="#E74111"/>
<path d="M23.05 27.5V27.51C23.03 27.5 23.02 27.5 23 27.5H23.05Z" fill="#E74111"/>
</g>
<defs>
<clipPath id="clip0_2179_12030">
<rect width="24" height="24" fill="white" transform="translate(8 8)"/>
</clipPath>
</defs>
</svg>
