<svg width="20" height="20" viewBox="0 0 20 20" fill="none" xmlns="http://www.w3.org/2000/svg">
<path d="M7.43641 17.4364C9.91059 17.4364 12.2156 16.2109 13.6023 14.1584C13.8834 13.7424 13.7739 13.1773 13.3579 12.8962C12.9417 12.6152 12.3768 12.7245 12.0957 13.1406C11.0475 14.692 9.30578 15.6183 7.43641 15.6183C4.33851 15.6183 1.81816 13.0979 1.81816 10C1.81816 6.90208 4.33851 4.38176 7.43641 4.38176C9.31133 4.38176 11.0559 5.31219 12.1032 6.87067C12.3834 7.28747 12.9482 7.39817 13.3649 7.11813C13.7816 6.83805 13.8923 6.27321 13.6123 5.85649C12.2266 3.79461 9.91785 2.5636 7.43641 2.5636C3.33601 2.5636 -8.58307e-06 5.89954 -8.58307e-06 10C-8.58307e-06 14.1004 3.33601 17.4364 7.43641 17.4364Z" fill="#EC6707"/>
<path d="M6.36375 9.09084H16.8962L15.7208 7.91549C15.3657 7.56045 15.3657 6.98487 15.7208 6.62987C16.0757 6.27491 16.6514 6.27491 17.0064 6.62987L19.7337 9.35709C19.735 9.35842 19.7361 9.35987 19.7375 9.3612C19.7569 9.38088 19.7756 9.40139 19.7933 9.42284C19.7988 9.42944 19.8034 9.43655 19.8086 9.44327C19.8216 9.45998 19.8346 9.47678 19.8464 9.4944C19.8503 9.50034 19.8537 9.50663 19.8575 9.51264C19.8696 9.53174 19.8816 9.55088 19.8924 9.57088C19.8948 9.57526 19.8965 9.57991 19.8989 9.58432C19.9102 9.60627 19.9211 9.62846 19.9305 9.65135C19.9318 9.65444 19.9327 9.65772 19.9341 9.66088C19.9438 9.68514 19.953 9.70975 19.9606 9.73502C19.9616 9.73842 19.9622 9.74186 19.9632 9.74526C19.9705 9.77018 19.9771 9.79526 19.9822 9.821C19.9837 9.82877 19.9845 9.8367 19.9858 9.84452C19.9896 9.86592 19.9933 9.88729 19.9955 9.90916C19.9984 9.9392 20 9.96952 20 9.99995C20 10.0304 19.9984 10.0607 19.9955 10.0907C19.9932 10.1129 19.9894 10.1346 19.9857 10.1562C19.9843 10.1637 19.9838 10.1714 19.9822 10.1789C19.977 10.205 19.9703 10.2305 19.963 10.2558C19.9621 10.2587 19.9616 10.2619 19.9606 10.2649C19.9528 10.2905 19.9436 10.3155 19.9336 10.3403C19.9325 10.3429 19.9318 10.3458 19.9307 10.3484C19.9209 10.3719 19.9098 10.3946 19.8982 10.4169C19.8963 10.4208 19.8945 10.4249 19.8925 10.4289C19.8814 10.4496 19.869 10.4694 19.8564 10.4891C19.853 10.4945 19.8501 10.5001 19.8466 10.5053C19.8341 10.524 19.8204 10.5419 19.8064 10.5596C19.802 10.5653 19.7981 10.5712 19.7935 10.5768C19.7746 10.5998 19.7546 10.6219 19.7337 10.6429L17.0066 13.37C16.8291 13.5475 16.5964 13.6363 16.3637 13.6363C16.1311 13.6363 15.8984 13.5475 15.7209 13.37C15.3659 13.0149 15.3659 12.4394 15.7209 12.0844L16.8963 10.909H6.36387C5.8618 10.909 5.45477 10.502 5.45477 9.99991C5.45477 9.49784 5.86168 9.09084 6.36375 9.09084Z" fill="#EC6707"/>
</svg>
