<svg width="156" height="40" viewBox="0 0 156 40" fill="none" xmlns="http://www.w3.org/2000/svg">
    <path opacity="0.25"
        d="M151.737 30.4628C150.511 35.6565 147.401 39.8362 142.052 39.8362H14.1858C8.8369 39.8362 5.59933 35.4706 4.50062 30.4628L0.622437 11.7161C0.622437 6.53877 4.9587 2.34277 10.3076 2.34277H145.924C151.276 2.34277 155.612 6.53877 155.612 11.7161L151.737 30.4628Z"
        fill="#DEA200" />
    <path
        d="M151.115 28.1201C149.889 33.3137 146.779 37.4934 141.43 37.4934H13.5633C8.21446 37.4934 4.97689 33.1279 3.87819 28.1201L0 9.37335C0 4.196 4.33627 0 9.68514 0H145.301C150.654 0 154.99 4.196 154.99 9.37335L151.115 28.1201Z"
        fill="#D79D01" />
    <path
        d="M149.937 27.5339C148.73 32.4029 145.671 36.3214 140.404 36.3214H14.5855C9.32238 36.3214 6.13552 32.2271 5.05599 27.5339L1.24487 9.9589C1.24487 5.10624 5.51125 1.17139 10.7744 1.17139H144.215C149.478 1.17139 153.745 5.10624 153.745 9.9589L149.937 27.5339Z"
        fill="#ECAC00" />
    <path
        d="M148.768 26.9478C147.586 31.4948 144.587 35.1495 139.432 35.1495H16.1835C11.0258 35.1495 7.90571 31.3308 6.84737 26.9478L3.11224 10.5445C3.11224 6.01385 7.29064 2.34277 12.4483 2.34277H143.164C148.322 2.34277 152.5 6.01385 152.5 10.5445L148.768 26.9478Z"
        fill="#FFBA00" />
    <path
        d="M146.418 8.78695H9.08749C5.10215 8.78695 4.60182 6.88601 5.17806 5.56486C5.7543 4.24688 8.68723 2.34277 11.5339 2.34277H143.344C147.484 2.34277 149.899 4.56053 150.331 5.56486C150.762 6.56919 151.473 8.78695 146.418 8.78695Z"
        fill="url(#paint0_linear_11_13591)" />
    <path
        d="M12.7672 2.63721C8.79165 2.74158 7.95037 3.26976 6.34054 4.29764C4.00961 5.78729 3.59214 9.29159 5.84084 8.06761C7.58034 7.11879 8.00098 4.13951 15.038 3.9023C21.7588 3.67458 66.1477 3.68724 70.1486 3.50696C71.0183 3.46901 71.3346 2.52019 69.905 2.53284C65.2685 2.57396 17.8434 2.50121 12.7672 2.63721Z"
        fill="white" fill-opacity="0.5" />


    <defs>
        <linearGradient id="paint0_linear_11_13591" x1="59.3252" y1="2.34277" x2="59.3252"
            y2="10.1049" gradientUnits="userSpaceOnUse">
            <stop stop-color="#FFCF4E" />
            <stop offset="1" stop-color="#FFBA00" stop-opacity="0.22" />
        </linearGradient>
    </defs>
</svg>
