<svg width="24" height="24" viewBox="0 0 24 24" fill="none" xmlns="http://www.w3.org/2000/svg">
<path d="M8.15744 9.47871C8.39869 10.1012 8.7497 10.6753 9.19378 11.1738C9.52219 11.5775 9.93355 11.9059 10.4 12.1367C10.8664 12.3675 11.377 12.4953 11.8972 12.5115C12.4173 12.5277 12.9349 12.4319 13.4148 12.2306C13.8947 12.0293 14.3257 11.7271 14.6786 11.3447C14.7282 11.2923 14.7751 11.2399 14.8192 11.1848C15.2682 10.6844 15.6222 10.1062 15.8638 9.47871C16.2344 9.36661 16.5593 9.13844 16.7905 8.82783C17.0217 8.51721 17.1471 8.14056 17.1481 7.75333V6.67014C17.1485 6.45789 17.0868 6.25016 16.9708 6.07244C16.8548 5.89472 16.6894 5.75472 16.4949 5.66964V3.83678C16.499 3.28468 16.3729 2.7394 16.1267 2.24519C15.8806 1.75097 15.5214 1.32176 15.0783 0.992377C14.1939 0.333733 13.1158 -0.0123853 12.0134 0.00842333C11.9603 0.00210113 11.9069 -0.000667666 11.8535 0.00013546C10.8042 0.0227996 9.78759 0.369377 8.94295 0.992377C8.50056 1.32206 8.14221 1.75148 7.897 2.24572C7.6518 2.73996 7.52667 3.28508 7.53177 3.83678V5.66964C7.33633 5.75394 7.16983 5.89359 7.05278 6.07137C6.93573 6.24915 6.87325 6.45729 6.87305 6.67014V7.75332C6.87411 8.14056 6.99948 8.51721 7.23071 8.82783C7.46194 9.13844 7.78679 9.3666 8.15744 9.47871Z" fill="#7A7A7A"/>
<path d="M20.7652 16.5826C20.7191 16.2965 20.6058 16.0253 20.4347 15.7913C20.2637 15.5574 20.0396 15.3672 19.781 15.2364L15.7838 13.21L13.2342 19.9739L12.5828 15.8713L13.0129 14.947H11.008L11.4381 15.8713L10.7867 19.9739L8.23708 13.21L4.23993 15.2364C3.98126 15.3672 3.75723 15.5574 3.58616 15.7913C3.41508 16.0253 3.30182 16.2965 3.25565 16.5826L2.0625 24H21.9584L20.7652 16.5826Z" fill="#7A7A7A"/>
</svg>
