<svg width="41" height="40" viewBox="0 0 41 40" fill="none" xmlns="http://www.w3.org/2000/svg">
<g clip-path="url(#clip0_2031_14457)">
<path d="M10.7461 16.7408H13.823L27.0076 9.1254C27.0954 9.07454 27.1924 9.04155 27.293 9.02833C27.3936 9.01511 27.4958 9.02193 27.5938 9.04838C27.6917 9.07484 27.7835 9.12041 27.8638 9.18247C27.944 9.24454 28.0112 9.32187 28.0615 9.41001C28.2129 9.67278 28.4146 9.90313 28.6551 10.0879C28.8956 10.2727 29.1701 10.4082 29.463 10.4868C29.7559 10.5654 30.0615 10.5855 30.3621 10.5459C30.6628 10.5063 30.9527 10.4079 31.2153 10.2562C31.3031 10.2053 31.4001 10.1723 31.5007 10.1591C31.6013 10.1459 31.7035 10.1527 31.8015 10.1792C31.8994 10.2056 31.9912 10.2512 32.0715 10.3132C32.1517 10.3753 32.2189 10.4526 32.2692 10.5408L35.8384 16.7408H37.6076L32.0384 7.10232C31.7314 6.57502 31.228 6.19078 30.6384 6.03365C30.0488 5.87652 29.421 5.95929 28.8922 6.26386L10.7461 16.7408Z" fill="#FBBA00"/>
<path d="M27.1691 10.8101L16.8999 16.7408H34.0537C34.1307 16.7408 34.0537 16.7408 31.2691 11.9101C30.5532 12.1493 29.7827 12.1725 29.0536 11.9769C28.3246 11.7813 27.6692 11.3755 27.1691 10.8101Z" fill="#FBBA00"/>
<path d="M13.654 4.85623C13.7042 4.76808 13.7714 4.69075 13.8517 4.62869C13.932 4.56662 14.0237 4.52105 14.1217 4.4946C14.2196 4.46814 14.3218 4.46133 14.4224 4.47454C14.523 4.48776 14.62 4.52075 14.7078 4.57161C14.9707 4.72451 15.2613 4.82393 15.5628 4.86414C15.8643 4.90435 16.1707 4.88458 16.4645 4.80594C16.7583 4.7273 17.0337 4.59136 17.2748 4.40594C17.5159 4.22051 17.7179 3.98925 17.8694 3.72546C17.9708 3.54951 18.1378 3.42084 18.3338 3.36752C18.5298 3.3142 18.7389 3.34056 18.9155 3.44084L24.8001 6.84854C24.8847 6.84854 24.5386 7.00238 26.3386 5.95623C16.0694 0.0331516 16.4847 0.0254595 15.2617 0.340844C14.0386 0.656229 14.4924 0.340845 5.00781 16.7408H6.78474L13.654 4.85623Z" fill="#FBBA00"/>
<path d="M14.6461 6.22537L9.03076 15.9715L23.2692 7.73306L18.7461 5.11768C18.247 5.68446 17.592 6.09175 16.8629 6.28873C16.1338 6.48572 15.3628 6.46368 14.6461 6.22537Z" fill="#FBBA00"/>
<path d="M38.8077 18.3715C38.6615 18.2254 32.5462 18.2792 2.80769 18.2792C2.19565 18.2792 1.60868 18.5224 1.17591 18.9551C0.743131 19.3879 0.5 19.9749 0.5 20.5869V37.51C0.5 38.122 0.743131 38.709 1.17591 39.1418C1.60868 39.5746 2.19565 39.8177 2.80769 39.8177H38.1923C38.8043 39.8177 39.3913 39.5746 39.8241 39.1418C40.2569 38.709 40.5 38.122 40.5 37.51V20.5869C40.4981 20.0836 40.3317 19.5948 40.0262 19.1948C39.7207 18.7948 39.2928 18.5057 38.8077 18.3715ZM38.9615 34.4331C38.9615 34.6371 38.8805 34.8327 38.7362 34.977C38.592 35.1213 38.3963 35.2023 38.1923 35.2023C37.5803 35.2023 36.9933 35.4454 36.5605 35.8782C36.1277 36.311 35.8846 36.898 35.8846 37.51C35.8846 37.714 35.8036 37.9097 35.6593 38.0539C35.5151 38.1982 35.3194 38.2792 35.1154 38.2792H5.88462C5.6806 38.2792 5.48495 38.1982 5.34069 38.0539C5.19643 37.9097 5.11538 37.714 5.11538 37.51C5.11538 36.898 4.87225 36.311 4.43948 35.8782C4.0067 35.4454 3.41973 35.2023 2.80769 35.2023C2.60368 35.2023 2.40802 35.1213 2.26376 34.977C2.11951 34.8327 2.03846 34.6371 2.03846 34.4331V23.6638C2.03846 23.4598 2.11951 23.2642 2.26376 23.1199C2.40802 22.9757 2.60368 22.8946 2.80769 22.8946C3.41973 22.8946 4.0067 22.6515 4.43948 22.2187C4.87225 21.7859 5.11538 21.199 5.11538 20.5869C5.11538 20.3829 5.19643 20.1872 5.34069 20.043C5.48495 19.8987 5.6806 19.8177 5.88462 19.8177H35.1154C35.3194 19.8177 35.5151 19.8987 35.6593 20.043C35.8036 20.1872 35.8846 20.3829 35.8846 20.5869C35.8846 21.199 36.1277 21.7859 36.5605 22.2187C36.9933 22.6515 37.5803 22.8946 38.1923 22.8946C38.3963 22.8946 38.592 22.9757 38.7362 23.1199C38.8805 23.2642 38.9615 23.4598 38.9615 23.6638V34.4331Z" fill="#FBBA00"/>
<path d="M34.4233 21.3562H6.57715C6.4264 22.0953 6.06163 22.7738 5.52821 23.3073C4.9948 23.8407 4.3163 24.2055 3.57715 24.3562V33.7408C4.3163 33.8916 4.9948 34.2563 5.52821 34.7898C6.06163 35.3232 6.4264 36.0017 6.57715 36.7408H34.4233C34.574 36.0017 34.9388 35.3232 35.4722 34.7898C36.0057 34.2563 36.6842 33.8916 37.4233 33.7408V24.3562C36.6842 24.2055 36.0057 23.8407 35.4722 23.3073C34.9388 22.7738 34.574 22.0953 34.4233 21.3562ZM20.5002 35.2024C17.531 35.2024 15.1156 32.4408 15.1156 29.0485C15.1156 25.6562 17.531 22.8947 20.5002 22.8947C23.4695 22.8947 25.8848 25.6562 25.8848 29.0485C25.8848 32.4408 23.4695 35.2024 20.5002 35.2024Z" fill="#FBBA00"/>
<path d="M20.5 33.6639C22.6241 33.6639 24.3461 31.5975 24.3461 29.0485C24.3461 26.4995 22.6241 24.4331 20.5 24.4331C18.3758 24.4331 16.6538 26.4995 16.6538 29.0485C16.6538 31.5975 18.3758 33.6639 20.5 33.6639Z" fill="#FBBA00"/>
</g>
<defs>
<clipPath id="clip0_2031_14457">
<rect width="40" height="40" fill="white" transform="translate(0.5)"/>
</clipPath>
</defs>
</svg>
