<svg width="198" height="184" viewBox="0 0 198 184" fill="none" xmlns="http://www.w3.org/2000/svg">
<g clip-path="url(#clip0_53_5048)">
<path d="M139.444 173.818C139.444 173.818 133.464 135.023 178.311 93.2461C178.311 93.2461 206.715 161.139 139.444 173.818Z" fill="#EC6707"/>
<path d="M198.005 125.872C195.663 156.69 173.508 178.315 140.264 173.221C139.908 173.185 139.542 173.139 139.181 173.087C149.851 153.517 173.91 130.893 198.005 125.872Z" fill="#FBE1CD"/>
<path d="M184.348 142.393C186.928 142.712 192.087 142.084 195.064 140.554C194.92 141.008 194.765 141.466 194.605 141.929C191.324 143.686 186.443 143.716 183.254 143.474C180.04 146.564 176.784 149.392 173.575 151.998C176.299 153.203 184.023 155.479 188.156 154.902C187.898 155.278 187.64 155.649 187.351 156.025C182.527 156.7 174.189 153.491 172.543 152.832C169.024 155.639 165.567 158.167 162.296 160.403C163.601 161.778 169.003 165.347 174.999 167.417C174.612 167.649 174.214 167.875 173.812 168.097C169.213 166.627 164.961 164.239 161.315 161.077C157.771 163.472 154.463 165.516 151.543 167.226L159.401 172.613C159.465 172.657 159.519 172.714 159.561 172.779C159.603 172.845 159.631 172.918 159.644 172.994C159.184 173.066 158.72 173.144 158.245 173.211L150.429 167.865C145.511 170.697 141.843 172.474 140.264 173.216C139.908 173.18 139.542 173.133 139.181 173.082C139.181 173.082 139.341 172.783 139.65 172.232C141.126 171.552 144.851 169.75 149.902 166.845V157.719C150.207 157.349 150.527 156.978 150.847 156.602C150.911 156.655 150.963 156.722 150.999 156.798C151.035 156.873 151.053 156.956 151.053 157.04V166.176C153.963 164.471 157.244 162.421 160.799 160.027V146.307C161.135 146.003 161.465 145.704 161.806 145.411C161.901 145.514 161.953 145.651 161.95 145.792V159.244C165.123 157.055 168.472 154.609 171.887 151.874V137.583C172.228 137.341 172.589 137.104 172.945 136.877C173.203 137.119 172.945 150.638 173.033 150.942C176.165 148.393 179.338 145.622 182.465 142.62L182.238 131.578C182.599 131.398 182.96 131.223 183.326 131.063C183.466 131.243 183.543 141.317 183.589 141.538C188.502 136.753 193.025 131.587 197.118 126.088C197.412 126.006 197.706 125.933 198.005 125.861C198.005 125.861 198.005 126.242 197.923 126.933C193.81 132.432 189.271 137.602 184.348 142.393Z" fill="#EC6707"/>
<path d="M121.245 12.612L48.7783 128.616L104.967 163.587L177.434 47.5825L121.245 12.612Z" fill="#EC6707"/>
<path d="M122.214 17.0512L52.4668 128.29L103.586 160.223L173.334 48.9845L122.214 17.0512Z" fill="#FBE1CD"/>
<path d="M121.163 13.3027L130.966 19.4416C130.159 20.7326 129.105 21.8521 127.864 22.7357C126.622 23.6193 125.218 24.2497 123.733 24.5908C122.247 24.9319 120.708 24.977 119.205 24.7235C117.701 24.47 116.263 23.9229 114.972 23.1135L121.163 13.3027Z" fill="#58C990"/>
<path d="M48.6191 128.982L58.4482 135.121C59.2598 133.833 59.8085 132.397 60.0628 130.896C60.3171 129.396 60.2721 127.86 59.9303 126.376C59.5885 124.893 58.9567 123.492 58.0711 122.253C57.1854 121.014 56.0634 119.961 54.7694 119.156L48.6191 128.982Z" fill="#58C990"/>
<path d="M177.197 48.3076L171.046 58.1184C169.753 57.3123 168.633 56.2596 167.748 55.0205C166.863 53.7814 166.231 52.3803 165.89 50.8974C165.548 49.4145 165.503 47.8789 165.756 46.3785C166.01 44.878 166.557 43.4423 167.368 42.1533L177.197 48.3076Z" fill="#EC6707"/>
<path d="M104.652 163.993L94.8486 157.854C95.6562 156.563 96.7109 155.444 97.9523 154.561C99.1937 153.678 100.597 153.048 102.083 152.707C103.569 152.365 105.107 152.32 106.61 152.573C108.114 152.826 109.552 153.373 110.843 154.182L104.652 163.993Z" fill="#58C990"/>
<path d="M128.041 64.643C133.52 68.1811 138.958 59.493 133.376 56.1352C127.896 52.5971 122.458 61.2594 128.041 64.643Z" fill="#EC6707"/>
<path d="M91.7377 122.544C97.2172 126.077 102.655 117.394 97.0727 114.031C91.5932 110.488 86.1601 119.156 91.7377 122.544Z" fill="#58C990"/>
<path d="M102.232 80.5101C102.384 80.3628 102.585 80.2779 102.796 80.2722C103.008 80.2664 103.213 80.3403 103.372 80.4792C104.017 80.7109 104.858 81.8388 105.503 81.2156C106.401 80.1631 107.443 79.2424 108.599 78.481C109.853 77.693 110.72 79.8869 111.54 80.577C112.01 81.2311 110.972 81.4989 110.586 81.8336C106.215 84.0584 105.901 91.3406 111.829 87.169C115.699 83.1778 123.041 83.7597 122.943 90.3569C123.041 91.2118 122.184 92.4169 123.03 93.0195C125.249 94.1731 125.187 94.6469 123.691 96.5627C123.129 97.4433 122.205 96.3361 121.555 96.0786C120.244 95.3833 119.527 97.7575 118.34 98.1952C117.087 99.3334 116.277 97.2167 115.436 96.5112C114.311 95.6048 118.077 94.034 118.392 92.5869C119.46 91.289 118.908 88.8479 116.88 89.4556C114.992 90.1303 113.552 91.6753 111.762 92.5457C107.634 94.9971 102.253 91.1243 103.166 86.4171C104.611 82.6267 98.7391 84.7743 102.232 80.5101Z" fill="#E5FFB6"/>
<path d="M83.5833 -0.00666656L45.8496 131.169L109.387 149.378L147.121 18.2026L83.5833 -0.00666656Z" fill="#EC6707"/>
<path d="M85.645 3.31667L49.3623 129.448L107.326 146.06L143.609 19.9284L85.645 3.31667Z" fill="#FBE1CD"/>
<path d="M83.5905 0L94.7353 3.19301C94.3153 4.65392 93.6112 6.01795 92.663 7.2072C91.7149 8.39645 90.5413 9.38762 89.2093 10.1241C87.8773 10.8606 86.4131 11.328 84.9001 11.4995C83.3871 11.6711 81.8552 11.5435 80.3916 11.124L83.5905 0Z" fill="#58C990"/>
<path d="M45.8584 131.172L56.9774 134.39C57.3984 132.93 57.527 131.401 57.3557 129.891C57.1845 128.381 56.7168 126.919 55.9794 125.589C55.2419 124.26 54.2492 123.088 53.058 122.142C51.8667 121.195 50.5002 120.492 49.0367 120.073L45.8584 131.172Z" fill="#58C990"/>
<path d="M147.131 18.2106L143.932 29.3346C142.469 28.9155 141.102 28.2126 139.911 27.2662C138.719 26.3198 137.726 25.1484 136.988 23.8189C136.25 22.4894 135.782 21.0279 135.61 19.5177C135.438 18.0076 135.566 16.4784 135.986 15.0176L147.131 18.2106Z" fill="#EC6707"/>
<path d="M109.394 149.381L98.249 146.188C99.0983 143.239 101.087 140.747 103.776 139.26C106.466 137.774 109.638 137.415 112.593 138.262L109.394 149.381Z" fill="#58C990"/>
<path d="M104.4 47.4526C110.648 49.3427 113.475 39.5061 107.175 37.8015C100.932 35.9166 98.1048 45.748 104.4 47.4526Z" fill="#EC6707"/>
<path d="M85.5157 113.094C91.764 114.984 94.5915 105.148 88.2916 103.443C82.0485 101.553 79.221 111.39 85.5157 113.094Z" fill="#58C990"/>
<path d="M83.9825 69.8139C84.7616 68.547 86.5623 70.6791 87.3208 69.5924C88.9564 66.8063 89.3124 64.3034 92.6662 67.1101C93.0118 67.3367 93.3678 67.6251 93.0067 68.0371C90.7777 69.6954 88.2547 77.0342 93.3421 75.2935C95.829 73.3416 97.155 69.5821 100.71 69.2474C102.05 69.1336 103.386 69.5095 104.469 70.3053C105.552 71.1011 106.308 72.2625 106.597 73.5734C106.927 74.3716 106.437 75.757 107.417 76.1124C108.114 76.4729 109.848 76.3596 109.59 77.4617C109.254 78.2084 109.347 80.0367 108.186 79.7946C105.219 78.5174 105.833 80.9482 104.177 82.5756C103.254 83.6623 102.015 81.937 101.081 81.5456C99.611 81.0564 103.703 77.8479 102.96 75.3656C100.308 69.9117 96.51 83.6056 90.0605 79.9543C85.4994 78.1415 87.4498 74.2635 85.7058 73.1974C83.0589 72.7339 83.1363 72.1829 83.9825 69.8139Z" fill="#E5FFB6"/>
<path d="M109.683 0.046875H43.5781V136.522H109.683V0.046875Z" fill="#EC6707"/>
<path d="M106.778 2.66797H46.4727V133.896H106.778V2.66797Z" fill="#FBE1CD"/>
<path d="M43.5625 0.046875H55.1716C55.1716 1.56785 54.8712 3.0739 54.2876 4.4789C53.704 5.8839 52.8487 7.16028 51.7704 8.23505C50.6922 9.30982 49.4123 10.1619 48.004 10.7425C46.5956 11.3232 45.0863 11.621 43.5625 11.619V0.046875Z" fill="#EC6707"/>
<path d="M43.5625 136.522H55.1716C55.1716 135.001 54.8712 133.495 54.2876 132.09C53.704 130.685 52.8487 129.409 51.7704 128.334C50.6922 127.259 49.4123 126.407 48.004 125.827C46.5956 125.246 45.0863 124.948 43.5625 124.95V136.522Z" fill="#58C990"/>
<path d="M109.683 0.046875V11.619C106.609 11.619 103.66 10.3998 101.486 8.22959C99.3113 6.0594 98.0898 3.11599 98.0898 0.046875H109.683Z" fill="#EC6707"/>
<path d="M109.683 136.522H98.0898C98.0892 135.002 98.3886 133.497 98.971 132.093C99.5534 130.689 100.407 129.413 101.484 128.338C102.561 127.263 103.839 126.411 105.246 125.83C106.653 125.248 108.161 124.95 109.683 124.95V136.522Z" fill="#58C990"/>
<path d="M76.698 39.9231C83.2249 40.0158 83.2249 29.7878 76.698 29.8805C70.1762 29.7878 70.1762 40.0158 76.698 39.9231Z" fill="#EC6707"/>
<path d="M76.698 108.217C83.2249 108.31 83.2249 98.0818 76.698 98.1745C70.1762 98.0818 70.1762 108.31 76.698 108.217Z" fill="#58C990"/>
<path d="M140.682 176.852H42.9897C40.5881 176.852 38.2849 175.9 36.5868 174.205C34.8886 172.51 33.9346 170.211 33.9346 167.814V95.9399C33.9346 93.5423 34.8884 91.2429 36.5864 89.5471C38.2845 87.8512 40.5876 86.8978 42.9897 86.8965H140.682C145.76 86.8979 150.631 88.9125 154.221 92.4975C157.812 96.0825 159.829 100.944 159.829 106.013V157.74C159.829 162.809 157.812 167.67 154.221 171.254C150.63 174.838 145.76 176.852 140.682 176.852Z" fill="#404040"/>
<path d="M125.735 143.855H159.83V119.897H125.735C109.962 120.165 109.967 143.588 125.735 143.855Z" fill="black"/>
<path d="M133.17 131.876C133.129 122.369 118.651 122.375 118.609 131.876C118.651 141.378 133.129 141.378 133.17 131.876Z" fill="#666666"/>
<path d="M46.4778 149.887H1.83682C0.822373 149.887 0 150.708 0 151.72V159.425C0 160.437 0.822373 161.258 1.83682 161.258H46.4778C47.4922 161.258 48.3146 160.437 48.3146 159.425V151.72C48.3146 150.708 47.4922 149.887 46.4778 149.887Z" fill="#FBBA00"/>
<path d="M46.4778 138.521H1.83682C0.822373 138.521 0 139.341 0 140.354V148.058C0 149.071 0.822373 149.892 1.83682 149.892H46.4778C47.4922 149.892 48.3146 149.071 48.3146 148.058V140.354C48.3146 139.341 47.4922 138.521 46.4778 138.521Z" fill="#EC6707"/>
<path d="M46.4778 127.148H1.83682C0.822373 127.148 0 127.969 0 128.982V136.686C0 137.699 0.822373 138.52 1.83682 138.52H46.4778C47.4922 138.52 48.3146 137.699 48.3146 136.686V128.982C48.3146 127.969 47.4922 127.148 46.4778 127.148Z" fill="#FBBA00"/>
<path d="M46.4778 161.258H1.83682C0.822373 161.258 0 162.079 0 163.091V170.796C0 171.808 0.822373 172.629 1.83682 172.629H46.4778C47.4922 172.629 48.3146 171.808 48.3146 170.796V163.091C48.3146 162.079 47.4922 161.258 46.4778 161.258Z" fill="#EC6707"/>
<path d="M46.4778 172.629H1.83682C0.822373 172.629 0 173.45 0 174.462V182.167C0 183.179 0.822373 184 1.83682 184H46.4778C47.4922 184 48.3146 183.179 48.3146 182.167V174.462C48.3146 173.45 47.4922 172.629 46.4778 172.629Z" fill="#FBBA00"/>
<path d="M98.7141 172.629H54.0732C53.0587 172.629 52.2363 173.45 52.2363 174.462V182.167C52.2363 183.179 53.0587 184 54.0732 184H98.7141C99.7285 184 100.551 183.179 100.551 182.167V174.462C100.551 173.45 99.7285 172.629 98.7141 172.629Z" fill="#EC6707"/>
<path d="M98.7141 161.258H54.0732C53.0587 161.258 52.2363 162.079 52.2363 163.091V170.796C52.2363 171.808 53.0587 172.629 54.0732 172.629H98.7141C99.7285 172.629 100.551 171.808 100.551 170.796V163.091C100.551 162.079 99.7285 161.258 98.7141 161.258Z" fill="#FBBA00"/>
</g>
<defs>
<clipPath id="clip0_53_5048">
<rect width="198" height="184" fill="white"/>
</clipPath>
</defs>
</svg>
