<svg width="56" height="56" viewBox="0 0 56 56" fill="none" xmlns="http://www.w3.org/2000/svg">
<rect width="56" height="56" rx="12" fill="#F5F5F5"/>
<path d="M37.5031 12.2826C37.1786 8.92043 35.6135 5.79969 33.113 3.52888C30.6125 1.25807 27.3558 0 23.9781 0C20.6004 0 17.3437 1.25807 14.8432 3.52888C12.3427 5.79969 10.7776 8.92043 10.4531 12.2826H37.5031Z" fill="#7A7A7A"/>
<path d="M10.3867 14.9008V15.4803C10.3867 19.0849 11.8187 22.5419 14.3675 25.0908C16.9164 27.6396 20.3734 29.0716 23.978 29.0716C27.5827 29.0716 31.0397 27.6396 33.5885 25.0908C36.1374 22.5419 37.5693 19.0849 37.5693 15.4803V14.9008H10.3867Z" fill="#7A7A7A"/>
<path d="M32.7054 29.6725H31.795C29.4022 30.9963 26.7125 31.6907 23.9781 31.6907C21.2436 31.6907 18.5539 30.9963 16.1611 29.6725H15.2507C12.127 29.6761 9.1323 30.9186 6.92353 33.1273C4.71476 35.3361 3.47231 38.3308 3.46875 41.4545V46.6909C3.46875 47.0381 3.60667 47.3711 3.85218 47.6166C4.09768 47.8621 4.43066 48 4.77785 48H43.1783C43.5255 48 43.8584 47.8621 44.1039 47.6166C44.3494 47.3711 44.4874 47.0381 44.4874 46.6909V41.4545C44.4838 38.3308 43.2414 35.3361 41.0326 33.1273C38.8238 30.9186 35.8291 29.6761 32.7054 29.6725ZM25.2872 42C25.2872 42.3471 25.1492 42.6801 24.9037 42.9256C24.6582 43.1711 24.3253 43.3091 23.9781 43.3091C23.6309 43.3091 23.2979 43.1711 23.0524 42.9256C22.8069 42.6801 22.669 42.3471 22.669 42V35.6115C22.669 35.2643 22.8069 34.9313 23.0524 34.6858C23.2979 34.4403 23.6309 34.3024 23.9781 34.3024C24.3253 34.3024 24.6582 34.4403 24.9037 34.6858C25.1492 34.9313 25.2872 35.2643 25.2872 35.6115V42Z" fill="#7A7A7A"/>
</svg>
