<svg width="32" height="32" viewBox="0 0 32 32" fill="none" xmlns="http://www.w3.org/2000/svg">
<path d="M16.0002 17.0665C21.0496 17.0665 25.143 13.246 25.143 8.53326C25.143 3.82047 21.0496 0 16.0002 0C10.9508 0 6.85742 3.82047 6.85742 8.53326C6.85742 13.246 10.9508 17.0665 16.0002 17.0665Z" fill="#B3B3B3"/>
<path d="M3.42854 31.9999H17.5541C15.5474 30.4987 14.2185 28.3483 13.8311 25.9754C13.4437 23.6024 14.0261 21.1803 15.4627 19.1893C12.5082 19.0524 9.72431 17.8564 7.69136 15.8507C5.41241 16.7486 3.46747 18.2534 2.09955 20.177C0.731618 22.1006 0.0013563 24.3578 0 26.6666V28.7999C0.00271322 29.6478 0.364805 30.4603 1.00719 31.0599C1.64958 31.6594 2.52007 31.9974 3.42854 31.9999Z" fill="#B3B3B3"/>
<path d="M15.9998 24.5335C15.9998 26.0103 16.4689 27.4538 17.348 28.6817C18.227 29.9096 19.4765 30.8666 20.9382 31.4317C22.4 31.9969 24.0086 32.1447 25.5604 31.8566C27.1122 31.5685 28.5377 30.8574 29.6565 29.8132C30.7753 28.769 31.5372 27.4385 31.8459 25.9902C32.1546 24.5418 31.9962 23.0405 31.3907 21.6762C30.7852 20.3118 29.7598 19.1457 28.4442 18.3252C27.1286 17.5048 25.5819 17.0669 23.9997 17.0669C21.8787 17.0692 19.8453 17.8565 18.3456 19.2563C16.8458 20.6561 16.0022 22.5539 15.9998 24.5335ZM25.1425 22.4002V23.4668H26.2854C26.5885 23.4668 26.8792 23.5792 27.0935 23.7793C27.3078 23.9793 27.4282 24.2506 27.4282 24.5335C27.4282 24.8164 27.3078 25.0877 27.0935 25.2877C26.8792 25.4878 26.5885 25.6002 26.2854 25.6002H25.1425V26.6668C25.1425 26.9497 25.0221 27.221 24.8078 27.4211C24.5935 27.6211 24.3028 27.7335 23.9997 27.7335C23.6966 27.7335 23.4059 27.6211 23.1916 27.4211C22.9772 27.221 22.8568 26.9497 22.8568 26.6668V25.6002H21.714C21.4109 25.6002 21.1202 25.4878 20.9059 25.2877C20.6916 25.0877 20.5711 24.8164 20.5711 24.5335C20.5711 24.2506 20.6916 23.9793 20.9059 23.7793C21.1202 23.5792 21.4109 23.4668 21.714 23.4668H22.8568V22.4002C22.8568 22.1173 22.9772 21.846 23.1916 21.6459C23.4059 21.4459 23.6966 21.3335 23.9997 21.3335C24.3028 21.3335 24.5935 21.4459 24.8078 21.6459C25.0221 21.846 25.1425 22.1173 25.1425 22.4002Z" fill="#B3B3B3"/>
</svg>
