<svg width="24" height="23" viewBox="0 0 24 23" fill="none" xmlns="http://www.w3.org/2000/svg">
<path fill-rule="evenodd" clip-rule="evenodd" d="M20.3597 5.59002C20.8333 6.70975 21.0735 7.89823 21.0735 9.12238C21.0735 9.32974 21.2416 9.49784 21.4489 9.49784C21.6563 9.49784 21.8244 9.32974 21.8244 9.12238C21.8244 7.79725 21.5643 6.5104 21.0513 5.29758C20.5563 4.12739 19.8483 3.077 18.9469 2.17563C18.8003 2.02902 18.5626 2.02902 18.4159 2.17563C18.2693 2.32225 18.2693 2.55994 18.4159 2.70656C19.2486 3.53918 19.9026 4.50929 20.3597 5.59002Z" fill="#D9D9D9"/>
<path fill-rule="evenodd" clip-rule="evenodd" d="M2.17579 9.1222C2.17579 9.32956 2.34389 9.49766 2.55124 9.49766C2.7586 9.49766 2.9267 9.32956 2.9267 9.1222C2.9267 7.89811 3.1668 6.70964 3.6405 5.58984C4.0976 4.50918 4.75157 3.539 5.58425 2.70632C5.73087 2.5597 5.73087 2.32201 5.58425 2.17539C5.43764 2.02878 5.19994 2.02878 5.05326 2.17539C4.1519 3.07676 3.44389 4.12715 2.9489 5.29733C2.43588 6.51022 2.17579 7.79707 2.17579 9.1222V9.1222Z" fill="#D9D9D9"/>
<path fill-rule="evenodd" clip-rule="evenodd" d="M23.0551 4.44995C22.4504 3.02039 21.5859 1.73758 20.4853 0.637061C20.3387 0.490446 20.101 0.490446 19.9544 0.637061C19.8077 0.783675 19.8077 1.02137 19.9544 1.16805C20.9862 2.19982 21.7967 3.40242 22.3635 4.74246C22.9512 6.13192 23.2491 7.60549 23.2491 9.12235C23.2491 9.3297 23.4172 9.4978 23.6246 9.4978C23.832 9.4978 24.0001 9.3297 24.0001 9.12235C24.0001 7.50444 23.6822 5.93244 23.0551 4.44995Z" fill="#D9D9D9"/>
<path fill-rule="evenodd" clip-rule="evenodd" d="M4.0457 0.637061C3.89909 0.490446 3.66139 0.490446 3.51471 0.637061C2.41419 1.73765 1.54961 3.02046 0.944987 4.44995C0.317969 5.93244 0 7.50444 0 9.12235C0 9.3297 0.168099 9.4978 0.375456 9.4978C0.582813 9.4978 0.750912 9.3297 0.750912 9.12235C0.750912 7.60549 1.04889 6.13192 1.63659 4.74246C2.20339 3.40249 3.01393 2.19989 4.0457 1.16805C4.19232 1.02144 4.19232 0.783675 4.0457 0.637061V0.637061Z" fill="#D9D9D9"/>
<path fill-rule="evenodd" clip-rule="evenodd" d="M12.0003 22.5262C13.1712 22.5262 14.1714 21.5181 14.4088 20.1672H9.5918C9.82923 21.518 10.8294 22.5262 12.0003 22.5262V22.5262Z" fill="#D9D9D9"/>
<path fill-rule="evenodd" clip-rule="evenodd" d="M12.8648 0.358268C12.6339 0.127213 12.3268 0 11.9999 0C11.3254 0 10.7766 0.548763 10.7766 1.22331V1.60039C11.1796 1.53535 11.5894 1.50234 11.9999 1.50234C12.4105 1.50234 12.8202 1.53535 13.2232 1.60039V1.22331C13.2232 0.896615 13.096 0.589388 12.8648 0.358268V0.358268Z" fill="#D9D9D9"/>
<path fill-rule="evenodd" clip-rule="evenodd" d="M20.5837 19.4163C20.9616 19.4163 21.1874 19.1073 21.1874 18.8086C21.1874 18.6642 21.1342 18.528 21.0335 18.4148C19.6377 16.8436 18.8691 14.8207 18.8691 12.7188V9.12212C18.8691 7.28722 18.1545 5.56229 16.8572 4.26509C15.9353 3.34334 14.78 2.70571 13.5163 2.42108H13.5162C13.0219 2.30968 12.5117 2.25317 12 2.25317C11.4883 2.25317 10.9782 2.30968 10.4838 2.42108C7.38208 3.11965 5.13091 5.93781 5.13091 9.12212V12.7188C5.13091 13.7637 4.94276 14.7887 4.5716 15.7655C4.20057 16.742 3.66053 17.6334 2.96646 18.4148C2.80454 18.5971 2.7675 18.8387 2.86743 19.0611C2.96737 19.2835 3.17251 19.4163 3.41626 19.4163H20.5837Z" fill="#B3B3B3"/>
</svg>
