<svg width="29" height="29" viewBox="0 0 29 29" fill="none" xmlns="http://www.w3.org/2000/svg">
<g clip-path="url(#clip0_6496_9867)">
<path d="M18.7866 25.7695C16.401 25.7695 14.09 25.7695 11.7044 25.7695C11.1825 25.7695 11.1825 25.7695 11.1825 25.2436C11.1825 21.8628 11.1825 18.4819 11.1825 15.1011C11.1825 14.3498 11.0334 14.1996 10.2879 14.1996C8.72236 14.1996 7.15681 14.1996 5.59126 14.1996C4.92031 14.1996 4.77121 14.3498 4.77121 15.026C4.77121 18.4068 4.77121 21.8628 4.77121 25.2436C4.77121 25.7695 4.77121 25.7695 4.24936 25.7695C3.80205 25.7695 3.35475 25.7695 2.90745 25.7695C2.6838 25.7695 2.60925 25.6944 2.60925 25.469C2.60925 24.5674 2.60925 23.6659 2.60925 22.7643C2.60925 19.3084 2.60925 15.7773 2.60925 12.3213C2.60925 11.8705 2.60925 11.8705 2.982 11.9457C4.69666 12.0959 5.96401 11.4198 6.93316 9.9923C7.08226 9.76691 7.15681 9.84204 7.30591 9.9923C7.90231 10.969 8.87146 11.6452 9.98972 11.8705C11.7044 12.1711 13.3445 11.4949 14.2391 10.0674C14.4627 9.76691 14.4627 9.76691 14.6118 10.0674C16.2519 12.6218 19.9794 12.6218 21.545 10.0674C21.7686 9.76691 21.7686 9.76691 21.9177 10.0674C22.8869 11.4949 24.2288 12.0959 25.8689 11.9457C26.1671 11.9457 26.1671 12.0208 26.1671 12.2462C26.1671 16.6788 26.1671 21.1115 26.1671 25.469C26.1671 25.7695 26.0925 25.8446 25.7943 25.8446C23.5578 25.7695 21.1722 25.7695 18.7866 25.7695ZM18.7866 14.1996C17.1465 14.1996 15.4319 14.1996 13.7918 14.1996C13.4936 14.1996 13.419 14.2747 13.419 14.5752C13.419 15.4016 13.419 16.3032 13.419 17.1296C13.419 18.9327 13.419 20.6607 13.419 22.4638C13.419 22.6892 13.4936 22.8395 13.7918 22.8395C14.09 22.8395 14.3882 22.8395 14.6864 22.8395C14.9846 22.8395 15.0591 22.7643 15.0591 22.4638C15.4319 20.4353 17.4447 19.083 19.4576 19.4586C21.0231 19.7591 22.2159 20.8861 22.5141 22.5389C22.5887 22.7643 22.6632 22.8395 22.8869 22.8395C23.1851 22.8395 23.4833 22.8395 23.7815 22.8395C24.0797 22.8395 24.1542 22.7643 24.1542 22.4638C24.1542 19.8343 24.1542 17.2047 24.1542 14.6503C24.1542 14.3498 24.0797 14.2747 23.7815 14.2747C22.0668 14.1996 20.4267 14.1996 18.7866 14.1996Z" fill="#7A7A7A"/>
<path d="M14.4627 26.6711C19.0848 26.6711 23.7069 26.6711 28.329 26.6711C28.8509 26.6711 28.9254 26.7462 28.9254 27.2721C28.9254 27.7229 28.9254 28.0985 28.9254 28.5493C28.9254 28.8498 28.7763 28.925 28.5527 28.925C28.4781 28.925 28.329 28.925 28.2545 28.925C19.0848 28.925 9.84062 28.925 0.670951 28.925C0.596401 28.925 0.447301 28.925 0.372751 28.925C0.1491 28.925 0 28.7747 0 28.5493C0 28.0234 0 27.4975 0 26.9716C0 26.7462 0.1491 26.5959 0.372751 26.5959C0.447301 26.5959 0.596401 26.5959 0.670951 26.5959C5.29306 26.6711 9.91517 26.6711 14.4627 26.6711Z" fill="#7A7A7A"/>
<path d="M14.0154 3.68135C14.0154 4.73316 14.0154 5.8601 14.0154 6.91192C14.0154 7.21244 13.9409 7.28756 13.6427 7.28756C11.7789 7.28756 9.91516 7.28756 8.05141 7.28756C7.75321 7.28756 7.67866 7.28756 7.75321 6.91192C8.34961 4.73316 8.87146 2.47927 9.46786 0.300518C9.61696 0.0751295 9.69151 0 9.91516 0C11.1825 0 12.4499 0 13.7172 0C13.9409 0 14.09 0.0751295 14.09 0.375648C14.0154 1.42746 14.0154 2.5544 14.0154 3.68135Z" fill="#7A7A7A"/>
<path d="M18.1157 7.28756C17.2211 7.28756 16.252 7.28756 15.3574 7.28756C15.0592 7.28756 14.9846 7.21244 14.9846 6.91192C14.9846 4.73316 14.9846 2.5544 14.9846 0.375648C14.9846 0.0751295 15.0592 0 15.3574 0C16.6247 0 17.8175 0 19.0849 0C19.3085 0 19.4576 0.0751295 19.5322 0.300518C20.1286 2.47927 20.6504 4.65803 21.2468 6.83679C21.3214 7.21244 21.3214 7.21244 20.9486 7.21244C19.9795 7.28756 19.0103 7.28756 18.1157 7.28756Z" fill="#7A7A7A"/>
<path d="M25.2725 7.28756C24.3779 7.28756 23.4087 7.28756 22.5141 7.28756C22.2905 7.28756 22.1414 7.21244 22.0668 6.98705C21.4704 4.80829 20.9486 2.62953 20.3522 0.450777C20.2776 0 20.3522 0 20.7249 0C21.9177 0 23.1851 0 24.3779 0C24.6015 0 24.7506 0.0751295 24.8997 0.300518C26.018 2.47927 27.1362 4.73316 28.329 6.91192C28.4781 7.28756 28.4781 7.28756 28.1054 7.28756C27.1362 7.28756 26.2416 7.28756 25.2725 7.28756Z" fill="#7A7A7A"/>
<path d="M3.6529 7.28756C2.68375 7.28756 1.78915 7.28756 0.819999 7.28756C0.521798 7.28756 0.521798 7.21244 0.596348 6.98705C1.7146 4.73316 2.9074 2.5544 4.02565 0.300518C4.2493 0.0751295 4.3984 0 4.62206 0C5.88941 0 7.08221 0 8.34956 0C8.72231 0 8.72231 0 8.64776 0.375648C8.05136 2.5544 7.45496 4.80829 6.85856 6.98705C6.78401 7.21244 6.70946 7.28756 6.48581 7.28756C5.51666 7.28756 4.62206 7.28756 3.6529 7.28756Z" fill="#7A7A7A"/>
<path d="M10.8097 8.18921C11.7789 8.18921 12.6735 8.18921 13.6426 8.18921C13.9408 8.18921 14.0154 8.26434 13.9408 8.56486C13.6426 9.99232 12.3007 11.0441 10.8097 11.0441C9.31871 11.0441 7.9768 9.99232 7.6786 8.56486C7.60405 8.26434 7.60405 8.18921 7.9768 8.18921C8.94596 8.18921 9.91511 8.18921 10.8097 8.18921Z" fill="#7A7A7A"/>
<path d="M18.1902 8.18921C19.1594 8.18921 20.054 8.18921 21.0231 8.18921C21.3213 8.18921 21.3959 8.26434 21.3213 8.56486C21.0231 9.99232 19.6812 11.0441 18.1902 11.0441C16.6992 11.0441 15.3573 9.99232 15.0591 8.56486C14.9845 8.26434 14.9845 8.18921 15.3573 8.18921C16.3264 8.18921 17.2211 8.18921 18.1902 8.18921Z" fill="#7A7A7A"/>
<path d="M3.50382 8.18921C4.47297 8.18921 5.36757 8.18921 6.33672 8.18921C6.63492 8.18921 6.63492 8.26434 6.63492 8.56486C6.33672 9.99232 4.99482 11.0441 3.50382 11.0441C2.01282 11.0441 0.670914 9.99232 0.372714 8.56486C0.298164 8.33947 0.372714 8.18921 0.670914 8.18921C1.56552 8.18921 2.53467 8.18921 3.50382 8.18921Z" fill="#7A7A7A"/>
<path d="M25.4961 10.969C24.0797 10.969 22.7378 9.91719 22.365 8.56486C22.2905 8.18921 22.2905 8.18921 22.6632 8.18921C24.527 8.18921 26.4653 8.18921 28.329 8.18921C28.7018 8.18921 28.7018 8.18921 28.6272 8.56486C28.329 9.99232 26.9871 10.969 25.4961 10.969Z" fill="#7A7A7A"/>
<path d="M16.8484 17.0544C16.8484 16.0026 17.743 15.1011 18.7867 15.1011C19.9049 15.1011 20.725 16.0026 20.725 17.0544C20.725 18.1063 19.8304 19.0078 18.7867 19.0078C17.6684 19.0078 16.8484 18.1063 16.8484 17.0544Z" fill="#7A7A7A"/>
</g>
<defs>
<clipPath id="clip0_6496_9867">
<rect width="29" height="29" fill="white"/>
</clipPath>
</defs>
</svg>
