<svg width="24" height="24" viewBox="0 0 24 24" fill="none" xmlns="http://www.w3.org/2000/svg">
<g clip-path="url(#clip0_2128_14688)">
<path d="M23.5 7C23.224 7 23 6.776 23 6.5V2.5C23 1.673 22.327 1 21.5 1H17.5C17.224 1 17 0.776 17 0.5C17 0.224 17.224 0 17.5 0H21.5C22.878 0 24 1.121 24 2.5V6.5C24 6.776 23.776 7 23.5 7Z" fill="#EC6707"/>
<path d="M21.5 24H17.5C17.224 24 17 23.776 17 23.5C17 23.224 17.224 23 17.5 23H21.5C22.327 23 23 22.327 23 21.5V17.5C23 17.224 23.224 17 23.5 17C23.776 17 24 17.224 24 17.5V21.5C24 22.879 22.878 24 21.5 24Z" fill="#EC6707"/>
<path d="M6.5 24H2.5C1.122 24 0 22.879 0 21.5V17.5C0 17.224 0.224 17 0.5 17C0.776 17 1 17.224 1 17.5V21.5C1 22.327 1.673 23 2.5 23H6.5C6.776 23 7 23.224 7 23.5C7 23.776 6.776 24 6.5 24Z" fill="#EC6707"/>
<path d="M0.5 7C0.224 7 0 6.776 0 6.5V2.5C0 1.121 1.122 0 2.5 0H6.5C6.776 0 7 0.224 7 0.5C7 0.776 6.776 1 6.5 1H2.5C1.673 1 1 1.673 1 2.5V6.5C1 6.776 0.776 7 0.5 7Z" fill="#EC6707"/>
<path fill-rule="evenodd" clip-rule="evenodd" d="M12 3.60001C7.36688 3.60001 3.60001 7.36688 3.60001 12C3.60001 16.6331 7.36688 20.4 12 20.4C16.6331 20.4 20.4 16.6331 20.4 12C20.4 7.36688 16.6331 3.60001 12 3.60001Z" fill="#EC6707"/>
<path fill-rule="evenodd" clip-rule="evenodd" d="M16.0622 9.16792C16.2657 9.37135 16.2657 9.70604 16.0622 9.90948L11.1404 14.8314C11.0386 14.9331 10.9041 14.9856 10.7696 14.9856C10.635 14.9856 10.5005 14.9331 10.3988 14.8314L7.93786 12.3704C7.73442 12.167 7.73442 11.8323 7.93786 11.6289C8.14129 11.4254 8.47598 11.4254 8.67942 11.6289L10.7696 13.719L15.3207 9.16792C15.5241 8.9612 15.8588 8.9612 16.0622 9.16792Z" fill="white"/>
</g>
<defs>
<clipPath id="clip0_2128_14688">
<rect width="24" height="24" fill="white"/>
</clipPath>
</defs>
</svg>
