<svg width="24" height="24" viewBox="0 0 24 24" fill="none" xmlns="http://www.w3.org/2000/svg">
<g clip-path="url(#clip0_2128_14767)">
<path d="M23.5 7C23.224 7 23 6.776 23 6.5V2.5C23 1.673 22.327 1 21.5 1H17.5C17.224 1 17 0.776 17 0.5C17 0.224 17.224 0 17.5 0H21.5C22.878 0 24 1.121 24 2.5V6.5C24 6.776 23.776 7 23.5 7Z" fill="#EC6707"/>
<path d="M21.5 24H17.5C17.224 24 17 23.776 17 23.5C17 23.224 17.224 23 17.5 23H21.5C22.327 23 23 22.327 23 21.5V17.5C23 17.224 23.224 17 23.5 17C23.776 17 24 17.224 24 17.5V21.5C24 22.879 22.878 24 21.5 24Z" fill="#EC6707"/>
<path d="M6.5 24H2.5C1.122 24 0 22.879 0 21.5V17.5C0 17.224 0.224 17 0.5 17C0.776 17 1 17.224 1 17.5V21.5C1 22.327 1.673 23 2.5 23H6.5C6.776 23 7 23.224 7 23.5C7 23.776 6.776 24 6.5 24Z" fill="#EC6707"/>
<path d="M0.5 7C0.224 7 0 6.776 0 6.5V2.5C0 1.121 1.122 0 2.5 0H6.5C6.776 0 7 0.224 7 0.5C7 0.776 6.776 1 6.5 1H2.5C1.673 1 1 1.673 1 2.5V6.5C1 6.776 0.776 7 0.5 7Z" fill="#EC6707"/>
<path d="M17.9531 13.7831C17.9104 13.6886 17.8405 13.6082 17.752 13.5518C17.6635 13.4954 17.5602 13.4654 17.4546 13.4654L14.7274 13.4654L14.7274 4.13392C14.7274 3.99229 14.6699 3.85646 14.5676 3.75631C14.4653 3.65617 14.3266 3.5999 14.1819 3.5999L9.81833 3.5999C9.67367 3.5999 9.53493 3.65617 9.43264 3.75631C9.33035 3.85646 9.27288 3.99229 9.27288 4.13392L9.27288 13.4654L6.54564 13.4654C6.43994 13.4653 6.33649 13.4954 6.2479 13.5518C6.15931 13.6083 6.08938 13.6887 6.04662 13.7834C6.00386 13.878 5.99011 13.9828 6.00704 14.0849C6.02398 14.1871 6.07087 14.2822 6.14201 14.3588L11.5965 20.2329C11.649 20.2858 11.7117 20.3278 11.781 20.3564C11.8504 20.3851 11.9249 20.3999 12.0001 20.3999C12.0754 20.3999 12.1499 20.3851 12.2192 20.3564C12.2885 20.3278 12.3513 20.2858 12.4038 20.2329L17.8582 14.3588C17.9293 14.2821 17.9762 14.1869 17.993 14.0847C18.0099 13.9825 17.996 13.8777 17.9531 13.7831Z" fill="#EC6707"/>
</g>
<defs>
<clipPath id="clip0_2128_14767">
<rect width="24" height="24" fill="white"/>
</clipPath>
</defs>
</svg>
