<svg width="24" height="24" viewBox="0 0 24 24" fill="none" xmlns="http://www.w3.org/2000/svg">
<g clip-path="url(#clip0_2128_14679)">
<path d="M23.5 7C23.224 7 23 6.776 23 6.5V2.5C23 1.673 22.327 1 21.5 1H17.5C17.224 1 17 0.776 17 0.5C17 0.224 17.224 0 17.5 0H21.5C22.878 0 24 1.121 24 2.5V6.5C24 6.776 23.776 7 23.5 7Z" fill="#EC6707"/>
<path d="M21.5 24H17.5C17.224 24 17 23.776 17 23.5C17 23.224 17.224 23 17.5 23H21.5C22.327 23 23 22.327 23 21.5V17.5C23 17.224 23.224 17 23.5 17C23.776 17 24 17.224 24 17.5V21.5C24 22.879 22.878 24 21.5 24Z" fill="#EC6707"/>
<path d="M6.5 24H2.5C1.122 24 0 22.879 0 21.5V17.5C0 17.224 0.224 17 0.5 17C0.776 17 1 17.224 1 17.5V21.5C1 22.327 1.673 23 2.5 23H6.5C6.776 23 7 23.224 7 23.5C7 23.776 6.776 24 6.5 24Z" fill="#EC6707"/>
<path d="M0.5 7C0.224 7 0 6.776 0 6.5V2.5C0 1.121 1.122 0 2.5 0H6.5C6.776 0 7 0.224 7 0.5C7 0.776 6.776 1 6.5 1H2.5C1.673 1 1 1.673 1 2.5V6.5C1 6.776 0.776 7 0.5 7Z" fill="#EC6707"/>
<path d="M17.9531 10.2168C17.9104 10.3113 17.8405 10.3916 17.752 10.448C17.6635 10.5044 17.5602 10.5345 17.4546 10.5345L14.7274 10.5345L14.7274 19.866C14.7274 20.0076 14.6699 20.1434 14.5676 20.2436C14.4653 20.3437 14.3266 20.4 14.1819 20.4L9.81833 20.4C9.67367 20.4 9.53493 20.3437 9.43264 20.2436C9.33035 20.1434 9.27288 20.0076 9.27288 19.866L9.27288 10.5345L6.54564 10.5345C6.43994 10.5345 6.33649 10.5045 6.2479 10.4481C6.15931 10.3916 6.08938 10.3112 6.04662 10.2165C6.00386 10.1219 5.99011 10.0171 6.00704 9.91494C6.02398 9.81279 6.07087 9.71765 6.14201 9.64111L11.5965 3.76695C11.649 3.71411 11.7117 3.67211 11.781 3.64343C11.8504 3.61475 11.9249 3.59998 12.0001 3.59998C12.0754 3.59998 12.1499 3.61475 12.2192 3.64343C12.2885 3.67211 12.3513 3.71411 12.4038 3.76695L17.8582 9.64111C17.9293 9.71773 17.9762 9.81293 17.993 9.91514C18.0099 10.0173 17.996 10.1221 17.9531 10.2168Z" fill="#EC6707"/>
</g>
<defs>
<clipPath id="clip0_2128_14679">
<rect width="24" height="24" fill="white"/>
</clipPath>
</defs>
</svg>
