<svg width="318" height="108" viewBox="0 0 318 108" fill="none" xmlns="http://www.w3.org/2000/svg">
<rect x="195" y="22" width="32" height="32" rx="8" fill="#C6C6C6"/>
<rect x="91" y="46" width="32" height="32" rx="8" fill="#C6C6C6"/>
<rect x="286" width="32" height="32" rx="8" fill="#D9D9D9"/>
<rect y="40" width="32" height="32" rx="8" fill="#D9D9D9"/>
<rect x="247" y="63" width="24" height="24" rx="6" fill="#ECECEC"/>
<rect x="55" y="4" width="24" height="24" rx="6" fill="#ECECEC"/>
<rect x="111" y="12" width="96" height="96" rx="16" fill="#F8F8F8"/>
<path d="M170.253 50.2355C169.982 47.4337 168.678 44.8331 166.594 42.9407C164.51 41.0484 161.797 40 158.982 40C156.167 40 153.453 41.0484 151.369 42.9407C149.286 44.8331 147.981 47.4337 147.711 50.2355H170.253Z" fill="#7A7A7A"/>
<path d="M147.656 52.4172V52.9002C147.656 55.904 148.849 58.7848 150.973 60.9089C153.097 63.033 155.978 64.2262 158.982 64.2262C161.986 64.2262 164.866 63.033 166.99 60.9089C169.115 58.7848 170.308 55.904 170.308 52.9002V52.4172H147.656Z" fill="#7A7A7A"/>
<path d="M166.255 64.7271H165.496C163.502 65.8301 161.26 66.4088 158.982 66.4088C156.703 66.4088 154.462 65.8301 152.468 64.7271H151.709C149.106 64.73 146.61 65.7654 144.77 67.606C142.929 69.4467 141.894 71.9423 141.891 74.5453V78.909C141.891 79.1984 142.006 79.4758 142.21 79.6804C142.415 79.885 142.692 79.9999 142.982 79.9999H174.982C175.271 79.9999 175.549 79.885 175.753 79.6804C175.958 79.4758 176.073 79.1984 176.073 78.909V74.5453C176.07 71.9423 175.034 69.4467 173.194 67.606C171.353 65.7654 168.858 64.73 166.255 64.7271ZM160.073 74.9999C160.073 75.2892 159.958 75.5667 159.753 75.7713C159.549 75.9759 159.271 76.0908 158.982 76.0908C158.692 76.0908 158.415 75.9759 158.21 75.7713C158.006 75.5667 157.891 75.2892 157.891 74.9999V69.6762C157.891 69.3869 158.006 69.1094 158.21 68.9048C158.415 68.7002 158.692 68.5853 158.982 68.5853C159.271 68.5853 159.549 68.7002 159.753 68.9048C159.958 69.1094 160.073 69.3869 160.073 69.6762V74.9999Z" fill="#7A7A7A"/>
</svg>
