<svg width="72" height="72" viewBox="0 0 72 72" fill="none" xmlns="http://www.w3.org/2000/svg">
<g filter="url(#filter0_d_31_1779)">
<rect x="16" y="12" width="40" height="40" rx="10" fill="white"/>
</g>
<path d="M38.2603 34.6536C37.8778 34.5772 37.6027 34.2436 37.6027 33.8562V32.0229H35.7913H33.9798V33.8562C33.9798 34.2436 33.7047 34.5772 33.3223 34.6536L32.8809 34.7417V37.6856H35.7913H38.7016V34.7417L38.2603 34.6536Z" fill="#ECECEC"/>
<path d="M42.0317 35.6421L38.3528 34.5029C38.267 34.4764 38.1735 34.4937 38.1032 34.5493L35.791 36.3768L33.4788 34.5493C33.4085 34.4937 33.315 34.4764 33.2293 34.5029L29.5504 35.6421C27.9395 36.1131 26.8335 37.5816 26.8335 39.2492V41.6531C26.8335 41.8444 26.9897 41.9996 27.1824 41.9996H44.3997C44.5923 41.9996 44.7486 41.8444 44.7486 41.6531V39.2492C44.7486 37.5816 43.6425 36.1131 42.0317 35.6421Z" fill="#7A7A7A"/>
<path d="M29.1565 38.5845C28.9852 38.5845 28.8464 38.7223 28.8464 38.8924V41.9996H29.4665V38.8924C29.4665 38.7223 29.3277 38.5845 29.1565 38.5845Z" fill="#7A7A7A"/>
<path d="M40.4003 30.1104H39.6643V27.9907H40.4003C40.7796 27.9907 41.087 28.2961 41.087 28.6727V29.4285C41.087 29.8051 40.7795 30.1104 40.4003 30.1104Z" fill="#ECECEC"/>
<path d="M31.1823 30.1104H31.9183V27.9907H31.1823C30.8031 27.9907 30.4956 28.2961 30.4956 28.6727V29.4285C30.4956 29.8051 30.8031 30.1104 31.1823 30.1104Z" fill="#ECECEC"/>
<path d="M35.7903 33.4599C33.417 33.4599 31.4932 31.5493 31.4932 29.1924V27.9931C31.4932 25.6362 33.417 23.7256 35.7903 23.7256C38.1636 23.7256 40.0874 25.6362 40.0874 27.9931V29.1924C40.0874 31.5493 38.1636 33.4599 35.7903 33.4599Z" fill="#ECECEC"/>
<path d="M36.5223 22.1377H35.0599C32.5876 22.1377 30.5835 24.128 30.5835 26.5832V28.3394C30.7011 28.1315 30.925 27.9907 31.1823 27.9907H31.4939C31.4943 27.4716 31.588 26.9741 31.7592 26.514C33.6593 25.9794 35.5905 27.4385 37.6907 27.4385C38.7397 27.4385 39.4557 27.2054 39.9399 26.9203L39.9511 26.9202C40.0404 27.2623 40.088 27.621 40.0882 27.9908H40.3999C40.6571 27.9908 40.881 28.1315 40.9986 28.3394V26.5832C40.9987 24.128 38.9945 22.1377 36.5223 22.1377Z" fill="#7A7A7A"/>
<path d="M35.7912 36.3768L34.8539 37.1909C34.6987 37.3258 34.4648 37.318 34.319 37.1733L32.0088 34.8809L33.2294 34.5029C33.3152 34.4764 33.4087 34.4937 33.479 34.5493L35.7912 36.3768Z" fill="#7A7A7A"/>
<path d="M35.7913 36.3768L36.7285 37.1909C36.8838 37.3258 37.1176 37.318 37.2635 37.1733L39.5736 34.8809L38.353 34.5029C38.2672 34.4764 38.1737 34.4937 38.1034 34.5493L35.7913 36.3768Z" fill="#7A7A7A"/>
<defs>
<filter id="filter0_d_31_1779" x="0" y="0" width="72" height="72" filterUnits="userSpaceOnUse" color-interpolation-filters="sRGB">
<feFlood flood-opacity="0" result="BackgroundImageFix"/>
<feColorMatrix in="SourceAlpha" type="matrix" values="0 0 0 0 0 0 0 0 0 0 0 0 0 0 0 0 0 0 127 0" result="hardAlpha"/>
<feOffset dy="4"/>
<feGaussianBlur stdDeviation="8"/>
<feComposite in2="hardAlpha" operator="out"/>
<feColorMatrix type="matrix" values="0 0 0 0 0.129412 0 0 0 0 0.129412 0 0 0 0 0.129412 0 0 0 0.08 0"/>
<feBlend mode="normal" in2="BackgroundImageFix" result="effect1_dropShadow_31_1779"/>
<feBlend mode="normal" in="SourceGraphic" in2="effect1_dropShadow_31_1779" result="shape"/>
</filter>
</defs>
</svg>
