<svg width="318" height="108" viewBox="0 0 318 108" fill="none" xmlns="http://www.w3.org/2000/svg">
<rect x="195" y="22" width="32" height="32" rx="8" fill="#F8C6B8"/>
<rect x="91" y="46" width="32" height="32" rx="8" fill="#F8C6B8"/>
<rect x="286" width="32" height="32" rx="8" fill="#FAD9CF"/>
<rect y="40" width="32" height="32" rx="8" fill="#FAD9CF"/>
<rect x="247" y="63" width="24" height="24" rx="6" fill="#FDECE8"/>
<rect x="55" y="4" width="24" height="24" rx="6" fill="#FDECE8"/>
<rect x="111" y="12" width="96" height="96" rx="12" fill="#FDECE8"/>
<path d="M170.219 47.5602C170.219 50.7371 169.08 53.4869 166.833 55.7347C164.585 57.9822 161.835 59.1215 158.658 59.1215H158.653C155.48 59.1204 152.731 57.9811 150.484 55.7347C148.236 53.4869 147.097 50.7371 147.097 47.5602C147.097 44.3844 148.236 41.6342 150.484 39.3867C152.73 37.14 155.479 36.0011 158.653 36H158.658C161.834 36 164.584 37.1393 166.833 39.3867C169.08 41.6342 170.219 44.3844 170.219 47.5602Z" fill="#FBBA00"/>
<path d="M178.984 75.7451C178.984 78.2515 178.187 80.2806 176.617 81.7751C175.065 83.2521 173.012 84.0002 170.517 84.0002H147.404C144.909 84.0002 142.856 83.2521 141.305 81.7751C139.734 80.2795 138.938 78.2507 138.938 75.7451C138.938 74.7812 138.969 73.8276 139.033 72.9106C139.098 71.9731 139.229 70.9529 139.422 69.8766C139.617 68.7915 139.868 67.7657 140.168 66.8282C140.479 65.8578 140.9 64.9005 141.421 63.9835C141.962 63.0317 142.598 62.2026 143.311 61.52C144.058 60.8055 144.971 60.2317 146.027 59.8135C147.079 59.3975 148.245 59.1865 149.494 59.1865C149.983 59.1865 150.457 59.3868 151.371 59.9823C151.943 60.3555 152.603 60.7803 153.33 61.2454C153.959 61.646 154.81 62.0217 155.862 62.3612C156.787 62.6604 157.725 62.8274 158.652 62.8563C158.755 62.86 158.857 62.8618 158.959 62.8618C159.989 62.8618 161.03 62.693 162.057 62.3612C163.109 62.0217 163.961 61.646 164.589 61.2454C165.325 60.7755 165.984 60.3511 166.548 59.9834C167.462 59.3868 167.936 59.1865 168.427 59.1865C169.674 59.1865 170.84 59.3975 171.893 59.8135C172.949 60.2317 173.862 60.8066 174.608 61.52C175.322 62.2026 175.958 63.0317 176.499 63.9835C177.02 64.9012 177.442 65.8578 177.752 66.8271C178.052 67.7657 178.304 68.7915 178.499 69.8773C178.691 70.9547 178.822 71.975 178.887 72.9099C178.952 73.824 178.983 74.7776 178.984 75.7451Z" fill="#E74111"/>
</svg>
