<svg width="52" height="52" viewBox="0 0 52 52" fill="none" xmlns="http://www.w3.org/2000/svg">
<rect width="52" height="52" fill="#1E1E1E"/>
<g clip-path="url(#clip0_790_7508)">
<rect width="390" height="844" transform="translate(-306 -244)" fill="white"/>
<g filter="url(#filter0_d_790_7508)">
<rect x="-290" y="-16" width="358" height="84" rx="16" fill="white"/>
</g>
<rect width="52" height="52" rx="12" fill="#FDECE8"/>
<g clip-path="url(#clip1_790_7508)">
<path d="M23.817 31.16C25.063 31.16 26.073 30.15 26.073 28.904C26.073 27.6581 25.063 26.648 23.817 26.648C22.5711 26.648 21.561 27.6581 21.561 28.904C21.561 30.15 22.5711 31.16 23.817 31.16Z" fill="#FBBA00"/>
<path d="M14 34.6106H33.5376V23.4277H14V34.6106ZM15.7974 26.5758C16.0035 26.5758 16.2075 26.5352 16.3979 26.4564C16.5883 26.3775 16.7612 26.2619 16.9069 26.1162C17.0526 25.9704 17.1682 25.7974 17.247 25.607C17.3258 25.4166 17.3663 25.2125 17.3663 25.0065H30.1708C30.1708 25.4227 30.3361 25.8219 30.6304 26.1162C30.9248 26.4105 31.3239 26.5758 31.7402 26.5758V31.4583C31.3239 31.4583 30.9248 31.6236 30.6304 31.9179C30.3361 32.2123 30.1708 32.6114 30.1708 33.0277H17.3663C17.3663 32.8216 17.3258 32.6175 17.247 32.4271C17.1682 32.2367 17.0526 32.0637 16.9069 31.918C16.7612 31.7722 16.5883 31.6566 16.3979 31.5778C16.2075 31.4989 16.0035 31.4583 15.7974 31.4583V26.5758Z" fill="#E74111"/>
<path d="M15.0264 22.6446H34.3218V31.6707L35.8975 31.5037L34.7288 20.3854L15.0264 22.6446Z" fill="#E74111"/>
<path d="M35.8923 17.375L16.085 21.5562L35.4227 19.5246L36.3931 28.7489L38.0001 28.3628L35.8923 17.375Z" fill="#E74111"/>
</g>
</g>
<defs>
<filter id="filter0_d_790_7508" x="-306" y="-28" width="390" height="116" filterUnits="userSpaceOnUse" color-interpolation-filters="sRGB">
<feFlood flood-opacity="0" result="BackgroundImageFix"/>
<feColorMatrix in="SourceAlpha" type="matrix" values="0 0 0 0 0 0 0 0 0 0 0 0 0 0 0 0 0 0 127 0" result="hardAlpha"/>
<feOffset dy="4"/>
<feGaussianBlur stdDeviation="8"/>
<feComposite in2="hardAlpha" operator="out"/>
<feColorMatrix type="matrix" values="0 0 0 0 0.129412 0 0 0 0 0.129412 0 0 0 0 0.129412 0 0 0 0.08 0"/>
<feBlend mode="normal" in2="BackgroundImageFix" result="effect1_dropShadow_790_7508"/>
<feBlend mode="normal" in="SourceGraphic" in2="effect1_dropShadow_790_7508" result="shape"/>
</filter>
<clipPath id="clip0_790_7508">
<rect width="390" height="844" fill="white" transform="translate(-306 -244)"/>
</clipPath>
<clipPath id="clip1_790_7508">
<rect width="24" height="24" fill="white" transform="translate(14 14)"/>
</clipPath>
</defs>
</svg>
