<svg width="60" height="24" fill="none" xmlns="http://www.w3.org/2000/svg">
    <path
        d="M9.43 19.872H7.196c-1.99 0-3.688-.703-5.092-2.111C.7 16.354-.001 14.651 0 12.653c0-1.997.702-3.7 2.105-5.108 1.403-1.408 3.1-2.11 5.092-2.107 1.99 0 3.688.703 5.092 2.11 1.404 1.408 2.105 3.11 2.104 5.108V24h-3.085V12.54c-.021-1.084-.424-2.019-1.207-2.804a4.11 4.11 0 0 0-2.907-1.208 4.1 4.1 0 0 0-2.908 1.208 4.13 4.13 0 0 0-.894 4.5c.312.754.84 1.399 1.517 1.852a4.103 4.103 0 0 0 2.288.694h2.232v3.09zM25.685 19.598a7.424 7.424 0 0 1-2.04.274c-1.99 0-3.688-.703-5.092-2.111-1.403-1.407-2.104-3.11-2.102-5.108 0-1.997.701-3.7 2.104-5.108 1.404-1.408 3.1-2.11 5.09-2.107 1.99 0 3.688.703 5.092 2.11 1.404 1.408 2.105 3.11 2.105 5.108v7.216h-3.083v-7.328c-.022-1.085-.424-2.02-1.207-2.804a4.112 4.112 0 0 0-2.924-1.267 4.1 4.1 0 0 0-2.948 1.208 4.124 4.124 0 0 0-1.204 2.957 4.136 4.136 0 0 0 1.262 2.933 4.138 4.138 0 0 0 4.947.676v3.351zM40.094 8.529c-1.09 0-2.137.435-2.908 1.208a4.133 4.133 0 0 0-1.205 2.916v7.22h-3.084v-7.22c0-1.997.702-3.7 2.105-5.108 1.402-1.408 3.1-2.11 5.092-2.107v3.09zM49.413 19.598a7.423 7.423 0 0 1-2.04.274c-1.991 0-3.689-.703-5.093-2.111-1.404-1.407-2.105-3.11-2.104-5.108 0-1.997.701-3.7 2.104-5.108 1.403-1.408 3.1-2.11 5.092-2.107 1.99 0 3.688.703 5.092 2.11 1.404 1.408 2.106 3.11 2.105 5.105v7.22h-3.085v-7.33c-.021-1.084-.424-2.019-1.207-2.803a4.113 4.113 0 0 0-2.935-1.308 4.1 4.1 0 0 0-2.977 1.208 4.127 4.127 0 0 0-.848 4.592c.224.506.547.961.95 1.339a4.138 4.138 0 0 0 4.948.676l-.002 3.351z"
        fill="#E74111" />
    <path
        d="M47.386 0v3.073a9.524 9.524 0 0 1 6.753 2.806 9.584 9.584 0 0 1 2.797 6.774H60C60 5.665 54.352 0 47.386 0z"
        fill="#FBBA00" />
</svg>