<svg width="24" height="24" viewBox="0 0 24 24" fill="none" xmlns="http://www.w3.org/2000/svg">
<g clip-path="url(#clip0_137_4883)">
<path d="M9.87114 9.87481H2.82275V2.82642H9.87114V9.87481ZM4.23243 8.46513H8.46147V4.23609H4.23243V8.46513Z" fill="white"/>
<path d="M5.64209 5.64575H7.05177V7.05543H5.64209V5.64575Z" fill="white"/>
<path d="M9.87114 21.1522H2.82275V14.1038H9.87114V21.1522ZM4.23243 19.7425H8.46147V15.5134H4.23243V19.7425Z" fill="white"/>
<path d="M5.64209 16.9231H7.05177V18.3328H5.64209V16.9231Z" fill="white"/>
<path d="M21.1456 9.87481H14.0972V2.82642H21.1456V9.87481ZM15.5068 8.46513H19.7359V4.23609H15.5068V8.46513Z" fill="white"/>
<path d="M16.9165 5.64575H18.3262V7.05543H16.9165V5.64575Z" fill="white"/>
<path d="M18.7666 19.7712L19.7632 18.7746L23.9916 23.003L22.995 23.9996L18.7666 19.7712Z" fill="white"/>
<path d="M17.1542 17.1579H12.1016V15.7482H15.7445V12.0161H17.1542V17.1579Z" fill="white"/>
<path d="M1.4131 5.63164H0.00341797V0.00683594H5.64213V1.41651H1.4131V5.63164Z" fill="white"/>
<path d="M5.63501 23.9715H0.0102539V18.3328H1.41993V22.5618H5.63501V23.9715Z" fill="white"/>
<path d="M23.968 5.63871H22.5583V1.40968H18.3433V0H23.968V5.63871Z" fill="white"/>
<path d="M11.9858 2.82642H12.6907V5.64577H11.9858V2.82642Z" fill="white"/>
<path d="M11.2808 2.82642H11.9856V5.64577H11.2808V2.82642Z" fill="white"/>
<path d="M8.46143 11.2844H11.2808V12.6941H8.46143V11.2844Z" fill="white"/>
<path d="M2.82275 11.2844H7.05179V12.6941H2.82275V11.2844Z" fill="white"/>
<path d="M11.9858 7.05542H12.6907V9.87478H11.9858V7.05542Z" fill="white"/>
<path d="M11.2808 7.05542H11.9856V9.87478H11.2808V7.05542Z" fill="white"/>
<path d="M16.2146 21.1522C13.4941 21.1522 11.2808 18.9388 11.2808 16.2183C11.2808 13.4978 13.4941 11.2844 16.2146 11.2844C18.9352 11.2844 21.1485 13.4978 21.1485 16.2183C21.1485 18.9388 18.9352 21.1522 16.2146 21.1522ZM16.2146 12.6941C14.2714 12.6941 12.6904 14.2751 12.6904 16.2183C12.6904 18.1615 14.2714 19.7425 16.2146 19.7425C18.1579 19.7425 19.7388 18.1615 19.7388 16.2183C19.7388 14.2751 18.1579 12.6941 16.2146 12.6941Z" fill="white"/>
</g>
<defs>
<clipPath id="clip0_137_4883">
<rect width="24" height="24" fill="white"/>
</clipPath>
</defs>
</svg>
