<svg width="24" height="24" viewBox="0 0 24 24" fill="none" xmlns="http://www.w3.org/2000/svg">
<path d="M0.0146484 15.1625V16.4246H1.27669V15.1625V13.8984H0.0146484V15.1625Z" fill="#7A7A7A"/>
<path d="M1.27669 7.58496H0.0146484V8.84701H1.27669V7.58496Z" fill="#7A7A7A"/>
<path d="M9.07845 21.4854H7.81641V22.7474H9.07845V21.4854Z" fill="#7A7A7A"/>
<path d="M1.27669 10.1101V11.3726H0.0146484V12.6351H1.27669V13.8975H2.53873H3.80282V15.1621H5.06486V13.8975H6.32691V12.6351V11.3726H5.06486V12.6351H3.80282H2.53873V11.3726V10.1101V8.84766H1.27669V10.1101Z" fill="#7A7A7A"/>
<path d="M3.80412 7.58496H2.54004V8.84701H3.80412H5.06617V7.58496H3.80412Z" fill="#7A7A7A"/>
<path d="M9.48264 17.7357H10.1595V16.4736H9.48264H8.80371V17.7357H9.48264Z" fill="#7A7A7A"/>
<path d="M6.32747 8.84766H5.06543V10.1097H6.32747V8.84766Z" fill="#7A7A7A"/>
<path d="M15.1634 13.8984H13.9014V15.1605H15.1634V13.8984Z" fill="#7A7A7A"/>
<path d="M16.4261 0.00878906H15.1641V1.27083H16.4261V0.00878906Z" fill="#7A7A7A"/>
<path d="M8.84928 10.1097V8.84721H10.1113V7.58474H8.84928V6.32227H7.58724V7.58474H6.3252V8.84721H7.58724V10.1097V11.3722V12.6346V13.8971H8.84928V12.6346V11.3722H10.1113V10.1097H8.84928Z" fill="#7A7A7A"/>
<path d="M15.1634 22.7367H16.4255V21.4746H15.1634H13.9014V22.7367H15.1634Z" fill="#7A7A7A"/>
<path d="M13.9007 0.00878906H12.6387V1.27083H13.9007V0.00878906Z" fill="#7A7A7A"/>
<path d="M13.5859 10.1099V8.84743H12.3239V7.58496H11.0618V8.84743V10.1099H9.7998V11.3724H11.0618H12.3239V10.1099H13.5859Z" fill="#7A7A7A"/>
<path d="M20.7083 7.58496H19.4463V8.84701H20.7083V7.58496Z" fill="#7A7A7A"/>
<path d="M7.62533 13.8984H6.36328V15.1605H7.62533V13.8984Z" fill="#7A7A7A"/>
<path d="M12.6394 6.32146V5.05899H13.9014V3.79447H15.1635H16.4255V2.532H15.1635V1.26953H13.9014V2.532H12.6394V3.79447H11.3753V5.05899H10.1133V6.32146H11.3753H12.6394Z" fill="#7A7A7A"/>
<path d="M12.6394 15.1619V13.8978H13.9014V12.6357H12.6394H11.3753V13.8978H10.1133V15.1619H11.3753H12.6394Z" fill="#7A7A7A"/>
<path d="M16.4249 20.2116V18.947H15.1628H13.9008V17.6846H12.6388V18.947H11.3747V20.2116H10.1126H8.85059V21.474H10.1126H11.3747H12.6388V20.2116H13.9008V21.474H15.1628V20.2116H16.4249Z" fill="#7A7A7A"/>
<path d="M11.374 1.27083V0.00878906H10.112H8.84994V1.27083H7.58789V2.53288H8.84994H10.112V1.27083H11.374Z" fill="#7A7A7A"/>
<path d="M11.3753 2.53223H10.1133V3.79427H11.3753V2.53223Z" fill="#7A7A7A"/>
<path d="M14.5306 7.58451H13.2686V8.84698V10.1095V11.3719H14.5306H15.7926V10.1095H14.5306V8.84698H15.7926V7.58451H17.0547V6.32204H15.7926V5.05957H14.5306V6.32204V7.58451Z" fill="#7A7A7A"/>
<path d="M10.1126 3.7959H8.85059V5.05794H10.1126V3.7959Z" fill="#7A7A7A"/>
<path d="M13.9014 16.4242V17.6862H15.1634H16.4255V16.4242H17.6875H18.9495V15.1621H17.6875H16.4255H15.1634V16.4242H13.9014Z" fill="#7A7A7A"/>
<path d="M20.7083 11.3721H19.4463V12.6341H20.7083V11.3721Z" fill="#7A7A7A"/>
<path d="M16.4261 12.6357H15.1641V13.8978H16.4261V12.6357Z" fill="#7A7A7A"/>
<path d="M19.5818 8.84766H18.3197H17.0557V10.1097H18.3197V11.3717H19.5818V10.1097V8.84766Z" fill="#7A7A7A"/>
<path d="M18.9476 12.6357H17.6855V13.8978H18.9476V12.6357Z" fill="#7A7A7A"/>
<path d="M5.06413 20.2375H8.8523V15.1611H3.77762V16.4256H2.54004V17.6881H3.77762V18.9506H2.54004V20.2131H3.77762V20.2375H3.80208V21.4755H2.54004V24.0005H3.80208V22.7339H5.06413V20.2375ZM7.87977 16.132V19.2892H4.72364V16.132H7.87977Z" fill="#7A7A7A"/>
<path d="M21.4723 15.1625H22.7344V13.8984H21.4723H20.2103H18.9482V15.1625H20.2103H21.4723Z" fill="#7A7A7A"/>
<path d="M21.4736 10.1091H22.7357V8.84701V7.58496H21.4736V8.84701V10.1091Z" fill="#7A7A7A"/>
<path d="M11.4233 16.4736H10.1592V17.7357V18.9977H11.4233V17.7357V16.4736Z" fill="#7A7A7A"/>
<path d="M23.9984 15.1621H22.7363V16.4242H23.9984V15.1621Z" fill="#7A7A7A"/>
<path d="M24.0004 12.6351V11.373H22.7363V12.6351V13.8971H24.0004V12.6351Z" fill="#7A7A7A"/>
<path d="M1.27669 21.4746H0.0146484V22.7367V23.9987H1.27669V22.7367V21.4746Z" fill="#7A7A7A"/>
<path d="M24.0001 6.32256V0H17.6797V6.32256H24.0001ZM18.6339 5.37417V0.954503H23.052V5.37417H18.6339Z" fill="#7A7A7A"/>
<path d="M22.1051 1.90234H19.5811V4.42643H22.1051V1.90234Z" fill="#7A7A7A"/>
<path d="M24.0001 17.6875H17.6797V23.9999H24.0001V17.6875ZM18.6339 23.0535V18.6338H23.052V23.0535H18.6339Z" fill="#7A7A7A"/>
<path d="M22.1051 19.5801H19.5811V22.1042H22.1051V19.5801Z" fill="#7A7A7A"/>
<path d="M0 0.00878906V6.33134H6.30614V0.00878906H0ZM5.3642 0.955133V5.3748H0.94602V0.955133H5.3642Z" fill="#7A7A7A"/>
<path d="M4.41667 1.90234H1.89258V4.42643H4.41667V1.90234Z" fill="#7A7A7A"/>
</svg>
