<svg width="48" height="48" viewBox="0 0 48 48" fill="none" xmlns="http://www.w3.org/2000/svg">
<rect width="48" height="48" rx="12" fill="#F1F9F1"/>
<path d="M19.2734 19.8623C19.2734 18.5697 18.2223 17.5186 16.9297 17.5186C15.6371 17.5186 14.5859 18.5697 14.5859 19.8623C14.5859 21.1549 15.6371 22.2061 16.9297 22.2061C18.2223 22.2061 19.2734 21.1549 19.2734 19.8623Z" fill="#4BAE4F"/>
<path d="M24 16.3076C23.0308 16.3076 22.2422 17.0962 22.2422 18.0654C22.2422 20.3268 20.3629 22.2061 18.1016 22.2061H16.9297C15.3144 22.2061 14 23.5204 14 25.1357V30.9951C14 31.3189 14.2621 31.5811 14.5859 31.5811H19.2734C19.5968 31.5811 19.8516 31.3189 19.8516 30.9957L19.855 25.5163C23.2767 24.71 25.7578 21.6291 25.7578 18.0654C25.7578 17.0962 24.9692 16.3076 24 16.3076Z" fill="#4BAE4F"/>
<path d="M33.4141 19.8623C33.4141 18.5697 32.3629 17.5186 31.0703 17.5186C29.7777 17.5186 28.7266 18.5697 28.7266 19.8623C28.7266 21.1549 29.7777 22.2061 31.0703 22.2061C32.3629 22.2061 33.4141 21.1549 33.4141 19.8623Z" fill="#4BAE4F"/>
<path d="M31.0703 22.2063H29.8984C28.551 22.2063 27.3245 21.5055 26.5764 20.499C26.2335 21.7087 25.6363 22.8066 24.8387 23.7467C25.773 24.5714 26.9275 25.226 28.1448 25.516L28.1483 30.996C28.1483 31.3192 28.4032 31.5813 28.7265 31.5813H33.414C33.7378 31.5813 33.9999 31.3192 33.9999 30.9954V25.136C33.9999 23.5207 32.6855 22.2063 31.0703 22.2063V22.2063Z" fill="#4BAE4F"/>
</svg>
