<svg width="20" height="20" viewBox="0 0 20 20" fill="none" xmlns="http://www.w3.org/2000/svg">
<path d="M17.8939 0.883817C17.8939 0.394191 17.4812 0 16.9784 0C16.4712 0 16.0629 0.39834 16.0629 0.883817V2.0332H14.8723C14.3651 2.0332 13.9568 2.43154 13.9568 2.91701C13.9568 3.40664 14.3694 3.80083 14.8723 3.80083H16.0629V4.95021C16.0629 5.43983 16.4755 5.83402 16.9784 5.83402C17.4855 5.83402 17.8939 5.43568 17.8939 4.95021V3.80083H19.0844C19.5916 3.80083 19.9999 3.40249 19.9999 2.91701C19.9999 2.42739 19.5873 2.0332 19.0844 2.0332H17.8939V0.883817Z" fill="#7A7A7A"/>
<path d="M11.1675 3.80493C13.2521 3.83398 14.9627 5.50618 14.9627 7.52277C14.9627 9.56012 13.222 11.2406 11.1116 11.2406C10.4841 11.2406 9.88664 11.0912 9.35798 10.8257C8.55423 10.4232 7.90951 9.75099 7.55707 8.93771C7.53128 8.87962 7.50549 8.81738 7.484 8.75929C7.33786 8.36925 7.2605 7.95431 7.2605 7.51862C7.2605 5.39414 9.00123 3.80078 11.1116 3.80078C11.1288 3.80493 11.146 3.80493 11.1675 3.80493Z" fill="#7A7A7A"/>
<path d="M5.97534 8.44431C4.62573 7.86754 3.68445 6.56049 3.68445 5.04597C3.68445 2.99203 5.40799 1.32812 7.53556 1.32812C8.65736 1.32812 9.66742 1.79286 10.3723 2.53144C7.86651 2.88829 5.88508 5.02107 5.88508 7.52315C5.88508 7.83435 5.91517 8.14555 5.97534 8.44431Z" fill="#7A7A7A"/>
<path d="M2.76458 16.4602C3.80472 14.2113 5.77755 12.4727 8.20169 11.6926C7.2518 11.066 6.51683 10.1532 6.14719 9.09094C2.87633 9.72995 0.413509 12.3565 0.0137847 15.5764C-0.0764756 16.1075 0.288864 16.4602 0.748762 16.4602H2.76458Z" fill="#7A7A7A"/>
<path d="M8.1802 13.1156C6.51683 13.767 5.14143 14.9537 4.28611 16.46C3.83051 17.2649 3.52534 18.1612 3.40929 19.1156C3.31903 19.6467 3.68437 19.9994 4.14427 19.9994H18.083C18.5429 19.9994 18.9083 19.5554 18.818 19.1156C18.3581 15.3977 15.0572 12.4766 11.1158 12.4766C10.4754 12.4766 9.83067 12.5637 9.28051 12.7421C9.19455 12.7629 9.12148 12.7919 9.05701 12.8293C8.75184 12.9122 8.46387 13.0035 8.1802 13.1156Z" fill="#7A7A7A"/>
</svg>
