<svg width="16" height="16" viewBox="0 0 16 16" fill="none" xmlns="http://www.w3.org/2000/svg">
<g clip-path="url(#clip0_593_8636)">
<path fill-rule="evenodd" clip-rule="evenodd" d="M12.1601 1.90664V2.15998H7.08009C6.60859 2.15998 6.15641 2.34728 5.82301 2.68067C5.48961 3.01407 5.30231 3.46626 5.30231 3.93775V13.08H3.01787C2.88371 13.0818 2.75056 13.0567 2.62627 13.0062C2.50198 12.9556 2.38906 12.8807 2.2942 12.7859C2.19933 12.691 2.12442 12.5781 2.07391 12.4538C2.0234 12.3295 1.9983 12.1964 2.00009 12.0622V1.90664C1.9995 1.77282 2.02543 1.64021 2.07637 1.51646C2.12731 1.39271 2.20225 1.28028 2.29688 1.18565C2.39151 1.09103 2.50394 1.01608 2.62769 0.96514C2.75143 0.914201 2.88405 0.888277 3.01787 0.888865H11.1423C11.4119 0.890034 11.6701 0.99764 11.8607 1.18826C12.0513 1.37887 12.1589 1.63707 12.1601 1.90664Z" fill="#8C8C8C"/>
<path fill-rule="evenodd" clip-rule="evenodd" d="M15.9245 3.22223C15.8311 3.12747 15.7197 3.05233 15.5968 3.0012C15.4739 2.95006 15.3421 2.92397 15.209 2.92445H7.08009C6.94627 2.92386 6.81366 2.94978 6.68991 3.00072C6.56616 3.05166 6.45373 3.12661 6.3591 3.22124C6.26448 3.31586 6.18953 3.4283 6.13859 3.55204C6.08765 3.67579 6.06173 3.8084 6.06232 3.94223V14.0933C6.06052 14.2275 6.08562 14.3606 6.13614 14.4849C6.18665 14.6092 6.26155 14.7221 6.35642 14.817C6.45129 14.9119 6.5642 14.9868 6.68849 15.0373C6.81279 15.0878 6.94594 15.1129 7.08009 15.1111H15.2045C15.3384 15.1117 15.471 15.0858 15.5947 15.0348C15.7185 14.9839 15.8309 14.909 15.9255 14.8143C16.0202 14.7197 16.0951 14.6073 16.146 14.4835C16.197 14.3598 16.2229 14.2272 16.2223 14.0933V3.93778C16.2228 3.8047 16.1967 3.67285 16.1456 3.54998C16.0944 3.42711 16.0193 3.31568 15.9245 3.22223ZM13.7023 11.9378H8.60454C8.55118 11.9436 8.49721 11.938 8.44613 11.9216C8.39505 11.9051 8.34801 11.8781 8.30807 11.8422C8.26814 11.8064 8.23619 11.7625 8.21433 11.7135C8.19246 11.6645 8.18116 11.6114 8.18116 11.5578C8.18116 11.5041 8.19246 11.4511 8.21433 11.402C8.23619 11.353 8.26814 11.3092 8.30807 11.2733C8.34801 11.2375 8.39505 11.2105 8.44613 11.194C8.49721 11.1775 8.55118 11.172 8.60454 11.1778H13.6845C13.7782 11.1879 13.8649 11.2323 13.9278 11.3025C13.9908 11.3726 14.0256 11.4635 14.0256 11.5578C14.0256 11.652 13.9908 11.743 13.9278 11.8131C13.8649 11.8832 13.7782 11.9276 13.6845 11.9378H13.7023ZM13.7023 9.4H8.60454C8.55118 9.40578 8.49721 9.40026 8.44613 9.3838C8.39505 9.36734 8.34801 9.3403 8.30807 9.30446C8.26814 9.26861 8.23619 9.22475 8.21433 9.17574C8.19246 9.12673 8.18116 9.07367 8.18116 9.02C8.18116 8.96634 8.19246 8.91327 8.21433 8.86426C8.23619 8.81526 8.26814 8.7714 8.30807 8.73555C8.34801 8.69971 8.39505 8.67267 8.44613 8.65621C8.49721 8.63975 8.55118 8.63423 8.60454 8.64H13.6845C13.7782 8.65015 13.8649 8.69456 13.9278 8.7647C13.9908 8.83484 14.0256 8.92576 14.0256 9.02C14.0256 9.11425 13.9908 9.20517 13.9278 9.27531C13.8649 9.34545 13.7782 9.38986 13.6845 9.4H13.7023ZM13.7023 6.86223H8.60454C8.55118 6.868 8.49721 6.86248 8.44613 6.84602C8.39505 6.82956 8.34801 6.80252 8.30807 6.76668C8.26814 6.73083 8.23619 6.68698 8.21433 6.63797C8.19246 6.58896 8.18116 6.53589 8.18116 6.48223C8.18116 6.42856 8.19246 6.3755 8.21433 6.32649C8.23619 6.27748 8.26814 6.23362 8.30807 6.19778C8.34801 6.16193 8.39505 6.13489 8.44613 6.11843C8.49721 6.10197 8.55118 6.09645 8.60454 6.10223H13.6845C13.7782 6.11237 13.8649 6.15678 13.9278 6.22692C13.9908 6.29706 14.0256 6.38798 14.0256 6.48223C14.0256 6.57647 13.9908 6.6674 13.9278 6.73753C13.8649 6.80767 13.7782 6.85208 13.6845 6.86223H13.7023Z" fill="#C6C6C6"/>
</g>
<defs>
<clipPath id="clip0_593_8636">
<rect width="16" height="16" fill="white"/>
</clipPath>
</defs>
</svg>
