<svg width="20" height="20" viewBox="0 0 20 20" fill="none" xmlns="http://www.w3.org/2000/svg">
<g clip-path="url(#clip0_513_6891)">
<path d="M19.7601 6.5441L18.0272 5.92199H18.0271C17.9292 5.62375 17.8079 5.33125 17.6667 5.05254L18.4524 3.38711C18.5049 3.27594 18.4819 3.14391 18.395 3.05703L16.896 1.55793C16.8091 1.47105 16.6771 1.44805 16.5659 1.50047L14.9005 2.28617H14.9004C14.6219 2.14508 14.3294 2.02383 14.0309 1.92574L13.4089 0.192773C13.3674 0.0771484 13.2577 0 13.1349 0H11.0149C10.892 0 10.7824 0.0771484 10.7408 0.192773L10.1189 1.92574C9.82042 2.02379 9.52788 2.14508 9.24928 2.28617L7.58389 1.50051C7.47272 1.44809 7.34069 1.47105 7.25381 1.55801L5.75475 3.05703C5.66788 3.14387 5.64491 3.27594 5.69733 3.38703L6.48299 5.05246C6.34155 5.33203 6.22034 5.62457 6.12268 5.92199L4.38963 6.5441C4.27401 6.58563 4.1969 6.69523 4.1969 6.81809V8.93801C4.1969 9.0609 4.27405 9.17051 4.38967 9.21203L6.12268 9.83402C6.22049 10.132 6.3417 10.4245 6.48299 10.7035L5.69733 12.3691C5.64491 12.4802 5.66792 12.6122 5.75475 12.6991L7.25385 14.1981C7.34069 14.285 7.47272 14.308 7.58393 14.2556L9.24932 13.47C9.52819 13.6112 9.82077 13.7324 10.1189 13.8303L10.7409 15.5632C10.7824 15.6788 10.892 15.756 11.0149 15.756H13.1349C13.2578 15.756 13.3674 15.6788 13.4089 15.5632L14.0309 13.8303C14.3289 13.7324 14.6215 13.6113 14.9005 13.47L16.566 14.2557C16.6771 14.308 16.8092 14.2852 16.896 14.1982L18.395 12.6991C18.4819 12.6122 18.5049 12.4802 18.4525 12.369L17.6667 10.7037C17.808 10.4248 17.9292 10.1322 18.0271 9.83402L19.7601 9.21207C19.8758 9.17055 19.9529 9.06094 19.9529 8.93805V6.81809C19.9529 6.69523 19.8757 6.58563 19.7601 6.5441ZM12.1083 10.4005C10.7152 10.4005 9.58581 9.27117 9.58581 7.87805C9.58581 6.48488 10.7152 5.35555 12.1083 5.35555C13.5014 5.35555 14.6308 6.48488 14.6308 7.87805C14.6308 9.27117 13.5014 10.4005 12.1083 10.4005Z" fill="#7A7A7A"/>
<path d="M12.0748 4.64746C10.2905 4.64746 8.84406 6.09391 8.84406 7.87828C8.84406 9.66254 10.2905 11.109 12.0748 11.109C13.8591 11.109 15.3057 9.66254 15.3057 7.87828C15.3057 6.09391 13.8591 4.64746 12.0748 4.64746ZM12.0748 9.8752C10.9719 9.8752 10.0778 8.98113 10.0778 7.87824C10.0778 6.77531 10.9719 5.88125 12.0748 5.88125C13.1777 5.88125 14.0719 6.77531 14.0719 7.87824C14.0719 8.98113 13.1777 9.8752 12.0748 9.8752Z" fill="#7A7A7A"/>
<path d="M10.7753 13.6497L9.58069 13.2209H9.58065C9.51311 13.0153 9.42952 12.8137 9.33218 12.6215L9.87378 11.4735C9.90991 11.3969 9.89409 11.3059 9.83421 11.246L8.80093 10.2126C8.74104 10.1527 8.65003 10.1369 8.57339 10.173L7.4253 10.7146H7.42526C7.23331 10.6174 7.03163 10.5338 6.82585 10.4661L6.3971 9.27156C6.3685 9.19188 6.29292 9.13867 6.20819 9.13867H4.74682C4.66214 9.13867 4.58655 9.19188 4.55792 9.27156L4.12917 10.4661C3.92346 10.5337 3.72178 10.6173 3.52975 10.7146L2.38175 10.173C2.3051 10.1369 2.21409 10.1527 2.15421 10.2127L1.12085 11.246C1.06096 11.3059 1.0451 11.3969 1.08128 11.4735L1.62284 12.6215C1.52534 12.8143 1.44178 13.0159 1.37444 13.2209L0.179949 13.6497C0.100261 13.6783 0.0470581 13.7539 0.0470581 13.8386V15.2999C0.0470581 15.3846 0.100222 15.4602 0.179949 15.4888L1.37456 15.9175C1.44198 16.1229 1.52553 16.3246 1.62296 16.5169L1.08139 17.665C1.04526 17.7416 1.06112 17.8327 1.12096 17.8925L2.15432 18.9258C2.21421 18.9857 2.30518 19.0016 2.38186 18.9655L3.52987 18.4239C3.7221 18.5213 3.92378 18.6048 4.12932 18.6723L4.55803 19.8669C4.58667 19.9466 4.66221 19.9998 4.74694 19.9998H6.20831C6.293 19.9998 6.36858 19.9466 6.39721 19.8669L6.82593 18.6723C7.03135 18.6049 7.23307 18.5213 7.42534 18.4239L8.57343 18.9655C8.65003 19.0016 8.74108 18.9858 8.80096 18.9259L9.83428 17.8925C9.89417 17.8327 9.91003 17.7416 9.87385 17.665L9.33225 16.517C9.4296 16.3248 9.51319 16.1231 9.58069 15.9176L10.7753 15.4889C10.855 15.4602 10.9082 15.3847 10.9082 15.3V13.8387C10.9081 13.7539 10.8549 13.6783 10.7753 13.6497ZM5.4776 16.1847C4.58538 16.1847 3.8621 15.4614 3.8621 14.5692C3.8621 13.677 4.58538 12.9537 5.4776 12.9537C6.36983 12.9537 7.09311 13.677 7.09311 14.5692C7.09311 15.4614 6.36983 16.1847 5.4776 16.1847Z" fill="#B3B3B3"/>
<path d="M5.47762 12.3423C4.24766 12.3423 3.25055 13.3394 3.25055 14.5694C3.25055 15.7993 4.24766 16.7963 5.47762 16.7963C6.70758 16.7963 7.70469 15.7993 7.70469 14.5694C7.70469 13.3394 6.70758 12.3423 5.47762 12.3423ZM5.47762 15.6829C4.86262 15.6829 4.36407 15.1844 4.36407 14.5694C4.36407 13.9544 4.86262 13.4558 5.47762 13.4558C6.09262 13.4558 6.59117 13.9544 6.59117 14.5694C6.59113 15.1843 6.09262 15.6829 5.47762 15.6829Z" fill="#7A7A7A"/>
</g>
<defs>
<clipPath id="clip0_513_6891">
<rect width="20" height="20" fill="white"/>
</clipPath>
</defs>
</svg>
