<svg width="56" height="56" viewBox="0 0 56 56" fill="none" xmlns="http://www.w3.org/2000/svg">
<rect width="56" height="56" rx="12" fill="#F5F5F5"/>
<path d="M33.625 21.7188H33.4473C33.0034 19.9989 31.7598 18.5772 30.1094 17.9092V16.7031C30.1094 16.315 29.7944 16 29.4062 16H26.5938C26.2056 16 25.8906 16.315 25.8906 16.7031V17.9092C24.2134 18.588 22.9562 20.0448 22.5316 21.8027C21.6302 22.0619 20.9688 22.8939 20.9688 23.8778V25.2344C20.9688 25.6225 21.2837 25.9375 21.6719 25.9375H34.3281C34.7163 25.9375 35.0312 25.6225 35.0312 25.2344V23.125C35.0312 22.3497 34.4003 21.7188 33.625 21.7188ZM29.9036 22.9192L28.4973 24.3255C27.8397 24.9827 26.8445 23.9894 27.5027 23.3308L28.2194 22.6145L26.2792 21.6447C25.8508 21.43 25.7575 20.8577 26.0964 20.5183L27.5027 19.112C28.1603 18.4548 29.1555 19.4481 28.4973 20.1067L27.7806 20.823L29.7208 21.7928C30.1492 22.0075 30.2425 22.5798 29.9036 22.9192Z" fill="#7A7A7A"/>
<path d="M33.625 27.3438C33.625 30.4455 31.1017 32.9688 28 32.9688C24.8983 32.9688 22.375 30.4455 22.375 27.3438H33.625Z" fill="#7A7A7A"/>
<path d="M18.1562 39.2969C18.1562 39.685 18.4712 40 18.8594 40H22.375V36.4844C22.375 36.0963 22.69 35.7812 23.0781 35.7812H23.7812V33.0077C20.6214 33.3583 18.1562 36.0452 18.1562 39.2969ZM23.7812 37.1875V40H32.2188V37.1875H23.7812ZM25.1875 32.9688V35.7812H30.8125V32.9688H25.1875ZM32.2188 33.0077V35.7812H32.9219C33.31 35.7812 33.625 36.0963 33.625 36.4844V40H37.1406C37.5287 40 37.8438 39.685 37.8438 39.2969C37.8438 36.0452 35.3786 33.3583 32.2188 33.0077Z" fill="#7A7A7A"/>
</svg>
