<svg width="34" height="34" viewBox="0 0 34 34" fill="none" xmlns="http://www.w3.org/2000/svg">
<g clip-path="url(#clip0_761_9110)">
<path d="M28.5356 8.15249V25.7157C28.5356 27.2344 27.3003 28.4697 25.7816 28.4697H8.21841C6.69966 28.4697 5.46436 27.2344 5.46436 25.7157V8.15249C5.46436 6.63374 6.69966 5.39844 8.21841 5.39844H25.7816C27.3003 5.39844 28.5356 6.63374 28.5356 8.15249Z" fill="#FEEAB3"/>
<path d="M32.821 17.9888H1.18036C-0.127713 17.9888 -0.128109 16.0112 1.18036 16.0112H32.821C34.1291 16.0112 34.1295 17.9888 32.821 17.9888Z" fill="white"/>
<path d="M31.8981 8.49658V3.77297C31.8981 2.85189 31.1487 2.10254 30.2277 2.10254H25.504C24.1968 2.10254 24.1949 0.125 25.504 0.125H30.2277C32.2391 0.125 33.8756 1.76148 33.8756 3.77297V8.49658C33.8756 9.80387 31.8981 9.80571 31.8981 8.49658Z" fill="white"/>
<path d="M30.2277 33.8757H25.504C24.1968 33.8757 24.1949 31.8981 25.504 31.8981H30.2277C31.1488 31.8981 31.8981 31.1488 31.8981 30.2277V25.5041C31.8981 24.1968 33.8756 24.195 33.8756 25.5041V30.2277C33.8756 32.2392 32.2391 33.8757 30.2277 33.8757Z" fill="white"/>
<path d="M0.125 8.49658V3.77297C0.125 1.76148 1.76148 0.125 3.7729 0.125H8.49658C9.80387 0.125 9.80571 2.10254 8.49658 2.10254H3.7729C2.85189 2.10254 2.10254 2.85189 2.10254 3.77297V8.49658C2.10254 9.80387 0.125 9.80571 0.125 8.49658H0.125Z" fill="white"/>
<path d="M8.49658 33.8757H3.7729C1.76148 33.8757 0.125 32.2392 0.125 30.2277V25.5041C0.125 24.1968 2.10254 24.195 2.10254 25.5041V30.2277C2.10254 31.1488 2.85189 31.8981 3.7729 31.8981H8.49658C9.80387 31.8981 9.80571 33.8757 8.49658 33.8757Z" fill="white"/>
</g>
<defs>
<clipPath id="clip0_761_9110">
<rect width="33.75" height="33.75" fill="white" transform="translate(0.125 0.125)"/>
</clipPath>
</defs>
</svg>
