<svg width="48" height="48" viewBox="0 0 48 48" fill="none" xmlns="http://www.w3.org/2000/svg">
<rect width="48" height="48" fill="#1E1E1E"/>
<rect width="7650" height="2816" transform="translate(-6647 -2072)" fill="#404040"/>
<g clip-path="url(#clip0_20_8511)">
<rect x="-77" y="-468" width="390" height="952" rx="24" fill="white"/>
<rect x="-60.5" y="-59.5" width="169" height="175" rx="15.5" fill="white" stroke="#ECECEC"/>
<rect width="48" height="48" rx="12" fill="#F1F9F1"/>
<g clip-path="url(#clip1_20_8511)">
<path d="M33.5837 19.8333C33.3537 19.8333 33.167 19.6467 33.167 19.4167V16.0833C33.167 15.3942 32.6062 14.8333 31.917 14.8333H28.5837C28.3537 14.8333 28.167 14.6467 28.167 14.4167C28.167 14.1867 28.3537 14 28.5837 14H31.917C33.0653 14 34.0003 14.9342 34.0003 16.0833V19.4167C34.0003 19.6467 33.8137 19.8333 33.5837 19.8333Z" fill="#4BAE4F"/>
<path d="M31.917 34.0003H28.5837C28.3537 34.0003 28.167 33.8137 28.167 33.5837C28.167 33.3537 28.3537 33.167 28.5837 33.167H31.917C32.6062 33.167 33.167 32.6062 33.167 31.917V28.5837C33.167 28.3537 33.3537 28.167 33.5837 28.167C33.8137 28.167 34.0003 28.3537 34.0003 28.5837V31.917C34.0003 33.0662 33.0653 34.0003 31.917 34.0003Z" fill="#4BAE4F"/>
<path d="M19.4167 34.0003H16.0833C14.935 34.0003 14 33.0662 14 31.917V28.5837C14 28.3537 14.1867 28.167 14.4167 28.167C14.6467 28.167 14.8333 28.3537 14.8333 28.5837V31.917C14.8333 32.6062 15.3942 33.167 16.0833 33.167H19.4167C19.6467 33.167 19.8333 33.3537 19.8333 33.5837C19.8333 33.8137 19.6467 34.0003 19.4167 34.0003Z" fill="#4BAE4F"/>
<path d="M14.4167 19.8333C14.1867 19.8333 14 19.6467 14 19.4167V16.0833C14 14.9342 14.935 14 16.0833 14H19.4167C19.6467 14 19.8333 14.1867 19.8333 14.4167C19.8333 14.6467 19.6467 14.8333 19.4167 14.8333H16.0833C15.3942 14.8333 14.8333 15.3942 14.8333 16.0833V19.4167C14.8333 19.6467 14.6467 19.8333 14.4167 19.8333Z" fill="#4BAE4F"/>
<path d="M19.039 25.486C19.0747 25.4072 19.1329 25.3403 19.2067 25.2933C19.2804 25.2463 19.3665 25.2212 19.4545 25.2212L21.7272 25.2212L21.7272 17.445C21.7272 17.327 21.7751 17.2138 21.8603 17.1303C21.9456 17.0469 22.0612 17 22.1817 17L25.8181 17C25.9386 17 26.0542 17.0469 26.1395 17.1303C26.2247 17.2138 26.2726 17.327 26.2726 17.445L26.2726 25.2212L28.5453 25.2212C28.6334 25.2212 28.7196 25.2462 28.7934 25.2933C28.8672 25.3403 28.9255 25.4073 28.9612 25.4862C28.9968 25.5651 29.0082 25.6524 28.9941 25.7375C28.98 25.8227 28.9409 25.9019 28.8817 25.9657L24.3363 30.8609C24.2925 30.9049 24.2402 30.9399 24.1825 30.9638C24.1247 30.9877 24.0626 31 23.9999 31C23.9372 31 23.8751 30.9877 23.8173 30.9638C23.7595 30.9399 23.7073 30.9049 23.6635 30.8609L19.1181 25.9657C19.0589 25.9019 19.0199 25.8225 19.0058 25.7374C18.9918 25.6522 19.0033 25.5649 19.039 25.486Z" fill="#4BAE4F"/>
</g>
</g>
<defs>
<clipPath id="clip0_20_8511">
<rect x="-77" y="-468" width="390" height="952" rx="24" fill="white"/>
</clipPath>
<clipPath id="clip1_20_8511">
<rect width="20" height="20" fill="white" transform="translate(14 14)"/>
</clipPath>
</defs>
</svg>
