<svg width="48" height="48" viewBox="0 0 48 48" fill="none" xmlns="http://www.w3.org/2000/svg">
<rect width="48" height="48" fill="#1E1E1E"/>
<rect width="7650" height="2816" transform="translate(-6835 -2072)" fill="#404040"/>
<g clip-path="url(#clip0_20_8511)">
<rect x="-265" y="-468" width="390" height="952" rx="24" fill="white"/>
<rect x="-60.5" y="-59.5" width="169" height="175" rx="15.5" fill="white" stroke="#ECECEC"/>
<rect width="48" height="48" rx="12" fill="#F1F9F1"/>
<g clip-path="url(#clip1_20_8511)">
<path d="M33.5837 19.8333C33.3537 19.8333 33.167 19.6467 33.167 19.4167V16.0833C33.167 15.3942 32.6062 14.8333 31.917 14.8333H28.5837C28.3537 14.8333 28.167 14.6467 28.167 14.4167C28.167 14.1867 28.3537 14 28.5837 14H31.917C33.0653 14 34.0003 14.9342 34.0003 16.0833V19.4167C34.0003 19.6467 33.8137 19.8333 33.5837 19.8333Z" fill="#4BAE4F"/>
<path d="M31.917 34.0003H28.5837C28.3537 34.0003 28.167 33.8137 28.167 33.5837C28.167 33.3537 28.3537 33.167 28.5837 33.167H31.917C32.6062 33.167 33.167 32.6062 33.167 31.917V28.5837C33.167 28.3537 33.3537 28.167 33.5837 28.167C33.8137 28.167 34.0003 28.3537 34.0003 28.5837V31.917C34.0003 33.0662 33.0653 34.0003 31.917 34.0003Z" fill="#4BAE4F"/>
<path d="M19.4167 34.0003H16.0833C14.935 34.0003 14 33.0662 14 31.917V28.5837C14 28.3537 14.1867 28.167 14.4167 28.167C14.6467 28.167 14.8333 28.3537 14.8333 28.5837V31.917C14.8333 32.6062 15.3942 33.167 16.0833 33.167H19.4167C19.6467 33.167 19.8333 33.3537 19.8333 33.5837C19.8333 33.8137 19.6467 34.0003 19.4167 34.0003Z" fill="#4BAE4F"/>
<path d="M14.4167 19.8333C14.1867 19.8333 14 19.6467 14 19.4167V16.0833C14 14.9342 14.935 14 16.0833 14H19.4167C19.6467 14 19.8333 14.1867 19.8333 14.4167C19.8333 14.6467 19.6467 14.8333 19.4167 14.8333H16.0833C15.3942 14.8333 14.8333 15.3942 14.8333 16.0833V19.4167C14.8333 19.6467 14.6467 19.8333 14.4167 19.8333Z" fill="#4BAE4F"/>
<path d="M28.961 22.514C28.9253 22.5928 28.8671 22.6597 28.7933 22.7067C28.7196 22.7537 28.6335 22.7788 28.5455 22.7788L26.2728 22.7788L26.2728 30.555C26.2728 30.673 26.2249 30.7862 26.1397 30.8697C26.0544 30.9531 25.9388 31 25.8183 31L22.1819 31C22.0614 31 21.9458 30.9531 21.8605 30.8697C21.7753 30.7862 21.7274 30.673 21.7274 30.555L21.7274 22.7788L19.4547 22.7788C19.3666 22.7788 19.2804 22.7538 19.2066 22.7067C19.1328 22.6597 19.0745 22.5927 19.0388 22.5138C19.0032 22.4349 18.9918 22.3476 19.0059 22.2625C19.02 22.1773 19.0591 22.0981 19.1183 22.0343L23.6637 17.1391C23.7075 17.0951 23.7598 17.0601 23.8175 17.0362C23.8753 17.0123 23.9374 17 24.0001 17C24.0628 17 24.1249 17.0123 24.1827 17.0362C24.2405 17.0601 24.2927 17.0951 24.3365 17.1391L28.8819 22.0343C28.9411 22.0981 28.9802 22.1775 28.9942 22.2626C29.0082 22.3478 28.9967 22.4351 28.961 22.514Z" fill="#4BAE4F"/>
</g>
</g>
<defs>
<clipPath id="clip0_20_8511">
<rect x="-265" y="-468" width="390" height="952" rx="24" fill="white"/>
</clipPath>
<clipPath id="clip1_20_8511">
<rect width="20" height="20" fill="white" transform="translate(14 14)"/>
</clipPath>
</defs>
</svg>
