<svg width="326" height="326" viewBox="0 0 326 326" fill="none" xmlns="http://www.w3.org/2000/svg">
<path d="M3.32252 73.3386V22.1053C2.99241 17.4045 4.4485 12.7515 7.40346 9.06412C9.1726 7.12472 11.3513 5.59726 13.7839 4.59083C16.2164 3.58441 18.8429 3.12387 21.4755 3.24216H75.6997C76.1289 3.24216 76.5404 3.07289 76.8439 2.77154C77.1474 2.4702 77.3179 2.06146 77.3179 1.63529C77.3179 1.20913 77.1474 0.800424 76.8439 0.499079C76.5404 0.197734 76.1289 0.028425 75.6997 0.0284249H22.1322C17.5957 -0.197732 13.0949 0.929696 9.20934 3.26547C6.41659 5.11204 4.1224 7.61036 2.52777 10.5416C0.933128 13.4729 0.0867033 16.7478 0.0625423 20.0793C-0.0781779 28.5095 0.0625423 36.963 0.0625423 45.3699V73.3153C0.110444 73.7111 0.302782 74.0758 0.603141 74.3403C0.9035 74.6049 1.29107 74.751 1.69257 74.751C2.09406 74.751 2.48164 74.6049 2.782 74.3403C3.08236 74.0758 3.27462 73.7111 3.32252 73.3153V73.3386Z" fill="#EC6707"/>
<path d="M73.8592 322.724H22.2618C17.5289 323.041 12.8468 321.596 9.12789 318.672C7.17728 316.913 5.64068 314.75 4.62732 312.335C3.61395 309.92 3.14868 307.313 3.26455 304.699V250.788C3.26455 250.362 3.09407 249.953 2.79058 249.652C2.4871 249.35 2.07545 249.181 1.64626 249.181C1.21706 249.181 0.80542 249.35 0.501933 249.652C0.198446 249.953 0.0279698 250.362 0.0279698 250.788V304.047C-0.196914 308.551 0.938317 313.02 3.28802 316.879C5.14742 319.651 7.664 321.926 10.6166 323.506C13.5693 325.085 16.8675 325.921 20.2214 325.938C28.7115 326.078 37.2016 325.938 45.6917 325.938H73.8357C74.2649 325.938 74.6766 325.769 74.9801 325.467C75.2835 325.166 75.454 324.757 75.454 324.331C75.454 323.905 75.2835 323.496 74.9801 323.195C74.6766 322.894 74.2649 322.724 73.8357 322.724H73.8592Z" fill="#EC6707"/>
<path d="M251.766 322.724H303.363C308.096 323.041 312.778 321.596 316.497 318.672C318.448 316.913 319.984 314.75 320.998 312.335C322.011 309.92 322.476 307.313 322.36 304.699V250.788C322.36 250.362 322.531 249.953 322.834 249.652C323.138 249.35 323.55 249.181 323.979 249.181C324.408 249.181 324.82 249.35 325.123 249.652C325.427 249.953 325.597 250.362 325.597 250.788V304.047C325.822 308.551 324.687 313.02 322.337 316.879C320.478 319.651 317.961 321.926 315.008 323.506C312.056 325.085 308.758 325.921 305.404 325.938C296.914 326.078 288.423 325.938 279.933 325.938H251.789C251.36 325.938 250.948 325.769 250.645 325.467C250.341 325.166 250.171 324.757 250.171 324.331C250.171 323.905 250.341 323.496 250.645 323.195C250.948 322.894 251.36 322.724 251.789 322.724H251.766Z" fill="#EC6707"/>
<path d="M252.142 3.27584H303.739C308.476 2.95461 313.163 4.40878 316.873 7.35121C318.833 9.10274 320.376 11.2651 321.39 13.6818C322.404 16.0985 322.864 18.7089 322.736 21.3239V75.3052C322.736 75.7313 322.907 76.14 323.21 76.4414C323.514 76.7427 323.925 76.912 324.355 76.912C324.784 76.912 325.195 76.7427 325.499 76.4414C325.802 76.14 325.973 75.7313 325.973 75.3052V21.976C326.201 17.4641 325.066 12.9876 322.713 9.12108C320.854 6.34948 318.337 4.07385 315.384 2.49426C312.432 0.914665 309.133 0.0794831 305.78 0.0621009C297.289 -0.0776262 288.799 0.0621009 280.309 0.0621009H252.165C251.736 0.0621009 251.324 0.231374 251.021 0.532719C250.717 0.834064 250.547 1.2428 250.547 1.66897C250.547 2.09513 250.717 2.50384 251.021 2.80518C251.324 3.10653 251.736 3.27584 252.165 3.27584H252.142Z" fill="#EC6707"/>
</svg>
