<svg width="318" height="108" viewBox="0 0 318 108" fill="none" xmlns="http://www.w3.org/2000/svg">
<rect x="195" y="22" width="32" height="32" rx="8" fill="#C6C6C6"/>
<rect x="91" y="46" width="32" height="32" rx="8" fill="#C6C6C6"/>
<rect x="286" width="32" height="32" rx="8" fill="#D9D9D9"/>
<rect y="40" width="32" height="32" rx="8" fill="#D9D9D9"/>
<rect x="247" y="63" width="24" height="24" rx="6" fill="#ECECEC"/>
<rect x="55" y="4" width="24" height="24" rx="6" fill="#ECECEC"/>
<rect x="111" y="12" width="96" height="96" rx="16" fill="#F8F8F8"/>
<path d="M168.349 49.6335C168.349 52.2809 167.4 54.5724 165.527 56.4456C163.654 58.3185 161.362 59.2679 158.715 59.2679H158.71C156.066 59.267 153.776 58.3176 151.903 56.4456C150.03 54.5724 149.081 52.2809 149.081 49.6335C149.081 46.987 150.03 44.6951 151.903 42.8223C153.775 40.95 156.065 40.0009 158.71 40H158.715C161.361 40 163.653 40.9494 165.527 42.8223C167.4 44.6951 168.349 46.987 168.349 49.6335Z" fill="#7A7A7A"/>
<path d="M175.654 73.1206C175.654 75.2092 174.989 76.9002 173.681 78.1456C172.387 79.3764 170.677 79.9999 168.597 79.9999H149.337C147.257 79.9999 145.547 79.3764 144.254 78.1456C142.945 76.8993 142.281 75.2086 142.281 73.1206C142.281 72.3174 142.308 71.5227 142.361 70.7585C142.415 69.9773 142.524 69.1271 142.685 68.2302C142.848 67.3259 143.056 66.4711 143.306 65.6899C143.566 64.8812 143.917 64.0834 144.351 63.3193C144.802 62.5261 145.332 61.8352 145.926 61.2664C146.548 60.671 147.309 60.1927 148.189 59.8442C149.066 59.4976 150.038 59.3218 151.078 59.3218C151.486 59.3218 151.881 59.4887 152.643 59.9849C153.12 60.2959 153.669 60.6499 154.275 61.0375C154.799 61.3713 155.508 61.6844 156.385 61.9673C157.156 62.2167 157.938 62.3558 158.71 62.3799C158.796 62.383 158.881 62.3845 158.966 62.3845C159.824 62.3845 160.692 62.2438 161.548 61.9673C162.424 61.6844 163.135 61.3713 163.658 61.0375C164.271 60.6459 164.82 60.2922 165.29 59.9858C166.052 59.4887 166.447 59.3218 166.856 59.3218C167.895 59.3218 168.867 59.4976 169.744 59.8442C170.624 60.1927 171.385 60.6719 172.007 61.2664C172.602 61.8352 173.131 62.5261 173.582 63.3193C174.017 64.084 174.368 64.8812 174.627 65.689C174.877 66.4711 175.086 67.3259 175.249 68.2308C175.409 69.1286 175.519 69.9788 175.572 70.7579C175.626 71.5197 175.653 72.3143 175.654 73.1206Z" fill="#7A7A7A"/>
</svg>
