<svg width="96" height="96" viewBox="0 0 96 96" fill="none" xmlns="http://www.w3.org/2000/svg">
    <rect width="96" height="96" rx="16" fill="#F5F5F5"/>
    <g clip-path="url(#clip0_331_6789)">
        <path d="M70.4 48.0001V40.5333C70.4 37.4406 67.8928 34.9333 64.8 34.9333H51.1356C50.4323 34.9333 49.8658 35.5089 49.8667 36.2122C49.8678 37.068 50.0041 37.8924 50.2532 38.6668H23.8072C21.7153 38.6668 19.962 40.3787 20.0007 42.4703C20.0381 44.4987 21.696 46.1335 23.7333 46.1335H27.4667V68.5335H61.0667H64.8C67.8931 68.5335 70.4 66.0265 70.4 62.9335H74.3594C75.2654 62.9335 76 62.1989 76 61.2928V49.6407C76 48.7346 75.2654 48.0001 74.3594 48.0001H70.4Z" fill="#B3B3B3"/>
        <path d="M56.1052 20H32.4282C29.6924 20 27.4667 22.2257 27.4667 24.9614V71.0385C27.4667 73.7742 29.6925 75.9999 32.4282 75.9999H56.1052C58.8409 75.9999 61.0667 73.7742 61.0667 71.0385V24.9614C61.0667 22.2257 58.8409 20 56.1052 20V20Z" fill="#7A7A7A"/>
        <path d="M55.9114 23.2812H54.0375V25.1552C54.0375 28.0023 51.7295 30.3103 48.8823 30.3103H39.6511C36.8039 30.3103 34.4959 28.0023 34.4959 25.1552V23.2812H32.622C31.5887 23.2812 30.748 24.1219 30.748 25.1552V70.8447C30.748 71.878 31.5887 72.7186 32.622 72.7186H55.9114C56.9447 72.7186 57.7855 71.878 57.7855 70.8447V25.1552C57.7855 24.1219 56.9447 23.2812 55.9114 23.2812Z" fill="#ECECEC"/>
        <path d="M27.4667 68.5332C29.5285 68.5332 31.2 66.8618 31.2 64.7999C31.2 62.7381 29.5285 61.0667 27.4667 61.0667C25.4049 61.0667 23.7334 62.7381 23.7334 64.7999C23.7334 66.8618 25.4049 68.5332 27.4667 68.5332Z" fill="#B3B3B3"/>
        <path d="M32.1333 53.6C34.1941 53.6 35.8667 51.9275 35.8667 49.8667C35.8667 47.806 34.1941 46.1334 32.1333 46.1334H24.6667C22.6059 46.1334 20.9334 47.806 20.9334 49.8667C20.9334 51.9275 22.6059 53.6 24.6667 53.6H26.5334C24.4726 53.6 22.8001 55.2726 22.8001 57.3333C22.8001 59.394 24.4727 61.0666 26.5334 61.0666H32.1334C34.1943 61.0666 35.8668 59.394 35.8668 57.3333C35.8668 55.2726 34.1941 53.6 32.1333 53.6Z" fill="#B3B3B3"/>
        <path d="M70.4 45.5938V40.5333C70.4 37.4406 67.8928 34.9333 64.8 34.9333H51.1356C50.435 34.9333 49.8667 35.5017 49.8667 36.2023C49.8667 40.6491 53.4844 44.2668 57.9311 44.2668H61.0666V68.5335H64.8C67.8931 68.5335 70.4 66.0265 70.4 62.9335H74.3594C75.2654 62.9335 76 62.1989 76 61.2928V47.2344C76 46.3284 75.2654 45.5938 74.3594 45.5938H70.4Z" fill="#B3B3B3"/>
        <path d="M39.9711 44.2813C39.8795 44.1118 39.6766 44.0537 39.518 44.1516L38.7068 44.6518V43.6512C38.7068 43.4555 38.5582 43.2969 38.375 43.2969C38.1918 43.2969 38.0433 43.4555 38.0433 43.6512V44.6518L37.232 44.1515C37.0734 44.0536 36.8704 44.1118 36.7789 44.2812C36.6873 44.4507 36.7416 44.6674 36.9003 44.7653L37.7115 45.2656L36.9003 45.7659C36.7416 45.8638 36.6873 46.0805 36.7789 46.25C36.8403 46.3637 36.9518 46.4273 37.0665 46.4273C37.1227 46.4273 37.1798 46.4119 37.232 46.3797L38.0433 45.8794V46.88C38.0433 47.0757 38.1918 47.2344 38.375 47.2344C38.5582 47.2344 38.7068 47.0757 38.7068 46.88V45.8794L39.518 46.3797C39.5702 46.4119 39.6273 46.4272 39.6835 46.4272C39.7981 46.4272 39.9097 46.3636 39.9711 46.25C40.0627 46.0805 40.0084 45.8638 39.8497 45.7659L39.0385 45.2656L39.8497 44.7653C40.0084 44.6675 40.0627 44.4508 39.9711 44.2813Z" fill="#7A7A7A"/>
        <path d="M43.9086 44.2812C43.817 44.1117 43.6141 44.0537 43.4555 44.1515L42.6442 44.6518V43.6512C42.6442 43.4555 42.4957 43.2969 42.3125 43.2969C42.1293 43.2969 41.9808 43.4555 41.9808 43.6512V44.6518L41.1695 44.1515C41.0109 44.0536 40.808 44.1118 40.7164 44.2812C40.6248 44.4507 40.6791 44.6674 40.8378 44.7653L41.649 45.2656L40.8378 45.7659C40.6791 45.8638 40.6248 46.0805 40.7164 46.25C40.7778 46.3637 40.8893 46.4273 41.004 46.4273C41.0602 46.4273 41.1173 46.4119 41.1695 46.3797L41.9808 45.8794V46.88C41.9808 47.0757 42.1293 47.2344 42.3125 47.2344C42.4957 47.2344 42.6442 47.0757 42.6442 46.88V45.8794L43.4555 46.3797C43.5077 46.4119 43.5648 46.4273 43.621 46.4273C43.7356 46.4273 43.8472 46.3637 43.9086 46.25C44.0002 46.0805 43.9459 45.8638 43.7872 45.7659L42.976 45.2656L43.7872 44.7653C43.9458 44.6674 44.0002 44.4507 43.9086 44.2812Z" fill="#7A7A7A"/>
        <path d="M47.7382 44.2812C47.6497 44.1117 47.4535 44.0537 47.3002 44.1515L46.516 44.6518V43.6512C46.516 43.4555 46.3724 43.2969 46.1953 43.2969C46.0182 43.2969 45.8746 43.4555 45.8746 43.6512V44.6518L45.0904 44.1515C44.9371 44.0536 44.7409 44.1118 44.6524 44.2812C44.5638 44.4507 44.6164 44.6674 44.7698 44.7653L45.5539 45.2656L44.7698 45.7659C44.6164 45.8638 44.5638 46.0805 44.6524 46.25C44.7118 46.3637 44.8196 46.4273 44.9304 46.4273C44.9848 46.4273 45.0399 46.4119 45.0904 46.3797L45.8746 45.8794V46.88C45.8746 47.0757 46.0182 47.2344 46.1953 47.2344C46.3724 47.2344 46.516 47.0757 46.516 46.88V45.8794L47.3002 46.3797C47.3507 46.4119 47.4058 46.4273 47.4602 46.4273C47.571 46.4273 47.6788 46.3637 47.7382 46.25C47.8268 46.0805 47.7742 45.8638 47.6208 45.7659L46.8367 45.2656L47.6208 44.7653C47.7742 44.6674 47.8268 44.4507 47.7382 44.2812Z" fill="#7A7A7A"/>
        <path d="M51.5528 45.766L50.7416 45.2657L51.5528 44.7653C51.7115 44.6675 51.7659 44.4508 51.6742 44.2813C51.5826 44.1118 51.3798 44.0537 51.2211 44.1516L50.4099 44.6518V43.6512C50.4099 43.4555 50.2614 43.2969 50.0781 43.2969C49.8949 43.2969 49.7464 43.4555 49.7464 43.6512V44.6518L48.9352 44.1515C48.7765 44.0536 48.5736 44.1118 48.482 44.2812C48.3904 44.4507 48.4447 44.6674 48.6034 44.7653L49.4147 45.2656L48.6034 45.7659C48.4447 45.8638 48.3904 46.0805 48.482 46.25C48.5435 46.3637 48.6549 46.4273 48.7696 46.4273C48.8259 46.4273 48.8829 46.4119 48.9352 46.3797L49.7464 45.8794V46.88C49.7464 47.0757 49.8949 47.2344 50.0781 47.2344C50.2614 47.2344 50.4099 47.0757 50.4099 46.88V45.8794L51.2211 46.3797C51.2733 46.4119 51.3304 46.4272 51.3866 46.4272C51.5013 46.4272 51.6128 46.3636 51.6742 46.25C51.7659 46.0806 51.7115 45.8639 51.5528 45.766Z" fill="#7A7A7A"/>
    </g>
    <defs>
        <clipPath id="clip0_331_6789">
            <rect width="56" height="56" fill="white" transform="translate(20 20)"/>
        </clipPath>
    </defs>
</svg>
