<svg width="24" height="24" viewBox="0 0 24 24" fill="none" xmlns="http://www.w3.org/2000/svg">
<g clip-path="url(#clip0_276_3469)">
<path d="M11.2969 0.726562V2.17969C11.2969 2.56833 11.6114 2.88281 12 2.88281C12.3886 2.88281 12.7031 2.56833 12.7031 2.17969V0.726562C12.7031 0.337922 12.3886 0.0234375 12 0.0234375C11.6114 0.0234375 11.2969 0.337922 11.2969 0.726562Z" fill="#7A7A7A"/>
<path d="M2.85938 12.0234C2.85938 11.6348 2.54489 11.3203 2.15625 11.3203H0.703125C0.314484 11.3203 0 11.6348 0 12.0234C0 12.4121 0.314484 12.7266 0.703125 12.7266H2.15625C2.54489 12.7266 2.85938 12.4121 2.85938 12.0234Z" fill="#7A7A7A"/>
<path d="M23.2969 11.3203H21.8438C21.4551 11.3203 21.1406 11.6348 21.1406 12.0234C21.1406 12.4121 21.4551 12.7266 21.8438 12.7266H23.2969C23.6855 12.7266 24 12.4121 24 12.0234C24 11.6348 23.6855 11.3203 23.2969 11.3203Z" fill="#7A7A7A"/>
<path d="M3.12375 16.3363L1.90566 17.0394C1.56919 17.2337 1.45383 17.6635 1.64818 18C1.84463 18.3392 2.27602 18.4497 2.60879 18.2575L3.82688 17.5544C4.16335 17.36 4.27871 16.9302 4.08436 16.5938C3.88936 16.2573 3.45882 16.1419 3.12375 16.3363Z" fill="#7A7A7A"/>
<path d="M20.8762 7.71062L22.0943 7.00749C22.4308 6.81315 22.5462 6.38335 22.3518 6.04688C22.1575 5.71041 21.7256 5.5944 21.3912 5.7894L20.1731 6.49252C19.8366 6.68687 19.7213 7.11666 19.9156 7.45313C20.1121 7.79232 20.5435 7.9028 20.8762 7.71062Z" fill="#7A7A7A"/>
<path d="M17.016 1.92905L16.3128 3.14715C16.1185 3.48361 16.2339 3.91346 16.5703 4.10776C16.9035 4.30018 17.3347 4.18894 17.5309 3.85027L18.2341 2.63218C18.4284 2.29571 18.3131 1.86586 17.9766 1.67157C17.6401 1.47727 17.2103 1.59263 17.016 1.92905Z" fill="#7A7A7A"/>
<path d="M6.02346 1.67157C5.68699 1.86591 5.57163 2.29571 5.76597 2.63218L6.4691 3.85027C6.66555 4.18946 7.09694 4.29994 7.42971 4.10776C7.76618 3.91341 7.88154 3.48361 7.68719 3.14715L6.98407 1.92905C6.78907 1.59263 6.35716 1.47727 6.02346 1.67157Z" fill="#7A7A7A"/>
<path d="M22.0944 17.0394L20.8763 16.3363C20.5405 16.1419 20.11 16.2573 19.9157 16.5938C19.7214 16.9302 19.8367 17.3601 20.1732 17.5544L21.3912 18.2575C21.7244 18.4499 22.1556 18.3387 22.3519 18C22.5462 17.6635 22.4308 17.2337 22.0944 17.0394Z" fill="#7A7A7A"/>
<path d="M3.82686 6.49252L2.60877 5.7894C2.273 5.5944 1.84245 5.71041 1.64816 6.04688C1.45386 6.38335 1.56917 6.81319 1.90564 7.00749L3.12373 7.71062C3.45669 7.90295 3.88798 7.79209 4.08434 7.45313C4.27864 7.11666 4.16328 6.68682 3.82686 6.49252Z" fill="#7A7A7A"/>
<path d="M12 5.71626C8.8413 5.71729 6.50027 7.8457 5.86478 10.4455C5.32235 12.6634 5.95544 14.9272 7.55735 16.5017C8.03388 16.9699 8.33505 17.6278 8.43696 18.3516H15.5657C15.6731 17.6294 15.989 16.9565 16.4886 16.4564C17.6751 15.2671 18.3281 13.6927 18.3281 12.0234C18.3281 8.62017 15.6429 5.71533 12 5.71626ZM12 16.9453C11.6117 16.9453 11.2968 16.6305 11.2968 16.2422C11.2968 15.8538 11.6117 15.5391 12 15.5391C12.3883 15.5391 12.7031 15.8538 12.7031 16.2422C12.7031 16.6305 12.3883 16.9453 12 16.9453ZM12.7793 13.2807L12.7031 13.4297C12.7031 13.8183 12.3886 14.1328 12 14.1328C11.6113 14.1328 11.2968 13.8183 11.2968 13.4297C11.2968 12.7643 11.6745 12.2068 12.2595 11.974C12.5294 11.8669 12.7031 11.61 12.7031 11.3203C12.7031 10.9324 12.3879 10.6172 12 10.6172C11.612 10.6172 11.2968 10.9324 11.2968 11.3203C11.2968 11.709 10.9824 12.0234 10.5937 12.0234C10.2051 12.0234 9.8906 11.709 9.8906 11.3203C9.8906 10.1572 10.8368 9.21094 12 9.21094C13.1631 9.21094 14.1093 10.1572 14.1093 11.3203C14.1093 12.1896 13.5875 12.9593 12.7793 13.2807Z" fill="#7A7A7A"/>
<path d="M8.48438 20.257C8.48438 22.343 10.0286 23.9766 12 23.9766C13.9384 23.9766 15.5156 22.3994 15.5156 20.4609V19.7578H8.48438V20.257Z" fill="#7A7A7A"/>
</g>
<defs>
<clipPath id="clip0_276_3469">
<rect width="24" height="24" fill="white"/>
</clipPath>
</defs>
</svg>
