<svg width="24" height="24" viewBox="0 0 24 24" fill="none" xmlns="http://www.w3.org/2000/svg">
<g clip-path="url(#clip0_53_2189)">
<path d="M3.75 11C4.164 11 4.5 10.664 4.5 10.25V5.75C4.5 5.061 5.061 4.5 5.75 4.5H13.25C13.664 4.5 14 4.164 14 3.75C14 3.336 13.664 3 13.25 3H5.75C4.233 3 3 4.233 3 5.75V10.25C3 10.664 3.336 11 3.75 11Z" fill="#7A7A7A"/>
<path d="M15.25 3.49986C15.25 3.30786 15.177 3.11586 15.03 2.96986L13.28 1.21986C13.066 1.00586 12.743 0.940857 12.463 1.05686C12.183 1.17286 12 1.44686 12 1.74986L12 5.24986C12 5.55286 12.183 5.82686 12.463 5.94286C12.743 6.05886 13.066 5.99486 13.28 5.77986L15.03 4.02986C15.177 3.88386 15.25 3.69186 15.25 3.49986Z" fill="#7A7A7A"/>
<path d="M12.75 21H18.25C19.767 21 21 19.767 21 18.25V13.75C21 13.336 20.664 13 20.25 13C19.836 13 19.5 13.336 19.5 13.75V18.25C19.5 18.939 18.939 19.5 18.25 19.5H12.75C12.336 19.5 12 19.836 12 20.25C12 20.664 12.336 21 12.75 21Z" fill="#7A7A7A"/>
<path d="M13.2497 22.2501L13.2497 18.7501C13.2497 18.4471 13.0667 18.1731 12.7867 18.0571C12.5067 17.9411 12.1838 18.0051 11.9698 18.2201L10.2197 19.9701C9.92675 20.2631 9.92675 20.7381 10.2197 21.0311L11.9697 22.7811C12.1837 22.9951 12.5067 23.0601 12.7867 22.9441C13.0667 22.8281 13.2497 22.5531 13.2497 22.2501Z" fill="#7A7A7A"/>
<path d="M19 5C17.6193 5 16.5 3.88071 16.5 2.5C16.5 1.11929 17.6193 0 19 0C20.3807 0 21.5 1.11929 21.5 2.5C21.5 3.88071 20.3807 5 19 5Z" fill="#7A7A7A"/>
<path d="M16.75 6H21.25C22.767 6 24 7.233 24 8.75V9.25C24 9.664 23.664 10 23.25 10H14.75C14.336 10 14 9.664 14 9.25V8.75C14 7.233 15.233 6 16.75 6Z" fill="#7A7A7A"/>
<path d="M5 19C6.378 19 7.5 17.878 7.5 16.5C7.5 15.122 6.378 14 5 14C3.622 14 2.5 15.122 2.5 16.5C2.5 17.878 3.622 19 5 19Z" fill="#7A7A7A"/>
<path d="M0.75 24H9.25C9.664 24 10 23.664 10 23.25V22.75C10 21.233 8.767 20 7.25 20H2.75C1.233 20 0 21.233 0 22.75V23.25C0 23.664 0.336 24 0.75 24Z" fill="#7A7A7A"/>
</g>
<defs>
<clipPath id="clip0_53_2189">
<rect width="24" height="24" fill="white" transform="matrix(-1 0 0 1 24 0)"/>
</clipPath>
</defs>
</svg>
