<svg width="24" height="24" viewBox="0 0 24 24" fill="none" xmlns="http://www.w3.org/2000/svg">
<path d="M5.21741 19.3047H6.26089V23.4786H5.21741V19.3047Z" fill="#7A7A7A"/>
<path d="M3.13043 19.3047H4.17391V23.4786H3.13043V19.3047Z" fill="#7A7A7A"/>
<path d="M0 10.4351V24.0003H2.08696V18.7829C2.08696 18.6445 2.14193 18.5118 2.23977 18.414C2.33762 18.3161 2.47032 18.2611 2.6087 18.2611H6.78261C6.92098 18.2611 7.05369 18.3161 7.15153 18.414C7.24938 18.5118 7.30435 18.6445 7.30435 18.7829V24.0003H9.3913V10.4351H0ZM3.13043 16.1742C3.13043 16.3126 3.07547 16.4453 2.97762 16.5431C2.87978 16.641 2.74707 16.6959 2.6087 16.6959C2.47032 16.6959 2.33762 16.641 2.23977 16.5431C2.14193 16.4453 2.08696 16.3126 2.08696 16.1742V15.1307C2.08696 14.9923 2.14193 14.8596 2.23977 14.7618C2.33762 14.6639 2.47032 14.609 2.6087 14.609C2.74707 14.609 2.87978 14.6639 2.97762 14.7618C3.07547 14.8596 3.13043 14.9923 3.13043 15.1307V16.1742ZM3.13043 13.0438C3.13043 13.1821 3.07547 13.3148 2.97762 13.4127C2.87978 13.5105 2.74707 13.5655 2.6087 13.5655C2.47032 13.5655 2.33762 13.5105 2.23977 13.4127C2.14193 13.3148 2.08696 13.1821 2.08696 13.0438V12.0003C2.08696 11.8619 2.14193 11.7292 2.23977 11.6314C2.33762 11.5335 2.47032 11.4785 2.6087 11.4785C2.74707 11.4785 2.87978 11.5335 2.97762 11.6314C3.07547 11.7292 3.13043 11.8619 3.13043 12.0003V13.0438ZM5.21739 16.1742C5.21739 16.3126 5.16242 16.4453 5.06458 16.5431C4.96673 16.641 4.83403 16.6959 4.69565 16.6959C4.55728 16.6959 4.42457 16.641 4.32673 16.5431C4.22888 16.4453 4.17391 16.3126 4.17391 16.1742V15.1307C4.17391 14.9923 4.22888 14.8596 4.32673 14.7618C4.42457 14.6639 4.55728 14.609 4.69565 14.609C4.83403 14.609 4.96673 14.6639 5.06458 14.7618C5.16242 14.8596 5.21739 14.9923 5.21739 15.1307V16.1742ZM5.21739 13.0438C5.21739 13.1821 5.16242 13.3148 5.06458 13.4127C4.96673 13.5105 4.83403 13.5655 4.69565 13.5655C4.55728 13.5655 4.42457 13.5105 4.32673 13.4127C4.22888 13.3148 4.17391 13.1821 4.17391 13.0438V12.0003C4.17391 11.8619 4.22888 11.7292 4.32673 11.6314C4.42457 11.5335 4.55728 11.4785 4.69565 11.4785C4.83403 11.4785 4.96673 11.5335 5.06458 11.6314C5.16242 11.7292 5.21739 11.8619 5.21739 12.0003V13.0438ZM7.30435 16.1742C7.30435 16.3126 7.24938 16.4453 7.15153 16.5431C7.05369 16.641 6.92098 16.6959 6.78261 16.6959C6.64423 16.6959 6.51153 16.641 6.41368 16.5431C6.31584 16.4453 6.26087 16.3126 6.26087 16.1742V15.1307C6.26087 14.9923 6.31584 14.8596 6.41368 14.7618C6.51153 14.6639 6.64423 14.609 6.78261 14.609C6.92098 14.609 7.05369 14.6639 7.15153 14.7618C7.24938 14.8596 7.30435 14.9923 7.30435 15.1307V16.1742ZM7.30435 13.0438C7.30435 13.1821 7.24938 13.3148 7.15153 13.4127C7.05369 13.5105 6.92098 13.5655 6.78261 13.5655C6.64423 13.5655 6.51153 13.5105 6.41368 13.4127C6.31584 13.3148 6.26087 13.1821 6.26087 13.0438V12.0003C6.26087 11.8619 6.31584 11.7292 6.41368 11.6314C6.51153 11.5335 6.64423 11.4785 6.78261 11.4785C6.92098 11.4785 7.05369 11.5335 7.15153 11.6314C7.24938 11.7292 7.30435 11.8619 7.30435 12.0003V13.0438Z" fill="#7A7A7A"/>
<path d="M11.3254 4.54295L12.8906 2.97773C12.9884 2.87989 13.0433 2.74721 13.0433 2.60887C13.0433 2.47052 12.9884 2.33784 12.8906 2.24L11.3254 0.674779C11.227 0.57974 11.0952 0.527151 10.9584 0.52834C10.8216 0.529529 10.6907 0.584399 10.594 0.681134C10.4972 0.777869 10.4424 0.908728 10.4412 1.04553C10.44 1.18232 10.4926 1.31412 10.5876 1.41252L11.2622 2.08713H6.78258C6.09097 2.08795 5.42792 2.36306 4.93887 2.85211C4.44983 3.34116 4.17472 4.00421 4.17389 4.69582V8.348C4.17389 8.48637 4.22886 8.61908 4.3267 8.71692C4.42455 8.81477 4.55725 8.86973 4.69563 8.86973C4.834 8.86973 4.96671 8.81477 5.06455 8.71692C5.1624 8.61908 5.21737 8.48637 5.21737 8.348V4.69582C5.21737 4.2807 5.38227 3.88258 5.67581 3.58905C5.96934 3.29551 6.36746 3.1306 6.78258 3.1306H11.2622L10.5876 3.80521C10.5378 3.85334 10.498 3.91091 10.4707 3.97457C10.4434 4.03822 10.429 4.10668 10.4284 4.17596C10.4278 4.24524 10.441 4.31394 10.4672 4.37806C10.4934 4.44218 10.5322 4.50043 10.5812 4.54942C10.6301 4.59841 10.6884 4.63715 10.7525 4.66338C10.8166 4.68961 10.8853 4.70282 10.9546 4.70221C11.0239 4.70161 11.0924 4.68722 11.156 4.65987C11.2197 4.63253 11.2772 4.59278 11.3254 4.54295Z" fill="#7A7A7A"/>
<path d="M19 6C17.6193 6 16.5 4.88071 16.5 3.5C16.5 2.11929 17.6193 1 19 1C20.3807 1 21.5 2.11929 21.5 3.5C21.5 4.88071 20.3807 6 19 6Z" fill="#7A7A7A"/>
<path d="M16.75 7H21.25C22.767 7 24 8.233 24 9.75V10.25C24 10.664 23.664 11 23.25 11H14.75C14.336 11 14 10.664 14 10.25V9.75C14 8.233 15.233 7 16.75 7Z" fill="#7A7A7A"/>
<path d="M19.3043 15.1304C19.1659 15.1304 19.0332 15.1853 18.9354 15.2832C18.8375 15.381 18.7826 15.5137 18.7826 15.6521V19.3043C18.7826 19.7194 18.6177 20.1175 18.3241 20.4111C18.0306 20.7046 17.6325 20.8695 17.2174 20.8695H12.7377L13.4123 20.1949C13.5074 20.0965 13.5599 19.9647 13.5588 19.8279C13.5576 19.6911 13.5027 19.5602 13.406 19.4635C13.3092 19.3668 13.1784 19.3119 13.0416 19.3107C12.9048 19.3095 12.773 19.3621 12.6746 19.4572L11.1094 21.0224C11.0116 21.1202 10.9566 21.2529 10.9566 21.3912C10.9566 21.5296 11.0116 21.6623 11.1094 21.7601L12.6746 23.3253C12.773 23.4204 12.9048 23.473 13.0416 23.4718C13.1784 23.4706 13.3092 23.4157 13.406 23.319C13.5027 23.2222 13.5576 23.0914 13.5588 22.9546C13.5599 22.8178 13.5074 22.686 13.4123 22.5876L12.7377 21.913H17.2174C17.909 21.9122 18.572 21.637 19.0611 21.148C19.5501 20.6589 19.8252 19.9959 19.8261 19.3043V15.6521C19.8261 15.5137 19.7711 15.381 19.6732 15.2832C19.5754 15.1853 19.4427 15.1304 19.3043 15.1304Z" fill="#7A7A7A"/>
</svg>
