<svg width="102" height="102" viewBox="0 0 102 102" fill="none" xmlns="http://www.w3.org/2000/svg">
<rect x="6" width="96" height="96" rx="16" fill="#F5F5F5"/>
<g clip-path="url(#clip0_11_1140)">
<path d="M74.8001 36.8H33.1001V67.8001H74.8001V36.8Z" fill="#F4A46A"/>
<path d="M70.3125 46.875H58.125V67.7812H70.3125V46.875Z" fill="white"/>
<path d="M30 33.6001V38.1001C30 40.8001 32.1 42.9001 34.8 42.9001C37.5 42.9001 39.6 40.8001 39.6 38.1001V33.6001H30Z" fill="#EC6707"/>
<path d="M39.6001 33.6001V38.1001C39.6001 40.8001 41.7001 42.9001 44.4001 42.9001C47.1001 42.9001 49.2001 40.8001 49.2001 38.1001V33.6001H39.6001Z" fill="#F9D1B5"/>
<path d="M49.2 33.6001V38.1001C49.2 40.8001 51.3 42.9001 54 42.9001C56.7 42.9001 58.8 40.8001 58.8 38.1001V33.6001H49.2Z" fill="#EC6707"/>
<path d="M58.8 33.6001V38.1001C58.8 40.8001 60.9 42.9001 63.6 42.9001C66.3 42.9001 68.4 40.8001 68.4 38.1001V33.6001H58.8Z" fill="#F9D1B5"/>
<path d="M68.3999 33.6001V38.1001C68.3999 40.8001 70.4999 42.9001 73.1999 42.9001C75.8999 42.9001 77.9999 40.8001 77.9999 38.1001V33.6001H68.3999Z" fill="#EC6707"/>
<path d="M41.7 24H33.5L30 33.6H39.6L41.7 24Z" fill="#EC6707"/>
<path d="M49.9001 24H41.7001L39.6001 33.6H49.2001L49.9001 24Z" fill="#F9D1B5"/>
<path d="M58.0999 24H49.9L49.2 33.6H58.8L58.0999 24Z" fill="#EC6707"/>
<path d="M66.2999 24H58.0999L58.7999 33.6H68.3999L66.2999 24Z" fill="#F9D1B5"/>
<path d="M74.5001 24H66.3L68.4 33.6H78L74.5001 24Z" fill="#EC6707"/>
<path d="M78 67.8H30V72H78V67.8Z" fill="#EC6707"/>
<path d="M60 57.9001C60.718 57.9001 61.3 57.3181 61.3 56.6001C61.3 55.8821 60.718 55.3 60 55.3C59.282 55.3 58.7 55.8821 58.7 56.6001C58.7 57.3181 59.282 57.9001 60 57.9001Z" fill="#EC6707"/>
<path d="M51.5001 46.9001H37.6001V59.1001H51.5001V46.9001Z" fill="white"/>
<path d="M44.8999 48.7999C44.6999 48.5999 44.1998 48.5999 43.9999 48.7999L39.0999 53.6999C38.9 53.8999 38.9 54.3999 39.0999 54.5999C39.2999 54.7999 39.8 54.7999 39.9999 54.5999L44.9 49.6999C45.1999 49.3999 45.1999 48.9999 44.8999 48.7999Z" fill="#EC6707"/>
<path d="M45.9999 51.7C45.7999 51.5001 45.2998 51.5001 45.0999 51.7L41.9998 54.8C41.7999 54.9999 41.7999 55.5 41.9998 55.7C42.1998 55.8999 42.6999 55.8999 42.8998 55.7L45.9999 52.5999C46.2999 52.3 46.2999 51.9 45.9999 51.7Z" fill="#EC6707"/>
</g>
<rect y="78" width="24" height="24" rx="12" fill="#EC6707"/>
<rect x="11.3999" y="85.2" width="1.2" height="9.6" rx="0.6" fill="white"/>
<rect x="7.19995" y="90.6001" width="1.2" height="9.6" rx="0.6" transform="rotate(-90 7.19995 90.6001)" fill="white"/>
<defs>
<clipPath id="clip0_11_1140">
<rect width="48" height="48" fill="white" transform="translate(30 24)"/>
</clipPath>
</defs>
</svg>
