<svg width="64" height="64" viewBox="0 0 64 64" fill="none" xmlns="http://www.w3.org/2000/svg">
<rect width="64" height="64" rx="16" fill="#FDECE8"/>
<g clip-path="url(#clip0_2128_8997)">
<path d="M34.3976 21.6476L29.5194 26.5257C29.51 26.535 29.5041 26.5464 29.4948 26.5559C30.6965 26.3809 31.931 26.5009 33.0754 26.9471L36.3862 23.6363C37.4831 22.5395 39.2669 22.5395 40.3637 23.6363C41.4605 24.7331 41.4605 26.517 40.3637 27.6137C40.1767 27.8008 35.2036 32.774 35.4856 32.4918C34.3801 33.5974 32.5664 33.5501 31.5081 32.4918C30.96 31.9437 30.0676 31.9437 29.5194 32.4918L28.6656 33.3456C28.9024 33.748 29.1739 34.1352 29.5194 34.4806C31.6025 36.5638 35.1882 36.7302 37.4441 34.5053C37.4536 34.4959 37.4649 34.49 37.4744 34.4806L42.3525 29.6025C44.5491 27.4058 44.5491 23.8443 42.3525 21.6476C40.1557 19.4508 36.5943 19.4508 34.3976 21.6476Z" fill="#E74111"/>
<path d="M30.9352 37.0422L27.6138 40.3637C26.517 41.4605 24.7331 41.4605 23.6364 40.3637C22.5395 39.2669 22.5395 37.483 23.6364 36.3862C23.8234 36.1992 28.8072 31.2154 28.5251 31.4975C29.6306 30.392 31.4443 30.4392 32.5026 31.4975C33.0507 32.0457 33.9432 32.0457 34.4913 31.4975L35.3451 30.6437C35.1083 30.2413 34.8368 29.8541 34.4913 29.5088C32.4122 27.4295 28.8291 27.2526 26.5666 29.4841C26.5572 29.4934 26.5458 29.4993 26.5363 29.5088L21.6476 34.3975C19.4509 36.5942 19.4508 40.1558 21.6476 42.3525C23.8443 44.5492 27.4059 44.5492 29.6025 42.3525L34.4913 37.4637C34.5007 37.4543 34.5065 37.443 34.5159 37.4335C33.3142 37.6085 32.0797 37.4885 30.9352 37.0422Z" fill="#E74111"/>
</g>
<defs>
<clipPath id="clip0_2128_8997">
<rect width="24" height="24" fill="white" transform="translate(20 20)"/>
</clipPath>
</defs>
</svg>
