<svg width="48" height="48" viewBox="0 0 48 48" fill="none" xmlns="http://www.w3.org/2000/svg">
<rect width="48" height="48" fill="#1E1E1E"/>
<rect width="7650" height="2816" transform="translate(-6157 -916)" fill="#404040"/>
<g clip-path="url(#clip0_20_8511)">
<rect x="-77" y="-716" width="390" height="1000" rx="24" fill="white"/>
<rect x="-60.5" y="-59.5" width="169" height="175" rx="15.5" fill="white" stroke="#ECECEC"/>
<rect width="48" height="48" rx="12" fill="#F2F2F2"/>
<g clip-path="url(#clip1_20_8511)">
<path d="M17.1253 23.1667C17.4703 23.1667 17.7503 22.8867 17.7503 22.5417V18.7917C17.7503 18.2175 18.2178 17.75 18.792 17.75H25.042C25.387 17.75 25.667 17.47 25.667 17.125C25.667 16.78 25.387 16.5 25.042 16.5H18.792C17.5278 16.5 16.5003 17.5275 16.5003 18.7917V22.5417C16.5003 22.8867 16.7803 23.1667 17.1253 23.1667Z" fill="#666666"/>
<path d="M26.7083 16.9162C26.7083 16.7562 26.6475 16.5962 26.525 16.4746L25.0667 15.0162C24.8883 14.8379 24.6192 14.7837 24.3858 14.8804C24.1525 14.9771 24 15.2054 24 15.4579L24 18.3746C24 18.6271 24.1525 18.8554 24.3858 18.9521C24.6192 19.0487 24.8883 18.9954 25.0667 18.8162L26.525 17.3579C26.6475 17.2362 26.7083 17.0762 26.7083 16.9162Z" fill="#666666"/>
<path d="M24.625 31.4997H29.2083C30.4725 31.4997 31.5 30.4722 31.5 29.208V25.458C31.5 25.113 31.22 24.833 30.875 24.833C30.53 24.833 30.25 25.113 30.25 25.458V29.208C30.25 29.7822 29.7825 30.2497 29.2083 30.2497H24.625C24.28 30.2497 24 30.5297 24 30.8747C24 31.2197 24.28 31.4997 24.625 31.4997Z" fill="#666666"/>
<path d="M25.0411 32.5417L25.0411 29.6251C25.0411 29.3726 24.8886 29.1442 24.6553 29.0476C24.422 28.9509 24.1528 29.0042 23.9745 29.1834L22.5161 30.6417C22.272 30.8859 22.272 31.2817 22.5161 31.5259L23.9745 32.9842C24.1528 33.1626 24.422 33.2167 24.6553 33.1201C24.8886 33.0234 25.0411 32.7942 25.0411 32.5417Z" fill="#666666"/>
<path d="M29.8337 18.1667C28.6831 18.1667 27.7503 17.2339 27.7503 16.0833C27.7503 14.9327 28.6831 14 29.8337 14C30.9843 14 31.917 14.9327 31.917 16.0833C31.917 17.2339 30.9843 18.1667 29.8337 18.1667Z" fill="#666666"/>
<path d="M27.9583 19H31.7083C32.9725 19 34 20.0275 34 21.2917V21.7083C34 22.0533 33.72 22.3333 33.375 22.3333H26.2917C25.9467 22.3333 25.6667 22.0533 25.6667 21.7083V21.2917C25.6667 20.0275 26.6942 19 27.9583 19Z" fill="#666666"/>
<path d="M18.1667 29.8337C19.315 29.8337 20.25 28.8987 20.25 27.7503C20.25 26.602 19.315 25.667 18.1667 25.667C17.0183 25.667 16.0833 26.602 16.0833 27.7503C16.0833 28.8987 17.0183 29.8337 18.1667 29.8337Z" fill="#666666"/>
<path d="M14.6247 34.0003H21.708C22.053 34.0003 22.333 33.7203 22.333 33.3753V32.9587C22.333 31.6945 21.3055 30.667 20.0413 30.667H16.2913C15.0272 30.667 13.9997 31.6945 13.9997 32.9587V33.3753C13.9997 33.7203 14.2797 34.0003 14.6247 34.0003Z" fill="#666666"/>
</g>
</g>
<defs>
<clipPath id="clip0_20_8511">
<rect x="-77" y="-716" width="390" height="1000" rx="24" fill="white"/>
</clipPath>
<clipPath id="clip1_20_8511">
<rect width="20" height="20" fill="white" transform="matrix(-1 0 0 1 34 14)"/>
</clipPath>
</defs>
</svg>
