<svg width="22" height="24" viewBox="0 0 22 24" fill="none" xmlns="http://www.w3.org/2000/svg">
<path d="M13.7122 15.1846C13.2533 15.0929 12.9232 14.6926 12.9232 14.2277V12.0278H10.7494H8.5757V14.2277C8.5757 14.6926 8.24552 15.0929 7.78663 15.1846L7.25696 15.2903V18.8231H10.7494H14.2419V15.2903L13.7122 15.1846Z" fill="#ECECEC"/>
<path d="M18.2379 16.3709L13.8233 15.0039C13.7203 14.972 13.6081 14.9929 13.5238 15.0596L10.7492 17.2526L7.97454 15.0596C7.89013 14.9929 7.77798 14.972 7.67503 15.0039L3.2604 16.3709C1.32734 16.9361 0.00012207 18.6983 0.00012207 20.6995V23.5841C0.00012207 23.8137 0.187578 23.9999 0.418804 23.9999H21.0795C21.3107 23.9999 21.4982 23.8137 21.4982 23.5841V20.6995C21.4982 18.6983 20.171 16.9361 18.2379 16.3709Z" fill="#7A7A7A"/>
<path d="M2.78767 19.9016C2.58221 19.9016 2.41565 20.067 2.41565 20.2711V23.9998H3.1597V20.2711C3.1597 20.067 2.99319 19.9016 2.78767 19.9016Z" fill="#7A7A7A"/>
<path d="M16.2802 9.73273H15.397V7.18909H16.2802C16.7353 7.18909 17.1043 7.55548 17.1043 8.00748V8.91438C17.1042 9.36633 16.7353 9.73273 16.2802 9.73273Z" fill="#ECECEC"/>
<path d="M5.21861 9.73285H6.10181V7.18921H5.21861C4.76347 7.18921 4.39453 7.55561 4.39453 8.0076V8.91451C4.39453 9.36645 4.76347 9.73285 5.21861 9.73285Z" fill="#ECECEC"/>
<path d="M10.7482 13.7523C7.90033 13.7523 5.59167 11.4596 5.59167 8.63135V7.19216C5.59167 4.3639 7.90033 2.07117 10.7482 2.07117C13.5961 2.07117 15.9048 4.3639 15.9048 7.19216V8.63135C15.9048 11.4596 13.5961 13.7523 10.7482 13.7523Z" fill="#ECECEC"/>
<path d="M11.6266 0.165527H9.87166C6.90496 0.165527 4.5 2.5539 4.5 5.50013V7.60756C4.64118 7.35804 4.90982 7.18918 5.21853 7.18918H5.59252C5.59291 6.56618 5.70539 5.96925 5.91086 5.41712C8.191 4.77556 10.5084 6.52649 13.0287 6.52649C14.2874 6.52649 15.1466 6.24675 15.7277 5.90464L15.7412 5.9045C15.8482 6.31503 15.9054 6.74551 15.9056 7.18923H16.2796C16.5883 7.18923 16.857 7.35808 16.9982 7.60761V5.50018C16.9982 2.5539 14.5932 0.165527 11.6266 0.165527Z" fill="#7A7A7A"/>
<path d="M10.7494 17.2526L9.6247 18.2295C9.43845 18.3913 9.15782 18.382 8.98278 18.2083L6.21057 15.4575L7.67531 15.0039C7.77826 14.972 7.89045 14.9929 7.97482 15.0596L10.7494 17.2526Z" fill="#7A7A7A"/>
<path d="M10.7495 17.2526L11.8742 18.2295C12.0605 18.3913 12.3411 18.382 12.5162 18.2083L15.2884 15.4575L13.8236 15.0039C13.7207 14.972 13.6085 14.9929 13.5241 15.0596L10.7495 17.2526Z" fill="#7A7A7A"/>
</svg>
