<svg width="24" height="24" viewBox="0 0 24 24" fill="none" xmlns="http://www.w3.org/2000/svg">
<path d="M17.6097 5.78009C17.6097 7.36853 17.04 8.74347 15.9163 9.86737C14.7926 10.9911 13.4175 11.5607 11.829 11.5607H11.8263C10.2399 11.5602 8.86566 10.9905 7.74194 9.86737C6.61804 8.74347 6.04858 7.36853 6.04858 5.78009C6.04858 4.1922 6.61804 2.81708 7.74194 1.69336C8.86511 0.570007 10.2393 0.000549319 11.8263 0H11.829C13.4169 0 14.7921 0.569641 15.9163 1.69336C17.04 2.81708 17.6097 4.1922 17.6097 5.78009Z" fill="#7A7A7A"/>
<path d="M21.9922 19.8724C21.9922 21.1256 21.5936 22.1402 20.8085 22.8875C20.0325 23.6259 19.0062 24 17.7583 24H6.20215C4.95428 24 3.92798 23.6259 3.15253 22.8875C2.36682 22.1396 1.96875 21.1252 1.96875 19.8724C1.96875 19.3905 1.98468 18.9137 2.01654 18.4552C2.04895 17.9865 2.1145 17.4763 2.21118 16.9382C2.30859 16.3956 2.43384 15.8828 2.5838 15.414C2.73944 14.9288 2.95001 14.4501 3.21057 13.9916C3.4812 13.5157 3.79907 13.1012 4.1554 12.7599C4.52893 12.4026 4.9856 12.1157 5.51349 11.9066C6.03955 11.6986 6.62274 11.5931 7.24677 11.5931C7.49158 11.5931 7.7287 11.6933 8.18573 11.991C8.47174 12.1776 8.80133 12.39 9.16516 12.6226C9.47937 12.8229 9.90491 13.0107 10.431 13.1805C10.8933 13.3301 11.3626 13.4136 11.8262 13.428C11.8773 13.4299 11.9284 13.4308 11.9795 13.4308C12.4944 13.4308 13.0151 13.3464 13.5286 13.1805C14.0546 13.0107 14.4807 12.8229 14.7947 12.6226C15.1624 12.3876 15.492 12.1754 15.7738 11.9916C16.2312 11.6933 16.468 11.5931 16.7133 11.5931C17.3368 11.5931 17.92 11.6986 18.4464 11.9066C18.9743 12.1157 19.431 12.4032 19.8041 12.7599C20.161 13.1012 20.4789 13.5157 20.7493 13.9916C21.0101 14.4505 21.221 14.9288 21.3761 15.4135C21.5262 15.8828 21.6519 16.3956 21.7493 16.9385C21.8454 17.4772 21.9111 17.9874 21.9434 18.4548C21.9758 18.9119 21.9917 19.3887 21.9922 19.8724Z" fill="#7A7A7A"/>
</svg>
