<svg width="19" height="20" viewBox="0 0 19 20" fill="none" xmlns="http://www.w3.org/2000/svg">
<path d="M12.2603 12.6536C11.8778 12.5772 11.6027 12.2436 11.6027 11.8562V10.0229H9.79125H7.97981V11.8562C7.97981 12.2436 7.70466 12.5772 7.32225 12.6536L6.88086 12.7417V15.6856H9.79125H12.7016V12.7417L12.2603 12.6536Z" fill="#ECECEC"/>
<path d="M16.0317 13.6421L12.3528 12.5029C12.267 12.4764 12.1735 12.4937 12.1032 12.5493L9.79103 14.3768L7.47885 12.5493C7.4085 12.4937 7.31505 12.4764 7.22926 12.5029L3.5504 13.6421C1.93951 14.1131 0.833496 15.5816 0.833496 17.2492V19.6531C0.833496 19.8444 0.989709 19.9996 1.1824 19.9996H18.3997C18.5923 19.9996 18.7486 19.8444 18.7486 19.6531V17.2492C18.7486 15.5816 17.6425 14.1131 16.0317 13.6421Z" fill="#7A7A7A"/>
<path d="M3.15645 16.5845C2.98523 16.5845 2.84644 16.7223 2.84644 16.8924V19.9996H3.46647V16.8924C3.46647 16.7223 3.32772 16.5845 3.15645 16.5845Z" fill="#7A7A7A"/>
<path d="M14.4003 8.11042H13.6643V5.99072H14.4003C14.7796 5.99072 15.087 6.29605 15.087 6.67272V7.42847C15.087 7.80509 14.7795 8.11042 14.4003 8.11042Z" fill="#ECECEC"/>
<path d="M5.18233 8.11042H5.91834V5.99072H5.18233C4.80306 5.99072 4.49561 6.29605 4.49561 6.67272V7.42847C4.49561 7.80509 4.80306 8.11042 5.18233 8.11042Z" fill="#ECECEC"/>
<path d="M9.7903 11.4599C7.41704 11.4599 5.49316 9.54929 5.49316 7.1924V5.99308C5.49316 3.63619 7.41704 1.72559 9.7903 1.72559C12.1636 1.72559 14.0874 3.63619 14.0874 5.99308V7.1924C14.0874 9.54925 12.1636 11.4599 9.7903 11.4599Z" fill="#ECECEC"/>
<path d="M10.5223 0.137695H9.05988C6.58763 0.137695 4.5835 2.128 4.5835 4.5832V6.33939C4.70115 6.13145 4.92501 5.99074 5.18227 5.99074H5.49393C5.49425 5.47158 5.58799 4.97413 5.75921 4.51402C7.65933 3.97939 9.59051 5.4385 11.6907 5.4385C12.7397 5.4385 13.4557 5.20538 13.9399 4.92029L13.9511 4.92017C14.0404 5.26228 14.088 5.62101 14.0882 5.99078H14.3999C14.6571 5.99078 14.881 6.13149 14.9986 6.33943V4.58324C14.9987 2.128 12.9945 0.137695 10.5223 0.137695Z" fill="#7A7A7A"/>
<path d="M9.79118 14.3768L8.8539 15.1909C8.69869 15.3258 8.46483 15.318 8.31897 15.1733L6.00879 12.8809L7.2294 12.5029C7.3152 12.4764 7.40869 12.4937 7.47899 12.5493L9.79118 14.3768Z" fill="#7A7A7A"/>
<path d="M9.79126 14.3768L10.7285 15.1909C10.8838 15.3258 11.1176 15.318 11.2635 15.1733L13.5736 12.8809L12.353 12.5029C12.2672 12.4764 12.1737 12.4937 12.1034 12.5493L9.79126 14.3768Z" fill="#7A7A7A"/>
</svg>
