<svg width="326" height="130" viewBox="0 0 326 130" fill="none" xmlns="http://www.w3.org/2000/svg">
    <g filter="url(#filter0_d_602_20128)">
        <rect width="306" height="110" rx="10" transform="matrix(-1 0 0 1 316 6)" fill="url(#paint0_linear_602_20128)" />
    </g>
    <mask id="mask0_602_20128" style="mask-type:alpha" maskUnits="userSpaceOnUse" x="10" y="6" width="302" height="110">
        <rect width="301.987" height="110" rx="20" transform="matrix(-1 0 0 1 311.987 6)" fill="#EC6707" />
    </mask>
    <g mask="url(#mask0_602_20128)">
        <rect x="-0.5" y="0.5" width="154.508" height="126" rx="14.5" transform="matrix(-1 0 0 1 140.43 23)" stroke="url(#paint1_linear_602_20128)" stroke-linejoin="round" />
    </g>


    <rect width="130.426" height="18" transform="matrix(-1 0 0 1 140.426 42)" fill="white" fill-opacity="0.5" />
    <ellipse cx="1.00328" cy="1" rx="1.00328" ry="1" transform="matrix(-1 0 0 1 86.2491 82)" fill="#FCFCFC" />
    <ellipse cx="1.00328" cy="1" rx="1.00328" ry="1" transform="matrix(-1 0 0 1 81.2327 82)" fill="#FCFCFC" />
    <ellipse cx="1.00328" cy="1" rx="1.00328" ry="1" transform="matrix(-1 0 0 1 76.2164 82)" fill="#FCFCFC" />
    <ellipse cx="1.00328" cy="1" rx="1.00328" ry="1" transform="matrix(-1 0 0 1 71.2 82)" fill="#FCFCFC" />
    <ellipse cx="8.02623" cy="8" rx="8.02623" ry="8" transform="matrix(-1 0 0 1 117.351 75)" fill="white" fill-opacity="0.5" />
    <ellipse cx="8.02623" cy="8" rx="8.02623" ry="8" transform="matrix(-1 0 0 1 129.39 75)" fill="white" />

    <defs>
        <filter id="filter0_d_602_20128" x="0" y="0" width="326" height="130" filterUnits="userSpaceOnUse" color-interpolation-filters="sRGB">
            <feFlood flood-opacity="0" result="BackgroundImageFix" />
            <feColorMatrix in="SourceAlpha" type="matrix" values="0 0 0 0 0 0 0 0 0 0 0 0 0 0 0 0 0 0 127 0" result="hardAlpha" />
            <feOffset dy="4" />
            <feGaussianBlur stdDeviation="5" />
            <feComposite in2="hardAlpha" operator="out" />
            <feColorMatrix type="matrix" values="0 0 0 0 0 0 0 0 0 0 0 0 0 0 0 0 0 0 0.1 0" />
            <feBlend mode="normal" in2="BackgroundImageFix" result="effect1_dropShadow_602_20128" />
            <feBlend mode="normal" in="SourceGraphic" in2="effect1_dropShadow_602_20128" result="shape" />
        </filter>
        <linearGradient id="paint0_linear_602_20128" x1="-1.92759e-06" y1="15" x2="324.893" y2="110.574" gradientUnits="userSpaceOnUse">
            <stop stop-color="#EC6707" />
            <stop offset="1" stop-color="#FF9E57" />
        </linearGradient>
        <linearGradient id="paint1_linear_602_20128" x1="-249.315" y1="-183" x2="207.587" y2="164.44" gradientUnits="userSpaceOnUse">
            <stop stop-color="white" />
            <stop offset="0.40625" stop-color="white" stop-opacity="0.869973" />
            <stop offset="1" stop-color="white" stop-opacity="0" />
        </linearGradient>
    </defs>
</svg>
