<svg width="20" height="20" viewBox="0 0 20 20" fill="none" xmlns="http://www.w3.org/2000/svg">
<g clip-path="url(#clip0_632_15585)">
<path fill-rule="evenodd" clip-rule="evenodd" d="M0.92289 16.2791H5.34151C6.75454 16.2791 7.89966 15.134 7.89966 13.7209V11.8605C7.89966 10.4474 6.75454 9.30231 5.34151 9.30231H0.92289V8.13951C0.92289 7.46137 1.19266 6.8102 1.67173 6.3302C2.15173 5.85113 2.8029 5.58136 3.48104 5.58136C6.70245 5.58136 13.2829 5.58136 16.5043 5.58136C17.1825 5.58136 17.8337 5.85113 18.3137 6.3302C18.7927 6.8102 19.0625 7.46137 19.0625 8.13951V17.4419C19.0625 18.12 18.7927 18.7712 18.3137 19.2512C17.8337 19.7303 17.1825 20 16.5043 20H3.48104C2.8029 20 2.15173 19.7303 1.67173 19.2512C1.19266 18.7712 0.92289 18.12 0.92289 17.4419V16.2791ZM0.92289 10.6977V14.8837H5.34151C5.98338 14.8837 6.50431 14.3628 6.50431 13.7209V11.8605C6.50431 11.2186 5.98338 10.6977 5.34151 10.6977H0.92289ZM4.63546 12.0846C4.24476 12.0846 3.92848 12.4009 3.92848 12.7907C3.92848 13.1805 4.24476 13.4967 4.63546 13.4967C5.02523 13.4967 5.34151 13.1805 5.34151 12.7907C5.34151 12.4009 5.02523 12.0846 4.63546 12.0846Z" fill="#7A7A7A"/>
<path fill-rule="evenodd" clip-rule="evenodd" d="M16.9425 4.67901C16.7973 4.6604 16.6513 4.6511 16.5043 4.6511H7.50055L7.50148 4.64924L8.82149 1.17015C8.99172 0.720849 9.33405 0.357127 9.77312 0.159917C10.2122 -0.0372934 10.7108 -0.0531075 11.161 0.118056C12.4745 0.615733 14.7173 1.4669 16.0318 1.96551C16.4811 2.13574 16.8448 2.47807 17.042 2.91714C17.2392 3.35621 17.255 3.85482 17.0838 4.30505L16.9425 4.67901Z" fill="#7A7A7A"/>
<path fill-rule="evenodd" clip-rule="evenodd" d="M6.52943 4.6511H3.48105C3.27919 4.6511 3.07826 4.66877 2.88198 4.70319C2.88849 4.68459 2.895 4.66691 2.90151 4.64924C3.27826 3.65482 3.84384 2.16551 4.22058 1.17015C4.39175 0.720849 4.73408 0.357127 5.17315 0.159917C5.61129 -0.0372934 6.11083 -0.0531075 6.56013 0.118056L8.02246 0.672477C7.99641 0.727361 7.97316 0.783175 7.95176 0.84085L6.63176 4.31994C6.59083 4.42877 6.55641 4.53947 6.52943 4.6511Z" fill="#7A7A7A"/>
</g>
<defs>
<clipPath id="clip0_632_15585">
<rect width="20" height="20" fill="white" transform="matrix(-1 0 0 1 20 0)"/>
</clipPath>
</defs>
</svg>
