<svg width="52" height="52" viewBox="0 0 52 52" fill="none" xmlns="http://www.w3.org/2000/svg">
<rect width="52" height="52" fill="#1E1E1E"/>
<g clip-path="url(#clip0_790_7508)">
<rect width="390" height="844" transform="translate(-306 -144)" fill="white"/>
<g filter="url(#filter0_d_790_7508)">
<rect x="-290" y="-16" width="358" height="84" rx="16" fill="white"/>
</g>
<rect width="52" height="52" rx="12" fill="#FDECE8"/>
<g clip-path="url(#clip1_790_7508)">
<path d="M25 27.75C25 27.337 24.662 27 24.25 27H20.5V30C20.5 30.552 20.052 31 19.5 31C18.948 31 18.5 30.552 18.5 30V27H14.75C14.337 27 14 27.337 14 27.75V37.25C14 37.663 14.337 38 14.75 38H24.25C24.662 38 25 37.663 25 37.25V27.75Z" fill="#E74111"/>
<path d="M38 27.75C38 27.337 37.662 27 37.25 27H33.5V30C33.5 30.552 33.052 31 32.5 31C31.948 31 31.5 30.552 31.5 30V27H27.75C27.337 27 27 27.337 27 27.75V37.25C27 37.663 27.337 38 27.75 38H37.25C37.662 38 38 37.663 38 37.25V27.75Z" fill="#E74111"/>
<path d="M31.5 14.75C31.5 14.338 31.162 14 30.75 14H27V17C27 17.552 26.552 18 26 18C25.448 18 25 17.552 25 17V14H21.25C20.837 14 20.5 14.338 20.5 14.75V24.25C20.5 24.663 20.837 25 21.25 25H30.75C31.162 25 31.5 24.663 31.5 24.25V14.75Z" fill="#FBBA00"/>
</g>
</g>
<defs>
<filter id="filter0_d_790_7508" x="-306" y="-28" width="390" height="116" filterUnits="userSpaceOnUse" color-interpolation-filters="sRGB">
<feFlood flood-opacity="0" result="BackgroundImageFix"/>
<feColorMatrix in="SourceAlpha" type="matrix" values="0 0 0 0 0 0 0 0 0 0 0 0 0 0 0 0 0 0 127 0" result="hardAlpha"/>
<feOffset dy="4"/>
<feGaussianBlur stdDeviation="8"/>
<feComposite in2="hardAlpha" operator="out"/>
<feColorMatrix type="matrix" values="0 0 0 0 0.129412 0 0 0 0 0.129412 0 0 0 0 0.129412 0 0 0 0.08 0"/>
<feBlend mode="normal" in2="BackgroundImageFix" result="effect1_dropShadow_790_7508"/>
<feBlend mode="normal" in="SourceGraphic" in2="effect1_dropShadow_790_7508" result="shape"/>
</filter>
<clipPath id="clip0_790_7508">
<rect width="390" height="844" fill="white" transform="translate(-306 -144)"/>
</clipPath>
<clipPath id="clip1_790_7508">
<rect width="24" height="24" fill="white" transform="translate(14 14)"/>
</clipPath>
</defs>
</svg>
