<svg width="72" height="72" viewBox="0 0 72 72" fill="none" xmlns="http://www.w3.org/2000/svg">
<g filter="url(#filter0_d_710_12108)">
<rect x="16" y="12" width="40" height="40" rx="10" fill="white"/>
</g>
<path d="M44.75 25.75H27.25C26.5597 25.75 26 26.3097 26 27C26 27.6903 26.5597 28.25 27.25 28.25H44.75C45.4403 28.25 46 27.6903 46 27C46 26.3097 45.4403 25.75 44.75 25.75Z" fill="#EC6707"/>
<path d="M44.75 30.75H27.25C26.5597 30.75 26 31.3097 26 32C26 32.6903 26.5597 33.25 27.25 33.25H44.75C45.4403 33.25 46 32.6903 46 32C46 31.3097 45.4403 30.75 44.75 30.75Z" fill="#EC6707"/>
<path d="M45.0234 35.75H31.3516C30.8123 35.75 30.375 36.3097 30.375 37C30.375 37.6903 30.8123 38.25 31.3516 38.25H45.0234C45.5627 38.25 46 37.6903 46 37C46 36.3097 45.5627 35.75 45.0234 35.75Z" fill="#EC6707"/>
<defs>
<filter id="filter0_d_710_12108" x="0" y="0" width="72" height="72" filterUnits="userSpaceOnUse" color-interpolation-filters="sRGB">
<feFlood flood-opacity="0" result="BackgroundImageFix"/>
<feColorMatrix in="SourceAlpha" type="matrix" values="0 0 0 0 0 0 0 0 0 0 0 0 0 0 0 0 0 0 127 0" result="hardAlpha"/>
<feOffset dy="4"/>
<feGaussianBlur stdDeviation="8"/>
<feComposite in2="hardAlpha" operator="out"/>
<feColorMatrix type="matrix" values="0 0 0 0 0.129412 0 0 0 0 0.129412 0 0 0 0 0.129412 0 0 0 0.08 0"/>
<feBlend mode="normal" in2="BackgroundImageFix" result="effect1_dropShadow_710_12108"/>
<feBlend mode="normal" in="SourceGraphic" in2="effect1_dropShadow_710_12108" result="shape"/>
</filter>
</defs>
</svg>
