<svg width="24" height="24" viewBox="0 0 24 24" fill="none" xmlns="http://www.w3.org/2000/svg">
<g id="avatar 1">
<g id="Group 1076">
<path id="Vector" d="M8.1572 9.47871C8.39845 10.1012 8.74946 10.6753 9.19353 11.1738C9.52194 11.5775 9.93331 11.9059 10.3997 12.1367C10.8662 12.3675 11.3768 12.4953 11.8969 12.5115C12.4171 12.5277 12.9346 12.4319 13.4145 12.2306C13.8944 12.0293 14.3254 11.7271 14.6783 11.3447C14.728 11.2923 14.7748 11.2399 14.8189 11.1848C15.268 10.6844 15.622 10.1062 15.8635 9.47871C16.2342 9.36661 16.559 9.13844 16.7902 8.82783C17.0215 8.51721 17.1468 8.14056 17.1479 7.75333V6.67014C17.1482 6.45789 17.0866 6.25016 16.9706 6.07244C16.8545 5.89472 16.6891 5.75472 16.4947 5.66964V3.83678C16.4988 3.28468 16.3726 2.7394 16.1265 2.24519C15.8803 1.75097 15.5211 1.32176 15.078 0.992377C14.1937 0.333733 13.1156 -0.0123853 12.0131 0.00842333C11.9601 0.00210113 11.9067 -0.000667666 11.8533 0.00013546C10.804 0.0227996 9.78734 0.369377 8.94271 0.992377C8.50032 1.32206 8.14196 1.75148 7.89676 2.24572C7.65155 2.73996 7.52642 3.28508 7.53153 3.83678V5.66964C7.33609 5.75394 7.16958 5.89359 7.05253 6.07137C6.93548 6.24915 6.87301 6.45729 6.8728 6.67014V7.75332C6.87386 8.14056 6.99924 8.51721 7.23047 8.82783C7.46169 9.13844 7.78655 9.3666 8.1572 9.47871Z" fill="#7A7A7A"/>
<path id="Vector_2" d="M20.7652 16.5826C20.7191 16.2965 20.6058 16.0253 20.4347 15.7913C20.2637 15.5574 20.0396 15.3672 19.781 15.2364L15.7838 13.21L13.2342 19.9739L12.5828 15.8713L13.0129 14.947H11.008L11.4381 15.8713L10.7867 19.9739L8.23708 13.21L4.23993 15.2364C3.98126 15.3672 3.75723 15.5574 3.58616 15.7913C3.41508 16.0253 3.30182 16.2965 3.25565 16.5826L2.0625 24H21.9584L20.7652 16.5826Z" fill="#7A7A7A"/>
</g>
</g>
</svg>
