<svg width="20" height="20" viewBox="0 0 20 20" fill="none" xmlns="http://www.w3.org/2000/svg">
<path d="M18.75 3.75H1.25C0.559692 3.75 0 4.30969 0 5C0 5.69031 0.559692 6.25 1.25 6.25H18.75C19.4403 6.25 20 5.69031 20 5C20 4.30969 19.4403 3.75 18.75 3.75Z" fill="#EC6707"/>
<path d="M18.75 8.75H1.25C0.559692 8.75 0 9.30969 0 10C0 10.6903 0.559692 11.25 1.25 11.25H18.75C19.4403 11.25 20 10.6903 20 10C20 9.30969 19.4403 8.75 18.75 8.75Z" fill="#EC6707"/>
<path d="M19.0234 13.75H5.35156C4.81226 13.75 4.375 14.3097 4.375 15C4.375 15.6903 4.81226 16.25 5.35156 16.25H19.0234C19.5627 16.25 20 15.6903 20 15C20 14.3097 19.5627 13.75 19.0234 13.75Z" fill="#EC6707"/>
</svg>
