<svg width="44" height="44" viewBox="0 0 44 44" fill="none" xmlns="http://www.w3.org/2000/svg">
<path d="M8.21934 40.2315C8.65194 42.6108 10.8149 44.1249 13.1942 43.6923C13.8431 43.6923 14.2757 43.2597 14.9246 43.0434L20.7647 39.15C20.9809 38.9337 21.4135 38.9337 21.8461 38.9337C29.8492 38.9337 36.3381 36.7707 39.3663 33.31C44.5575 27.4699 44.5575 11.6801 39.3663 5.84006C36.3381 2.16298 29.6329 0 21.6298 0C13.6268 0 6.92155 2.16298 3.89337 5.62376C-1.29779 11.4638 -1.29779 27.2536 3.89337 33.0937C4.97486 34.1752 6.05636 35.0403 7.35415 35.9055L8.21934 40.2315ZM21.6298 8.21934C23.1439 8.21934 24.2254 9.51713 24.2254 10.8149C24.2254 12.1127 23.1439 13.4105 21.6298 13.4105C20.1158 13.4105 18.818 12.329 18.818 10.8149C18.818 9.30083 20.1158 8.21934 21.6298 8.21934ZM17.3039 18.3854C17.3039 17.0876 18.1691 16.2224 19.4669 16.2224H21.6298C22.9276 16.2224 23.7928 17.0876 23.7928 18.3854V27.0373C25.0906 27.0373 25.9558 27.9025 25.9558 29.2003C25.9558 30.4981 25.0906 31.3633 23.7928 31.3633H19.4669C18.1691 31.3633 17.3039 30.4981 17.3039 29.2003C17.3039 27.9025 18.1691 27.0373 19.4669 27.0373V20.5484C18.1691 20.5484 17.3039 19.6832 17.3039 18.3854Z" fill="#EC6707"/>
</svg>
