<svg width="40" height="40" viewBox="0 0 40 40" fill="none" xmlns="http://www.w3.org/2000/svg">
<rect width="40" height="40" rx="8" fill="#FDECE8"/>
<path d="M11.7734 16.2031H25.1797V17.7969H11.7734V16.2031Z" fill="#E74111"/>
<path d="M11.7734 12.4531H25.1797V14.7969H11.7734V12.4531Z" fill="#E74111"/>
<path d="M11.7734 22.2031H25.1797V23.7969H11.7734V22.2031Z" fill="#E74111"/>
<path d="M11.7734 25.2031H25.1797V27.5469H11.7734V25.2031Z" fill="#E74111"/>
<path d="M27.4297 30.4766C27.4297 31.3156 26.75 32 25.9062 32H11.0469C10.2055 32 9.52344 31.3179 9.52344 30.4766C9.52344 29.6375 10.2032 28.9531 11.0469 28.9531H25.9062C26.7476 28.9531 27.4297 29.6352 27.4297 30.4766Z" fill="#FBBA00"/>
<path d="M27.4297 9.52344C27.4297 10.3625 26.75 11.0469 25.9062 11.0469H11.0469C10.2055 11.0469 9.52344 10.3648 9.52344 9.52344C9.52344 8.68442 10.2032 8 11.0469 8H25.9062C26.7476 8 27.4297 8.68208 27.4297 9.52344Z" fill="#FBBA00"/>
<path d="M30.4766 13.625C30.4766 14.0131 30.1616 14.3281 29.7734 14.3281H28.8828C28.4952 14.3281 28.1797 14.6436 28.1797 15.0312V18.5938C28.1797 19.7567 27.2333 20.7031 26.0703 20.7031H11.7734V19.2969H26.0703C26.458 19.2969 26.7734 18.9814 26.7734 18.5938V15.0312C26.7734 13.8683 27.7198 12.9219 28.8828 12.9219H29.7734C30.1616 12.9219 30.4766 13.2369 30.4766 13.625Z" fill="#E74111"/>
</svg>
