<svg width="24" height="24" viewBox="0 0 24 24" fill="none" xmlns="http://www.w3.org/2000/svg">
<g clip-path="url(#clip0_53_5605)">
<path fill-rule="evenodd" clip-rule="evenodd" d="M12 0C7.73948 0 4.28571 3.45381 4.28571 7.71429C4.28571 11.9748 7.73948 15.4286 12 15.4286C16.2605 15.4286 19.7143 11.9748 19.7143 7.71429C19.7143 3.45381 16.2605 0 12 0ZM12 3C12.4734 3 12.8571 3.38376 12.8571 3.85714V7.30234L14.6783 8.75923C15.048 9.05494 15.1079 9.59434 14.8122 9.96403C14.5165 10.3337 13.9771 10.3936 13.6074 10.0979L11.4645 8.38363C11.2612 8.22094 11.1428 7.97469 11.1428 7.71429V3.85714C11.1428 3.38376 11.5266 3 12 3Z" fill="black"/>
<path fill-rule="evenodd" clip-rule="evenodd" d="M3.42857 17.1426C1.53502 17.1426 0 18.6776 0 20.5711C0 22.4647 1.53502 23.9997 3.42857 23.9997H20.5714C22.4649 23.9997 24 22.4647 24 20.5711C24 18.6776 22.4649 17.1426 20.5714 17.1426H3.42857ZM2.57143 20.5711C2.57143 20.0977 2.95519 19.714 3.42857 19.714H8.57143C9.04483 19.714 9.42857 20.0977 9.42857 20.5711C9.42857 21.0445 9.04483 21.4283 8.57143 21.4283H3.42857C2.95519 21.4283 2.57143 21.0445 2.57143 20.5711Z" fill="black"/>
</g>
<defs>
<clipPath id="clip0_53_5605">
<rect width="24" height="24" fill="white"/>
</clipPath>
</defs>
</svg>
