<svg width="24" height="24" viewBox="0 0 24 24" fill="none" xmlns="http://www.w3.org/2000/svg">
<g id="business 1" clip-path="url(#clip0_14_2037)">
<g id="surface1">
<path id="Vector" d="M12 0C8.7691 0 6.14062 2.62848 6.14062 5.85938C6.14062 9.09027 8.7691 11.7188 12 11.7188C15.2309 11.7188 17.8594 9.09027 17.8594 5.85938C17.8594 2.62848 15.2309 0 12 0Z" fill="#7A7A7A"/>
<path id="Vector_2" d="M14.8638 23.9999L12.9851 16.9048H11.0149L9.13623 23.9999H14.8638Z" fill="#7A7A7A"/>
<path id="Vector_3" d="M10.9831 15.4982H13.0167L13.9487 12.6562H10.0513L10.9831 15.4982Z" fill="#7A7A7A"/>
<path id="Vector_4" d="M15.3995 12.7449L14.2593 16.2226L16.3185 24H20.6718V18.9844C20.6718 15.8547 18.3879 13.249 15.3995 12.7449Z" fill="#7A7A7A"/>
<path id="Vector_5" d="M9.74066 16.2226L8.60046 12.7449C5.612 13.249 3.32812 15.8547 3.32812 18.9844V24H7.68146L9.74066 16.2226Z" fill="#7A7A7A"/>
</g>
</g>
<defs>
<clipPath id="clip0_14_2037">
<rect width="24" height="24" fill="7A7A7A"/>
</clipPath>
</defs>
</svg>
