<svg width="223" height="212" viewBox="0 0 223 212" fill="none" xmlns="http://www.w3.org/2000/svg">
<path d="M103.413 92.4726L103.32 0L206.948 59.779V152.221L103.413 92.4726Z" fill="#A1663B"/>
<path d="M103.412 92.4726L103.319 0L0 59.8099V152.221L103.412 92.4726Z" fill="#D48A53"/>
<path d="M102.888 119.558V212L0 152.221V59.8099L102.888 119.558Z" fill="#DEAE80"/>
<path d="M0 59.8099L102.888 119.558C102.888 119.558 64.4012 100.916 0 59.8099Z" fill="#7F492A"/>
<path d="M102.883 119.558V212L206.942 152.221V59.7793L102.883 119.558Z" fill="#D8A57A"/>
<path d="M206.947 59.9331L102.888 119.558L0 59.8099L103.319 0L206.947 59.9331Z" fill="#E3B786"/>
<path d="M52.7185 90.3773L155.884 30.4442L152.001 28.1948L48.8359 88.1587L52.7185 90.3773Z" fill="#7F492A"/>
<path d="M39.5859 82.8587L57.0575 92.9349L160.192 33.0017L142.751 22.9256L39.5859 82.8587Z" fill="#FFDA9F"/>
<path d="M40.1406 101.255L41.4964 100.454L42.8523 102.826L44.2389 102.025L45.5947 104.398L46.9813 103.628L48.3371 105.969L49.693 105.199L51.0796 107.572L52.4354 106.77L53.7912 109.143L55.1778 108.342L56.5336 110.715L57.0575 110.407V92.9351L39.5859 82.8589V100.33L40.1406 101.255Z" fill="#F7CE92"/>
<g clip-path="url(#clip0_216_5802)">
<path d="M199 36C185.746 36 175 46.7419 175 60C175 73.2581 185.746 84 199 84C212.254 84 223 73.2516 223 60C223 46.7484 212.254 36 199 36Z" fill="#2AD352"/>
<path d="M175 60C174.995 63.967 175.977 67.8729 177.858 71.3653C180.256 72.0691 182.741 72.4255 185.239 72.4238C199.668 72.4238 211.364 60.7275 211.364 46.2994C211.366 43.7615 210.998 41.2369 210.273 38.805C206.803 36.9569 202.931 35.9935 199 36C185.746 36 175 46.7419 175 60Z" fill="#74DA7F"/>
<path d="M212.689 56.0231L198.263 71.1722C197.87 71.5846 197.398 71.9134 196.875 72.1389C196.351 72.3645 195.788 72.4821 195.218 72.4847H195.199C194.633 72.4848 194.072 72.3711 193.55 72.1503C193.028 71.9296 192.556 71.6062 192.162 71.1994L184.507 63.315C184.112 62.918 183.799 62.4464 183.587 61.9275C183.375 61.4087 183.269 60.853 183.274 60.2926C183.278 59.7322 183.394 59.1784 183.615 58.6632C183.835 58.148 184.156 57.6817 184.558 57.2914C184.96 56.9012 185.436 56.5946 185.957 56.3896C186.479 56.1847 187.036 56.0853 187.596 56.0974C188.157 56.1094 188.709 56.2326 189.221 56.4598C189.733 56.687 190.195 57.0137 190.58 57.4209L195.169 62.1478L206.559 50.1872C206.941 49.7781 207.4 49.4487 207.909 49.218C208.419 48.9874 208.969 48.8601 209.528 48.8434C210.088 48.8268 210.644 48.9213 211.167 49.1213C211.689 49.3213 212.167 49.6229 212.572 50.0086C212.977 50.3944 213.302 50.8566 213.527 51.3686C213.753 51.8806 213.874 52.4323 213.885 52.9916C213.896 53.5509 213.796 54.1068 213.59 54.6272C213.385 55.1475 213.078 55.622 212.689 56.0231Z" fill="white"/>
</g>
<defs>
<clipPath id="clip0_216_5802">
<rect width="48" height="48" fill="white" transform="translate(175 36)"/>
</clipPath>
</defs>
</svg>
