<svg width="223" height="212" viewBox="0 0 223 212" fill="none" xmlns="http://www.w3.org/2000/svg">
<path d="M103.413 92.4726L103.32 0L206.948 59.779V152.221L103.413 92.4726Z" fill="#A1663B"/>
<path d="M103.412 92.4726L103.319 0L0 59.8099V152.221L103.412 92.4726Z" fill="#D48A53"/>
<path d="M102.888 119.558V212L0 152.221V59.8099L102.888 119.558Z" fill="#DEAE80"/>
<path d="M0 59.8099L102.888 119.558C102.888 119.558 64.4012 100.916 0 59.8099Z" fill="#7F492A"/>
<path d="M102.883 119.558V212L206.942 152.221V59.7793L102.883 119.558Z" fill="#D8A57A"/>
<path d="M206.947 59.9331L102.888 119.558L0 59.8099L103.319 0L206.947 59.9331Z" fill="#E3B786"/>
<path d="M52.7185 90.3773L155.884 30.4442L152.001 28.1948L48.8359 88.1587L52.7185 90.3773Z" fill="#7F492A"/>
<path d="M39.5859 82.8587L57.0575 92.9349L160.192 33.0017L142.751 22.9256L39.5859 82.8587Z" fill="#FFDA9F"/>
<path d="M40.1406 101.255L41.4964 100.454L42.8523 102.826L44.2389 102.025L45.5947 104.398L46.9813 103.628L48.3371 105.969L49.693 105.199L51.0796 107.572L52.4354 106.77L53.7912 109.143L55.1778 108.342L56.5336 110.715L57.0575 110.407V92.9351L39.5859 82.8589V100.33L40.1406 101.255Z" fill="#F7CE92"/>
<g clip-path="url(#clip0_216_5758)">
<path d="M199 36C185.746 36 175 46.7419 175 60C175 73.2581 185.746 84 199 84C212.254 84 223 73.2516 223 60C223 46.7484 212.254 36 199 36Z" fill="#E74111"/>
<path d="M175 60C174.995 63.967 175.977 67.8729 177.858 71.3653C180.256 72.0691 182.741 72.4255 185.239 72.4238C199.668 72.4238 211.364 60.7275 211.364 46.2994C211.366 43.7615 210.998 41.2369 210.273 38.805C206.803 36.9569 202.931 35.9935 199 36C185.746 36 175 46.7419 175 60Z" fill="#EC6741"/>
<path d="M191 53L199 61L207 69M207 53L191 69" stroke="white" stroke-width="6" stroke-linecap="round" stroke-linejoin="round"/>
</g>
<defs>
<clipPath id="clip0_216_5758">
<rect width="48" height="48" fill="white" transform="translate(175 36)"/>
</clipPath>
</defs>
</svg>
