<svg width="344" height="486" viewBox="0 0 344 486" fill="none" xmlns="http://www.w3.org/2000/svg">
<g clip-path="url(#clip0_3485_9720)">
<g opacity="0.5">
<g opacity="0.5">
<path opacity="0.7" d="M267.086 310.686C264.386 305.986 266.086 299.986 270.786 297.386L307.686 276.586C312.386 273.886 318.386 275.586 320.986 280.286L341.786 317.186C344.486 321.886 342.786 327.886 338.086 330.486L301.186 351.286C296.486 353.986 290.486 352.286 287.886 347.586L267.086 310.686Z" fill="#E8E8E8"/>
<path opacity="0.22" d="M195.987 350.686C193.287 345.986 194.987 339.986 199.687 337.386L236.587 316.586C241.287 313.886 247.287 315.586 249.887 320.286L270.687 357.186C273.387 361.886 271.687 367.886 266.987 370.486L230.087 391.286C225.387 393.986 219.387 392.286 216.787 387.586L195.987 350.686Z" fill="#E8E8E8"/>
<path opacity="0.36" d="M124.886 390.786C122.186 386.086 123.886 380.086 128.586 377.486L165.486 356.686C170.186 353.986 176.186 355.686 178.786 360.386L199.586 397.286C202.286 401.986 200.586 407.986 195.886 410.586L158.986 431.386C154.286 434.086 148.286 432.386 145.686 427.686L124.886 390.786Z" fill="#E8E8E8"/>
<path opacity="0.21" d="M53.7863 430.786C51.0863 426.086 52.7863 420.086 57.4863 417.486L94.3864 396.686C99.0864 393.986 105.086 395.686 107.686 400.386L128.486 437.286C131.186 441.986 129.486 447.986 124.786 450.586L87.9863 471.386C83.2863 474.086 77.2864 472.386 74.6864 467.686L53.7863 430.786Z" fill="#E8E8E8"/>
<path opacity="0.54" d="M-17.2137 470.886C-19.9137 466.186 -18.2137 460.186 -13.5137 457.586L23.3863 436.786C28.0863 434.086 34.0864 435.786 36.6864 440.486L57.4863 477.386C60.1863 482.086 58.4863 488.086 53.7863 490.686L16.8863 511.486C12.1863 514.186 6.18635 512.486 3.58635 507.786L-17.2137 470.886Z" fill="#E8E8E8"/>
<path opacity="0.26" d="M228.386 241.886C225.686 237.186 227.386 231.186 232.086 228.586L268.986 207.786C273.686 205.086 279.686 206.786 282.286 211.486L303.086 248.386C305.786 253.086 304.086 259.086 299.386 261.686L262.486 282.486C257.786 285.186 251.786 283.486 249.186 278.786L228.386 241.886Z" fill="#E8E8E8"/>
<path opacity="0.81" d="M157.286 281.886C154.586 277.186 156.286 271.186 160.986 268.586L197.886 247.786C202.586 245.086 208.586 246.786 211.186 251.486L231.986 288.386C234.686 293.086 232.986 299.086 228.286 301.686L191.386 322.486C186.686 325.186 180.686 323.486 178.086 318.786L157.286 281.886Z" fill="#E8E8E8"/>
<path opacity="0.7" d="M86.1862 321.986C83.4862 317.286 85.1862 311.286 89.8862 308.686L126.786 287.886C131.486 285.186 137.486 286.886 140.086 291.586L160.886 328.486C163.586 333.186 161.886 339.186 157.186 341.786L120.286 362.586C115.586 365.286 109.586 363.586 106.986 358.886L86.1862 321.986Z" fill="#E8E8E8"/>
<path opacity="0.16" d="M15.0861 361.986C12.3861 357.286 14.0861 351.286 18.7861 348.686L55.6862 327.886C60.3862 325.186 66.3861 326.886 68.9861 331.586L89.7861 368.486C92.4861 373.186 90.7861 379.186 86.0861 381.786L49.1862 402.586C44.4862 405.286 38.4861 403.586 35.8861 398.886L15.0861 361.986Z" fill="#E8E8E8"/>
<path opacity="0.25" d="M-56.0135 402.087C-58.7135 397.387 -57.0135 391.387 -52.3135 388.787L-15.4135 367.987C-10.7135 365.287 -4.71347 366.987 -2.11348 371.687L18.6865 408.587C21.3865 413.287 19.6865 419.287 14.9865 421.887L-21.9135 442.687C-26.6135 445.387 -32.6135 443.687 -35.2135 438.987L-56.0135 402.087Z" fill="#E8E8E8"/>
<path opacity="0.52" d="M189.586 172.986C186.886 168.286 188.586 162.286 193.286 159.686L230.186 138.886C234.886 136.186 240.886 137.886 243.486 142.586L264.286 179.486C266.986 184.186 265.286 190.186 260.586 192.786L223.686 213.586C218.986 216.286 212.986 214.586 210.386 209.886L189.586 172.986Z" fill="#E8E8E8"/>
<path opacity="0.1" d="M118.487 213.087C115.787 208.387 117.487 202.387 122.187 199.787L159.087 178.987C163.787 176.287 169.787 177.987 172.387 182.687L193.187 219.587C195.887 224.287 194.187 230.287 189.487 232.887L152.587 253.687C147.887 256.387 141.887 254.687 139.287 249.987L118.487 213.087Z" fill="#E8E8E8"/>
<path opacity="0.77" d="M47.3864 253.087C44.6864 248.387 46.3864 242.387 51.0864 239.787L87.9864 218.987C92.6864 216.287 98.6864 217.987 101.286 222.687L122.086 259.587C124.786 264.287 123.086 270.287 118.386 272.887L81.4864 293.687C76.7864 296.387 70.7865 294.687 68.1865 289.987L47.3864 253.087Z" fill="#E8E8E8"/>
<path opacity="0.6" d="M-23.7137 293.186C-26.4137 288.486 -24.7137 282.486 -20.0137 279.886L16.8863 259.086C21.5863 256.386 27.5864 258.086 30.1864 262.786L50.9863 299.686C53.6863 304.386 51.9863 310.386 47.2863 312.986L10.3863 333.786C5.68634 336.486 -0.313646 334.786 -2.91365 330.086L-23.7137 293.186Z" fill="#E8E8E8"/>
<path opacity="0.54" d="M150.786 104.186C148.086 99.4861 149.786 93.4861 154.486 90.8861L191.386 70.0861C196.086 67.3861 202.086 69.0861 204.686 73.7861L225.486 110.686C228.186 115.386 226.486 121.386 221.786 123.986L184.886 144.786C180.186 147.486 174.186 145.786 171.586 141.086L150.786 104.186Z" fill="#E8E8E8"/>
<path opacity="0.19" d="M79.6862 144.286C76.9862 139.586 78.6862 133.586 83.3862 130.986L120.286 110.186C124.986 107.486 130.986 109.186 133.586 113.886L154.386 150.786C157.086 155.486 155.386 161.486 150.686 164.086L113.786 184.886C109.086 187.586 103.086 185.886 100.486 181.186L79.6862 144.286Z" fill="#E8E8E8"/>
<path opacity="0.96" d="M8.58615 184.286C5.88615 179.586 7.58613 173.586 12.2861 170.986L49.1862 150.186C53.8862 147.486 59.8861 149.186 62.4861 153.886L83.2861 190.786C85.9861 195.486 84.2861 201.486 79.5861 204.086L42.6862 224.886C37.9862 227.586 31.9861 225.886 29.3861 221.186L8.58615 184.286Z" fill="#E8E8E8"/>
<path opacity="0.99" d="M-62.5135 224.386C-65.2135 219.686 -63.5135 213.686 -58.8135 211.086L-21.9135 190.286C-17.2135 187.586 -11.2135 189.286 -8.61348 193.986L12.1865 230.886C14.8865 235.586 13.1865 241.586 8.48653 244.186L-28.4135 264.986C-33.1135 267.686 -39.1135 265.986 -41.7135 261.286L-62.5135 224.386Z" fill="#E8E8E8"/>
<path opacity="0.24" d="M111.987 35.3863C109.287 30.6863 110.987 24.6863 115.687 22.0863L152.587 1.28634C157.287 -1.41366 163.287 0.286337 165.887 4.98634L186.687 41.8863C189.387 46.5863 187.687 52.5863 182.987 55.1863L146.187 75.9863C141.487 78.6863 135.487 76.9863 132.887 72.2863L111.987 35.3863Z" fill="#E8E8E8"/>
<path opacity="0.71" d="M40.8864 75.3863C38.1864 70.6863 39.8864 64.6863 44.5864 62.0863L81.4864 41.2863C86.1864 38.5863 92.1864 40.2863 94.7864 44.9863L115.586 81.8863C118.286 86.5863 116.586 92.5863 111.886 95.1863L75.0864 115.986C70.3864 118.686 64.3864 116.986 61.7864 112.286L40.8864 75.3863Z" fill="#E8E8E8"/>
<path opacity="0.13" d="M-30.2137 115.486C-32.9137 110.786 -31.2137 104.786 -26.5137 102.186L10.3863 81.3864C15.0863 78.6864 21.0864 80.3864 23.6864 85.0864L44.4863 121.986C47.1863 126.686 45.4863 132.686 40.7863 135.286L3.98635 156.086C-0.713654 158.786 -6.71364 157.086 -9.31364 152.386L-30.2137 115.486Z" fill="#E8E8E8"/>
<path opacity="0.7" d="M152.986 405.786C151.286 402.686 152.386 398.786 155.386 397.086L179.486 383.486C182.586 381.786 186.486 382.886 188.186 385.886L201.786 409.986C203.486 413.086 202.386 416.986 199.386 418.686L175.286 432.286C172.186 433.986 168.286 432.886 166.586 429.886L152.986 405.786Z" fill="#E8E8E8"/>
<path opacity="0.22" d="M106.486 432.086C104.786 428.986 105.886 425.086 108.886 423.386L132.986 409.786C136.086 408.086 139.986 409.186 141.686 412.186L155.286 436.286C156.986 439.386 155.886 443.286 152.886 444.986L128.786 458.586C125.686 460.286 121.786 459.186 120.086 456.186L106.486 432.086Z" fill="#E8E8E8"/>
<path opacity="0.36" d="M59.9864 458.286C58.2864 455.186 59.3864 451.286 62.3864 449.586L86.4864 435.986C89.5864 434.286 93.4864 435.386 95.1864 438.386L108.786 462.486C110.486 465.586 109.386 469.486 106.386 471.186L82.2864 484.786C79.1864 486.486 75.2864 485.386 73.5864 482.386L59.9864 458.286Z" fill="#E8E8E8"/>
<path opacity="0.21" d="M13.4864 484.486C11.7864 481.386 12.8864 477.486 15.8864 475.786L39.9864 462.186C43.0864 460.486 46.9864 461.586 48.6864 464.586L62.2864 488.686C63.9864 491.786 62.8864 495.686 59.8864 497.386L35.7864 510.986C32.6864 512.686 28.7864 511.586 27.0864 508.586L13.4864 484.486Z" fill="#E8E8E8"/>
<path opacity="0.26" d="M127.586 360.786C125.886 357.686 126.987 353.786 129.987 352.086L154.086 338.486C157.186 336.786 161.086 337.886 162.786 340.886L176.387 364.986C178.087 368.086 176.987 371.986 173.987 373.686L149.887 387.286C146.787 388.986 142.887 387.886 141.187 384.886L127.586 360.786Z" fill="#E8E8E8"/>
<path opacity="0.81" d="M81.0865 386.986C79.3865 383.886 80.4865 379.986 83.4865 378.286L107.586 364.686C110.686 362.986 114.586 364.086 116.286 367.086L129.887 391.186C131.587 394.286 130.487 398.186 127.487 399.886L103.387 413.486C100.287 415.186 96.3865 414.086 94.6865 411.086L81.0865 386.986Z" fill="#E8E8E8"/>
<path opacity="0.7" d="M34.5865 413.186C32.8865 410.086 33.9865 406.186 36.9865 404.486L61.0865 390.886C64.1865 389.186 68.0865 390.286 69.7865 393.286L83.3865 417.386C85.0865 420.486 83.9865 424.386 80.9865 426.086L56.8865 439.686C53.7865 441.386 49.8865 440.286 48.1865 437.286L34.5865 413.186Z" fill="#E8E8E8"/>
<path opacity="0.16" d="M-11.9135 439.386C-13.6135 436.286 -12.5135 432.386 -9.51352 430.686L14.5865 417.086C17.6865 415.386 21.5865 416.486 23.2865 419.486L36.8865 443.586C38.5865 446.686 37.4865 450.586 34.4865 452.286L10.3865 465.986C7.28648 467.686 3.3865 466.586 1.68649 463.586L-11.9135 439.386Z" fill="#E8E8E8"/>
<path opacity="0.52" d="M102.286 315.786C100.586 312.686 101.686 308.786 104.686 307.086L128.786 293.486C131.886 291.786 135.786 292.886 137.486 295.886L151.086 319.986C152.786 323.086 151.686 326.986 148.686 328.686L124.586 342.286C121.486 343.986 117.586 342.886 115.886 339.886L102.286 315.786Z" fill="#E8E8E8"/>
<path opacity="0.1" d="M55.6861 341.986C53.9861 338.886 55.0861 334.986 58.0861 333.286L82.1861 319.686C85.2861 317.986 89.1861 319.086 90.8861 322.086L104.486 346.186C106.186 349.286 105.086 353.186 102.086 354.886L77.9861 368.486C74.8861 370.186 70.9861 369.086 69.2861 366.086L55.6861 341.986Z" fill="#E8E8E8"/>
<path opacity="0.77" d="M9.1861 368.186C7.4861 365.086 8.58609 361.186 11.5861 359.486L35.6861 345.886C38.7861 344.186 42.6861 345.286 44.3861 348.286L57.9861 372.386C59.6861 375.486 58.5861 379.386 55.5861 381.086L31.4861 394.686C28.3861 396.386 24.4861 395.286 22.7861 392.286L9.1861 368.186Z" fill="#E8E8E8"/>
<path opacity="0.6" d="M-37.3139 394.386C-39.0139 391.286 -37.9139 387.386 -34.9139 385.686L-10.8139 372.086C-7.7139 370.386 -3.81392 371.486 -2.11392 374.486L11.4861 398.586C13.1861 401.686 12.0861 405.586 9.08609 407.286L-15.0139 420.986C-18.1139 422.686 -22.0139 421.586 -23.7139 418.586L-37.3139 394.386Z" fill="#E8E8E8"/>
<path opacity="0.54" d="M76.8863 270.786C75.1863 267.686 76.2863 263.786 79.2863 262.086L103.386 248.486C106.486 246.786 110.386 247.886 112.086 250.886L125.686 274.986C127.386 278.086 126.286 281.986 123.286 283.686L99.1863 297.286C96.0863 298.986 92.1863 297.886 90.4863 294.886L76.8863 270.786Z" fill="#E8E8E8"/>
<path opacity="0.19" d="M30.3863 296.986C28.6863 293.886 29.7863 289.986 32.7863 288.286L56.8863 274.686C59.9863 272.986 63.8863 274.086 65.5863 277.086L79.1863 301.186C80.8863 304.286 79.7863 308.186 76.7863 309.886L52.6863 323.486C49.5863 325.186 45.6863 324.086 43.9863 321.086L30.3863 296.986Z" fill="#E8E8E8"/>
<path opacity="0.96" d="M-16.1137 323.186C-17.8137 320.086 -16.7137 316.186 -13.7137 314.486L10.3863 300.886C13.4863 299.186 17.3863 300.286 19.0863 303.286L32.6863 327.386C34.3863 330.486 33.2863 334.386 30.2863 336.086L6.18631 349.686C3.08631 351.386 -0.8137 350.286 -2.5137 347.286L-16.1137 323.186Z" fill="#E8E8E8"/>
<path opacity="0.24" d="M51.4864 225.686C49.7864 222.586 50.8864 218.686 53.8864 216.986L77.9864 203.386C81.0864 201.686 84.9864 202.786 86.6864 205.786L100.286 229.886C101.986 232.986 100.886 236.886 97.8864 238.586L73.7864 252.186C70.6864 253.886 66.7864 252.786 65.0864 249.786L51.4864 225.686Z" fill="#E8E8E8"/>
<path opacity="0.71" d="M4.98639 251.886C3.28639 248.786 4.38639 244.886 7.38639 243.186L31.4864 229.586C34.5864 227.886 38.4864 228.986 40.1864 231.986L53.7864 256.086C55.4864 259.186 54.3864 263.086 51.3864 264.786L27.2864 278.386C24.1864 280.086 20.2864 278.986 18.5864 275.986L4.98639 251.886Z" fill="#E8E8E8"/>
<path opacity="0.13" d="M-41.5136 278.086C-43.2136 274.986 -42.1136 271.086 -39.1136 269.386L-15.0136 255.786C-11.9136 254.086 -8.0136 255.186 -6.31359 258.186L7.28638 282.286C8.98638 285.386 7.88639 289.286 4.88639 290.986L-19.2136 304.586C-22.3136 306.286 -26.2136 305.186 -27.9136 302.186L-41.5136 278.086Z" fill="#E8E8E8"/>
</g>
<path opacity="0.7" d="M67.0864 361.586C65.4864 358.686 66.4864 355.086 69.3864 353.486L91.6864 340.886C94.5864 339.286 98.1864 340.286 99.7864 343.186L112.386 365.486C113.986 368.386 112.986 371.986 110.086 373.586L87.7864 386.186C84.8864 387.786 81.2864 386.786 79.6864 383.886L67.0864 361.586Z" fill="#D9D9D9"/>
<path opacity="0.22" d="M23.9863 385.786C22.3863 382.886 23.3863 379.286 26.2863 377.686L48.5863 365.086C51.4863 363.486 55.0863 364.486 56.6863 367.386L69.2863 389.686C70.8863 392.586 69.8863 396.186 66.9863 397.786L44.6863 410.386C41.7863 411.986 38.1863 410.986 36.5863 408.086L23.9863 385.786Z" fill="#D9D9D9"/>
<path opacity="0.36" d="M-19.0137 410.086C-20.6137 407.186 -19.6137 403.586 -16.7137 401.986L5.58632 389.386C8.48632 387.786 12.0863 388.786 13.6863 391.686L26.2863 413.986C27.8863 416.886 26.8863 420.486 23.9863 422.086L1.68633 434.686C-1.21367 436.286 -4.81368 435.286 -6.41368 432.386L-19.0137 410.086Z" fill="#D9D9D9"/>
<path opacity="0.26" d="M43.5864 319.886C41.9864 316.986 42.9864 313.386 45.8864 311.786L68.1864 299.187C71.0864 297.587 74.6864 298.586 76.2864 301.486L88.8864 323.786C90.4864 326.686 89.4864 330.286 86.5864 331.886L64.2864 344.486C61.3864 346.086 57.7864 345.087 56.1864 342.187L43.5864 319.886Z" fill="#D9D9D9"/>
<path opacity="0.81" d="M0.486313 344.086C-1.11369 341.186 -0.113699 337.586 2.7863 335.986L25.0863 323.386C27.9863 321.786 31.5863 322.786 33.1863 325.686L45.7863 347.986C47.3863 350.886 46.3863 354.486 43.4863 356.086L21.1863 368.686C18.2863 370.286 14.6863 369.286 13.0863 366.386L0.486313 344.086Z" fill="#D9D9D9"/>
<path opacity="0.7" d="M-42.5137 368.386C-44.1137 365.486 -43.1137 361.886 -40.2137 360.286L-17.9137 347.687C-15.0137 346.087 -11.4137 347.086 -9.81367 349.986L2.7863 372.286C4.3863 375.186 3.38631 378.786 0.486313 380.386L-21.9137 392.986C-24.8137 394.586 -28.4137 393.587 -30.0137 390.687L-42.5137 368.386Z" fill="#D9D9D9"/>
<path opacity="0.52" d="M20.0864 278.186C18.4864 275.286 19.4864 271.686 22.3864 270.086L44.6864 257.486C47.5864 255.886 51.1864 256.886 52.7864 259.786L65.3864 282.086C66.9864 284.986 65.9864 288.586 63.0864 290.186L40.7864 302.786C37.8864 304.386 34.2864 303.386 32.6864 300.486L20.0864 278.186Z" fill="#D9D9D9"/>
<path opacity="0.1" d="M-22.9136 302.386C-24.5136 299.486 -23.5136 295.886 -20.6136 294.286L1.68642 281.687C4.58642 280.087 8.18639 281.086 9.78639 283.986L22.3864 306.286C23.9864 309.186 22.9864 312.786 20.0864 314.386L-2.31358 326.986C-5.21358 328.586 -8.81359 327.587 -10.4136 324.687L-22.9136 302.386Z" fill="#D9D9D9"/>
<path opacity="0.54" d="M-3.41359 236.487C-5.01359 233.587 -4.0136 229.987 -1.1136 228.387L21.1864 215.787C24.0864 214.187 27.6864 215.187 29.2864 218.087L41.8864 240.387C43.4864 243.287 42.4864 246.887 39.5864 248.487L17.2864 261.087C14.3864 262.687 10.7864 261.687 9.18642 258.787L-3.41359 236.487Z" fill="#D9D9D9"/>
<path opacity="0.19" d="M-46.4136 260.686C-48.0136 257.786 -47.0136 254.186 -44.1136 252.586L-21.8136 239.986C-18.9136 238.386 -15.3136 239.386 -13.7136 242.286L-1.1136 264.586C0.486397 267.486 -0.513588 271.086 -3.41359 272.686L-25.7136 285.286C-28.6136 286.886 -32.2136 285.886 -33.8136 282.986L-46.4136 260.686Z" fill="#D9D9D9"/>
<path opacity="0.24" d="M-26.9136 194.786C-28.5136 191.886 -27.5136 188.286 -24.6136 186.686L-2.31358 174.086C0.586416 172.486 4.18639 173.486 5.78639 176.386L18.3864 198.686C19.9864 201.586 18.9864 205.186 16.0864 206.786L-6.21361 219.386C-9.11361 220.986 -12.7136 219.986 -14.3136 217.086L-26.9136 194.786Z" fill="#D9D9D9"/>
<path opacity="0.7" d="M-2.01388 419.186C-3.11388 417.286 -2.41388 414.986 -0.513879 413.886L14.0861 405.686C15.9861 404.586 18.2861 405.286 19.3861 407.186L27.5861 421.786C28.6861 423.686 27.9861 425.986 26.0861 427.086L11.4861 435.286C9.58612 436.386 7.28613 435.686 6.18613 433.786L-2.01388 419.186Z" fill="#D9D9D9"/>
<path opacity="0.22" d="M-30.2136 435.086C-31.3136 433.186 -30.6136 430.886 -28.7136 429.786L-14.1136 421.586C-12.2136 420.486 -9.91356 421.186 -8.81356 423.086L-0.613579 437.686C0.486422 439.586 -0.213579 441.886 -2.11358 442.986L-16.7136 451.186C-18.6136 452.286 -20.9136 451.586 -22.0136 449.686L-30.2136 435.086Z" fill="#D9D9D9"/>
<path opacity="0.26" d="M-17.4138 391.886C-18.5138 389.986 -17.8138 387.686 -15.9138 386.586L-1.31377 378.386C0.586226 377.286 2.88621 377.986 3.98621 379.886L12.1862 394.486C13.2862 396.386 12.5862 398.686 10.6862 399.786L-3.91378 407.986C-5.81378 409.086 -8.1138 408.386 -9.2138 406.486L-17.4138 391.886Z" fill="#D9D9D9"/>
</g>
</g>
<defs>
<clipPath id="clip0_3485_9720">
<rect width="344" height="486" fill="white"/>
</clipPath>
</defs>
</svg>
