<svg width="389" height="227" viewBox="0 0 389 227" fill="none" xmlns="http://www.w3.org/2000/svg">
    <g filter="url(#filter0_d_761_9123)">
        <g clip-path="url(#clip0_761_9123)">
            <rect x="15" y="12" width="358" height="195" rx="16" fill="white" />
            <path
                d="M363.934 75.5526C378.907 106.042 414.184 87.3311 411.451 51.7431C410.317 36.969 406.283 26.0887 416.098 13.3422C418.535 10.1798 420.643 6.77536 422.907 3.48386C427.091 -2.59896 427.129 -13.7105 420.659 -21.7617C411.29 -33.4164 399.495 -43.0274 387.26 -51.638C371.26 -62.8947 352.436 -66.197 341.787 -49.0726C335.575 -39.0851 334.591 -28.9686 323.043 -25.7793C316.288 -23.913 311.647 -22.4932 306.952 -16.491C298.551 -5.74524 299.175 -9.71979 291.936 -5.63231C274.542 4.19379 280.093 28.1378 297.696 38.2006C309.426 44.9019 321.866 42.202 328.895 41.9761C354.302 41.1532 351.785 50.8126 363.934 75.5526Z"
                fill="url(#paint0_linear_761_9123)" />
            <path
                d="M424.429 113.733C424.348 113.733 424.268 113.733 424.182 113.733C417.556 113.679 410.741 111.447 404.992 107.457C399.243 103.46 394.779 97.8563 392.412 91.666C391.525 89.3425 390.869 86.8632 390.234 84.4698C388.959 79.6724 387.647 74.7083 384.431 70.9112C382.064 68.1145 378.838 66.1783 375.718 64.3067C372.954 62.6502 370.098 60.9345 367.812 58.6165C363.171 53.9159 361.299 47.2791 359.492 40.8575C357.615 34.1938 355.673 27.2988 350.612 22.695C342.852 15.6388 330.799 16.5799 321.166 18.1827L320.042 18.3709C309.92 20.0704 299.454 21.8238 290.752 16.8973C284.239 13.2132 279.92 5.71047 280.001 -1.7707C280.082 -9.25187 284.562 -16.6577 291.15 -20.2074L291.279 -19.9708C284.777 -16.4695 280.351 -9.15506 280.275 -1.7707C280.195 5.61366 284.465 13.0249 290.892 16.6606C299.513 21.5387 309.931 19.7908 320.005 18.102L321.129 17.9138C330.82 16.2949 342.954 15.3537 350.795 22.4907C355.915 27.1429 357.868 34.0755 359.755 40.7768C361.552 47.1662 363.413 53.7707 368.006 58.4175C370.27 60.7086 373.11 62.4136 375.858 64.0647C378.994 65.9471 382.242 67.8994 384.635 70.7283C387.889 74.5684 389.212 79.5648 390.492 84.3892C391.127 86.7771 391.783 89.2511 392.66 91.5584C397.538 104.337 410.499 113.346 424.176 113.459C430.835 113.518 436.541 111.318 439.849 107.435L440.053 107.607C436.745 111.512 431.055 113.733 424.429 113.733Z"
                fill="white" />
            <path
                d="M26.4966 152.61C22.4476 127.604 -4.8507 134.969 -10.0009 161.51C-12.1386 172.529 -11.5708 181.217 -20.6453 188.786C-22.8975 190.663 -24.9774 192.777 -27.1396 194.78C-31.1354 198.482 -33.34 206.609 -30.5855 213.663C-26.596 223.876 -20.581 233.028 -14.0743 241.527C-5.56498 252.639 6.39582 258.435 16.8874 247.811C23.0072 241.615 25.6507 234.386 34.0106 234.124C38.9013 233.97 42.2887 233.764 46.6109 230.213C54.3456 223.855 53.1481 226.652 58.7987 224.959C72.3763 220.888 73.355 202.365 63.5379 191.84C56.9954 184.829 48.1334 184.573 43.3807 183.476C26.2014 179.519 29.782 172.9 26.4966 152.61Z"
                fill="url(#paint1_linear_761_9123)" />
            <path
                d="M-6.5348 113.804C-6.48077 113.819 -6.42672 113.833 -6.36908 113.848C-1.94144 115.077 2.18507 117.934 5.25333 121.887C8.32055 125.844 10.2114 130.747 10.5822 135.703C10.7209 137.563 10.6741 139.496 10.6298 141.362C10.5426 145.102 10.4479 148.972 11.8574 152.328C12.8939 154.8 14.6756 156.797 16.3979 158.727C17.9247 160.435 19.5011 162.204 20.5775 164.311C22.7644 168.585 22.7163 173.779 22.6672 178.804C22.6174 184.019 22.5655 189.414 25.0524 193.693C28.8667 200.251 37.1243 201.725 43.8906 202.28L44.6805 202.344C51.7936 202.917 59.1478 203.512 64.0103 208.68C67.6502 212.546 69.0714 218.813 67.55 224.275C66.0286 229.736 61.5752 234.353 56.466 235.769L56.4259 235.573C61.468 234.177 65.8675 229.617 67.3663 224.225C68.8687 218.834 67.462 212.643 63.8702 208.828C59.0523 203.71 51.7315 203.12 44.6529 202.548L43.8631 202.484C37.054 201.93 28.7423 200.441 24.8898 193.809C22.3728 189.485 22.4249 184.06 22.4748 178.816C22.5248 173.816 22.5738 168.648 20.4087 164.422C19.3415 162.338 17.7738 160.581 16.2568 158.879C14.5258 156.938 12.7329 154.926 11.6847 152.426C10.2584 149.031 10.3522 145.136 10.441 141.375C10.4843 139.513 10.5301 137.584 10.3954 135.738C9.63446 125.508 2.71954 116.588 -6.41929 114.05C-10.8675 112.812 -15.1211 113.398 -18.0982 115.647L-18.2014 115.484C-15.22 113.22 -10.973 112.615 -6.5348 113.804Z"
                fill="white" />

            <g filter="url(#filter2_f_761_9123)">
                <ellipse cx="64.7212" cy="3.05288" rx="64.7212" ry="3.05288"
                    transform="matrix(1 0 0 -1 212.187 174)" fill="black" fill-opacity="0.8" />
            </g>
            <path
                d="M276.819 166.041C260.971 166.041 246.082 159.879 234.891 148.688C223.7 137.497 217.538 122.608 217.538 106.76C217.538 90.9115 223.7 76.0223 234.891 64.8314C246.082 53.6406 260.971 47.4787 276.819 47.4787C292.667 47.4787 307.556 53.6406 318.747 64.8314C329.938 76.0223 336.1 90.9115 336.1 106.76C336.1 122.608 329.938 137.497 318.747 148.688C307.556 159.879 292.667 166.041 276.819 166.041ZM276.819 47.7844C244.295 47.7844 217.838 74.2421 217.838 106.766C217.838 139.289 244.295 165.747 276.819 165.747C309.343 165.747 335.8 139.289 335.8 106.766C335.8 74.2421 309.343 47.7844 276.819 47.7844Z"
                fill="#EC6707" />
            <path
                d="M276.819 158.65C248.209 158.65 224.934 135.375 224.934 106.766C224.934 78.1562 248.209 54.8813 276.819 54.8813C305.428 54.8813 328.709 78.1562 328.709 106.766C328.709 135.375 305.434 158.65 276.819 158.65ZM276.819 55.1751C248.371 55.1751 225.234 78.318 225.234 106.76C225.234 135.201 248.377 158.344 276.819 158.344C305.261 158.344 328.41 135.201 328.41 106.76C328.41 78.318 305.267 55.1751 276.819 55.1751Z"
                fill="#EC6707" />
            <path
                d="M276.819 151.259C252.285 151.259 232.325 131.299 232.325 106.766C232.325 82.2321 252.285 62.272 276.819 62.272C301.353 62.272 321.313 82.2321 321.313 106.766C321.319 131.299 301.359 151.259 276.819 151.259ZM276.819 62.5657C252.447 62.5657 232.625 82.3939 232.625 106.76C232.625 131.131 252.453 150.954 276.819 150.954C301.185 150.954 321.013 131.125 321.013 106.76C321.019 82.3939 301.191 62.5657 276.819 62.5657Z"
                fill="#EC6707" />
            <path
                d="M276.819 143.869C256.361 143.869 239.716 127.223 239.716 106.766C239.716 86.3081 256.361 69.6627 276.819 69.6627C297.276 69.6627 313.922 86.3081 313.922 106.766C313.922 127.223 297.282 143.869 276.819 143.869ZM276.819 69.9564C256.523 69.9564 240.015 86.4699 240.015 106.76C240.015 127.056 256.529 143.563 276.819 143.563C297.114 143.563 313.622 127.05 313.622 106.76C313.628 86.4699 297.114 69.9564 276.819 69.9564Z"
                fill="#EC6707" />
            <path
                d="M276.819 136.478C260.438 136.478 247.107 123.147 247.107 106.766C247.107 90.384 260.438 77.0533 276.819 77.0533C293.201 77.0533 306.532 90.384 306.532 106.766C306.538 123.147 293.207 136.478 276.819 136.478ZM276.819 77.353C260.599 77.353 247.406 90.5459 247.406 106.766C247.406 122.986 260.599 136.178 276.819 136.178C293.039 136.178 306.232 122.986 306.232 106.766C306.238 90.5459 293.039 77.353 276.819 77.353Z"
                fill="#EC6707" />
            <g clip-path="url(#clip1_761_9123)">
                <path d="M322.09 155.345H299.746V172.701H322.09V155.345Z"
                    fill="url(#paint2_linear_761_9123)" />
                <path d="M313.895 155.345H307.923V161.091H313.895V155.345Z"
                    fill="url(#paint3_linear_761_9123)" />
                <path d="M322.093 172.701H331.32V155.345H322.093V172.701Z"
                    fill="url(#paint4_linear_761_9123)" />
                <path d="M328.003 169.327H323.447V171.739H328.003V169.327Z" fill="#AA4B0B" />
                <path opacity="0.28"
                    d="M328.003 170.888H323.447H322.093H299.746V172.701H322.093H331.32V170.888H328.003Z"
                    fill="#CC5D11" />
                <path d="M246.919 152.482H226.716V172.494H246.919V152.482Z"
                    fill="url(#paint5_linear_761_9123)" />
                <path d="M240.26 152.482H233.375V159.109H240.26V152.482Z"
                    fill="url(#paint6_linear_761_9123)" />
                <path d="M246.919 172.494H257.559V152.482H246.919V172.494Z"
                    fill="url(#paint7_linear_761_9123)" />
                <path d="M253.732 168.602H248.482V171.38H253.732V168.602Z" fill="#AA4B0B" />
                <path d="M250.647 135.136H233.125V152.492H250.647V135.136Z"
                    fill="url(#paint8_linear_761_9123)" />
                <path d="M244.873 135.136H238.902V140.882H244.873V135.136Z"
                    fill="url(#paint9_linear_761_9123)" />
                <path d="M250.647 152.492H259.877V135.136H250.647V152.492Z"
                    fill="url(#paint10_linear_761_9123)" />
                <path d="M256.56 149.118H252.004V151.53H256.56V149.118Z" fill="#AA4B0B" />
                <path opacity="0.28"
                    d="M256.557 150.68H252.004H250.647H233.125V152.492H250.647H259.878V150.68H256.557Z"
                    fill="#CC5D11" />
                <path
                    d="M289.592 95.4164L270.429 114.395L234.842 79.1443L254.005 60.1653L289.592 95.4164Z"
                    fill="url(#paint11_linear_761_9123)" />
                <path
                    d="M254.005 63.0315L237.739 79.1443L270.432 111.529L286.698 95.4163L254.005 63.0315ZM270.429 108.663L240.632 79.1477L254.005 65.901L283.801 95.4163L270.429 108.663Z"
                    fill="url(#paint12_linear_761_9123)" />
                <path
                    d="M259.159 68.1405L259.149 68.1506C256.303 70.9694 251.683 70.9727 248.834 68.154L254.002 63.0349L259.159 68.1405Z"
                    fill="url(#paint13_linear_761_9123)" />
                <path
                    d="M286.695 95.4163L281.527 100.535C278.681 97.7133 278.685 93.1397 281.53 90.321L281.541 90.3108L286.695 95.4163Z"
                    fill="url(#paint14_linear_761_9123)" />
                <path
                    d="M242.893 84.2499L237.739 79.1443L242.818 74.1133C245.636 76.9117 245.663 81.4244 242.893 84.2499Z"
                    fill="url(#paint15_linear_761_9123)" />
                <path
                    d="M275.507 106.498L270.429 111.529L265.274 106.424C268.13 103.679 272.686 103.707 275.507 106.498Z"
                    fill="url(#paint16_linear_761_9123)" />
                <path
                    d="M251.231 80.2454C252.792 80.2454 254.056 78.9925 254.056 77.447C254.056 75.9014 252.792 74.6486 251.231 74.6486C249.671 74.6486 248.406 75.9014 248.406 77.447C248.406 78.9925 249.671 80.2454 251.231 80.2454Z"
                    fill="white" />
                <path
                    d="M272.05 100.867C273.61 100.867 274.875 99.6145 274.875 98.069C274.875 96.5235 273.61 95.2706 272.05 95.2706C270.489 95.2706 269.225 96.5235 269.225 98.069C269.225 99.6145 270.489 100.867 272.05 100.867Z"
                    fill="white" />
                <path
                    d="M262.408 95.02C266.775 95.02 270.316 91.5131 270.316 87.1872C270.316 82.8612 266.775 79.3544 262.408 79.3544C258.041 79.3544 254.501 82.8612 254.501 87.1872C254.501 91.5131 258.041 95.02 262.408 95.02Z"
                    fill="url(#paint17_linear_761_9123)" />
                <path
                    d="M259.597 89.3656C259.057 88.7795 258.636 88.112 258.338 87.3667L259.624 86.0929C259.771 86.5401 259.97 86.9906 260.22 87.4412C260.469 87.8918 260.729 88.2476 260.992 88.5118C261.211 88.7286 261.399 88.8641 261.557 88.9116C261.711 88.959 261.851 88.9251 261.974 88.7998C262.06 88.7151 262.094 88.6067 262.08 88.4745C262.066 88.3424 262.008 88.1561 261.912 87.9088C261.817 87.6648 261.673 87.343 261.488 86.95C261.28 86.5028 261.153 86.1064 261.102 85.7575C261.051 85.4085 261.075 85.0934 261.17 84.819C261.266 84.5412 261.454 84.2668 261.731 83.989C262.159 83.5655 262.627 83.3724 263.14 83.4063C263.653 83.4401 264.214 83.701 264.82 84.1889L265.35 83.6637L266.153 84.4599L265.63 84.9782C266.116 85.5169 266.509 86.1572 266.807 86.8958L265.24 87.5327C264.943 86.7569 264.577 86.1538 264.142 85.7236C263.934 85.5169 263.766 85.3983 263.629 85.3645C263.496 85.3306 263.38 85.3645 263.281 85.4593C263.195 85.544 263.154 85.6423 263.161 85.7575C263.168 85.8726 263.209 86.0386 263.291 86.2555C263.373 86.4723 263.503 86.7569 263.677 87.1092C264.026 87.8342 264.197 88.4339 264.19 88.9082C264.183 89.3825 263.985 89.8128 263.602 90.1922C263.168 90.6225 262.679 90.8359 262.131 90.8291C261.584 90.8257 261.016 90.592 260.421 90.1346L259.672 90.8766L258.869 90.0804L259.597 89.3656Z"
                    fill="white" />
                <path opacity="0.4"
                    d="M271.024 97.8963L262.398 106.441L234.846 79.1443L243.471 70.6035L271.024 97.8963Z"
                    fill="url(#paint18_linear_761_9123)" />
                <path
                    d="M269.375 99.5293L250.216 118.508L214.629 83.2572L233.789 64.2783L269.375 99.5293Z"
                    fill="url(#paint19_linear_761_9123)" />
                <path
                    d="M233.789 67.1478L217.523 83.2572L250.212 115.639L266.478 99.5259L233.789 67.1478ZM250.216 112.776L220.42 83.2606L233.792 70.014L263.588 99.5293L250.216 112.776Z"
                    fill="url(#paint20_linear_761_9123)" />
                <path
                    d="M238.946 72.2534L238.936 72.2635C236.091 75.0823 231.47 75.0857 228.621 72.2669L233.789 67.1478L238.946 72.2534Z"
                    fill="url(#paint21_linear_761_9123)" />
                <path
                    d="M266.482 99.5293L261.314 104.648C258.468 101.826 258.472 97.2527 261.317 94.4339L261.328 94.4238L266.482 99.5293Z"
                    fill="url(#paint22_linear_761_9123)" />
                <path
                    d="M222.677 88.3662L217.523 83.2573L222.602 78.2263C225.423 81.0247 225.447 85.5373 222.677 88.3662Z"
                    fill="url(#paint23_linear_761_9123)" />
                <path
                    d="M255.295 110.611L250.216 115.642L245.062 110.537C247.917 107.792 252.473 107.819 255.295 110.611Z"
                    fill="url(#paint24_linear_761_9123)" />
                <path
                    d="M231.015 84.3583C232.575 84.3583 233.84 83.1054 233.84 81.5599C233.84 80.0144 232.575 78.7615 231.015 78.7615C229.455 78.7615 228.19 80.0144 228.19 81.5599C228.19 83.1054 229.455 84.3583 231.015 84.3583Z"
                    fill="white" />
                <path
                    d="M251.837 104.98C253.397 104.98 254.662 103.727 254.662 102.182C254.662 100.636 253.397 99.3835 251.837 99.3835C250.277 99.3835 249.012 100.636 249.012 102.182C249.012 103.727 250.277 104.98 251.837 104.98Z"
                    fill="white" />
                <path
                    d="M242.195 99.1329C246.563 99.1329 250.103 95.626 250.103 91.3001C250.103 86.9741 246.563 83.4673 242.195 83.4673C237.828 83.4673 234.288 86.9741 234.288 91.3001C234.288 95.626 237.828 99.1329 242.195 99.1329Z"
                    fill="url(#paint25_linear_761_9123)" />
                <path
                    d="M239.384 93.4785C238.844 92.8924 238.423 92.225 238.126 91.4796L239.411 90.2058C239.559 90.653 239.757 91.1036 240.007 91.5541C240.256 92.0047 240.516 92.3605 240.78 92.6247C240.998 92.8415 241.187 92.9771 241.344 93.0245C241.498 93.0719 241.638 93.038 241.761 92.9127C241.847 92.828 241.881 92.7196 241.867 92.5875C241.853 92.4553 241.795 92.269 241.7 92.0217C241.604 91.7744 241.46 91.4559 241.275 91.0629C241.067 90.6157 240.94 90.2193 240.889 89.8704C240.838 89.5214 240.862 89.2063 240.957 88.9319C241.053 88.6541 241.241 88.3797 241.518 88.1019C241.946 87.6784 242.414 87.4853 242.927 87.5192C243.44 87.5531 244.001 87.8139 244.607 88.3018L245.137 87.7767L245.941 88.5728L245.417 89.0912C245.903 89.6298 246.296 90.2701 246.594 91.0087L245.027 91.6456C244.73 90.8698 244.364 90.2668 243.929 89.8365C243.721 89.6298 243.553 89.5113 243.416 89.4774C243.283 89.4435 243.167 89.4774 243.068 89.5722C242.982 89.6569 242.941 89.7552 242.948 89.8704C242.955 89.9856 242.996 90.1516 243.078 90.3684C243.16 90.5852 243.29 90.8698 243.464 91.2221C243.813 91.9471 243.984 92.5468 243.977 93.0211C243.967 93.4954 243.772 93.9257 243.389 94.3051C242.955 94.7354 242.466 94.9488 241.918 94.942C241.371 94.9387 240.803 94.7049 240.208 94.2475L239.459 94.9895L238.656 94.1933L239.384 93.4785Z"
                    fill="white" />
                <path
                    d="M312.869 147.024C319.576 147.024 325.014 141.638 325.014 134.994C325.014 128.35 319.576 122.963 312.869 122.963C306.161 122.963 300.724 128.35 300.724 134.994C300.724 141.638 306.161 147.024 312.869 147.024Z"
                    fill="url(#paint26_linear_761_9123)" />
                <path
                    d="M310.861 146.577C317.569 146.577 323.006 141.191 323.006 134.547C323.006 127.902 317.569 122.516 310.861 122.516C304.154 122.516 298.716 127.902 298.716 134.547C298.716 141.191 304.154 146.577 310.861 146.577Z"
                    fill="url(#paint27_linear_761_9123)" />
                <path
                    d="M310.861 146.306C317.418 146.306 322.732 141.041 322.732 134.546C322.732 128.052 317.418 122.787 310.861 122.787C304.305 122.787 298.99 128.052 298.99 134.546C298.99 141.041 304.305 146.306 310.861 146.306Z"
                    fill="url(#paint28_linear_761_9123)" />
                <path
                    d="M310.861 144.819C316.588 144.819 321.231 140.22 321.231 134.547C321.231 128.873 316.588 124.274 310.861 124.274C305.134 124.274 300.491 128.873 300.491 134.547C300.491 140.22 305.134 144.819 310.861 144.819Z"
                    fill="url(#paint29_linear_761_9123)" />
                <path
                    d="M310.861 144.382C316.345 144.382 320.79 139.978 320.79 134.547C320.79 129.115 316.345 124.711 310.861 124.711C305.378 124.711 300.933 129.115 300.933 134.547C300.933 139.978 305.378 144.382 310.861 144.382Z"
                    fill="url(#paint30_linear_761_9123)" />
                <path
                    d="M301.771 132.521C302.951 127.32 308.091 124.017 313.337 125.023C313.238 124.999 313.142 124.976 313.043 124.952C307.694 123.759 302.383 127.09 301.179 132.388C299.975 137.687 303.337 142.948 308.686 144.141C308.785 144.165 308.884 144.182 308.984 144.202C303.806 142.884 300.587 137.721 301.771 132.521Z"
                    fill="url(#paint31_linear_761_9123)" />
                <path
                    d="M309.018 138.653C308.009 138.382 307.082 137.934 306.23 137.321L306.75 135.028C307.229 135.421 307.763 135.776 308.351 136.098C308.943 136.42 309.476 136.637 309.955 136.742C310.348 136.83 310.649 136.847 310.854 136.793C311.06 136.738 311.186 136.603 311.237 136.383C311.272 136.23 311.234 136.088 311.128 135.952C311.019 135.817 310.827 135.648 310.547 135.444C310.266 135.241 309.887 134.987 309.404 134.682C308.864 134.333 308.443 133.984 308.142 133.635C307.841 133.286 307.646 132.924 307.557 132.554C307.468 132.185 307.479 131.751 307.592 131.253C307.763 130.495 308.146 129.956 308.734 129.637C309.322 129.319 310.123 129.221 311.131 129.336L311.347 128.391L312.79 128.713L312.578 129.644C313.491 129.902 314.37 130.335 315.218 130.945L313.943 132.727C313.071 132.077 312.243 131.667 311.463 131.494C311.09 131.413 310.82 131.399 310.649 131.453C310.478 131.511 310.372 131.626 310.331 131.799C310.297 131.951 310.324 132.087 310.41 132.212C310.495 132.334 310.659 132.487 310.902 132.67C311.145 132.853 311.487 133.076 311.928 133.344C312.821 133.899 313.43 134.445 313.755 134.973C314.08 135.502 314.162 136.112 314.008 136.796C313.833 137.568 313.443 138.141 312.838 138.517C312.233 138.89 311.443 139.029 310.471 138.934L310.17 140.265L308.727 139.943L309.018 138.653Z"
                    fill="url(#paint32_linear_761_9123)" />
                <path
                    d="M264.372 172.779C260.589 172.779 257.511 169.73 257.511 165.983V84.1991C257.511 80.4521 260.589 77.403 264.372 77.403H299.917C303.7 77.403 306.778 80.4521 306.778 84.1991V165.983C306.778 169.73 303.7 172.779 299.917 172.779H264.372Z"
                    fill="url(#paint33_linear_761_9123)" />
                <path
                    d="M260.876 172.779C257.094 172.779 254.015 169.73 254.015 165.983V84.1991C254.015 80.4521 257.094 77.403 260.876 77.403H296.422C300.204 77.403 303.282 80.4521 303.282 84.1991V165.983C303.282 169.73 300.204 172.779 296.422 172.779H260.876Z"
                    fill="url(#paint34_linear_761_9123)" />
                <path
                    d="M302.92 123.963V84.1991C302.92 80.6486 300.006 77.7621 296.422 77.7621H260.876C257.292 77.7621 254.378 80.6486 254.378 84.1991V123.963H302.92Z"
                    fill="url(#paint35_linear_761_9123)" />
                <path
                    d="M260.876 171.248C257.945 171.248 255.561 168.886 255.561 165.983V84.199C255.561 81.2956 257.945 78.9343 260.876 78.9343H296.421C299.353 78.9343 301.736 81.2956 301.736 84.199V165.983C301.736 168.886 299.353 171.248 296.421 171.248H260.876Z"
                    fill="url(#paint36_linear_761_9123)" />
                <path
                    d="M320.308 104.841C333.426 104.841 344.06 94.3072 344.06 81.3125C344.06 68.3179 333.426 57.7836 320.308 57.7836C307.189 57.7836 296.555 68.3179 296.555 81.3125C296.555 94.3072 307.189 104.841 320.308 104.841Z"
                    fill="url(#paint37_linear_761_9123)" />
                <path
                    d="M316.289 104.841C329.407 104.841 340.042 94.3072 340.042 81.3125C340.042 68.3179 329.407 57.7836 316.289 57.7836C303.171 57.7836 292.536 68.3179 292.536 81.3125C292.536 94.3072 303.171 104.841 316.289 104.841Z"
                    fill="url(#paint38_linear_761_9123)" />
                <path
                    d="M316.289 104.31C329.111 104.31 339.505 94.0135 339.505 81.3126C339.505 68.6117 329.111 58.3156 316.289 58.3156C303.467 58.3156 293.073 68.6117 293.073 81.3126C293.073 94.0135 303.467 104.31 316.289 104.31Z"
                    fill="url(#paint39_linear_761_9123)" />
                <path
                    d="M316.289 101.403C327.49 101.403 336.57 92.4081 336.57 81.3125C336.57 70.217 327.49 61.2224 316.289 61.2224C305.088 61.2224 296.008 70.217 296.008 81.3125C296.008 92.4081 305.088 101.403 316.289 101.403Z"
                    fill="url(#paint40_linear_761_9123)" />
                <path
                    d="M316.289 100.542C327.01 100.542 335.702 91.9328 335.702 81.3126C335.702 70.6923 327.01 62.0829 316.289 62.0829C305.568 62.0829 296.876 70.6923 296.876 81.3126C296.876 91.9328 305.568 100.542 316.289 100.542Z"
                    fill="url(#paint41_linear_761_9123)" />
                <path
                    d="M298.063 81.3126C298.063 70.888 306.436 62.4047 316.881 62.093C316.682 62.0863 316.484 62.0829 316.286 62.0829C305.563 62.0829 296.873 70.6915 296.873 81.3126C296.873 91.9336 305.563 100.542 316.286 100.542C316.484 100.542 316.682 100.539 316.881 100.532C306.436 100.22 298.063 91.7371 298.063 81.3126Z"
                    fill="url(#paint42_linear_761_9123)" />
                <path
                    d="M314.548 89.9347C312.51 89.8432 310.543 89.3893 308.652 88.5796V83.9856C309.733 84.531 310.906 84.985 312.171 85.3475C313.437 85.7134 314.552 85.893 315.509 85.893C316.299 85.893 316.881 85.7981 317.25 85.6084C317.619 85.4186 317.801 85.1036 317.801 84.6598C317.801 84.3549 317.667 84.0974 317.404 83.8839C317.137 83.6705 316.696 83.4333 316.077 83.1657C315.458 82.8981 314.62 82.5762 313.57 82.1968C312.387 81.7631 311.432 81.2753 310.707 80.7366C309.982 80.1979 309.452 79.5915 309.12 78.9241C308.789 78.2566 308.624 77.4232 308.624 76.4272C308.624 74.906 309.117 73.7135 310.105 72.8564C311.094 71.9992 312.575 71.4673 314.548 71.264V69.3668H317.442V71.2335C319.295 71.3352 321.163 71.7858 323.044 72.5887L321.382 76.5322C319.436 75.6649 317.678 75.2313 316.115 75.2313C315.369 75.2313 314.846 75.3227 314.541 75.5023C314.237 75.6819 314.086 75.9461 314.086 76.2984C314.086 76.6034 314.196 76.8541 314.415 77.0539C314.634 77.2538 315.013 77.474 315.554 77.718C316.094 77.9619 316.843 78.2465 317.804 78.5683C319.75 79.2527 321.149 80.0285 321.994 80.8992C322.842 81.7699 323.266 82.8947 323.266 84.2702C323.266 85.8184 322.77 87.0787 321.778 88.0477C320.786 89.0166 319.34 89.6162 317.442 89.8466V92.5163H314.548V89.9347Z"
                    fill="url(#paint43_linear_761_9123)" />
                <path
                    d="M316.87 47C297.608 47 281.992 62.4691 281.992 81.5497C281.992 83.4605 282.156 85.3306 282.457 87.1567H286.11C285.775 85.3374 285.593 83.4639 285.593 81.5497C285.593 64.4375 299.599 50.5674 316.87 50.5674C334.142 50.5674 348.147 64.4409 348.147 81.5497C348.147 95.0606 339.416 106.549 327.237 110.784V114.541C341.437 110.167 351.749 97.0527 351.749 81.5497C351.749 62.4691 336.133 47 316.87 47Z"
                    fill="url(#paint44_linear_761_9123)" />
                <path
                    d="M284.041 100.922L269.611 85.727H298.467L284.041 100.922L269.611 85.727H298.467L284.041 100.922Z"
                    fill="url(#paint45_linear_761_9123)" />
                <path
                    d="M231.627 113.016C238.335 113.016 243.772 107.63 243.772 100.986C243.772 94.3418 238.335 88.9556 231.627 88.9556C224.92 88.9556 219.482 94.3418 219.482 100.986C219.482 107.63 224.92 113.016 231.627 113.016Z"
                    fill="url(#paint46_linear_761_9123)" />
                <path
                    d="M229.89 114.107C236.597 114.107 242.035 108.721 242.035 102.077C242.035 95.4327 236.597 90.0465 229.89 90.0465C223.182 90.0465 217.745 95.4327 217.745 102.077C217.745 108.721 223.182 114.107 229.89 114.107Z"
                    fill="url(#paint47_linear_761_9123)" />
                <path
                    d="M229.89 113.836C236.446 113.836 241.761 108.571 241.761 102.077C241.761 95.5824 236.446 90.3176 229.89 90.3176C223.334 90.3176 218.019 95.5824 218.019 102.077C218.019 108.571 223.334 113.836 229.89 113.836Z"
                    fill="url(#paint48_linear_761_9123)" />
                <path
                    d="M229.89 112.349C235.617 112.349 240.26 107.75 240.26 102.077C240.26 96.4038 235.617 91.8049 229.89 91.8049C224.163 91.8049 219.52 96.4038 219.52 102.077C219.52 107.75 224.163 112.349 229.89 112.349Z"
                    fill="url(#paint49_linear_761_9123)" />
                <path
                    d="M229.89 111.912C235.373 111.912 239.818 107.509 239.818 102.077C239.818 96.6452 235.373 92.2419 229.89 92.2419C224.406 92.2419 219.961 96.6452 219.961 102.077C219.961 107.509 224.406 111.912 229.89 111.912Z"
                    fill="url(#paint50_linear_761_9123)" />
                <path
                    d="M222.013 107.013C219.137 102.507 220.413 96.575 224.842 93.6106C224.756 93.6614 224.667 93.7122 224.582 93.7664C219.948 96.6699 218.569 102.744 221.5 107.335C224.431 111.926 230.564 113.291 235.198 110.387C235.283 110.333 235.369 110.279 235.451 110.221C230.851 112.915 224.893 111.516 222.013 107.013Z"
                    fill="url(#paint51_linear_761_9123)" />
                <path
                    d="M231.518 106.271C230.612 106.783 229.637 107.122 228.597 107.281L227.328 105.295C227.944 105.238 228.577 105.116 229.226 104.93C229.873 104.743 230.406 104.52 230.82 104.262C231.162 104.049 231.388 103.849 231.494 103.669C231.6 103.486 231.593 103.3 231.47 103.11C231.384 102.978 231.258 102.904 231.083 102.883C230.909 102.863 230.653 102.88 230.311 102.931C229.969 102.981 229.517 103.07 228.96 103.192C228.33 103.324 227.783 103.374 227.318 103.337C226.856 103.3 226.459 103.181 226.131 102.985C225.803 102.785 225.502 102.47 225.228 102.04C224.808 101.382 224.691 100.735 224.883 100.095C225.071 99.4581 225.567 98.8279 226.364 98.2046L225.84 97.3847L227.089 96.6021L227.605 97.4084C228.433 96.9511 229.367 96.6394 230.399 96.4767L230.769 98.6314C229.688 98.7839 228.809 99.0719 228.132 99.4954C227.81 99.6986 227.609 99.8782 227.527 100.037C227.444 100.197 227.455 100.352 227.55 100.505C227.636 100.637 227.752 100.715 227.899 100.742C228.05 100.769 228.272 100.762 228.573 100.722C228.874 100.681 229.278 100.6 229.78 100.481C230.81 100.247 231.627 100.207 232.236 100.352C232.841 100.498 233.337 100.871 233.717 101.464C234.144 102.135 234.278 102.812 234.117 103.5C233.956 104.188 233.498 104.838 232.739 105.451L233.478 106.607L232.229 107.389L231.518 106.271Z"
                    fill="url(#paint52_linear_761_9123)" />
            </g>
        </g>
    </g>
    <defs>
        <filter id="filter0_d_761_9123" x="-1" y="0" width="390" height="227"
            filterUnits="userSpaceOnUse" color-interpolation-filters="sRGB">
            <feFlood flood-opacity="0" result="BackgroundImageFix" />
            <feColorMatrix in="SourceAlpha" type="matrix"
                values="0 0 0 0 0 0 0 0 0 0 0 0 0 0 0 0 0 0 127 0" result="hardAlpha" />
            <feOffset dy="4" />
            <feGaussianBlur stdDeviation="8" />
            <feComposite in2="hardAlpha" operator="out" />
            <feColorMatrix type="matrix"
                values="0 0 0 0 0.129412 0 0 0 0 0.129412 0 0 0 0 0.129412 0 0 0 0.08 0" />
            <feBlend mode="normal" in2="BackgroundImageFix" result="effect1_dropShadow_761_9123" />
            <feBlend mode="normal" in="SourceGraphic" in2="effect1_dropShadow_761_9123"
                result="shape" />
        </filter>
        <filter id="filter1_d_761_9123" x="31" y="119" width="179" height="68"
            filterUnits="userSpaceOnUse" color-interpolation-filters="sRGB">
            <feFlood flood-opacity="0" result="BackgroundImageFix" />
            <feColorMatrix in="SourceAlpha" type="matrix"
                values="0 0 0 0 0 0 0 0 0 0 0 0 0 0 0 0 0 0 127 0" result="hardAlpha" />
            <feMorphology radius="4" operator="dilate" in="SourceAlpha"
                result="effect1_dropShadow_761_9123" />
            <feOffset dy="4" />
            <feGaussianBlur stdDeviation="4" />
            <feComposite in2="hardAlpha" operator="out" />
            <feColorMatrix type="matrix"
                values="0 0 0 0 1 0 0 0 0 0.729412 0 0 0 0 0 0 0 0 0.24 0" />
            <feBlend mode="normal" in2="BackgroundImageFix" result="effect1_dropShadow_761_9123" />
            <feBlend mode="normal" in="SourceGraphic" in2="effect1_dropShadow_761_9123"
                result="shape" />
        </filter>
        <filter id="filter2_f_761_9123" x="202.187" y="157.894" width="149.442" height="26.1058"
            filterUnits="userSpaceOnUse" color-interpolation-filters="sRGB">
            <feFlood flood-opacity="0" result="BackgroundImageFix" />
            <feBlend mode="normal" in="SourceGraphic" in2="BackgroundImageFix" result="shape" />
            <feGaussianBlur stdDeviation="5" result="effect1_foregroundBlur_761_9123" />
        </filter>
        <linearGradient id="paint0_linear_761_9123" x1="281.352" y1="14.9363" x2="425.822"
            y2="14.9363" gradientUnits="userSpaceOnUse">
            <stop stop-color="#FF8A00" />
            <stop offset="1" stop-color="#FFBC00" />
        </linearGradient>
        <linearGradient id="paint1_linear_761_9123" x1="69.922" y1="211.803" x2="-26.8459"
            y2="185.874" gradientUnits="userSpaceOnUse">
            <stop stop-color="#FF8A00" />
            <stop offset="1" stop-color="#FFBC00" />
        </linearGradient>
        <linearGradient id="paint2_linear_761_9123" x1="301.055" y1="154.251" x2="321.21"
            y2="174.597" gradientUnits="userSpaceOnUse">
            <stop stop-color="#FF9F58" />
            <stop offset="0.2404" stop-color="#F7934C" />
            <stop offset="0.6683" stop-color="#ED843C" />
            <stop offset="1" stop-color="#EA7F36" />
        </linearGradient>
        <linearGradient id="paint3_linear_761_9123" x1="307.922" y1="158.217" x2="313.893"
            y2="158.217" gradientUnits="userSpaceOnUse">
            <stop stop-color="#062447" />
            <stop offset="0.3019" stop-color="#061B36" />
            <stop offset="0.6952" stop-color="#051326" />
            <stop offset="1" stop-color="#051020" />
        </linearGradient>
        <linearGradient id="paint4_linear_761_9123" x1="329.028" y1="166.322" x2="313.34"
            y2="150.485" gradientUnits="userSpaceOnUse">
            <stop stop-color="#CE5E11" />
            <stop offset="0.279" stop-color="#DA6C20" />
            <stop offset="0.6852" stop-color="#E67A30" />
            <stop offset="1" stop-color="#EA7F36" />
        </linearGradient>
        <linearGradient id="paint5_linear_761_9123" x1="226.934" y1="152.699" x2="252.132"
            y2="178.136" gradientUnits="userSpaceOnUse">
            <stop stop-color="#FF9F58" />
            <stop offset="0.2404" stop-color="#F7934C" />
            <stop offset="0.6683" stop-color="#ED843C" />
            <stop offset="1" stop-color="#EA7F36" />
        </linearGradient>
        <linearGradient id="paint6_linear_761_9123" x1="233.375" y1="155.795" x2="240.259"
            y2="155.795" gradientUnits="userSpaceOnUse">
            <stop stop-color="#062447" />
            <stop offset="0.3019" stop-color="#061B36" />
            <stop offset="0.6952" stop-color="#051326" />
            <stop offset="1" stop-color="#051020" />
        </linearGradient>
        <linearGradient id="paint7_linear_761_9123" x1="242.045" y1="152.392" x2="268.885"
            y2="179.487" gradientUnits="userSpaceOnUse">
            <stop stop-color="#CE5E11" />
            <stop offset="0.279" stop-color="#DA6C20" />
            <stop offset="0.6852" stop-color="#E67A30" />
            <stop offset="1" stop-color="#EA7F36" />
        </linearGradient>
        <linearGradient id="paint8_linear_761_9123" x1="233.215" y1="135.224" x2="250.932"
            y2="153.11" gradientUnits="userSpaceOnUse">
            <stop stop-color="#FF9F58" />
            <stop offset="0.2404" stop-color="#F7934C" />
            <stop offset="0.6683" stop-color="#ED843C" />
            <stop offset="1" stop-color="#EA7F36" />
        </linearGradient>
        <linearGradient id="paint9_linear_761_9123" x1="238.901" y1="138.008" x2="244.872"
            y2="138.008" gradientUnits="userSpaceOnUse">
            <stop stop-color="#062447" />
            <stop offset="0.3019" stop-color="#061B36" />
            <stop offset="0.6952" stop-color="#051326" />
            <stop offset="1" stop-color="#051020" />
        </linearGradient>
        <linearGradient id="paint10_linear_761_9123" x1="257.584" y1="146.113" x2="241.896"
            y2="130.276" gradientUnits="userSpaceOnUse">
            <stop stop-color="#CE5E11" />
            <stop offset="0.279" stop-color="#DA6C20" />
            <stop offset="0.6852" stop-color="#E67A30" />
            <stop offset="1" stop-color="#EA7F36" />
        </linearGradient>
        <linearGradient id="paint11_linear_761_9123" x1="262.217" y1="128.906" x2="262.217"
            y2="56.2243" gradientUnits="userSpaceOnUse">
            <stop stop-color="#11AEBA" />
            <stop offset="0.0448" stop-color="#12B2B9" />
            <stop offset="0.4145" stop-color="#1ACCAE" />
            <stop offset="0.7446" stop-color="#1EDCA8" />
            <stop offset="1" stop-color="#20E2A6" />
        </linearGradient>
        <linearGradient id="paint12_linear_761_9123" x1="262.217" y1="55.8367" x2="262.217"
            y2="130.985" gradientUnits="userSpaceOnUse">
            <stop stop-color="#0CAFBC" />
            <stop offset="0.3322" stop-color="#0694A4" />
            <stop offset="0.5817" stop-color="#028496" />
            <stop offset="1" stop-color="#028496" />
        </linearGradient>
        <linearGradient id="paint13_linear_761_9123" x1="253.998" y1="59.9331" x2="253.998"
            y2="113.748" gradientUnits="userSpaceOnUse">
            <stop stop-color="#0CAFBC" />
            <stop offset="0.3322" stop-color="#0694A4" />
            <stop offset="0.5817" stop-color="#028496" />
            <stop offset="1" stop-color="#028496" />
        </linearGradient>
        <linearGradient id="paint14_linear_761_9123" x1="283.045" y1="63.5087" x2="283.045"
            y2="124.091" gradientUnits="userSpaceOnUse">
            <stop stop-color="#0CAFBC" />
            <stop offset="0.3322" stop-color="#0694A4" />
            <stop offset="0.5817" stop-color="#028496" />
            <stop offset="1" stop-color="#028496" />
        </linearGradient>
        <linearGradient id="paint15_linear_761_9123" x1="241.345" y1="60.4213" x2="241.345"
            y2="120.784" gradientUnits="userSpaceOnUse">
            <stop stop-color="#0CAFBC" />
            <stop offset="0.3322" stop-color="#0694A4" />
            <stop offset="0.5817" stop-color="#028496" />
            <stop offset="1" stop-color="#028496" />
        </linearGradient>
        <linearGradient id="paint16_linear_761_9123" x1="270.393" y1="69.7447" x2="270.393"
            y2="123.367" gradientUnits="userSpaceOnUse">
            <stop stop-color="#0CAFBC" />
            <stop offset="0.3322" stop-color="#0694A4" />
            <stop offset="0.5817" stop-color="#028496" />
            <stop offset="1" stop-color="#028496" />
        </linearGradient>
        <linearGradient id="paint17_linear_761_9123" x1="262.409" y1="57.2631" x2="262.409"
            y2="128.994" gradientUnits="userSpaceOnUse">
            <stop stop-color="#0CAFBC" />
            <stop offset="0.3322" stop-color="#0694A4" />
            <stop offset="0.5817" stop-color="#028496" />
            <stop offset="1" stop-color="#028496" />
        </linearGradient>
        <linearGradient id="paint18_linear_761_9123" x1="234.844" y1="88.5214" x2="271.025"
            y2="88.5214" gradientUnits="userSpaceOnUse">
            <stop stop-color="#0CAFBC" />
            <stop offset="0.3322" stop-color="#0694A4" />
            <stop offset="0.5817" stop-color="#028496" />
            <stop offset="1" stop-color="#028496" />
        </linearGradient>
        <linearGradient id="paint19_linear_761_9123" x1="242.003" y1="133.019" x2="242.003"
            y2="60.3373" gradientUnits="userSpaceOnUse">
            <stop stop-color="#11AEBA" />
            <stop offset="0.0448" stop-color="#12B2B9" />
            <stop offset="0.4145" stop-color="#1ACCAE" />
            <stop offset="0.7446" stop-color="#1EDCA8" />
            <stop offset="1" stop-color="#20E2A6" />
        </linearGradient>
        <linearGradient id="paint20_linear_761_9123" x1="242.003" y1="59.9497" x2="242.003"
            y2="135.098" gradientUnits="userSpaceOnUse">
            <stop stop-color="#0CAFBC" />
            <stop offset="0.3322" stop-color="#0694A4" />
            <stop offset="0.5817" stop-color="#028496" />
            <stop offset="1" stop-color="#028496" />
        </linearGradient>
        <linearGradient id="paint21_linear_761_9123" x1="233.784" y1="64.0461" x2="233.784"
            y2="117.861" gradientUnits="userSpaceOnUse">
            <stop stop-color="#0CAFBC" />
            <stop offset="0.3322" stop-color="#0694A4" />
            <stop offset="0.5817" stop-color="#028496" />
            <stop offset="1" stop-color="#028496" />
        </linearGradient>
        <linearGradient id="paint22_linear_761_9123" x1="262.831" y1="67.6218" x2="262.831"
            y2="128.204" gradientUnits="userSpaceOnUse">
            <stop stop-color="#0CAFBC" />
            <stop offset="0.3322" stop-color="#0694A4" />
            <stop offset="0.5817" stop-color="#028496" />
            <stop offset="1" stop-color="#028496" />
        </linearGradient>
        <linearGradient id="paint23_linear_761_9123" x1="221.131" y1="64.5342" x2="221.131"
            y2="124.897" gradientUnits="userSpaceOnUse">
            <stop stop-color="#0CAFBC" />
            <stop offset="0.3322" stop-color="#0694A4" />
            <stop offset="0.5817" stop-color="#028496" />
            <stop offset="1" stop-color="#028496" />
        </linearGradient>
        <linearGradient id="paint24_linear_761_9123" x1="250.178" y1="73.8577" x2="250.178"
            y2="127.48" gradientUnits="userSpaceOnUse">
            <stop stop-color="#0CAFBC" />
            <stop offset="0.3322" stop-color="#0694A4" />
            <stop offset="0.5817" stop-color="#028496" />
            <stop offset="1" stop-color="#028496" />
        </linearGradient>
        <linearGradient id="paint25_linear_761_9123" x1="242.195" y1="61.3761" x2="242.195"
            y2="133.107" gradientUnits="userSpaceOnUse">
            <stop stop-color="#0CAFBC" />
            <stop offset="0.3322" stop-color="#0694A4" />
            <stop offset="0.5817" stop-color="#028496" />
            <stop offset="1" stop-color="#028496" />
        </linearGradient>
        <linearGradient id="paint26_linear_761_9123" x1="322.901" y1="150.699" x2="307.757"
            y2="126.54" gradientUnits="userSpaceOnUse">
            <stop stop-color="#FF7E1E" />
            <stop offset="0.2558" stop-color="#ED601E" />
            <stop offset="0.5438" stop-color="#DE461F" />
            <stop offset="0.801" stop-color="#D4361F" />
            <stop offset="1" stop-color="#D1301F" />
        </linearGradient>
        <linearGradient id="paint27_linear_761_9123" x1="317.91" y1="145.579" x2="306.742"
            y2="127.762" gradientUnits="userSpaceOnUse">
            <stop stop-color="#FFAE1F" />
            <stop offset="0.1981" stop-color="#FFB529" />
            <stop offset="0.654" stop-color="#FFC139" />
            <stop offset="0.9995" stop-color="#FFC53F" />
        </linearGradient>
        <linearGradient id="paint28_linear_761_9123" x1="320.669" y1="149.899" x2="305.867"
            y2="126.284" gradientUnits="userSpaceOnUse">
            <stop stop-color="#FF7E1E" />
            <stop offset="0.3849" stop-color="#FF981F" />
            <stop offset="0.7317" stop-color="#FFA81F" />
            <stop offset="1" stop-color="#FFAE1F" />
        </linearGradient>
        <linearGradient id="paint29_linear_761_9123" x1="304.971" y1="125.325" x2="317.773"
            y2="145.748" gradientUnits="userSpaceOnUse">
            <stop stop-color="#FF7E1E" />
            <stop offset="0.3331" stop-color="#FF6A1E" />
            <stop offset="0.7088" stop-color="#FF5A1F" />
            <stop offset="1" stop-color="#FF541F" />
        </linearGradient>
        <linearGradient id="paint30_linear_761_9123" x1="319.062" y1="147.383" x2="306.685"
            y2="127.638" gradientUnits="userSpaceOnUse">
            <stop stop-color="#FF7E1E" />
            <stop offset="0.3849" stop-color="#FF981F" />
            <stop offset="0.7317" stop-color="#FFA81F" />
            <stop offset="1" stop-color="#FFAE1F" />
        </linearGradient>
        <linearGradient id="paint31_linear_761_9123" x1="316.088" y1="145.225" x2="305.392"
            y2="128.162" gradientUnits="userSpaceOnUse">
            <stop stop-color="#FFAE1F" />
            <stop offset="0.1981" stop-color="#FFB529" />
            <stop offset="0.654" stop-color="#FFC139" />
            <stop offset="0.9995" stop-color="#FFC53F" />
        </linearGradient>
        <linearGradient id="paint32_linear_761_9123" x1="314.144" y1="137.598" x2="304.493"
            y2="127.855" gradientUnits="userSpaceOnUse">
            <stop stop-color="#E2380A" />
            <stop offset="0.1623" stop-color="#E93F0F" />
            <stop offset="0.6342" stop-color="#F94F1B" />
            <stop offset="1" stop-color="#FF541F" />
        </linearGradient>
        <linearGradient id="paint33_linear_761_9123" x1="259.735" y1="102.894" x2="316.429"
            y2="160.127" gradientUnits="userSpaceOnUse">
            <stop stop-color="#062447" />
            <stop offset="0.3019" stop-color="#061B36" />
            <stop offset="0.6952" stop-color="#051326" />
            <stop offset="1" stop-color="#051020" />
        </linearGradient>
        <linearGradient id="paint34_linear_761_9123" x1="312.651" y1="158.772" x2="262.552"
            y2="108.196" gradientUnits="userSpaceOnUse">
            <stop stop-color="#062447" />
            <stop offset="0.3019" stop-color="#061B36" />
            <stop offset="0.6952" stop-color="#051326" />
            <stop offset="1" stop-color="#051020" />
        </linearGradient>
        <linearGradient id="paint35_linear_761_9123" x1="254.38" y1="100.863" x2="302.921"
            y2="100.863" gradientUnits="userSpaceOnUse">
            <stop stop-color="#102A49" />
            <stop offset="0.3232" stop-color="#0B1E36" />
            <stop offset="0.7044" stop-color="#071426" />
            <stop offset="1" stop-color="#051020" />
        </linearGradient>
        <linearGradient id="paint36_linear_761_9123" x1="326.931" y1="172.917" x2="240.965"
            y2="86.1341" gradientUnits="userSpaceOnUse">
            <stop stop-color="#11AEBA" />
            <stop offset="0.0448" stop-color="#12B2B9" />
            <stop offset="0.4145" stop-color="#1ACCAE" />
            <stop offset="0.7446" stop-color="#1EDCA8" />
            <stop offset="1" stop-color="#20E2A6" />
        </linearGradient>
        <linearGradient id="paint37_linear_761_9123" x1="305.503" y1="66.6485" x2="345.598"
            y2="107.124" gradientUnits="userSpaceOnUse">
            <stop stop-color="#FF7E1E" />
            <stop offset="0.2558" stop-color="#ED601E" />
            <stop offset="0.5438" stop-color="#DE461F" />
            <stop offset="0.801" stop-color="#D4361F" />
            <stop offset="1" stop-color="#D1301F" />
        </linearGradient>
        <linearGradient id="paint38_linear_761_9123" x1="334.513" y1="99.3663" x2="305.516"
            y2="70.0936" gradientUnits="userSpaceOnUse">
            <stop stop-color="#FFAE1F" />
            <stop offset="0.1981" stop-color="#FFB529" />
            <stop offset="0.654" stop-color="#FFC139" />
            <stop offset="0.9995" stop-color="#FFC53F" />
        </linearGradient>
        <linearGradient id="paint39_linear_761_9123" x1="341.648" y1="106.434" x2="303.216"
            y2="67.6362" gradientUnits="userSpaceOnUse">
            <stop stop-color="#FF7E1E" />
            <stop offset="0.3849" stop-color="#FF981F" />
            <stop offset="0.7317" stop-color="#FFA81F" />
            <stop offset="1" stop-color="#FFAE1F" />
        </linearGradient>
        <linearGradient id="paint40_linear_761_9123" x1="301.055" y1="66.2239" x2="334.292"
            y2="99.7769" gradientUnits="userSpaceOnUse">
            <stop stop-color="#FF7E1E" />
            <stop offset="0.3331" stop-color="#FF6A1E" />
            <stop offset="0.7088" stop-color="#FF5A1F" />
            <stop offset="1" stop-color="#FF541F" />
        </linearGradient>
        <linearGradient id="paint41_linear_761_9123" x1="337.492" y1="102.317" x2="305.358"
            y2="69.8775" gradientUnits="userSpaceOnUse">
            <stop stop-color="#FF7E1E" />
            <stop offset="0.3849" stop-color="#FF981F" />
            <stop offset="0.7317" stop-color="#FFA81F" />
            <stop offset="1" stop-color="#FFAE1F" />
        </linearGradient>
        <linearGradient id="paint42_linear_761_9123" x1="330.884" y1="99.4645" x2="303.114"
            y2="71.4307" gradientUnits="userSpaceOnUse">
            <stop stop-color="#FFAE1F" />
            <stop offset="0.1981" stop-color="#FFB529" />
            <stop offset="0.654" stop-color="#FFC139" />
            <stop offset="0.9995" stop-color="#FFC53F" />
        </linearGradient>
        <linearGradient id="paint43_linear_761_9123" x1="319.062" y1="83.771" x2="296.795"
            y2="61.2916" gradientUnits="userSpaceOnUse">
            <stop stop-color="#E2380A" />
            <stop offset="0.1623" stop-color="#E93F0F" />
            <stop offset="0.6342" stop-color="#F94F1B" />
            <stop offset="1" stop-color="#FF541F" />
        </linearGradient>
        <linearGradient id="paint44_linear_761_9123" x1="284.444" y1="44.8477" x2="352.669"
            y2="113.722" gradientUnits="userSpaceOnUse">
            <stop stop-color="#F6004F" />
            <stop offset="0.0607" stop-color="#EC015D" />
            <stop offset="0.283" stop-color="#CB068C" />
            <stop offset="0.495" stop-color="#B109B2" />
            <stop offset="0.691" stop-color="#9E0CCC" />
            <stop offset="0.8653" stop-color="#930DDC" />
            <stop offset="1" stop-color="#8F0EE2" />
        </linearGradient>
        <linearGradient id="paint45_linear_761_9123" x1="263.38" y1="65.7128" x2="331.606"
            y2="134.588" gradientUnits="userSpaceOnUse">
            <stop stop-color="#F6004F" />
            <stop offset="0.0607" stop-color="#EC015D" />
            <stop offset="0.283" stop-color="#CB068C" />
            <stop offset="0.495" stop-color="#B109B2" />
            <stop offset="0.691" stop-color="#9E0CCC" />
            <stop offset="0.8653" stop-color="#930DDC" />
            <stop offset="1" stop-color="#8F0EE2" />
        </linearGradient>
        <linearGradient id="paint46_linear_761_9123" x1="249.934" y1="105.065" x2="221.952"
            y2="98.7117" gradientUnits="userSpaceOnUse">
            <stop stop-color="#FF7E1E" />
            <stop offset="0.2558" stop-color="#ED601E" />
            <stop offset="0.5438" stop-color="#DE461F" />
            <stop offset="0.801" stop-color="#D4361F" />
            <stop offset="1" stop-color="#D1301F" />
        </linearGradient>
        <linearGradient id="paint47_linear_761_9123" x1="242.75" y1="104.94" x2="222.113"
            y2="100.255" gradientUnits="userSpaceOnUse">
            <stop stop-color="#FFAE1F" />
            <stop offset="0.1981" stop-color="#FFB529" />
            <stop offset="0.654" stop-color="#FFC139" />
            <stop offset="0.9995" stop-color="#FFC53F" />
        </linearGradient>
        <linearGradient id="paint48_linear_761_9123" x1="247.784" y1="106.062" x2="220.433"
            y2="99.8517" gradientUnits="userSpaceOnUse">
            <stop stop-color="#FF7E1E" />
            <stop offset="0.3849" stop-color="#FF981F" />
            <stop offset="0.7317" stop-color="#FFA81F" />
            <stop offset="1" stop-color="#FFAE1F" />
        </linearGradient>
        <linearGradient id="paint49_linear_761_9123" x1="219.142" y1="99.6808" x2="242.796"
            y2="105.051" gradientUnits="userSpaceOnUse">
            <stop stop-color="#FF7E1E" />
            <stop offset="0.3331" stop-color="#FF6A1E" />
            <stop offset="0.7088" stop-color="#FF5A1F" />
            <stop offset="1" stop-color="#FF541F" />
        </linearGradient>
        <linearGradient id="paint50_linear_761_9123" x1="244.852" y1="105.408" x2="221.983"
            y2="100.216" gradientUnits="userSpaceOnUse">
            <stop stop-color="#FF7E1E" />
            <stop offset="0.3849" stop-color="#FF981F" />
            <stop offset="0.7317" stop-color="#FFA81F" />
            <stop offset="1" stop-color="#FFAE1F" />
        </linearGradient>
        <linearGradient id="paint51_linear_761_9123" x1="241.208" y1="105.966" x2="221.445"
            y2="101.478" gradientUnits="userSpaceOnUse">
            <stop stop-color="#FFAE1F" />
            <stop offset="0.1981" stop-color="#FFB529" />
            <stop offset="0.654" stop-color="#FFC139" />
            <stop offset="0.9995" stop-color="#FFC53F" />
        </linearGradient>
        <linearGradient id="paint52_linear_761_9123" x1="237.285" y1="103.615" x2="224.509"
            y2="100.714" gradientUnits="userSpaceOnUse">
            <stop stop-color="#E2380A" />
            <stop offset="0.1623" stop-color="#E93F0F" />
            <stop offset="0.6342" stop-color="#F94F1B" />
            <stop offset="1" stop-color="#FF541F" />
        </linearGradient>
        <clipPath id="clip0_761_9123">
            <rect x="15" y="12" width="358" height="195" rx="16" fill="white" />
        </clipPath>
        <clipPath id="clip1_761_9123">
            <rect width="137.12" height="125.779" fill="white" transform="translate(214.629 47)" />
        </clipPath>
    </defs>
</svg>
