<svg width="390" height="172" viewBox="0 0 390 172" fill="none" xmlns="http://www.w3.org/2000/svg">
<g clip-path="url(#clip0_3485_9909)">
<g opacity="0.4">
<g opacity="0.5">
<path opacity="0.7" d="M303.086 -30.3138C300.386 -35.0138 302.086 -41.0139 306.786 -43.6139L343.686 -64.4139C348.386 -67.1139 354.386 -65.4139 356.986 -60.7139L377.786 -23.8138C380.486 -19.1138 378.786 -13.1139 374.086 -10.5139L337.186 10.2861C332.486 12.9861 326.486 11.2861 323.886 6.58614L303.086 -30.3138Z" fill="#E8E8E8"/>
<path opacity="0.22" d="M231.987 9.68615C229.287 4.98615 230.987 -1.01386 235.687 -3.61386L272.587 -24.4139C277.287 -27.1139 283.287 -25.4139 285.887 -20.7139L306.687 16.1862C309.387 20.8862 307.687 26.8861 302.987 29.4861L266.087 50.2861C261.387 52.9861 255.387 51.2861 252.787 46.5861L231.987 9.68615Z" fill="#E8E8E8"/>
<path opacity="0.36" d="M160.886 49.7862C158.186 45.0862 159.886 39.0862 164.586 36.4862L201.486 15.6862C206.186 12.9862 212.186 14.6862 214.786 19.3862L235.586 56.2862C238.286 60.9862 236.586 66.9862 231.886 69.5862L194.986 90.3862C190.286 93.0862 184.286 91.3862 181.686 86.6862L160.886 49.7862Z" fill="#E8E8E8"/>
<path opacity="0.21" d="M89.7863 89.7862C87.0863 85.0862 88.7863 79.0862 93.4863 76.4862L130.386 55.6862C135.086 52.9862 141.086 54.6862 143.686 59.3862L164.486 96.2862C167.186 100.986 165.486 106.986 160.786 109.586L123.986 130.386C119.286 133.086 113.286 131.386 110.686 126.686L89.7863 89.7862Z" fill="#E8E8E8"/>
<path opacity="0.54" d="M18.7863 129.886C16.0863 125.186 17.7863 119.186 22.4863 116.586L59.3863 95.7863C64.0863 93.0863 70.0864 94.7863 72.6864 99.4863L93.4863 136.386C96.1863 141.086 94.4863 147.086 89.7863 149.686L52.8863 170.486C48.1863 173.186 42.1864 171.486 39.5864 166.786L18.7863 129.886Z" fill="#E8E8E8"/>
<path opacity="0.27" d="M-52.3138 169.886C-55.0138 165.186 -53.3138 159.186 -48.6138 156.586L-11.7138 135.786C-7.01378 133.086 -1.01376 134.786 1.58624 139.486L22.3862 176.386C25.0862 181.086 23.3862 187.086 18.6862 189.686L-18.2138 210.486C-22.9138 213.186 -28.9138 211.486 -31.5138 206.786L-52.3138 169.886Z" fill="#E8E8E8"/>
<path opacity="0.7" d="M122.186 -19.0136C119.486 -23.7136 121.186 -29.7135 125.886 -32.3135L162.786 -53.1136C167.486 -55.8136 173.486 -54.1136 176.086 -49.4136L196.886 -12.5136C199.586 -7.81356 197.886 -1.81357 193.186 0.786427L156.286 21.5864C151.586 24.2864 145.586 22.5864 142.986 17.8864L122.186 -19.0136Z" fill="#E8E8E8"/>
<path opacity="0.16" d="M51.0861 20.9864C48.3861 16.2864 50.0861 10.2865 54.7861 7.68645L91.6862 -13.1136C96.3862 -15.8136 102.386 -14.1136 104.986 -9.41356L125.786 27.4864C128.486 32.1864 126.786 38.1864 122.086 40.7864L85.1862 61.5864C80.4862 64.2864 74.4861 62.5864 71.8861 57.8864L51.0861 20.9864Z" fill="#E8E8E8"/>
<path opacity="0.25" d="M-20.0135 61.0865C-22.7135 56.3865 -21.0135 50.3865 -16.3135 47.7865L20.5865 26.9865C25.2865 24.2865 31.2865 25.9865 33.8865 30.6865L54.6865 67.5865C57.3865 72.2865 55.6865 78.2865 50.9865 80.8865L14.0865 101.687C9.38654 104.387 3.38652 102.687 0.786518 97.9865L-20.0135 61.0865Z" fill="#E8E8E8"/>
<path opacity="0.47" d="M-58.8138 -7.81385C-61.5138 -12.5138 -59.8138 -18.5139 -55.1138 -21.1139L-18.2138 -41.9139C-13.5138 -44.6139 -7.51376 -42.9139 -4.91376 -38.2139L15.8862 -1.31385C18.5862 3.38615 16.8862 9.38614 12.1862 11.9861L-24.7138 32.7861C-29.4138 35.4861 -35.4138 33.7861 -38.0138 29.0861L-58.8138 -7.81385Z" fill="#E8E8E8"/>
<path opacity="0.7" d="M188.986 64.7864C187.286 61.6864 188.386 57.7864 191.386 56.0864L215.486 42.4864C218.586 40.7864 222.486 41.8864 224.186 44.8864L237.786 68.9864C239.486 72.0864 238.386 75.9864 235.386 77.6864L211.286 91.2864C208.186 92.9864 204.286 91.8864 202.586 88.8864L188.986 64.7864Z" fill="#E8E8E8"/>
<path opacity="0.22" d="M142.486 91.0862C140.786 87.9862 141.886 84.0862 144.886 82.3862L168.986 68.7862C172.086 67.0862 175.986 68.1862 177.686 71.1862L191.286 95.2862C192.986 98.3862 191.886 102.286 188.886 103.986L164.786 117.586C161.686 119.286 157.786 118.186 156.086 115.186L142.486 91.0862Z" fill="#E8E8E8"/>
<path opacity="0.36" d="M95.9864 117.286C94.2864 114.186 95.3864 110.286 98.3864 108.586L122.486 94.9864C125.586 93.2864 129.486 94.3864 131.186 97.3864L144.786 121.486C146.486 124.586 145.386 128.486 142.386 130.186L118.286 143.786C115.186 145.486 111.286 144.386 109.586 141.386L95.9864 117.286Z" fill="#E8E8E8"/>
<path opacity="0.21" d="M49.4864 143.486C47.7864 140.386 48.8864 136.486 51.8864 134.786L75.9864 121.186C79.0864 119.486 82.9864 120.586 84.6864 123.586L98.2864 147.686C99.9864 150.786 98.8864 154.686 95.8864 156.386L71.7864 169.986C68.6864 171.686 64.7864 170.586 63.0864 167.586L49.4864 143.486Z" fill="#E8E8E8"/>
<path opacity="0.54" d="M2.88629 169.686C1.18629 166.586 2.28629 162.686 5.28629 160.986L29.3863 147.386C32.4863 145.686 36.3863 146.786 38.0863 149.786L51.6863 173.886C53.3863 176.986 52.2863 180.886 49.2863 182.586L25.1863 196.186C22.0863 197.886 18.1863 196.786 16.4863 193.786L2.88629 169.686Z" fill="#E8E8E8"/>
<path opacity="0.27" d="M-43.6137 195.887C-45.3137 192.787 -44.2137 188.887 -41.2137 187.187L-17.1137 173.586C-14.0137 171.886 -10.1137 172.987 -8.41369 175.987L5.18631 200.086C6.88631 203.186 5.78629 207.086 2.78629 208.786L-21.3137 222.387C-24.4137 224.087 -28.3137 222.987 -30.0137 219.987L-43.6137 195.887Z" fill="#E8E8E8"/>
<path opacity="0.26" d="M163.586 19.7864C161.886 16.6864 162.987 12.7864 165.987 11.0864L190.086 -2.51361C193.186 -4.21361 197.086 -3.11361 198.786 -0.113615L212.387 23.9864C214.087 27.0864 212.987 30.9864 209.987 32.6864L185.887 46.2864C182.787 47.9864 178.887 46.8864 177.187 43.8864L163.586 19.7864Z" fill="#E8E8E8"/>
<path opacity="0.81" d="M117.086 45.9861C115.386 42.8861 116.487 38.9861 119.487 37.2861L143.586 23.6861C146.686 21.9861 150.586 23.0861 152.286 26.0861L165.887 50.1861C167.587 53.2861 166.487 57.1861 163.487 58.8861L139.387 72.4861C136.287 74.1861 132.387 73.0861 130.687 70.0861L117.086 45.9861Z" fill="#E8E8E8"/>
<path opacity="0.7" d="M70.5865 72.1863C68.8865 69.0863 69.9865 65.1863 72.9865 63.4863L97.0865 49.8863C100.186 48.1863 104.086 49.2863 105.786 52.2863L119.387 76.3863C121.087 79.4863 119.986 83.3863 116.986 85.0863L92.8865 98.6863C89.7865 100.386 85.8865 99.2863 84.1865 96.2863L70.5865 72.1863Z" fill="#E8E8E8"/>
<path opacity="0.16" d="M24.0865 98.3865C22.3865 95.2865 23.4865 91.3865 26.4865 89.6865L50.5865 76.0865C53.6865 74.3865 57.5865 75.4865 59.2865 78.4865L72.8865 102.586C74.5865 105.686 73.4865 109.586 70.4865 111.286L46.3865 124.986C43.2865 126.686 39.3865 125.586 37.6865 122.586L24.0865 98.3865Z" fill="#E8E8E8"/>
<path opacity="0.25" d="M-22.4135 124.586C-24.1135 121.486 -23.0135 117.586 -20.0135 115.886L4.08649 102.286C7.18649 100.586 11.0865 101.686 12.7865 104.686L26.3865 128.786C28.0865 131.886 26.9865 135.786 23.9865 137.486L-0.113523 151.086C-3.21352 152.786 -7.1135 151.686 -8.81351 148.686L-22.4135 124.586Z" fill="#E8E8E8"/>
<path opacity="0.52" d="M138.286 -25.2136C136.586 -28.3136 137.686 -32.2136 140.686 -33.9136L164.786 -47.5136C167.886 -49.2136 171.786 -48.1136 173.486 -45.1136L187.086 -21.0136C188.786 -17.9136 187.686 -14.0136 184.686 -12.3136L160.586 1.28638C157.486 2.98638 153.586 1.88639 151.886 -1.11361L138.286 -25.2136Z" fill="#E8E8E8"/>
<path opacity="0.1" d="M91.6861 0.986086C89.9861 -2.11391 91.0861 -6.01393 94.0861 -7.71393L118.186 -21.3139C121.286 -23.0139 125.186 -21.9139 126.886 -18.9139L140.486 5.1861C142.186 8.2861 141.086 12.1861 138.086 13.8861L113.986 27.4861C110.886 29.1861 106.986 28.0861 105.286 25.0861L91.6861 0.986086Z" fill="#E8E8E8"/>
<path opacity="0.77" d="M45.1861 27.1863C43.4861 24.0863 44.5861 20.1863 47.5861 18.4863L71.6861 4.88629C74.7861 3.18629 78.6861 4.28629 80.3861 7.28629L93.9861 31.3863C95.6861 34.4863 94.5861 38.3863 91.5861 40.0863L67.4861 53.6863C64.3861 55.3863 60.4861 54.2863 58.7861 51.2863L45.1861 27.1863Z" fill="#E8E8E8"/>
<path opacity="0.6" d="M-1.3139 53.3865C-3.0139 50.2865 -1.91391 46.3865 1.08609 44.6865L25.1861 31.0865C28.2861 29.3865 32.1861 30.4865 33.8861 33.4865L47.4861 57.5865C49.1861 60.6865 48.0861 64.5865 45.0861 66.2865L20.9861 79.9865C17.8861 81.6865 13.9861 80.5865 12.2861 77.5865L-1.3139 53.3865Z" fill="#E8E8E8"/>
<path opacity="0.47" d="M-47.8139 79.5862C-49.5139 76.4862 -48.4139 72.5862 -45.4139 70.8862L-21.3139 57.2862C-18.2139 55.5862 -14.3139 56.6862 -12.6139 59.6862L0.986088 83.7862C2.68609 86.8862 1.58609 90.7862 -1.41391 92.4862L-25.5139 106.086C-28.6139 107.786 -32.5139 106.686 -34.2139 103.686L-47.8139 79.5862Z" fill="#E8E8E8"/>
<path opacity="0.96" d="M19.8863 -17.8137C18.1863 -20.9137 19.2863 -24.8137 22.2863 -26.5137L46.3863 -40.1137C49.4863 -41.8137 53.3863 -40.7137 55.0863 -37.7137L68.6863 -13.6137C70.3863 -10.5137 69.2863 -6.61369 66.2863 -4.91369L42.1863 8.68631C39.0863 10.3863 35.1863 9.28629 33.4863 6.28629L19.8863 -17.8137Z" fill="#E8E8E8"/>
<path opacity="0.99" d="M-26.7138 8.38648C-28.4138 5.28648 -27.3138 1.3865 -24.3138 -0.313505L-0.213812 -13.9135C2.88619 -15.6135 6.7862 -14.5135 8.4862 -11.5135L22.0862 12.5865C23.7862 15.6865 22.6862 19.5865 19.6862 21.2865L-4.41379 34.8865C-7.51379 36.5865 -11.4138 35.4865 -13.1138 32.4865L-26.7138 8.38648Z" fill="#E8E8E8"/>
</g>
<path opacity="0.7" d="M103.086 20.5862C101.486 17.6862 102.486 14.0862 105.386 12.4862L127.686 -0.113792C130.586 -1.71379 134.186 -0.713773 135.786 2.18623L148.386 24.4862C149.986 27.3862 148.986 30.9862 146.086 32.5862L123.786 45.1862C120.886 46.7862 117.286 45.7862 115.686 42.8862L103.086 20.5862Z" fill="#D9D9D9"/>
<path opacity="0.22" d="M59.9863 44.7864C58.3863 41.8864 59.3863 38.2864 62.2863 36.6864L84.5863 24.0864C87.4863 22.4864 91.0863 23.4864 92.6863 26.3864L105.286 48.6864C106.886 51.5864 105.886 55.1864 102.986 56.7864L80.6863 69.3864C77.7863 70.9864 74.1863 69.9864 72.5863 67.0864L59.9863 44.7864Z" fill="#D9D9D9"/>
<path opacity="0.36" d="M16.9863 69.0862C15.3863 66.1862 16.3863 62.5862 19.2863 60.9862L41.5863 48.3862C44.4863 46.7862 48.0863 47.7862 49.6863 50.6862L62.2863 72.9862C63.8863 75.8862 62.8863 79.4862 59.9863 81.0862L37.6863 93.6862C34.7863 95.2862 31.1863 94.2862 29.5863 91.3862L16.9863 69.0862Z" fill="#D9D9D9"/>
<path opacity="0.21" d="M-26.1138 93.3865C-27.7138 90.4865 -26.7138 86.8865 -23.8138 85.2865L-1.51379 72.6865C1.38621 71.0865 4.98622 72.0865 6.58622 74.9865L19.1862 97.2865C20.7862 100.186 19.7862 103.786 16.8862 105.386L-5.41378 117.986C-8.31378 119.586 -11.9138 118.587 -13.5138 115.687L-26.1138 93.3865Z" fill="#D9D9D9"/>
<path opacity="0.26" d="M79.5864 -21.1135C77.9864 -24.0135 78.9864 -27.6135 81.8864 -29.2135L104.186 -41.8135C107.086 -43.4135 110.686 -42.4135 112.286 -39.5135L124.886 -17.2135C126.486 -14.3135 125.486 -10.7135 122.586 -9.11351L100.286 3.4865C97.3864 5.08649 93.7864 4.08651 92.1864 1.18651L79.5864 -21.1135Z" fill="#D9D9D9"/>
<path opacity="0.81" d="M36.4863 3.08622C34.8863 0.18622 35.8863 -3.41378 38.7863 -5.01379L61.0863 -17.6138C63.9863 -19.2138 67.5863 -18.2138 69.1863 -15.3138L81.7863 6.98621C83.3863 9.88621 82.3863 13.4862 79.4863 15.0862L57.1863 27.6862C54.2863 29.2862 50.6863 28.2862 49.0863 25.3862L36.4863 3.08622Z" fill="#D9D9D9"/>
<path opacity="0.7" d="M-6.51369 27.3865C-8.11369 24.4865 -7.1137 20.8865 -4.2137 19.2865L18.0863 6.68651C20.9863 5.08651 24.5863 6.0865 26.1863 8.9865L38.7863 31.2865C40.3863 34.1865 39.3863 37.7865 36.4863 39.3865L14.0863 51.9865C11.1863 53.5865 7.58631 52.5865 5.98631 49.6865L-6.51369 27.3865Z" fill="#D9D9D9"/>
<path opacity="0.77" d="M-30.0137 -14.3137C-31.6137 -17.2137 -30.6137 -20.8137 -27.7137 -22.4137L-5.41368 -35.0137C-2.51368 -36.6137 1.08632 -35.6137 2.68633 -32.7137L15.2863 -10.4137C16.8863 -7.51368 15.8863 -3.91368 12.9863 -2.31367L-9.31367 10.2863C-12.2137 11.8863 -15.8137 10.8863 -17.4137 7.98631L-30.0137 -14.3137Z" fill="#D9D9D9"/>
<path opacity="0.7" d="M33.9861 78.1863C32.8861 76.2863 33.5861 73.9863 35.4861 72.8863L50.0861 64.6863C51.9861 63.5863 54.2861 64.2863 55.3861 66.1863L63.5861 80.7863C64.6861 82.6863 63.9861 84.9863 62.0861 86.0863L47.4861 94.2863C45.5861 95.3863 43.2861 94.6863 42.1861 92.7863L33.9861 78.1863Z" fill="#D9D9D9"/>
<path opacity="0.22" d="M5.78641 94.0862C4.68641 92.1862 5.38641 89.8862 7.28641 88.7862L21.8864 80.5862C23.7864 79.4862 26.0864 80.1862 27.1864 82.0862L35.3864 96.6862C36.4864 98.5862 35.7864 100.886 33.8864 101.986L19.2864 110.186C17.3864 111.286 15.0864 110.586 13.9864 108.686L5.78641 94.0862Z" fill="#D9D9D9"/>
<path opacity="0.36" d="M-22.4138 109.986C-23.5138 108.086 -22.8138 105.786 -20.9138 104.686L-6.31377 96.4861C-4.41377 95.3861 -2.11379 96.0861 -1.01379 97.9861L7.18623 112.586C8.28623 114.486 7.58623 116.786 5.68623 117.886L-8.91378 126.086C-10.8138 127.186 -13.1138 126.486 -14.2138 124.586L-22.4138 109.986Z" fill="#D9D9D9"/>
<path opacity="0.26" d="M18.5862 50.886C17.4862 48.986 18.1862 46.686 20.0862 45.586L34.6862 37.386C36.5862 36.286 38.8862 36.986 39.9862 38.886L48.1862 53.486C49.2862 55.386 48.5862 57.686 46.6862 58.786L32.0862 66.986C30.1862 68.086 27.8862 67.386 26.7862 65.486L18.5862 50.886Z" fill="#D9D9D9"/>
<path opacity="0.81" d="M-9.61398 66.7864C-10.714 64.8864 -10.014 62.5864 -8.11398 61.4864L6.48603 53.2864C8.38603 52.1864 10.686 52.8864 11.786 54.7864L19.986 69.3864C21.086 71.2864 20.386 73.5864 18.486 74.6864L3.88602 82.8864C1.98602 83.9864 -0.313964 83.2864 -1.41396 81.3864L-9.61398 66.7864Z" fill="#D9D9D9"/>
<path opacity="0.52" d="M3.18632 23.6863C2.08632 21.7863 2.78632 19.4863 4.68632 18.3863L19.2863 10.1863C21.1863 9.08632 23.4863 9.78632 24.5863 11.6863L32.7863 26.2863C33.8863 28.1863 33.1863 30.4863 31.2863 31.5863L16.6863 39.7863C14.7863 40.8863 12.4863 40.1863 11.3863 38.2863L3.18632 23.6863Z" fill="#D9D9D9"/>
<path opacity="0.1" d="M-25.0139 39.4861C-26.1139 37.5861 -25.4139 35.2861 -23.5139 34.1861L-8.91387 25.9861C-7.01387 24.8861 -4.71388 25.5861 -3.61388 27.4861L4.58613 42.0861C5.68613 43.9861 4.98613 46.2861 3.08613 47.3861L-11.5139 55.5861C-13.4139 56.6861 -15.7139 55.9861 -16.8139 54.0861L-25.0139 39.4861Z" fill="#D9D9D9"/>
<path opacity="0.54" d="M-12.114 -3.61398C-13.214 -5.51398 -12.514 -7.81396 -10.614 -8.91396L3.98603 -17.114C5.88603 -18.214 8.18602 -17.514 9.28602 -15.614L17.486 -1.01397C18.586 0.88603 17.886 3.18602 15.986 4.28602L1.38602 12.486C-0.513976 13.586 -2.81396 12.886 -3.91396 10.986L-12.114 -3.61398Z" fill="#D9D9D9"/>
</g>
</g>
<defs>
<clipPath id="clip0_3485_9909">
<rect width="390" height="172" fill="white"/>
</clipPath>
</defs>
</svg>
