<svg width="64" height="64" viewBox="0 0 64 64" fill="none" xmlns="http://www.w3.org/2000/svg">
<rect width="64" height="64" rx="32" fill="#F5F5F5"/>
<path d="M31.9598 46.3332C24.0665 46.3332 17.6265 39.9065 17.6265 31.9998C17.6265 24.0932 24.0665 17.6665 31.9598 17.6665C39.8531 17.6665 46.2931 24.0932 46.2931 31.9998C46.2931 39.9065 39.8665 46.3332 31.9598 46.3332ZM31.9598 19.6665C25.1598 19.6665 19.6265 25.1998 19.6265 31.9998C19.6265 38.7998 25.1598 44.3332 31.9598 44.3332C38.7598 44.3332 44.2931 38.7998 44.2931 31.9998C44.2931 25.1998 38.7598 19.6665 31.9598 19.6665Z" fill="#EE2E31"/>
<path d="M29.3465 37.2667H27.6132C26.3865 37.2667 25.6665 36.5601 25.6665 35.3734V28.6267C25.6665 27.4401 26.3998 26.7334 27.6132 26.7334H29.3332C30.5598 26.7334 31.2798 27.4401 31.2798 28.6267V35.3734C31.2932 36.5601 30.5598 37.2667 29.3465 37.2667ZM27.6665 35.2667H29.2932V28.7334H27.6798L27.6665 35.2667Z" fill="#EE2E31"/>
<path d="M36.3869 37.2667H34.6669C33.4402 37.2667 32.7202 36.5601 32.7202 35.3734V28.6267C32.7202 27.4401 33.4535 26.7334 34.6669 26.7334H36.3869C37.6135 26.7334 38.3335 27.4401 38.3335 28.6267V35.3734C38.3335 36.5601 37.6002 37.2667 36.3869 37.2667ZM34.7069 35.2667H36.3335V28.7334H34.7202L34.7069 35.2667Z" fill="#EE2E31"/>
</svg>
